<svg xmlns="http://www.w3.org/2000/svg" direction="ltr" width="1700.8047834326171" height="1700.8047834326171" viewBox="18316.511717570345 11722.569564326524 1700.8047834326171 1700.8047834326171" stroke-linecap="round" stroke-linejoin="round" data-color-mode="light" class="tl-container tl-theme__force-sRGB tl-theme__light" style="background-color: transparent;"><defs/><g transform="matrix(1, 0, 0, 1, 18316.5117, 11722.5696)" opacity="1"><g transform="scale(1.1745889388346802, 1.1745889388346802)"><g>
<g xmlns="http://www.w3.org/2000/svg" stroke-width="2.00" fill="none" stroke-linecap="butt">
<path stroke="#4e8f44" vector-effect="non-scaling-stroke" d="   M 796.00 396.46   C 791.31 401.41 786.31 406.16 782.23 411.37   Q 770.37 426.55 758.16 439.29   C 751.27 446.49 745.57 454.39 738.97 461.52   C 733.25 467.72 730.89 471.19 725.41 478.54   A 0.82 0.79 -40.2 0 1 724.05 478.45   Q 723.91 478.18 723.91 477.75   Q 724.05 431.41 724.17 427.48   Q 724.54 415.23 723.82 401.01   C 723.13 387.31 724.42 369.94 724.23 353.97   C 724.14 346.64 724.21 333.82 723.57 325.15   Q 723.04 318.02 723.06 310.92   A 0.69 0.69 0.0 0 0 722.50 310.24   L 720.32 309.82"/>
<path stroke="#4b954a" vector-effect="non-scaling-stroke" d="   M 798.93 471.94   L 797.11 474.29   A 1.39 1.35 65.7 0 0 796.81 475.12   C 796.37 489.31 795.82 503.49 796.04 517.75   Q 796.27 532.40 795.74 541.01   Q 795.51 544.71 794.11 546.83   C 787.98 556.11 779.84 567.83 770.85 581.06   Q 766.50 587.46 762.45 593.40   C 757.68 600.42 752.19 606.97 747.76 614.01   Q 747.21 614.89 744.86 617.66   A 5.26 4.98 80.3 0 0 744.30 618.50   Q 741.13 624.59 736.85 630.41   C 734.52 633.57 732.77 637.02 730.96 640.49"/>
<path stroke="#408c45" vector-effect="non-scaling-stroke" d="   M 730.96 640.49   Q 729.45 642.83 729.23 645.56"/>
<path stroke="#69a749" vector-effect="non-scaling-stroke" d="   M 729.23 645.56   L 724.46 649.47   A 1.06 1.06 0.0 0 0 724.08 650.26   C 723.87 657.65 723.08 665.11 723.66 673.70   Q 723.99 678.55 723.97 684.32   Q 723.82 735.98 723.97 815.75   Q 723.98 819.31 725.79 821.72   Q 729.19 826.26 731.86 829.41   Q 741.47 840.76 750.39 851.35   Q 775.34 880.99 791.21 898.95   Q 791.34 899.09 793.84 902.43   Q 795.14 904.17 796.93 905.47"/>
<path stroke="#5c693a" vector-effect="non-scaling-stroke" d="   M 796.93 905.47   Q 796.93 906.60 795.79 908.04   Q 781.59 925.93 767.38 943.77"/>
<path stroke="#516236" vector-effect="non-scaling-stroke" d="   M 767.38 943.77   C 763.40 947.76 759.51 953.50 756.99 956.66   Q 748.98 966.70 740.87 976.66   C 736.77 981.71 730.44 988.14 725.74 994.39"/>
<path stroke="#4e8f44" vector-effect="non-scaling-stroke" d="   M 725.74 994.39   Q 724.38 992.54 724.27 990.36   Q 724.08 986.61 724.06 978.29   C 724.04 966.56 723.37 953.82 723.74 943.23   Q 724.21 929.53 724.12 920.26   Q 723.92 898.75 724.05 875.77   C 724.12 864.15 723.16 852.58 724.10 840.80   Q 724.42 836.79 724.42 828.86   Q 724.42 825.17 723.60 822.08   A 0.73 0.73 0.0 0 0 722.34 821.80   L 651.52 906.70"/>
<path stroke="#5c693a" vector-effect="non-scaling-stroke" d="   M 651.52 906.70   L 650.89 873.99   A 0.57 0.57 0.0 0 0 650.36 873.43   Q 649.34 873.36 648.59 873.02"/>
<path stroke="#4b954a" vector-effect="non-scaling-stroke" d="   M 650.22 826.11   Q 652.11 818.57 651.90 808.50   Q 651.48 787.76 652.35 761.78   C 652.47 757.93 652.23 753.57 654.26 750.74   C 659.88 742.88 665.91 732.97 671.67 724.78   Q 689.45 699.49 699.96 683.53   C 702.83 679.17 707.57 673.84 710.51 668.76   Q 715.15 660.76 716.59 658.48"/>
<path stroke="#408c45" vector-effect="non-scaling-stroke" d="   M 716.59 658.48   L 723.05 650.89   A 0.59 0.58 -56.6 0 0 722.87 649.99   L 722.34 649.73"/>
<path stroke="#69a749" vector-effect="non-scaling-stroke" d="   M 722.34 649.73   C 720.92 648.59 718.37 649.32 717.11 649.26   C 705.52 648.64 696.15 649.11 682.21 649.03   Q 635.81 648.78 556.25 649.07   Q 552.96 649.08 551.03 649.39   Q 549.22 649.68 546.62 652.01   Q 528.51 668.28 524.00 672.25   C 521.86 674.14 518.81 676.18 515.94 678.56   Q 509.65 683.80 490.77 700.12   C 483.96 706.00 476.93 711.16 469.65 716.39   Q 467.65 717.82 464.87 721.84"/>
<path stroke="#4e8f44" vector-effect="non-scaling-stroke" d="   M 372.88 649.32   Q 377.07 648.58 381.35 648.68   Q 387.83 648.83 388.34 648.82   Q 403.38 648.57 411.71 648.41   C 423.95 648.18 436.74 649.17 448.67 649.09   Q 481.61 648.85 525.50 648.79   Q 544.97 648.77 549.05 648.92   A 0.62 0.62 0.0 0 0 549.55 647.91   Q 547.81 645.80 546.77 644.98   C 538.89 638.72 529.18 629.89 522.38 624.10   C 505.33 609.58 499.56 604.94 485.74 592.48   Q 479.76 587.09 470.37 579.63   Q 467.84 577.62 465.72 574.27"/>
<path stroke="#4b954a" vector-effect="non-scaling-stroke" d="   M 546.25 573.80   Q 546.79 573.96 547.25 574.65   A 1.10 1.09 -12.4 0 0 548.01 575.13   Q 554.25 575.90 559.23 575.87   Q 598.18 575.62 617.74 576.28   Q 620.92 576.39 623.41 578.09   Q 650.73 596.77 670.21 610.51   Q 685.99 621.65 690.13 624.69   Q 703.21 634.27 710.10 638.77   C 713.72 641.14 718.31 644.99 721.57 648.02   Q 721.99 648.41 722.37 648.18   Q 722.69 648.00 722.74 647.42"/>
<path stroke="#69a749" vector-effect="non-scaling-stroke" d="   M 722.74 647.42   Q 722.93 647.67 723.13 647.79   A 0.50 0.49 -76.0 0 0 723.89 647.33   C 723.41 641.35 724.44 635.39 724.25 629.21   C 723.67 610.55 724.31 593.65 724.07 574.28   C 723.71 545.05 724.18 511.73 723.74 480.24   A 1.69 1.66 -64.2 0 0 723.41 479.27   Q 717.54 471.56 715.32 469.19   C 708.39 461.76 702.04 453.51 696.10 446.77   C 687.59 437.10 674.41 421.97 663.56 408.70   Q 659.97 404.31 651.52 397.19"/>
<path stroke="#4d9748" vector-effect="non-scaling-stroke" d="   M 722.34 649.73   C 717.58 652.78 713.37 656.27 708.58 659.39   Q 696.99 666.95 691.79 671.52   Q 690.51 672.65 682.18 678.09   Q 677.17 681.37 672.67 684.79   C 666.57 689.44 659.31 693.93 652.94 698.75   C 646.27 703.79 642.25 707.01 635.37 711.37   Q 630.37 714.53 623.11 719.59   Q 621.13 720.97 618.29 720.99   Q 578.79 721.22 547.52 722.04   A 1.36 1.29 25.7 0 0 546.80 722.27   L 542.39 725.24"/>
<path stroke="#58a04c" vector-effect="non-scaling-stroke" d="   M 722.74 647.42   L 713.29 633.20"/>
<path stroke="#4d9748" vector-effect="non-scaling-stroke" d="   M 713.29 633.20   Q 708.86 626.19 703.92 619.47   Q 697.60 610.88 694.35 605.92   C 682.93 588.51 669.90 570.44 657.70 551.71   C 656.12 549.28 654.33 547.33 652.96 544.79   Q 652.22 543.42 652.26 538.62   Q 652.55 506.61 651.42 476.73   Q 651.29 473.50 649.38 472.09   Q 649.05 471.85 648.97 471.63   Q 648.84 471.30 648.95 471.01"/>
<path stroke="#512f2a" vector-effect="non-scaling-stroke" d="   M 724.64 1160.49   Q 723.91 1151.99 723.94 1143.48   C 724.08 1107.38 723.53 1082.24 723.93 1050.03   Q 724.11 1035.24 723.97 1008.08   Q 723.96 1007.56 723.79 1002.47   Q 723.69 999.43 723.94 996.41"/>
<path stroke="#2f8549" vector-effect="non-scaling-stroke" d="   M 716.59 658.48   C 711.25 660.48 708.36 664.59 705.27 668.17   A 19.74 19.41 2.0 0 1 701.90 671.26   Q 694.07 676.91 688.27 684.01   C 684.78 688.28 680.97 691.56 677.17 694.91   C 674.17 697.55 672.05 700.26 669.48 703.22   C 664.13 709.37 657.32 713.98 651.75 720.04   C 647.73 724.41 644.95 728.19 640.30 732.48   C 633.47 738.79 628.35 745.20 621.24 751.17   Q 615.94 755.63 606.15 766.55   C 602.33 770.82 600.90 774.30 600.64 779.67   Q 599.26 807.98 597.53 828.73   Q 596.40 842.30 595.39 871.86   Q 595.27 875.45 596.30 878.40"/>
<path stroke="#405939" vector-effect="non-scaling-stroke" d="   M 596.30 878.40   Q 594.91 880.04 593.45 880.24   Q 584.79 881.44 533.81 887.62   C 530.18 888.06 526.65 888.01 523.04 888.64   Q 520.62 889.06 518.22 889.35"/>
<path stroke="#187240" vector-effect="non-scaling-stroke" d="   M 479.39 893.49   Q 488.32 882.29 491.88 879.14   C 498.08 873.65 503.73 868.68 509.16 863.08   Q 526.70 845.00 529.47 842.47   C 541.28 831.64 554.34 817.08 565.09 806.77   Q 575.75 796.54 598.25 773.25   Q 599.32 772.13 600.06 771.11   A 0.46 0.46 0.0 0 0 599.62 770.38   C 596.46 770.87 592.39 771.69 589.04 771.97   Q 550.12 775.22 514.90 778.63   Q 505.83 779.51 490.76 777.48"/>
<path stroke="#58a04c" vector-effect="non-scaling-stroke" d="   M 604.14 871.33   Q 601.54 872.27 602.43 873.31"/>
<path stroke="#4a623e" vector-effect="non-scaling-stroke" d="   M 602.43 873.31   L 596.30 878.40"/>
<path stroke="#187240" vector-effect="non-scaling-stroke" d="   M 968.20 404.03   Q 965.42 408.64 963.16 411.16   C 958.14 416.73 951.08 422.54 946.35 427.35   Q 928.91 445.11 917.02 456.15   C 904.96 467.36 893.63 480.88 880.37 492.76   C 872.18 500.10 865.25 508.31 857.15 516.74   Q 851.55 522.57 848.18 525.42   A 0.30 0.29 26.9 0 0 848.35 525.94   Q 851.98 526.19 858.29 525.13   Q 861.89 524.52 868.16 524.12   Q 901.99 521.91 937.62 517.10   Q 943.59 516.30 954.37 517.05   A 1.27 1.27 0.0 0 1 955.19 517.42   Q 955.88 518.12 956.06 519.37"/>
<path stroke="#4d9748" vector-effect="non-scaling-stroke" d="   M 901.31 574.21   Q 901.41 574.58 899.57 575.03   A 2.78 2.45 -48.6 0 1 898.93 575.11   Q 861.36 575.98 831.41 576.84   Q 826.87 576.97 822.03 580.26   Q 800.72 594.73 779.66 609.67   Q 769.27 617.04 760.93 622.44   C 755.59 625.89 749.79 631.68 744.78 634.90   Q 739.93 638.02 738.34 639.06   Q 735.70 640.78 733.75 642.26   Q 731.54 643.93 729.23 645.56"/>
<path stroke="#2f8549" vector-effect="non-scaling-stroke" d="   M 730.96 640.49   Q 750.83 623.60 760.73 612.98   Q 766.34 606.97 768.91 604.49   Q 775.54 598.11 777.30 596.21   C 786.75 586.00 797.20 576.41 806.67 566.36   Q 812.69 559.96 823.66 549.58   C 829.78 543.78 834.68 538.49 842.01 531.26   C 845.43 527.90 847.45 524.72 847.67 520.25   Q 848.97 493.86 849.19 490.96   Q 851.33 463.49 853.38 436.80   Q 854.11 427.41 852.31 418.13"/>
<path stroke="#408c45" vector-effect="non-scaling-stroke" d="   M 915.76 409.41   Q 926.71 409.34 937.40 407.21"/>
<path stroke="#408c45" vector-effect="non-scaling-stroke" d="   M 940.38 406.60   Q 948.88 406.59 957.12 404.74"/>
<path stroke="#69a749" vector-effect="non-scaling-stroke" d="   M 983.12 574.24   Q 976.65 580.65 969.89 586.30   Q 957.69 596.48 956.23 597.86   C 949.37 604.28 942.73 609.35 934.83 616.31   Q 919.74 629.57 902.49 644.63   Q 900.81 646.09 900.32 646.71   C 898.13 649.46 895.57 648.81 891.20 648.82   Q 890.89 648.82 885.25 648.82   Q 769.23 648.87 758.19 648.99   Q 742.40 649.17 726.75 649.30   A 1.25 1.15 -56.1 0 0 726.21 649.43   Q 725.16 649.94 726.02 650.51"/>
<path stroke="#4d9748" vector-effect="non-scaling-stroke" d="   M 726.02 650.51   Q 726.13 651.60 726.33 651.93   Q 735.45 666.83 744.08 677.91   C 749.87 685.34 753.09 691.77 759.17 699.99   Q 762.82 704.93 770.73 716.59   Q 788.13 742.27 795.20 752.55   Q 796.06 753.79 796.10 756.66   Q 796.70 801.46 796.67 818.50   Q 796.66 824.10 798.98 826.42"/>
<path stroke="#69743d" vector-effect="non-scaling-stroke" d="   M 798.62 872.87   Q 796.98 873.04 797.02 876.00   Q 797.24 890.10 796.93 905.47"/>
<path stroke="#512f2a" vector-effect="non-scaling-stroke" d="   M 679.99 942.25   Q 671.66 943.74 661.69 943.67   Q 628.51 943.42 594.89 943.18   Q 584.28 943.10 571.73 943.34   Q 560.15 943.55 548.59 943.67   Q 548.09 943.67 547.79 943.77"/>
<path stroke="#435634" vector-effect="non-scaling-stroke" d="   M 725.74 994.39   Q 725.47 995.61 723.94 996.41"/>
<path stroke="#4e5d38" vector-effect="non-scaling-stroke" d="   M 723.94 996.41   L 714.32 984.97"/>
<path stroke="#435634" vector-effect="non-scaling-stroke" d="   M 714.32 984.97   L 679.99 942.25"/>
<path stroke="#4e5d38" vector-effect="non-scaling-stroke" d="   M 679.99 942.25   L 651.52 906.70"/>
<path stroke="#512f2a" vector-effect="non-scaling-stroke" d="   M 899.16 943.65   Q 891.77 943.78 883.87 943.50   Q 873.82 943.14 868.61 943.18   Q 805.35 943.66 774.75 943.67   C 772.26 943.67 769.69 942.05 767.38 943.77"/>
<path stroke="#2f8549" vector-effect="non-scaling-stroke" d="   M 713.29 633.20   Q 713.34 635.32 712.04 635.41   A 0.65 0.59 -26.6 0 1 711.65 635.30   Q 704.69 630.43 700.61 625.89   Q 694.51 619.10 691.32 616.13   C 683.19 608.54 676.24 601.57 669.88 594.96   Q 637.48 561.23 601.82 527.23   A 2.04 2.00 -16.6 0 0 600.85 526.72   Q 594.83 525.44 585.09 524.44   Q 567.31 522.62 562.37 522.35   Q 549.77 521.66 539.67 520.26   Q 533.54 519.41 506.83 516.94   Q 498.41 516.16 491.21 518.53"/>
<path stroke="#69743d" vector-effect="non-scaling-stroke" d="   M 606.12 872.32   Q 604.90 873.18 602.43 873.31"/>
<path stroke="#2f8549" vector-effect="non-scaling-stroke" d="   M 735.98 658.02   Q 736.80 661.05 738.90 663.13   Q 745.75 669.93 746.98 671.35   C 750.36 675.24 753.72 679.14 758.27 683.22   Q 762.59 687.10 767.20 692.05   C 774.70 700.11 780.62 705.68 787.22 712.71   C 794.61 720.58 802.04 725.82 809.11 733.24   C 813.48 737.83 819.27 742.84 824.62 748.62   Q 831.87 756.45 846.36 769.96   A 4.56 4.43 72.8 0 0 848.32 771.03   C 856.06 772.96 864.43 772.36 871.29 772.95   C 883.51 774.02 895.55 774.54 907.87 775.94   Q 924.30 777.80 940.76 779.25   C 946.22 779.74 951.53 779.77 956.04 776.65"/>
<path stroke="#187240" vector-effect="non-scaling-stroke" d="   M 968.24 892.70   C 964.08 889.23 961.12 885.40 957.29 881.71   Q 954.59 879.11 951.56 875.56   Q 945.69 868.70 944.49 867.69   Q 936.62 861.07 933.55 857.95   C 928.30 852.62 918.66 842.19 911.21 835.03   Q 897.23 821.59 870.86 794.87   Q 865.61 789.54 862.72 786.83   C 859.42 783.73 854.54 779.60 850.97 775.48   Q 848.78 772.96 847.18 771.64   A 0.59 0.59 0.0 0 0 846.22 772.03   Q 846.02 773.57 846.21 775.12   C 848.08 790.59 848.35 805.17 849.98 820.19   Q 850.73 827.11 851.14 839.68   Q 851.80 859.87 854.39 880.21"/>
<path stroke="#405939" vector-effect="non-scaling-stroke" d="   M 854.39 880.21   L 845.77 873.64   A 1.35 1.29 68.2 0 0 845.29 873.42   L 844.79 873.31"/>
<path stroke="#4d9748" vector-effect="non-scaling-stroke" d="   M 844.79 873.31   Q 845.19 873.29 845.32 873.06   Q 845.45 872.84 845.25 872.49   Q 844.50 871.19 842.90 871.13"/>
<path stroke="#4e8f44" vector-effect="non-scaling-stroke" d="   M 1074.44 650.61   Q 1070.39 648.87 1067.35 648.66   Q 1063.50 648.40 1053.64 648.67   C 1041.51 649.00 1026.66 649.06 1012.46 648.46   Q 999.21 647.89 988.58 648.22   Q 974.00 648.66 964.71 648.69   Q 907.66 648.91 899.99 648.95   A 0.73 0.73 0.0 0 0 899.54 650.25   C 906.92 656.22 913.34 662.35 920.56 668.25   Q 940.02 684.19 959.09 701.24   Q 965.49 706.96 976.51 714.73   Q 980.00 717.20 981.35 721.63"/>
<path stroke="#4b954a" vector-effect="non-scaling-stroke" d="   M 903.07 722.78   C 896.67 722.25 890.14 721.37 883.96 721.31   Q 835.36 720.81 831.50 720.81   Q 827.04 720.82 823.70 718.56   C 817.06 714.07 806.99 707.44 799.37 701.54   Q 792.21 696.01 789.07 694.02   Q 782.31 689.75 778.92 687.13   C 772.00 681.80 766.32 678.18 759.73 674.00   Q 756.86 672.19 750.78 667.44   Q 743.85 662.04 735.98 658.02"/>
<path stroke="#408c45" vector-effect="non-scaling-stroke" d="   M 735.98 658.02   Q 731.69 655.10 727.74 651.55   Q 727.63 651.45 727.02 650.66   Q 726.57 650.07 726.02 650.51"/>
<path stroke="#512f2a" vector-effect="non-scaling-stroke" d="   M 714.32 984.97   Q 713.85 985.43 713.18 985.58   A 0.45 0.44 79.2 0 1 712.66 985.22   Q 712.64 985.13 712.67 984.92   A 0.81 0.80 -66.0 0 0 712.42 984.25   C 708.03 980.14 705.83 974.18 698.80 974.23   Q 637.02 974.68 580.79 974.37   Q 570.86 974.32 560.32 975.28   Q 557.45 975.54 554.86 977.54"/>
<path stroke="#334f35" vector-effect="non-scaling-stroke" d="   M 929.29 888.98   Q 914.27 888.03 897.53 885.71   Q 877.99 882.99 858.39 880.73   Q 856.41 880.50 854.39 880.21"/>
<path stroke="#69743d" vector-effect="non-scaling-stroke" d="   M 844.79 873.31   L 840.77 872.31"/>
<path stroke="#187240" vector-effect="non-scaling-stroke" d="   M 594.46 417.74   Q 593.20 429.59 594.65 441.25   Q 595.61 449.05 595.76 452.46   C 596.17 461.88 597.48 472.22 597.95 480.54   Q 598.33 487.37 599.36 500.01   C 600.06 508.55 600.02 516.32 601.00 524.59   A 0.49 0.49 0.0 0 1 600.16 525.00   Q 594.68 519.39 581.89 507.33   Q 572.89 498.84 563.71 489.04   C 555.86 480.66 546.23 472.28 537.83 463.62   Q 511.97 436.98 494.12 419.88   Q 485.18 411.32 480.08 405.96   A 0.71 0.70 -35.2 0 0 479.25 405.82   Q 478.90 406.00 478.59 406.31"/>
</g>
<path xmlns="http://www.w3.org/2000/svg" fill="#408342" d="   M 796.00 396.46   C 791.31 401.41 786.31 406.16 782.23 411.37   Q 770.37 426.55 758.16 439.29   C 751.27 446.49 745.57 454.39 738.97 461.52   C 733.25 467.72 730.89 471.19 725.41 478.54   A 0.82 0.79 -40.2 0 1 724.05 478.45   Q 723.91 478.18 723.91 477.75   Q 724.05 431.41 724.17 427.48   Q 724.54 415.23 723.82 401.01   C 723.13 387.31 724.42 369.94 724.23 353.97   C 724.14 346.64 724.21 333.82 723.57 325.15   Q 723.04 318.02 723.06 310.92   A 0.69 0.69 0.0 0 0 722.50 310.24   L 720.32 309.82   Q 721.63 308.23 723.01 307.49   A 2.11 2.11 0.0 0 1 725.63 307.98   C 732.38 315.91 738.70 324.32 745.24 332.25   Q 779.71 374.09 794.62 392.12   Q 795.82 393.57 796.00 396.46   Z"/>
<path xmlns="http://www.w3.org/2000/svg" fill="#5c9b46" d="   M 720.32 309.82   L 722.50 310.24   A 0.69 0.69 0.0 0 1 723.06 310.92   Q 723.04 318.02 723.57 325.15   C 724.21 333.82 724.14 346.64 724.23 353.97   C 724.42 369.94 723.13 387.31 723.82 401.01   Q 724.54 415.23 724.17 427.48   Q 724.05 431.41 723.91 477.75   Q 723.91 478.18 724.05 478.45   A 0.82 0.79 -40.2 0 0 725.41 478.54   C 730.89 471.19 733.25 467.72 738.97 461.52   C 745.57 454.39 751.27 446.49 758.16 439.29   Q 770.37 426.55 782.23 411.37   C 786.31 406.16 791.31 401.41 796.00 396.46   L 796.34 471.31   A 0.51 0.51 0.0 0 0 796.82 471.82   L 798.93 471.94   L 797.11 474.29   A 1.39 1.35 65.7 0 0 796.81 475.12   C 796.37 489.31 795.82 503.49 796.04 517.75   Q 796.27 532.40 795.74 541.01   Q 795.51 544.71 794.11 546.83   C 787.98 556.11 779.84 567.83 770.85 581.06   Q 766.50 587.46 762.45 593.40   C 757.68 600.42 752.19 606.97 747.76 614.01   Q 747.21 614.89 744.86 617.66   A 5.26 4.98 80.3 0 0 744.30 618.50   Q 741.13 624.59 736.85 630.41   C 734.52 633.57 732.77 637.02 730.96 640.49   Q 729.45 642.83 729.23 645.56   L 724.46 649.47   A 1.06 1.06 0.0 0 0 724.08 650.26   C 723.87 657.65 723.08 665.11 723.66 673.70   Q 723.99 678.55 723.97 684.32   Q 723.82 735.98 723.97 815.75   Q 723.98 819.31 725.79 821.72   Q 729.19 826.26 731.86 829.41   Q 741.47 840.76 750.39 851.35   Q 775.34 880.99 791.21 898.95   Q 791.34 899.09 793.84 902.43   Q 795.14 904.17 796.93 905.47   Q 796.93 906.60 795.79 908.04   Q 781.59 925.93 767.38 943.77   C 763.40 947.76 759.51 953.50 756.99 956.66   Q 748.98 966.70 740.87 976.66   C 736.77 981.71 730.44 988.14 725.74 994.39   Q 724.38 992.54 724.27 990.36   Q 724.08 986.61 724.06 978.29   C 724.04 966.56 723.37 953.82 723.74 943.23   Q 724.21 929.53 724.12 920.26   Q 723.92 898.75 724.05 875.77   C 724.12 864.15 723.16 852.58 724.10 840.80   Q 724.42 836.79 724.42 828.86   Q 724.42 825.17 723.60 822.08   A 0.73 0.73 0.0 0 0 722.34 821.80   L 651.52 906.70   L 650.89 873.99   A 0.57 0.57 0.0 0 0 650.36 873.43   Q 649.34 873.36 648.59 873.02   Q 650.92 871.51 650.91 868.50   Q 650.88 856.07 650.61 843.65   Q 650.61 843.29 650.89 834.87   Q 651.04 830.40 650.22 826.11   Q 652.11 818.57 651.90 808.50   Q 651.48 787.76 652.35 761.78   C 652.47 757.93 652.23 753.57 654.26 750.74   C 659.88 742.88 665.91 732.97 671.67 724.78   Q 689.45 699.49 699.96 683.53   C 702.83 679.17 707.57 673.84 710.51 668.76   Q 715.15 660.76 716.59 658.48   L 723.05 650.89   A 0.59 0.58 -56.6 0 0 722.87 649.99   L 722.34 649.73   C 720.92 648.59 718.37 649.32 717.11 649.26   C 705.52 648.64 696.15 649.11 682.21 649.03   Q 635.81 648.78 556.25 649.07   Q 552.96 649.08 551.03 649.39   Q 549.22 649.68 546.62 652.01   Q 528.51 668.28 524.00 672.25   C 521.86 674.14 518.81 676.18 515.94 678.56   Q 509.65 683.80 490.77 700.12   C 483.96 706.00 476.93 711.16 469.65 716.39   Q 467.65 717.82 464.87 721.84   Q 462.54 721.14 461.03 719.96   Q 427.54 694.00 394.43 667.55   Q 385.06 660.07 375.70 652.56   Q 374.61 651.69 372.88 649.32   Q 377.07 648.58 381.35 648.68   Q 387.83 648.83 388.34 648.82   Q 403.38 648.57 411.71 648.41   C 423.95 648.18 436.74 649.17 448.67 649.09   Q 481.61 648.85 525.50 648.79   Q 544.97 648.77 549.05 648.92   A 0.62 0.62 0.0 0 0 549.55 647.91   Q 547.81 645.80 546.77 644.98   C 538.89 638.72 529.18 629.89 522.38 624.10   C 505.33 609.58 499.56 604.94 485.74 592.48   Q 479.76 587.09 470.37 579.63   Q 467.84 577.62 465.72 574.27   Q 495.80 573.85 525.23 574.56   C 529.55 574.67 534.62 574.59 539.74 575.05   Q 543.37 575.38 546.25 573.80   Q 546.79 573.96 547.25 574.65   A 1.10 1.09 -12.4 0 0 548.01 575.13   Q 554.25 575.90 559.23 575.87   Q 598.18 575.62 617.74 576.28   Q 620.92 576.39 623.41 578.09   Q 650.73 596.77 670.21 610.51   Q 685.99 621.65 690.13 624.69   Q 703.21 634.27 710.10 638.77   C 713.72 641.14 718.31 644.99 721.57 648.02   Q 721.99 648.41 722.37 648.18   Q 722.69 648.00 722.74 647.42   Q 722.93 647.67 723.13 647.79   A 0.50 0.49 -76.0 0 0 723.89 647.33   C 723.41 641.35 724.44 635.39 724.25 629.21   C 723.67 610.55 724.31 593.65 724.07 574.28   C 723.71 545.05 724.18 511.73 723.74 480.24   A 1.69 1.66 -64.2 0 0 723.41 479.27   Q 717.54 471.56 715.32 469.19   C 708.39 461.76 702.04 453.51 696.10 446.77   C 687.59 437.10 674.41 421.97 663.56 408.70   Q 659.97 404.31 651.52 397.19   Q 651.52 394.09 652.99 392.24   Q 674.64 365.05 711.05 321.58   C 714.12 317.90 717.18 313.71 720.32 309.82   Z"/>
<path xmlns="http://www.w3.org/2000/svg" fill="#76b24b" d="   M 722.74 647.42   L 713.29 633.20   Q 708.86 626.19 703.92 619.47   Q 697.60 610.88 694.35 605.92   C 682.93 588.51 669.90 570.44 657.70 551.71   C 656.12 549.28 654.33 547.33 652.96 544.79   Q 652.22 543.42 652.26 538.62   Q 652.55 506.61 651.42 476.73   Q 651.29 473.50 649.38 472.09   Q 649.05 471.85 648.97 471.63   Q 648.84 471.30 648.95 471.01   Q 649.75 470.96 650.26 470.67   A 1.09 1.08 80.6 0 0 650.80 469.91   C 651.23 467.37 651.73 465.19 651.61 462.39   Q 650.25 429.91 651.52 397.19   Q 659.97 404.31 663.56 408.70   C 674.41 421.97 687.59 437.10 696.10 446.77   C 702.04 453.51 708.39 461.76 715.32 469.19   Q 717.54 471.56 723.41 479.27   A 1.69 1.66 -64.2 0 1 723.74 480.24   C 724.18 511.73 723.71 545.05 724.07 574.28   C 724.31 593.65 723.67 610.55 724.25 629.21   C 724.44 635.39 723.41 641.35 723.89 647.33   A 0.50 0.49 -76.0 0 1 723.13 647.79   Q 722.93 647.67 722.74 647.42   Z"/>
<path xmlns="http://www.w3.org/2000/svg" fill="#0b673b" d="   M 594.46 417.74   Q 593.20 429.59 594.65 441.25   Q 595.61 449.05 595.76 452.46   C 596.17 461.88 597.48 472.22 597.95 480.54   Q 598.33 487.37 599.36 500.01   C 600.06 508.55 600.02 516.32 601.00 524.59   A 0.49 0.49 0.0 0 1 600.16 525.00   Q 594.68 519.39 581.89 507.33   Q 572.89 498.84 563.71 489.04   C 555.86 480.66 546.23 472.28 537.83 463.62   Q 511.97 436.98 494.12 419.88   Q 485.18 411.32 480.08 405.96   A 0.71 0.70 -35.2 0 0 479.25 405.82   Q 478.90 406.00 478.59 406.31   L 478.46 405.04   A 1.49 1.48 -0.3 0 1 480.07 403.42   Q 489.62 404.24 498.54 405.44   Q 512.49 407.33 516.00 407.74   Q 533.85 409.86 551.73 411.73   Q 571.53 413.79 590.72 415.76   Q 593.06 416.00 594.46 417.74   Z"/>
<path xmlns="http://www.w3.org/2000/svg" fill="#247c44" d="   M 968.20 404.03   Q 965.42 408.64 963.16 411.16   C 958.14 416.73 951.08 422.54 946.35 427.35   Q 928.91 445.11 917.02 456.15   C 904.96 467.36 893.63 480.88 880.37 492.76   C 872.18 500.10 865.25 508.31 857.15 516.74   Q 851.55 522.57 848.18 525.42   A 0.30 0.29 26.9 0 0 848.35 525.94   Q 851.98 526.19 858.29 525.13   Q 861.89 524.52 868.16 524.12   Q 901.99 521.91 937.62 517.10   Q 943.59 516.30 954.37 517.05   A 1.27 1.27 0.0 0 1 955.19 517.42   Q 955.88 518.12 956.06 519.37   C 939.67 535.84 922.95 552.06 906.79 568.78   Q 906.42 569.16 903.82 571.28   Q 902.32 572.50 901.31 574.21   Q 901.41 574.58 899.57 575.03   A 2.78 2.45 -48.6 0 1 898.93 575.11   Q 861.36 575.98 831.41 576.84   Q 826.87 576.97 822.03 580.26   Q 800.72 594.73 779.66 609.67   Q 769.27 617.04 760.93 622.44   C 755.59 625.89 749.79 631.68 744.78 634.90   Q 739.93 638.02 738.34 639.06   Q 735.70 640.78 733.75 642.26   Q 731.54 643.93 729.23 645.56   Q 729.45 642.83 730.96 640.49   Q 750.83 623.60 760.73 612.98   Q 766.34 606.97 768.91 604.49   Q 775.54 598.11 777.30 596.21   C 786.75 586.00 797.20 576.41 806.67 566.36   Q 812.69 559.96 823.66 549.58   C 829.78 543.78 834.68 538.49 842.01 531.26   C 845.43 527.90 847.45 524.72 847.67 520.25   Q 848.97 493.86 849.19 490.96   Q 851.33 463.49 853.38 436.80   Q 854.11 427.41 852.31 418.13   Q 854.44 416.27 857.63 415.88   C 871.77 414.18 886.04 413.12 900.08 411.33   Q 907.99 410.33 915.76 409.41   Q 926.71 409.34 937.40 407.21   Q 938.30 406.30 940.38 406.60   Q 948.88 406.59 957.12 404.74   Q 962.19 403.44 968.20 404.03   Z"/>
<path xmlns="http://www.w3.org/2000/svg" fill="#0b673b" d="   M 968.20 404.03   Q 969.76 405.03 969.39 409.01   Q 966.31 442.86 963.52 476.75   Q 962.07 494.50 960.07 512.19   Q 959.60 516.34 956.06 519.37   Q 955.88 518.12 955.19 517.42   A 1.27 1.27 0.0 0 0 954.37 517.05   Q 943.59 516.30 937.62 517.10   Q 901.99 521.91 868.16 524.12   Q 861.89 524.52 858.29 525.13   Q 851.98 526.19 848.35 525.94   A 0.30 0.29 26.9 0 1 848.18 525.42   Q 851.55 522.57 857.15 516.74   C 865.25 508.31 872.18 500.10 880.37 492.76   C 893.63 480.88 904.96 467.36 917.02 456.15   Q 928.91 445.11 946.35 427.35   C 951.08 422.54 958.14 416.73 963.16 411.16   Q 965.42 408.64 968.20 404.03   Z"/>
<path xmlns="http://www.w3.org/2000/svg" fill="#5c9b46" d="   M 957.12 404.74   Q 948.88 406.59 940.38 406.60   Q 948.63 404.97 957.12 404.74   Z"/>
<path xmlns="http://www.w3.org/2000/svg" fill="#247c44" d="   M 594.46 417.74   Q 596.56 419.35 600.28 422.97   Q 608.27 430.72 614.89 437.44   Q 621.26 443.92 624.64 447.08   C 633.44 455.30 639.97 462.89 647.47 470.50   Q 647.78 470.82 648.95 471.01   Q 648.84 471.30 648.97 471.63   Q 649.05 471.85 649.38 472.09   Q 651.29 473.50 651.42 476.73   Q 652.55 506.61 652.26 538.62   Q 652.22 543.42 652.96 544.79   C 654.33 547.33 656.12 549.28 657.70 551.71   C 669.90 570.44 682.93 588.51 694.35 605.92   Q 697.60 610.88 703.92 619.47   Q 708.86 626.19 713.29 633.20   Q 713.34 635.32 712.04 635.41   A 0.65 0.59 -26.6 0 1 711.65 635.30   Q 704.69 630.43 700.61 625.89   Q 694.51 619.10 691.32 616.13   C 683.19 608.54 676.24 601.57 669.88 594.96   Q 637.48 561.23 601.82 527.23   A 2.04 2.00 -16.6 0 0 600.85 526.72   Q 594.83 525.44 585.09 524.44   Q 567.31 522.62 562.37 522.35   Q 549.77 521.66 539.67 520.26   Q 533.54 519.41 506.83 516.94   Q 498.41 516.16 491.21 518.53   Q 487.84 515.73 487.49 512.00   Q 485.56 491.25 483.79 470.48   Q 481.16 439.49 478.66 408.49   Q 478.57 407.38 478.59 406.31   Q 478.90 406.00 479.25 405.82   A 0.71 0.70 -35.2 0 1 480.08 405.96   Q 485.18 411.32 494.12 419.88   Q 511.97 436.98 537.83 463.62   C 546.23 472.28 555.86 480.66 563.71 489.04   Q 572.89 498.84 581.89 507.33   Q 594.68 519.39 600.16 525.00   A 0.49 0.49 0.0 0 0 601.00 524.59   C 600.02 516.32 600.06 508.55 599.36 500.01   Q 598.33 487.37 597.95 480.54   C 597.48 472.22 596.17 461.88 595.76 452.46   Q 595.61 449.05 594.65 441.25   Q 593.20 429.59 594.46 417.74   Z"/>
<path xmlns="http://www.w3.org/2000/svg" fill="#5c9b46" d="   M 937.40 407.21   Q 926.71 409.34 915.76 409.41   L 937.40 407.21   Z"/>
<path xmlns="http://www.w3.org/2000/svg" fill="#398e4d" d="   M 852.31 418.13   Q 854.11 427.41 853.38 436.80   Q 851.33 463.49 849.19 490.96   Q 848.97 493.86 847.67 520.25   C 847.45 524.72 845.43 527.90 842.01 531.26   C 834.68 538.49 829.78 543.78 823.66 549.58   Q 812.69 559.96 806.67 566.36   C 797.20 576.41 786.75 586.00 777.30 596.21   Q 775.54 598.11 768.91 604.49   Q 766.34 606.97 760.73 612.98   Q 750.83 623.60 730.96 640.49   C 732.77 637.02 734.52 633.57 736.85 630.41   Q 741.13 624.59 744.30 618.50   A 5.26 4.98 80.3 0 1 744.86 617.66   Q 747.21 614.89 747.76 614.01   C 752.19 606.97 757.68 600.42 762.45 593.40   Q 766.50 587.46 770.85 581.06   C 779.84 567.83 787.98 556.11 794.11 546.83   Q 795.51 544.71 795.74 541.01   Q 796.27 532.40 796.04 517.75   C 795.82 503.49 796.37 489.31 796.81 475.12   A 1.39 1.35 65.7 0 1 797.11 474.29   L 798.93 471.94   Q 801.72 469.23 804.40 466.24   Q 808.41 461.79 809.74 460.40   Q 829.01 440.34 848.96 420.96   Q 850.44 419.53 852.31 418.13   Z"/>
<path xmlns="http://www.w3.org/2000/svg" fill="#398e4d" d="   M 713.29 633.20   L 722.74 647.42   Q 722.69 648.00 722.37 648.18   Q 721.99 648.41 721.57 648.02   C 718.31 644.99 713.72 641.14 710.10 638.77   Q 703.21 634.27 690.13 624.69   Q 685.99 621.65 670.21 610.51   Q 650.73 596.77 623.41 578.09   Q 620.92 576.39 617.74 576.28   Q 598.18 575.62 559.23 575.87   Q 554.25 575.90 548.01 575.13   A 1.10 1.09 -12.4 0 1 547.25 574.65   Q 546.79 573.96 546.25 573.80   Q 546.25 573.61 546.25 573.44   A 0.90 0.89 -75.9 0 0 545.80 572.68   L 543.24 571.20   A 2.03 2.00 -6.8 0 1 542.84 570.89   L 491.21 518.53   Q 498.41 516.16 506.83 516.94   Q 533.54 519.41 539.67 520.26   Q 549.77 521.66 562.37 522.35   Q 567.31 522.62 585.09 524.44   Q 594.83 525.44 600.85 526.72   A 2.04 2.00 -16.6 0 1 601.82 527.23   Q 637.48 561.23 669.88 594.96   C 676.24 601.57 683.19 608.54 691.32 616.13   Q 694.51 619.10 700.61 625.89   Q 704.69 630.43 711.65 635.30   A 0.65 0.59 -26.6 0 0 712.04 635.41   Q 713.34 635.32 713.29 633.20   Z"/>
<path xmlns="http://www.w3.org/2000/svg" fill="#76b24b" d="   M 983.12 574.24   Q 976.65 580.65 969.89 586.30   Q 957.69 596.48 956.23 597.86   C 949.37 604.28 942.73 609.35 934.83 616.31   Q 919.74 629.57 902.49 644.63   Q 900.81 646.09 900.32 646.71   C 898.13 649.46 895.57 648.81 891.20 648.82   Q 890.89 648.82 885.25 648.82   Q 769.23 648.87 758.19 648.99   Q 742.40 649.17 726.75 649.30   A 1.25 1.15 -56.1 0 0 726.21 649.43   Q 725.16 649.94 726.02 650.51   Q 726.13 651.60 726.33 651.93   Q 735.45 666.83 744.08 677.91   C 749.87 685.34 753.09 691.77 759.17 699.99   Q 762.82 704.93 770.73 716.59   Q 788.13 742.27 795.20 752.55   Q 796.06 753.79 796.10 756.66   Q 796.70 801.46 796.67 818.50   Q 796.66 824.10 798.98 826.42   L 796.89 827.02   A 0.67 0.67 0.0 0 0 796.41 827.69   Q 797.45 849.52 796.93 868.31   Q 796.86 870.70 798.62 872.87   Q 796.98 873.04 797.02 876.00   Q 797.24 890.10 796.93 905.47   Q 795.14 904.17 793.84 902.43   Q 791.34 899.09 791.21 898.95   Q 775.34 880.99 750.39 851.35   Q 741.47 840.76 731.86 829.41   Q 729.19 826.26 725.79 821.72   Q 723.98 819.31 723.97 815.75   Q 723.82 735.98 723.97 684.32   Q 723.99 678.55 723.66 673.70   C 723.08 665.11 723.87 657.65 724.08 650.26   A 1.06 1.06 0.0 0 1 724.46 649.47   L 729.23 645.56   Q 731.54 643.93 733.75 642.26   Q 735.70 640.78 738.34 639.06   Q 739.93 638.02 744.78 634.90   C 749.79 631.68 755.59 625.89 760.93 622.44   Q 769.27 617.04 779.66 609.67   Q 800.72 594.73 822.03 580.26   Q 826.87 576.97 831.41 576.84   Q 861.36 575.98 898.93 575.11   A 2.78 2.45 -48.6 0 0 899.57 575.03   Q 901.41 574.58 901.31 574.21   Q 906.60 575.59 912.20 574.54   A 6.92 6.90 -50.8 0 1 913.37 574.42   Q 941.68 574.03 970.00 573.79   Q 978.40 573.71 983.12 574.24   Z"/>
<path xmlns="http://www.w3.org/2000/svg" fill="#5c9b46" d="   M 1074.44 650.61   Q 1070.39 648.87 1067.35 648.66   Q 1063.50 648.40 1053.64 648.67   C 1041.51 649.00 1026.66 649.06 1012.46 648.46   Q 999.21 647.89 988.58 648.22   Q 974.00 648.66 964.71 648.69   Q 907.66 648.91 899.99 648.95   A 0.73 0.73 0.0 0 0 899.54 650.25   C 906.92 656.22 913.34 662.35 920.56 668.25   Q 940.02 684.19 959.09 701.24   Q 965.49 706.96 976.51 714.73   Q 980.00 717.20 981.35 721.63   Q 953.53 721.55 925.84 722.00   C 918.75 722.11 912.97 721.51 906.50 721.74   Q 905.82 721.76 903.34 721.26   A 0.75 0.75 0.0 0 0 902.45 722.11   Q 902.49 722.36 903.07 722.78   C 896.67 722.25 890.14 721.37 883.96 721.31   Q 835.36 720.81 831.50 720.81   Q 827.04 720.82 823.70 718.56   C 817.06 714.07 806.99 707.44 799.37 701.54   Q 792.21 696.01 789.07 694.02   Q 782.31 689.75 778.92 687.13   C 772.00 681.80 766.32 678.18 759.73 674.00   Q 756.86 672.19 750.78 667.44   Q 743.85 662.04 735.98 658.02   Q 731.69 655.10 727.74 651.55   Q 727.63 651.45 727.02 650.66   Q 726.57 650.07 726.02 650.51   Q 725.16 649.94 726.21 649.43   A 1.25 1.15 -56.1 0 1 726.75 649.30   Q 742.40 649.17 758.19 648.99   Q 769.23 648.87 885.25 648.82   Q 890.89 648.82 891.20 648.82   C 895.57 648.81 898.13 649.46 900.32 646.71   Q 900.81 646.09 902.49 644.63   Q 919.74 629.57 934.83 616.31   C 942.73 609.35 949.37 604.28 956.23 597.86   Q 957.69 596.48 969.89 586.30   Q 976.65 580.65 983.12 574.24   Q 984.41 574.42 985.52 575.21   Q 991.13 579.26 1006.31 591.41   C 1029.39 609.90 1052.11 627.56 1076.57 647.32   A 0.60 0.60 0.0 0 1 1076.64 648.19   L 1074.44 650.61   Z"/>
<path xmlns="http://www.w3.org/2000/svg" fill="#408342" d="   M 465.72 574.27   Q 467.84 577.62 470.37 579.63   Q 479.76 587.09 485.74 592.48   C 499.56 604.94 505.33 609.58 522.38 624.10   C 529.18 629.89 538.89 638.72 546.77 644.98   Q 547.81 645.80 549.55 647.91   A 0.62 0.62 0.0 0 1 549.05 648.92   Q 544.97 648.77 525.50 648.79   Q 481.61 648.85 448.67 649.09   C 436.74 649.17 423.95 648.18 411.71 648.41   Q 403.38 648.57 388.34 648.82   Q 387.83 648.83 381.35 648.68   Q 377.07 648.58 372.88 649.32   Q 372.21 649.04 371.50 647.88   A 0.45 0.44 -35.7 0 1 371.60 647.30   Q 416.64 610.92 462.09 575.58   Q 463.30 574.64 465.72 574.27   Z"/>
<path xmlns="http://www.w3.org/2000/svg" fill="#408342" d="   M 1074.44 650.61   Q 1047.76 672.29 1020.57 693.22   C 1009.17 702.00 996.66 712.40 987.40 719.66   Q 984.90 721.62 981.35 721.63   Q 980.00 717.20 976.51 714.73   Q 965.49 706.96 959.09 701.24   Q 940.02 684.19 920.56 668.25   C 913.34 662.35 906.92 656.22 899.54 650.25   A 0.73 0.73 0.0 0 1 899.99 648.95   Q 907.66 648.91 964.71 648.69   Q 974.00 648.66 988.58 648.22   Q 999.21 647.89 1012.46 648.46   C 1026.66 649.06 1041.51 649.00 1053.64 648.67   Q 1063.50 648.40 1067.35 648.66   Q 1070.39 648.87 1074.44 650.61   Z"/>
<path xmlns="http://www.w3.org/2000/svg" fill="#76b24b" d="   M 722.34 649.73   C 717.58 652.78 713.37 656.27 708.58 659.39   Q 696.99 666.95 691.79 671.52   Q 690.51 672.65 682.18 678.09   Q 677.17 681.37 672.67 684.79   C 666.57 689.44 659.31 693.93 652.94 698.75   C 646.27 703.79 642.25 707.01 635.37 711.37   Q 630.37 714.53 623.11 719.59   Q 621.13 720.97 618.29 720.99   Q 578.79 721.22 547.52 722.04   A 1.36 1.29 25.7 0 0 546.80 722.27   L 542.39 725.24   Q 543.91 723.03 545.72 721.71   A 0.48 0.48 0.0 0 0 545.37 720.85   L 541.51 721.49   A 2.04 1.90 -47.0 0 1 541.23 721.51   C 517.20 721.27 492.59 722.18 478.50 722.32   Q 473.51 722.37 464.87 721.84   Q 467.65 717.82 469.65 716.39   C 476.93 711.16 483.96 706.00 490.77 700.12   Q 509.65 683.80 515.94 678.56   C 518.81 676.18 521.86 674.14 524.00 672.25   Q 528.51 668.28 546.62 652.01   Q 549.22 649.68 551.03 649.39   Q 552.96 649.08 556.25 649.07   Q 635.81 648.78 682.21 649.03   C 696.15 649.11 705.52 648.64 717.11 649.26   C 718.37 649.32 720.92 648.59 722.34 649.73   Z"/>
<path xmlns="http://www.w3.org/2000/svg" fill="#247c44" d="   M 722.34 649.73   L 722.87 649.99   A 0.59 0.58 -56.6 0 1 723.05 650.89   L 716.59 658.48   C 711.25 660.48 708.36 664.59 705.27 668.17   A 19.74 19.41 2.0 0 1 701.90 671.26   Q 694.07 676.91 688.27 684.01   C 684.78 688.28 680.97 691.56 677.17 694.91   C 674.17 697.55 672.05 700.26 669.48 703.22   C 664.13 709.37 657.32 713.98 651.75 720.04   C 647.73 724.41 644.95 728.19 640.30 732.48   C 633.47 738.79 628.35 745.20 621.24 751.17   Q 615.94 755.63 606.15 766.55   C 602.33 770.82 600.90 774.30 600.64 779.67   Q 599.26 807.98 597.53 828.73   Q 596.40 842.30 595.39 871.86   Q 595.27 875.45 596.30 878.40   Q 594.91 880.04 593.45 880.24   Q 584.79 881.44 533.81 887.62   C 530.18 888.06 526.65 888.01 523.04 888.64   Q 520.62 889.06 518.22 889.35   Q 505.62 890.42 492.99 891.45   Q 490.45 891.65 484.20 893.05   Q 483.80 893.14 481.81 893.15   Q 480.81 893.15 479.39 893.49   Q 488.32 882.29 491.88 879.14   C 498.08 873.65 503.73 868.68 509.16 863.08   Q 526.70 845.00 529.47 842.47   C 541.28 831.64 554.34 817.08 565.09 806.77   Q 575.75 796.54 598.25 773.25   Q 599.32 772.13 600.06 771.11   A 0.46 0.46 0.0 0 0 599.62 770.38   C 596.46 770.87 592.39 771.69 589.04 771.97   Q 550.12 775.22 514.90 778.63   Q 505.83 779.51 490.76 777.48   L 542.39 725.24   L 546.80 722.27   A 1.36 1.29 25.7 0 1 547.52 722.04   Q 578.79 721.22 618.29 720.99   Q 621.13 720.97 623.11 719.59   Q 630.37 714.53 635.37 711.37   C 642.25 707.01 646.27 703.79 652.94 698.75   C 659.31 693.93 666.57 689.44 672.67 684.79   Q 677.17 681.37 682.18 678.09   Q 690.51 672.65 691.79 671.52   Q 696.99 666.95 708.58 659.39   C 713.37 656.27 717.58 652.78 722.34 649.73   Z"/>
<path xmlns="http://www.w3.org/2000/svg" fill="#247c44" d="   M 735.98 658.02   Q 736.80 661.05 738.90 663.13   Q 745.75 669.93 746.98 671.35   C 750.36 675.24 753.72 679.14 758.27 683.22   Q 762.59 687.10 767.20 692.05   C 774.70 700.11 780.62 705.68 787.22 712.71   C 794.61 720.58 802.04 725.82 809.11 733.24   C 813.48 737.83 819.27 742.84 824.62 748.62   Q 831.87 756.45 846.36 769.96   A 4.56 4.43 72.8 0 0 848.32 771.03   C 856.06 772.96 864.43 772.36 871.29 772.95   C 883.51 774.02 895.55 774.54 907.87 775.94   Q 924.30 777.80 940.76 779.25   C 946.22 779.74 951.53 779.77 956.04 776.65   Q 959.34 779.44 959.78 783.22   C 962.53 806.85 964.76 837.47 967.30 864.80   Q 968.87 881.74 969.24 891.45   Q 969.28 892.57 968.24 892.70   C 964.08 889.23 961.12 885.40 957.29 881.71   Q 954.59 879.11 951.56 875.56   Q 945.69 868.70 944.49 867.69   Q 936.62 861.07 933.55 857.95   C 928.30 852.62 918.66 842.19 911.21 835.03   Q 897.23 821.59 870.86 794.87   Q 865.61 789.54 862.72 786.83   C 859.42 783.73 854.54 779.60 850.97 775.48   Q 848.78 772.96 847.18 771.64   A 0.59 0.59 0.0 0 0 846.22 772.03   Q 846.02 773.57 846.21 775.12   C 848.08 790.59 848.35 805.17 849.98 820.19   Q 850.73 827.11 851.14 839.68   Q 851.80 859.87 854.39 880.21   L 845.77 873.64   A 1.35 1.29 68.2 0 0 845.29 873.42   L 844.79 873.31   Q 845.19 873.29 845.32 873.06   Q 845.45 872.84 845.25 872.49   Q 844.50 871.19 842.90 871.13   Q 842.61 869.50 841.33 868.40   Q 837.82 865.38 835.46 862.88   C 827.52 854.47 818.02 844.76 808.57 835.91   Q 803.68 831.32 798.98 826.42   Q 796.66 824.10 796.67 818.50   Q 796.70 801.46 796.10 756.66   Q 796.06 753.79 795.20 752.55   Q 788.13 742.27 770.73 716.59   Q 762.82 704.93 759.17 699.99   C 753.09 691.77 749.87 685.34 744.08 677.91   Q 735.45 666.83 726.33 651.93   Q 726.13 651.60 726.02 650.51   Q 726.57 650.07 727.02 650.66   Q 727.63 651.45 727.74 651.55   Q 731.69 655.10 735.98 658.02   Z"/>
<path xmlns="http://www.w3.org/2000/svg" fill="#398e4d" d="   M 903.07 722.78   C 904.34 724.53 905.42 726.19 906.96 727.77   Q 913.60 734.61 923.97 744.53   Q 936.26 756.27 956.04 776.65   C 951.53 779.77 946.22 779.74 940.76 779.25   Q 924.30 777.80 907.87 775.94   C 895.55 774.54 883.51 774.02 871.29 772.95   C 864.43 772.36 856.06 772.96 848.32 771.03   A 4.56 4.43 72.8 0 1 846.36 769.96   Q 831.87 756.45 824.62 748.62   C 819.27 742.84 813.48 737.83 809.11 733.24   C 802.04 725.82 794.61 720.58 787.22 712.71   C 780.62 705.68 774.70 700.11 767.20 692.05   Q 762.59 687.10 758.27 683.22   C 753.72 679.14 750.36 675.24 746.98 671.35   Q 745.75 669.93 738.90 663.13   Q 736.80 661.05 735.98 658.02   Q 743.85 662.04 750.78 667.44   Q 756.86 672.19 759.73 674.00   C 766.32 678.18 772.00 681.80 778.92 687.13   Q 782.31 689.75 789.07 694.02   Q 792.21 696.01 799.37 701.54   C 806.99 707.44 817.06 714.07 823.70 718.56   Q 827.04 720.82 831.50 720.81   Q 835.36 720.81 883.96 721.31   C 890.14 721.37 896.67 722.25 903.07 722.78   Z"/>
<path xmlns="http://www.w3.org/2000/svg" fill="#398e4d" d="   M 716.59 658.48   Q 715.15 660.76 710.51 668.76   C 707.57 673.84 702.83 679.17 699.96 683.53   Q 689.45 699.49 671.67 724.78   C 665.91 732.97 659.88 742.88 654.26 750.74   C 652.23 753.57 652.47 757.93 652.35 761.78   Q 651.48 787.76 651.90 808.50   Q 652.11 818.57 650.22 826.11   Q 648.00 825.89 647.25 827.00   C 645.77 829.19 644.12 831.49 641.91 833.36   Q 633.90 840.16 625.56 849.00   C 623.01 851.70 620.51 854.01 617.89 856.61   Q 617.86 856.64 613.03 861.80   Q 609.93 865.12 605.72 868.45   Q 604.13 869.71 604.14 871.33   Q 601.54 872.27 602.43 873.31   L 596.30 878.40   Q 595.27 875.45 595.39 871.86   Q 596.40 842.30 597.53 828.73   Q 599.26 807.98 600.64 779.67   C 600.90 774.30 602.33 770.82 606.15 766.55   Q 615.94 755.63 621.24 751.17   C 628.35 745.20 633.47 738.79 640.30 732.48   C 644.95 728.19 647.73 724.41 651.75 720.04   C 657.32 713.98 664.13 709.37 669.48 703.22   C 672.05 700.26 674.17 697.55 677.17 694.91   C 680.97 691.56 684.78 688.28 688.27 684.01   Q 694.07 676.91 701.90 671.26   A 19.74 19.41 2.0 0 0 705.27 668.17   C 708.36 664.59 711.25 660.48 716.59 658.48   Z"/>
<path xmlns="http://www.w3.org/2000/svg" fill="#0b673b" d="   M 479.39 893.49   Q 478.60 886.79 479.38 879.98   Q 480.75 868.02 481.59 856.40   Q 483.33 832.33 485.08 808.25   Q 485.48 802.72 487.52 784.25   Q 487.98 779.99 490.76 777.48   Q 505.83 779.51 514.90 778.63   Q 550.12 775.22 589.04 771.97   C 592.39 771.69 596.46 770.87 599.62 770.38   A 0.46 0.46 0.0 0 1 600.06 771.11   Q 599.32 772.13 598.25 773.25   Q 575.75 796.54 565.09 806.77   C 554.34 817.08 541.28 831.64 529.47 842.47   Q 526.70 845.00 509.16 863.08   C 503.73 868.68 498.08 873.65 491.88 879.14   Q 488.32 882.29 479.39 893.49   Z"/>
<path xmlns="http://www.w3.org/2000/svg" fill="#0b673b" d="   M 968.24 892.70   Q 966.48 893.12 966.00 893.06   Q 939.91 889.96 929.29 888.98   Q 914.27 888.03 897.53 885.71   Q 877.99 882.99 858.39 880.73   Q 856.41 880.50 854.39 880.21   Q 851.80 859.87 851.14 839.68   Q 850.73 827.11 849.98 820.19   C 848.35 805.17 848.08 790.59 846.21 775.12   Q 846.02 773.57 846.22 772.03   A 0.59 0.59 0.0 0 1 847.18 771.64   Q 848.78 772.96 850.97 775.48   C 854.54 779.60 859.42 783.73 862.72 786.83   Q 865.61 789.54 870.86 794.87   Q 897.23 821.59 911.21 835.03   C 918.66 842.19 928.30 852.62 933.55 857.95   Q 936.62 861.07 944.49 867.69   Q 945.69 868.70 951.56 875.56   Q 954.59 879.11 957.29 881.71   C 961.12 885.40 964.08 889.23 968.24 892.70   Z"/>
<path xmlns="http://www.w3.org/2000/svg" fill="#408342" d="   M 725.74 994.39   Q 725.47 995.61 723.94 996.41   L 714.32 984.97   L 679.99 942.25   L 651.52 906.70   L 722.34 821.80   A 0.73 0.73 0.0 0 1 723.60 822.08   Q 724.42 825.17 724.42 828.86   Q 724.42 836.79 724.10 840.80   C 723.16 852.58 724.12 864.15 724.05 875.77   Q 723.92 898.75 724.12 920.26   Q 724.21 929.53 723.74 943.23   C 723.37 953.82 724.04 966.56 724.06 978.29   Q 724.08 986.61 724.27 990.36   Q 724.38 992.54 725.74 994.39   Z"/>
<path xmlns="http://www.w3.org/2000/svg" fill="#76b24b" d="   M 844.79 873.31   L 840.77 872.31   Q 842.43 872.30 842.90 871.13   Q 844.50 871.19 845.25 872.49   Q 845.45 872.84 845.32 873.06   Q 845.19 873.29 844.79 873.31   Z"/>
<path xmlns="http://www.w3.org/2000/svg" fill="#76b24b" d="   M 604.14 871.33   Q 605.05 872.05 606.12 872.32   Q 604.90 873.18 602.43 873.31   Q 601.54 872.27 604.14 871.33   Z"/>
<path xmlns="http://www.w3.org/2000/svg" fill="#5b362e" d="   M 648.59 873.02   Q 649.34 873.36 650.36 873.43   A 0.57 0.57 0.0 0 1 650.89 873.99   L 651.52 906.70   L 679.99 942.25   Q 671.66 943.74 661.69 943.67   Q 628.51 943.42 594.89 943.18   Q 584.28 943.10 571.73 943.34   Q 560.15 943.55 548.59 943.67   Q 548.09 943.67 547.79 943.77   L 520.56 943.33   A 1.73 1.73 0.0 0 1 518.85 941.60   Q 518.86 915.62 518.82 891.75   Q 518.82 890.82 518.22 889.35   Q 520.62 889.06 523.04 888.64   C 526.65 888.01 530.18 888.06 533.81 887.62   Q 584.79 881.44 593.45 880.24   Q 594.91 880.04 596.30 878.40   L 602.43 873.31   Q 604.90 873.18 606.12 872.32   Q 615.44 873.17 618.50 873.04   Q 633.62 872.40 648.59 873.02   Z"/>
<path xmlns="http://www.w3.org/2000/svg" fill="#5b362e" d="   M 840.77 872.31   L 844.79 873.31   L 845.29 873.42   A 1.35 1.29 68.2 0 1 845.77 873.64   L 854.39 880.21   Q 856.41 880.50 858.39 880.73   Q 877.99 882.99 897.53 885.71   Q 914.27 888.03 929.29 888.98   L 929.10 941.78   A 1.77 1.77 0.0 0 1 927.33 943.55   L 899.16 943.65   Q 891.77 943.78 883.87 943.50   Q 873.82 943.14 868.61 943.18   Q 805.35 943.66 774.75 943.67   C 772.26 943.67 769.69 942.05 767.38 943.77   Q 781.59 925.93 795.79 908.04   Q 796.93 906.60 796.93 905.47   Q 797.24 890.10 797.02 876.00   Q 796.98 873.04 798.62 872.87   L 840.77 872.31   Z"/>
<path xmlns="http://www.w3.org/2000/svg" fill="#462825" d="   M 679.99 942.25   L 714.32 984.97   Q 713.85 985.43 713.18 985.58   A 0.45 0.44 79.2 0 1 712.66 985.22   Q 712.64 985.13 712.67 984.92   A 0.81 0.80 -66.0 0 0 712.42 984.25   C 708.03 980.14 705.83 974.18 698.80 974.23   Q 637.02 974.68 580.79 974.37   Q 570.86 974.32 560.32 975.28   Q 557.45 975.54 554.86 977.54   Q 551.81 962.56 549.29 947.48   Q 548.92 945.29 547.79 943.77   Q 548.09 943.67 548.59 943.67   Q 560.15 943.55 571.73 943.34   Q 584.28 943.10 594.89 943.18   Q 628.51 943.42 661.69 943.67   Q 671.66 943.74 679.99 942.25   Z"/>
<path xmlns="http://www.w3.org/2000/svg" fill="#462825" d="   M 899.16 943.65   Q 897.26 954.45 895.07 965.28   Q 892.16 979.70 890.87 986.90   Q 887.92 1003.40 883.67 1025.73   C 882.90 1029.72 881.61 1034.37 881.01 1037.94   Q 879.85 1044.71 873.83 1077.73   C 871.83 1088.68 869.56 1098.58 868.02 1108.51   Q 867.80 1109.98 861.44 1143.19   Q 859.90 1151.22 858.02 1159.08   A 1.32 1.31 -85.9 0 1 856.87 1160.08   Q 854.50 1160.31 851.00 1160.35   Q 787.91 1161.03 724.64 1160.49   Q 723.91 1151.99 723.94 1143.48   C 724.08 1107.38 723.53 1082.24 723.93 1050.03   Q 724.11 1035.24 723.97 1008.08   Q 723.96 1007.56 723.79 1002.47   Q 723.69 999.43 723.94 996.41   Q 725.47 995.61 725.74 994.39   C 730.44 988.14 736.77 981.71 740.87 976.66   Q 748.98 966.70 756.99 956.66   C 759.51 953.50 763.40 947.76 767.38 943.77   C 769.69 942.05 772.26 943.67 774.75 943.67   Q 805.35 943.66 868.61 943.18   Q 873.82 943.14 883.87 943.50   Q 891.77 943.78 899.16 943.65   Z"/>
<path xmlns="http://www.w3.org/2000/svg" fill="#5b362e" d="   M 714.32 984.97   L 723.94 996.41   Q 723.69 999.43 723.79 1002.47   Q 723.96 1007.56 723.97 1008.08   Q 724.11 1035.24 723.93 1050.03   C 723.53 1082.24 724.08 1107.38 723.94 1143.48   Q 723.91 1151.99 724.64 1160.49   L 591.27 1160.42   A 1.85 1.85 0.0 0 1 589.45 1158.92   L 554.86 977.54   Q 557.45 975.54 560.32 975.28   Q 570.86 974.32 580.79 974.37   Q 637.02 974.68 698.80 974.23   C 705.83 974.18 708.03 980.14 712.42 984.25   A 0.81 0.80 -66.0 0 1 712.67 984.92   Q 712.64 985.13 712.66 985.22   A 0.45 0.44 79.2 0 0 713.18 985.58   Q 713.85 985.43 714.32 984.97   Z"/>
</g></g></g></svg>