<svg xmlns="http://www.w3.org/2000/svg" direction="ltr" width="2885.2769714479" height="3863.180597262375" viewBox="15439.614587985809 10641.381657411644 2885.2769714479 3863.180597262375" stroke-linecap="round" stroke-linejoin="round" data-color-mode="light" class="tl-container tl-theme__force-sRGB tl-theme__light" style="background-color: transparent;"><defs/><g transform="matrix(1, 0, 0, 1, 15439.6146, 10641.3817)" opacity="1"><g transform="scale(2.3063764759775385, 2.306376475977538)"><g>
<path xmlns="http://www.w3.org/2000/svg" stroke="#9ccbd2" stroke-width="2.00" fill="none" stroke-linecap="butt" vector-effect="non-scaling-stroke" d="   M 1128.58 739.16   L 141.04 739.39   A 1.48 1.48 0.0 0 0 139.56 740.93   C 140.16 755.96 139.04 771.28 139.21 785.34   Q 139.65 822.85 139.70 825.29   Q 140.11 842.71 139.64 865.22   Q 139.12 890.63 139.82 921.37   Q 139.88 923.71 139.70 937.62   Q 139.60 945.85 140.21 953.85"/>
<path xmlns="http://www.w3.org/2000/svg" fill="#87b8bd" d="   M 1128.58 739.16   L 141.04 739.39   A 1.48 1.48 0.0 0 0 139.56 740.93   C 140.16 755.96 139.04 771.28 139.21 785.34   Q 139.65 822.85 139.70 825.29   Q 140.11 842.71 139.64 865.22   Q 139.12 890.63 139.82 921.37   Q 139.88 923.71 139.70 937.62   Q 139.60 945.85 140.21 953.85   L 123.50 953.90   A 1.27 1.26 89.8 0 1 122.23 952.63   L 122.23 722.83   A 1.21 1.21 0.0 0 1 123.45 721.62   Q 139.88 721.66 218.28 721.34   C 255.19 721.19 284.77 721.15 319.25 721.22   Q 457.96 721.52 540.99 721.27   C 604.99 721.08 670.61 721.46 743.01 721.21   C 776.41 721.10 808.06 721.55 838.66 721.25   Q 889.80 720.77 924.00 721.04   Q 932.19 721.10 941.25 721.11   Q 1003.56 721.18 1062.25 721.08   Q 1091.37 721.03 1101.48 721.20   C 1110.71 721.36 1118.76 721.02 1127.56 721.33   A 1.01 1.01 0.0 0 1 1128.53 722.33   L 1128.58 739.16   Z"/>
<path xmlns="http://www.w3.org/2000/svg" fill="#b0dee7" d="   M 1128.58 739.16   L 1128.14 952.55   A 0.85 0.84 -3.0 0 1 1127.38 953.39   C 1118.19 954.31 1106.86 953.55 1098.47 953.56   Q 1042.83 953.65 993.89 953.49   C 968.15 953.41 952.23 953.67 933.33 953.54   Q 916.25 953.42 888.17 953.64   Q 865.22 953.82 843.00 953.82   Q 771.60 953.79 468.00 953.65   Q 459.98 953.65 457.00 953.66   Q 432.84 953.76 408.83 953.65   Q 380.32 953.53 360.68 953.61   C 332.14 953.72 291.31 953.47 254.17 953.61   C 217.47 953.75 187.80 953.53 140.21 953.85   Q 139.60 945.85 139.70 937.62   Q 139.88 923.71 139.82 921.37   Q 139.12 890.63 139.64 865.22   Q 140.11 842.71 139.70 825.29   Q 139.65 822.85 139.21 785.34   C 139.04 771.28 140.16 755.96 139.56 740.93   A 1.48 1.48 0.0 0 1 141.04 739.39   L 1128.58 739.16   Z"/>
</g></g></g></svg>