<svg xmlns="http://www.w3.org/2000/svg" direction="ltr" width="1192.1148135718759" height="1192.1148135718759" viewBox="11439.7470774615 13389.866248960865 1192.1148135718759 1192.1148135718759" stroke-linecap="round" stroke-linejoin="round" data-color-mode="light" class="tl-container tl-theme__force-sRGB tl-theme__light" style="background-color: transparent;"><defs/><g transform="matrix(1, 0, 0, 1, 11439.7471, 13389.8662)" opacity="1"><g transform="scale(1.164174622628785, 1.164174622628785)"><g>
<g xmlns="http://www.w3.org/2000/svg" stroke-width="2.00" fill="none" stroke-linecap="butt">
<path stroke="#fbdd01" vector-effect="non-scaling-stroke" d="   M 956.02 304.47   Q 951.36 299.39 947.61 293.30   Q 943.27 286.23 941.71 284.42   C 934.34 275.87 925.47 269.50 914.54 266.32   Q 910.21 265.06 906.34 263.58"/>
<path stroke="#fae169" vector-effect="non-scaling-stroke" d="   M 906.34 263.58   L 906.38 222.92   A 0.83 0.82 90.0 0 0 905.56 222.09   L 118.35 222.09   A 0.76 0.76 0.0 0 0 117.59 222.86   L 117.84 263.58"/>
<path stroke="#fbdd01" vector-effect="non-scaling-stroke" d="   M 117.84 263.58   Q 116.30 264.22 109.91 265.89   Q 99.57 268.60 90.43 276.45   Q 71.59 292.61 67.59 317.47"/>
<path stroke="#ffeb6a" vector-effect="non-scaling-stroke" d="   M 906.34 263.58   L 117.84 263.58"/>
</g>
<path xmlns="http://www.w3.org/2000/svg" fill="#f6d300" d="   M 956.02 304.47   Q 951.36 299.39 947.61 293.30   Q 943.27 286.23 941.71 284.42   C 934.34 275.87 925.47 269.50 914.54 266.32   Q 910.21 265.06 906.34 263.58   L 906.38 222.92   A 0.83 0.82 90.0 0 0 905.56 222.09   L 118.35 222.09   A 0.76 0.76 0.0 0 0 117.59 222.86   L 117.84 263.58   Q 116.30 264.22 109.91 265.89   Q 99.57 268.60 90.43 276.45   Q 71.59 292.61 67.59 317.47   Q 67.66 264.84 67.83 212.26   Q 67.91 187.60 78.74 165.58   C 88.62 145.47 110.29 134.66 132.26 134.67   Q 165.58 134.68 339.22 134.58   Q 356.27 134.57 362.82 136.07   Q 374.81 138.81 384.94 145.78   C 394.79 152.55 400.73 163.14 405.07 174.43   Q 408.66 183.76 411.76 192.89   A 2.90 2.89 81.4 0 0 414.41 194.85   C 419.95 195.01 425.44 194.62 431.77 194.62   Q 528.24 194.60 893.00 194.53   Q 901.06 194.53 910.02 196.11   C 934.43 200.42 952.60 221.16 955.55 245.69   Q 956.45 253.18 956.38 261.50   Q 956.18 282.76 956.02 304.47   Z"/>
<path xmlns="http://www.w3.org/2000/svg" fill="#feeed2" d="   M 906.34 263.58   L 117.84 263.58   L 117.59 222.86   A 0.76 0.76 0.0 0 1 118.35 222.09   L 905.56 222.09   A 0.83 0.82 -90.0 0 1 906.38 222.92   L 906.34 263.58   Z"/>
<path xmlns="http://www.w3.org/2000/svg" fill="#ffe701" d="   M 906.34 263.58   Q 910.21 265.06 914.54 266.32   C 925.47 269.50 934.34 275.87 941.71 284.42   Q 943.27 286.23 947.61 293.30   Q 951.36 299.39 956.02 304.47   L 956.41 887.38   A 2.15 2.15 0.0 0 1 954.26 889.53   L 68.91 889.53   A 1.69 1.68 -89.5 0 1 67.23 887.81   Q 67.72 859.46 67.71 850.75   Q 67.41 584.10 67.59 317.47   Q 71.59 292.61 90.43 276.45   Q 99.57 268.60 109.91 265.89   Q 116.30 264.22 117.84 263.58   L 906.34 263.58   Z"/>
</g></g></g></svg>