<svg xmlns="http://www.w3.org/2000/svg" direction="ltr" width="1436.2978452080679" height="2573.6437799889245" viewBox="11310.04548024377 11331.745648599166 1436.2978452080679 2573.6437799889245" stroke-linecap="round" stroke-linejoin="round" data-color-mode="light" class="tl-container tl-theme__force-sRGB tl-theme__light" style="background-color: transparent;"><defs/><g transform="matrix(1, 0, 0, 1, 11310.0455, 11331.7456)" opacity="1"><g transform="scale(1.328675157454272, 1.328675157454272)"><g>
<g xmlns="http://www.w3.org/2000/svg" stroke-width="2.00" fill="none" stroke-linecap="butt">
<path stroke="#f1b619" vector-effect="non-scaling-stroke" d="   M 927.92 770.28   Q 923.26 765.15 919.43 759.43   Q 915.56 753.63 913.60 751.72   C 908.71 746.91 900.68 739.94 893.94 738.29   Q 888.37 736.93 884.20 735.03"/>
<path stroke="#eecf79" vector-effect="non-scaling-stroke" d="   M 884.20 735.03   L 884.43 701.93   A 0.64 0.64 0.0 0 0 883.79 701.29   L 197.49 701.29   A 0.74 0.74 0.0 0 0 196.75 702.03   L 196.77 734.91"/>
<path stroke="#f1b619" vector-effect="non-scaling-stroke" d="   M 196.77 734.91   Q 195.56 735.12 194.16 735.83   Q 192.53 736.66 191.61 736.95   C 180.22 740.61 170.34 746.73 164.06 757.22   Q 158.63 766.27 156.11 773.12   Q 153.92 779.06 153.34 787.80"/>
<path stroke="#f5d77b" vector-effect="non-scaling-stroke" d="   M 884.20 735.03   L 196.77 734.91"/>
</g>
<path xmlns="http://www.w3.org/2000/svg" fill="#eaae17" d="   M 927.92 770.28   Q 923.26 765.15 919.43 759.43   Q 915.56 753.63 913.60 751.72   C 908.71 746.91 900.68 739.94 893.94 738.29   Q 888.37 736.93 884.20 735.03   L 884.43 701.93   A 0.64 0.64 0.0 0 0 883.79 701.29   L 197.49 701.29   A 0.74 0.74 0.0 0 0 196.75 702.03   L 196.77 734.91   Q 195.56 735.12 194.16 735.83   Q 192.53 736.66 191.61 736.95   C 180.22 740.61 170.34 746.73 164.06 757.22   Q 158.63 766.27 156.11 773.12   Q 153.92 779.06 153.34 787.80   C 152.84 755.82 153.46 724.80 153.41 689.75   C 153.39 678.35 156.51 668.06 160.74 657.40   Q 165.34 645.78 171.83 638.97   Q 182.83 627.43 198.97 624.46   Q 205.32 623.29 217.27 623.22   Q 252.30 623.01 319.25 623.44   C 326.86 623.49 337.78 623.05 345.58 623.11   Q 383.47 623.43 390.38 623.31   Q 406.14 623.04 412.88 624.69   Q 424.01 627.41 433.16 634.28   C 444.90 643.10 450.07 653.52 453.93 667.58   Q 455.19 672.16 457.08 675.83   A 0.83 0.83 0.0 0 0 457.75 676.28   Q 460.70 676.57 460.75 676.57   Q 473.06 676.04 486.25 675.97   Q 536.78 675.68 560.75 675.79   Q 630.01 676.12 762.00 675.87   Q 845.63 675.72 864.50 675.74   Q 873.13 675.75 878.98 676.13   Q 895.81 677.19 909.24 687.49   C 923.53 698.43 927.90 712.32 927.96 729.50   Q 928.03 749.80 927.92 770.28   Z"/>
<path xmlns="http://www.w3.org/2000/svg" fill="#f1f0da" d="   M 884.20 735.03   L 196.77 734.91   L 196.75 702.03   A 0.74 0.74 0.0 0 1 197.49 701.29   L 883.79 701.29   A 0.64 0.64 0.0 0 1 884.43 701.93   L 884.20 735.03   Z"/>
<path xmlns="http://www.w3.org/2000/svg" fill="#f8bd1b" d="   M 196.77 734.91   L 884.20 735.03   Q 888.37 736.93 893.94 738.29   C 900.68 739.94 908.71 746.91 913.60 751.72   Q 915.56 753.63 919.43 759.43   Q 923.26 765.15 927.92 770.28   Q 927.53 794.55 927.51 819.00   Q 927.31 1115.42 927.32 1273.72   C 927.32 1277.27 926.87 1279.71 926.06 1282.74   A 0.97 0.96 -82.1 0 1 925.13 1283.45   Q 677.72 1284.16 439.05 1283.89   Q 263.35 1283.68 251.46 1283.69   C 222.30 1283.71 199.86 1284.05 173.77 1283.79   C 167.53 1283.73 160.83 1284.30 154.70 1283.74   A 0.62 0.61 1.1 0 1 154.14 1283.17   C 153.97 1280.49 153.51 1277.56 153.53 1274.59   C 153.77 1229.12 153.27 1172.17 153.44 1113.48   Q 153.93 950.63 153.34 787.80   Q 153.92 779.06 156.11 773.12   Q 158.63 766.27 164.06 757.22   C 170.34 746.73 180.22 740.61 191.61 736.95   Q 192.53 736.66 194.16 735.83   Q 195.56 735.12 196.77 734.91   Z"/>
</g></g></g></svg>