<svg xmlns="http://www.w3.org/2000/svg" direction="ltr" width="1535.8347960764077" height="2752" viewBox="11310.04548024377 12417.414655166192 1535.8347960764077 2752" stroke-linecap="round" stroke-linejoin="round" data-color-mode="light" class="tl-container tl-theme__force-sRGB tl-theme__light" style="background-color: transparent;"><defs/><g transform="matrix(1, 0, 0, 1, 11310.0455, 12417.4147)" opacity="1"><g transform="scale(1.420753742901394, 1.420753742901394)"><g>
<g xmlns="http://www.w3.org/2000/svg" stroke-width="2.00" fill="none" stroke-linecap="butt">
<path stroke="#e47067" vector-effect="non-scaling-stroke" d="   M 933.73 785.24   Q 931.12 778.34 930.52 771.47   A 8.55 8.49 -67.0 0 0 928.69 766.91   Q 928.09 766.16 926.87 764.16   Q 921.60 755.55 917.80 750.86   C 911.43 743.00 901.33 738.08 891.71 734.29   Q 891.19 734.09 889.43 732.86"/>
<path stroke="#e4a892" vector-effect="non-scaling-stroke" d="   M 889.43 732.86   L 889.46 698.51   A 0.45 0.44 0.0 0 0 889.01 698.07   L 195.23 698.07   A 0.45 0.44 -0.0 0 0 194.78 698.51   L 194.76 732.76"/>
<path stroke="#e47067" vector-effect="non-scaling-stroke" d="   M 194.76 732.76   Q 190.60 734.80 186.23 736.90   Q 180.78 739.52 177.89 741.42   Q 166.41 748.98 160.10 761.54   Q 153.74 774.20 152.08 779.09   Q 151.04 782.12 149.62 791.80"/>
<path stroke="#eeb09b" vector-effect="non-scaling-stroke" d="   M 889.43 732.86   L 194.76 732.76"/>
</g>
<path xmlns="http://www.w3.org/2000/svg" fill="#da685e" d="   M 933.73 785.24   Q 931.12 778.34 930.52 771.47   A 8.55 8.49 -67.0 0 0 928.69 766.91   Q 928.09 766.16 926.87 764.16   Q 921.60 755.55 917.80 750.86   C 911.43 743.00 901.33 738.08 891.71 734.29   Q 891.19 734.09 889.43 732.86   L 889.46 698.51   A 0.45 0.44 0.0 0 0 889.01 698.07   L 195.23 698.07   A 0.45 0.44 -0.0 0 0 194.78 698.51   L 194.76 732.76   Q 190.60 734.80 186.23 736.90   Q 180.78 739.52 177.89 741.42   Q 166.41 748.98 160.10 761.54   Q 153.74 774.20 152.08 779.09   Q 151.04 782.12 149.62 791.80   Q 150.17 739.52 150.11 687.25   Q 150.09 675.75 153.32 665.33   C 155.29 658.97 157.37 651.78 160.53 646.20   Q 166.95 634.82 178.50 627.12   C 185.66 622.35 196.74 619.64 204.75 619.45   Q 222.77 619.02 283.75 619.15   Q 363.90 619.31 402.17 619.27   Q 409.42 619.26 412.28 619.96   Q 416.85 621.09 421.97 623.02   C 426.10 624.57 429.22 627.56 433.07 630.00   Q 434.83 631.12 437.14 633.31   Q 445.94 641.66 449.84 652.39   Q 451.24 656.24 454.77 666.74   C 455.83 669.90 457.72 673.34 461.51 673.05   Q 471.26 672.33 479.75 672.30   Q 503.58 672.22 599.72 672.29   Q 606.46 672.30 613.00 672.29   Q 648.16 672.22 783.07 672.22   C 819.31 672.22 840.40 671.98 881.75 672.01   Q 886.18 672.01 891.78 673.46   C 902.67 676.28 914.04 681.35 921.46 689.61   Q 933.66 703.18 933.75 722.25   Q 933.85 741.15 933.73 785.24   Z"/>
<path xmlns="http://www.w3.org/2000/svg" fill="#ede7c6" d="   M 889.43 732.86   L 194.76 732.76   L 194.78 698.51   A 0.45 0.44 0.0 0 1 195.23 698.07   L 889.01 698.07   A 0.45 0.44 0.0 0 1 889.46 698.51   L 889.43 732.86   Z"/>
<path xmlns="http://www.w3.org/2000/svg" fill="#ee786f" d="   M 889.43 732.86   Q 891.19 734.09 891.71 734.29   C 901.33 738.08 911.43 743.00 917.80 750.86   Q 921.60 755.55 926.87 764.16   Q 928.09 766.16 928.69 766.91   A 8.55 8.49 -67.0 0 1 930.52 771.47   Q 931.12 778.34 933.73 785.24   Q 934.00 796.73 933.96 819.25   Q 933.68 958.77 933.83 1257.75   Q 933.83 1263.52 934.11 1291.39   Q 934.13 1292.73 932.55 1296.40   A 0.93 0.92 7.0 0 1 931.85 1296.94   Q 928.60 1297.45 926.28 1297.22   C 921.76 1296.75 918.58 1297.23 913.50 1297.20   Q 870.87 1296.94 793.75 1297.00   Q 546.46 1297.20 452.26 1296.93   C 430.58 1296.87 407.14 1296.98 380.15 1296.75   Q 352.50 1296.53 330.88 1296.77   Q 306.13 1297.05 281.60 1296.78   C 269.44 1296.64 260.22 1297.18 249.65 1297.00   Q 242.68 1296.89 236.88 1296.91   Q 188.29 1297.06 158.00 1297.25   Q 157.78 1297.25 152.15 1297.45   A 0.97 0.96 -14.6 0 1 151.26 1296.93   C 150.30 1295.08 149.86 1292.85 149.86 1290.45   Q 149.95 1041.11 149.62 791.80   Q 151.04 782.12 152.08 779.09   Q 153.74 774.20 160.10 761.54   Q 166.41 748.98 177.89 741.42   Q 180.78 739.52 186.23 736.90   Q 190.60 734.80 194.76 732.76   L 889.43 732.86   Z"/>
</g></g></g></svg>