<svg xmlns="http://www.w3.org/2000/svg" direction="ltr" width="6481.949933040538" height="4348.185871372216" viewBox="13584.27961743244 11811.830720060696 6481.949933040538 4348.185871372216" stroke-linecap="round" stroke-linejoin="round" data-color-mode="light" class="tl-container tl-theme__force-sRGB tl-theme__light" style="background-color: transparent;"><defs/><g transform="matrix(1, 0, 0, 1, 13584.2796, 11811.8307)" opacity="1"><g transform="scale(3.666261274344196, 3.666261274344195)"><g>
<g xmlns="http://www.w3.org/2000/svg" stroke-width="2.00" fill="none" stroke-linecap="butt">
<path stroke="#955732" vector-effect="non-scaling-stroke" d="   M 241.15 0.00   Q 240.13 4.54 240.14 10.51   Q 240.19 42.65 239.85 139.32   C 239.81 153.11 240.60 169.05 240.77 180.58   Q 240.83 184.71 239.94 202.53   C 239.31 215.24 240.20 236.55 239.98 254.34   Q 239.82 267.15 240.01 270.54   C 240.56 280.50 239.93 289.53 239.92 300.56   Q 239.88 345.18 240.44 376.95   C 240.63 387.56 239.17 396.28 239.54 406.49   C 240.83 441.90 239.85 476.13 239.90 512.16   Q 240.03 600.69 239.91 626.14   Q 239.77 658.14 240.03 687.36   C 240.29 716.50 239.54 752.84 240.13 785.41   Q 240.22 790.18 239.98 822.25   Q 239.82 844.28 240.07 919.49   C 240.19 953.77 239.58 982.63 239.99 1009.31   C 240.45 1038.88 240.03 1073.85 239.89 1102.06   C 239.82 1114.06 240.72 1124.19 240.29 1136.67   Q 239.82 1149.98 240.00 1172.45   Q 240.07 1180.09 241.24 1186.00"/>
<path stroke="#955732" vector-effect="non-scaling-stroke" d="   M 253.15 0.00   Q 254.14 4.39 254.15 8.88   C 254.22 30.73 253.62 54.45 253.81 76.28   Q 254.05 103.58 253.84 106.33   C 253.44 111.69 253.07 119.23 253.25 124.62   Q 254.47 161.63 253.44 191.81   C 253.14 200.65 253.61 207.77 253.99 218.34   C 254.43 230.58 253.40 244.07 254.09 256.70   C 254.59 265.81 253.46 277.10 253.73 287.84   C 254.31 310.52 254.01 331.22 253.71 355.01   Q 253.59 364.28 254.08 372.42   C 254.79 384.53 253.84 395.65 254.03 408.22   Q 254.26 423.17 254.09 426.60   C 253.13 446.69 254.02 466.60 253.92 487.08   Q 253.80 511.47 253.78 512.45   C 253.36 544.39 254.60 576.26 253.83 607.60   Q 253.52 619.87 253.65 626.43   Q 254.45 666.89 253.91 685.69   Q 253.43 702.76 253.68 710.07   Q 254.58 735.83 254.03 760.46   C 253.78 771.83 254.43 782.50 254.27 793.92   Q 253.46 850.67 254.16 889.72   Q 254.62 915.28 254.29 927.39   Q 253.66 950.13 254.04 964.46   C 254.77 992.35 253.77 1023.41 253.91 1047.78   Q 254.08 1078.73 254.06 1085.83   C 253.99 1107.31 254.46 1118.29 253.98 1137.69   Q 253.57 1154.61 254.49 1175.47   Q 254.67 1179.60 253.38 1186.00"/>
<path stroke="#955732" vector-effect="non-scaling-stroke" d="   M 496.40 0.00   C 495.38 7.56 495.87 16.03 495.89 18.71   C 495.97 30.92 495.09 41.42 495.36 54.86   C 495.80 77.25 495.53 92.96 495.39 128.85   C 495.29 153.81 495.59 175.83 495.25 205.06   Q 495.01 226.09 495.67 261.00   Q 495.91 273.99 495.53 288.25   Q 494.94 309.99 495.12 315.50   C 496.21 347.93 495.49 379.15 495.44 410.73   Q 495.29 508.99 495.40 549.28   Q 495.46 575.36 495.20 587.29   C 495.00 596.04 495.65 606.17 495.39 615.69   Q 494.90 633.17 495.14 646.50   C 495.58 671.66 495.21 698.16 495.07 720.55   C 494.96 736.34 495.48 754.95 495.38 772.00   C 495.16 812.35 495.47 859.10 495.64 888.67   C 495.73 904.47 495.22 917.71 495.48 931.96   C 495.76 947.69 495.26 967.70 495.55 987.45   Q 495.64 993.75 495.56 1010.48   Q 495.25 1072.21 495.55 1118.74   C 495.69 1140.16 494.79 1165.93 496.13 1184.15   A 1.53 1.52 -89.6 0 0 497.50 1185.55   L 502.12 1186.00"/>
<path stroke="#955732" vector-effect="non-scaling-stroke" d="   M 507.86 0.00   Q 509.05 4.23 509.17 8.59   C 509.57 22.86 509.05 39.59 509.19 51.74   Q 509.39 67.94 509.36 115.00   Q 509.35 124.39 509.04 228.15   Q 508.97 252.51 509.00 288.64   C 509.01 307.94 509.29 325.19 509.20 341.81   Q 508.89 401.03 509.10 410.52   Q 509.55 431.30 509.25 442.55   C 508.54 468.83 509.66 496.23 509.38 521.47   Q 509.06 548.89 509.53 573.91   C 509.84 590.88 508.74 607.71 509.18 622.17   Q 509.62 636.53 509.20 656.43   Q 508.85 673.08 509.19 697.50   C 509.46 716.83 508.96 730.63 509.37 750.28   C 509.73 767.30 509.08 786.77 509.18 808.31   Q 509.60 906.03 509.09 1020.95   C 509.04 1031.58 509.54 1043.72 509.28 1054.80   Q 509.12 1061.82 509.42 1080.20   C 509.74 1099.72 509.00 1115.31 509.18 1134.89   Q 509.33 1150.69 509.20 1181.58   Q 509.19 1182.97 508.61 1186.00"/>
<path stroke="#955732" vector-effect="non-scaling-stroke" d="   M 750.00 0.00   Q 749.88 5.00 749.87 10.01   Q 749.79 116.52 749.77 118.25   C 749.60 130.99 749.08 140.19 749.52 150.89   C 750.34 170.66 749.72 191.79 749.78 213.62   Q 749.95 276.79 749.85 341.93   C 749.83 352.69 750.28 364.22 750.00 375.48   Q 749.71 386.95 749.80 400.66   Q 750.11 450.29 749.76 471.41   C 749.48 488.63 750.21 508.41 749.84 528.05   Q 749.51 545.73 749.83 590.02   C 749.90 598.48 749.51 607.57 749.58 615.48   Q 749.88 647.51 749.72 669.75   C 749.60 686.68 750.12 703.79 749.76 720.13   C 749.20 746.01 749.86 776.21 749.94 807.28   Q 750.00 831.14 749.90 925.63   Q 749.81 1017.59 749.82 1039.14   Q 749.84 1107.76 749.97 1175.75   Q 749.99 1182.08 751.49 1186.00"/>
<path stroke="#955732" vector-effect="non-scaling-stroke" d="   M 763.24 0.00   Q 764.13 4.14 764.12 8.38   Q 764.07 24.47 764.45 47.84   C 764.80 69.30 763.85 93.45 764.22 114.90   Q 764.52 132.45 764.19 154.73   C 763.93 172.81 764.27 194.93 764.51 209.65   Q 764.55 212.25 764.40 237.24   Q 764.26 260.35 764.46 291.25   Q 764.63 316.83 764.41 326.42   C 763.70 356.37 764.51 379.96 764.44 414.32   C 764.42 425.42 763.26 439.13 763.65 449.38   Q 764.54 472.40 764.45 477.50   C 764.15 496.19 763.72 510.95 764.23 529.30   C 764.69 545.88 763.74 562.58 764.10 580.49   C 764.49 599.93 764.13 614.57 764.43 634.59   C 764.49 638.66 764.13 645.19 764.16 649.88   Q 764.37 686.56 764.12 759.50   C 764.05 781.26 764.71 803.96 764.38 827.24   Q 764.13 844.41 764.27 878.04   C 764.54 944.15 764.19 1021.70 764.33 1087.33   Q 764.43 1132.43 764.35 1178.71   C 764.35 1181.20 764.02 1183.60 763.62 1186.00"/>
<path stroke="#955732" vector-effect="non-scaling-stroke" d="   M 1005.75 0.00   Q 1004.99 4.31 1004.98 5.54   Q 1004.64 34.96 1004.94 70.50   Q 1005.12 91.72 1004.76 153.85   C 1004.60 182.22 1005.14 208.25 1004.89 235.79   Q 1004.68 259.93 1004.79 297.22   Q 1004.81 305.69 1004.99 375.16   Q 1005.05 396.56 1004.89 563.42   C 1004.87 575.36 1004.54 588.08 1004.86 600.38   Q 1005.03 606.82 1004.89 628.11   Q 1004.77 647.75 1004.92 693.68   C 1004.96 706.01 1005.86 714.56 1005.40 724.74   Q 1004.88 736.16 1004.86 746.44   C 1004.71 802.41 1004.92 844.09 1004.87 902.85   Q 1004.70 1108.58 1004.90 1177.87   Q 1004.91 1181.22 1006.25 1186.00"/>
<path stroke="#955732" vector-effect="non-scaling-stroke" d="   M 1018.74 0.00   C 1020.25 5.85 1019.47 13.20 1019.51 17.23   C 1019.75 39.34 1019.44 57.42 1019.81 79.03   Q 1020.36 110.88 1019.61 134.67   C 1019.43 140.41 1019.86 147.87 1020.10 152.69   Q 1020.28 156.25 1020.09 166.19   C 1019.80 180.85 1019.13 192.34 1019.49 205.97   Q 1019.78 216.77 1019.88 264.16   Q 1019.89 269.19 1019.87 276.10   Q 1019.80 300.50 1019.20 366.31   Q 1019.05 382.52 1019.75 411.46   Q 1020.04 423.85 1019.73 432.03   C 1019.14 447.40 1020.17 460.40 1019.67 477.37   Q 1019.32 489.43 1019.98 508.26   Q 1020.42 520.75 1019.90 546.77   C 1019.59 562.65 1020.10 573.81 1019.66 589.72   Q 1019.37 600.12 1019.45 621.94   C 1019.57 649.91 1019.92 676.96 1019.48 706.10   Q 1019.21 724.41 1020.10 741.98   C 1020.41 748.11 1020.11 753.94 1019.71 759.62   Q 1019.42 763.85 1019.43 772.83   Q 1019.46 799.04 1019.87 832.47   C 1020.03 845.16 1019.22 860.25 1019.62 874.19   Q 1020.45 902.39 1019.43 936.15   Q 1019.26 941.69 1019.77 974.91   Q 1019.89 983.14 1019.80 988.00   C 1019.60 999.48 1020.04 1007.94 1019.69 1020.74   C 1019.08 1043.51 1020.85 1067.11 1019.69 1091.06   Q 1019.41 1097.04 1019.62 1113.95   Q 1019.94 1139.84 1019.33 1180.78   Q 1019.29 1183.40 1019.04 1186.00"/>
<path stroke="#955732" vector-effect="non-scaling-stroke" d="   M 1260.16 0.00   Q 1259.68 33.53 1259.93 67.07   C 1260.09 89.04 1259.74 109.66 1259.81 130.80   Q 1259.85 142.63 1259.88 169.68   Q 1259.93 205.64 1259.96 208.53   Q 1259.98 210.02 1259.99 224.82   Q 1260.02 253.20 1259.77 276.69   C 1259.44 308.67 1259.87 344.77 1260.26 376.64   Q 1260.37 385.56 1259.71 398.56   C 1258.94 413.64 1259.97 431.20 1259.98 445.66   Q 1260.03 502.89 1259.76 604.47   Q 1259.71 621.98 1259.75 625.03   C 1259.98 642.78 1259.73 662.57 1259.79 676.49   Q 1259.98 721.56 1259.52 747.52   C 1259.26 762.14 1260.18 775.66 1259.89 790.10   Q 1259.67 801.41 1259.88 822.03   Q 1260.21 853.86 1260.01 895.25   C 1259.83 932.80 1260.20 970.67 1259.90 1007.25   C 1259.70 1032.13 1260.07 1059.58 1259.59 1086.59   Q 1259.37 1099.40 1259.99 1114.45   C 1260.34 1122.73 1260.03 1131.12 1259.74 1139.91   Q 1259.17 1156.99 1259.88 1176.89   Q 1260.08 1182.47 1260.76 1186.00"/>
<path stroke="#955732" vector-effect="non-scaling-stroke" d="   M 1273.68 0.00   C 1274.01 6.93 1273.46 14.73 1273.72 20.70   Q 1274.43 37.17 1274.31 45.40   Q 1273.90 75.59 1274.15 107.70   C 1274.27 123.13 1273.76 139.33 1273.97 158.53   Q 1274.17 176.39 1273.66 199.53   Q 1273.50 206.70 1273.87 226.67   Q 1274.11 240.23 1274.13 253.81   Q 1274.18 310.03 1273.62 373.49   C 1273.43 395.13 1274.62 415.73 1274.28 438.51   C 1274.11 449.89 1274.92 460.74 1274.49 472.89   C 1273.98 487.14 1274.06 497.66 1274.46 515.58   C 1274.71 526.86 1273.81 538.95 1273.88 549.53   C 1274.04 574.06 1273.71 584.56 1274.22 608.22   C 1274.65 628.83 1273.78 647.65 1274.20 668.50   C 1274.54 685.12 1274.13 695.83 1273.84 718.12   Q 1273.69 729.80 1274.05 745.86   Q 1274.81 779.66 1273.73 804.54   Q 1273.63 806.85 1274.33 827.89   Q 1274.55 834.35 1274.15 849.64   C 1273.72 865.56 1273.96 880.41 1274.16 898.41   C 1274.25 906.64 1273.83 914.72 1274.12 922.48   C 1274.65 936.73 1273.67 955.84 1274.00 965.72   C 1274.44 979.45 1274.02 989.23 1274.23 1005.23   Q 1274.58 1031.66 1274.30 1036.96   Q 1273.51 1051.60 1273.82 1060.29   Q 1274.38 1075.93 1274.35 1077.48   Q 1274.03 1094.38 1274.09 1131.37   Q 1274.13 1155.13 1273.99 1178.77   Q 1273.96 1183.38 1271.39 1186.00"/>
<path stroke="#955732" vector-effect="non-scaling-stroke" d="   M 1515.75 0.00   Q 1514.99 3.87 1514.98 6.26   Q 1514.91 30.92 1515.03 129.00   C 1515.05 143.57 1514.75 159.82 1514.94 175.00   Q 1515.18 193.34 1515.10 209.50   Q 1514.73 288.30 1514.97 385.02   Q 1515.06 424.46 1515.03 447.08   Q 1514.95 497.03 1514.89 536.37   Q 1514.81 589.05 1514.91 608.33   Q 1514.99 622.56 1514.96 655.65   Q 1514.92 693.46 1514.93 1166.24   C 1514.93 1175.09 1514.62 1179.89 1516.01 1186.00"/>
<path stroke="#955732" vector-effect="non-scaling-stroke" d="   M 1528.50 0.00   Q 1529.78 5.01 1529.67 10.22   C 1529.22 30.41 1529.68 50.23 1529.31 69.57   C 1529.11 80.25 1529.75 95.77 1529.21 108.48   Q 1529.01 112.99 1529.46 123.64   Q 1529.71 129.53 1529.57 146.36   Q 1529.36 172.01 1529.26 177.51   C 1528.98 192.57 1529.82 209.39 1529.71 221.49   C 1529.43 252.04 1530.02 291.29 1529.33 327.18   Q 1529.00 344.41 1529.36 365.78   C 1529.59 379.99 1528.82 396.74 1529.19 410.89   Q 1529.72 430.96 1529.41 449.79   C 1529.18 463.55 1529.76 476.47 1529.50 490.67   Q 1529.20 507.15 1529.31 521.35   Q 1529.71 572.88 1529.19 606.30   C 1528.97 620.29 1529.77 635.76 1529.69 650.79   Q 1529.34 721.61 1529.79 793.52   C 1530.01 827.37 1529.27 854.08 1529.88 887.48   Q 1530.00 893.52 1529.68 926.46   C 1529.39 956.76 1530.25 992.85 1529.81 1021.00   C 1529.58 1035.62 1530.27 1049.72 1530.02 1063.00   C 1529.54 1089.70 1530.01 1118.28 1529.58 1144.41   C 1529.41 1155.04 1529.63 1167.36 1529.46 1179.80   Q 1529.41 1182.91 1529.00 1186.00"/>
</g>
<path xmlns="http://www.w3.org/2000/svg" fill="#9c5d36" d="   M 241.15 0.00   Q 240.13 4.54 240.14 10.51   Q 240.19 42.65 239.85 139.32   C 239.81 153.11 240.60 169.05 240.77 180.58   Q 240.83 184.71 239.94 202.53   C 239.31 215.24 240.20 236.55 239.98 254.34   Q 239.82 267.15 240.01 270.54   C 240.56 280.50 239.93 289.53 239.92 300.56   Q 239.88 345.18 240.44 376.95   C 240.63 387.56 239.17 396.28 239.54 406.49   C 240.83 441.90 239.85 476.13 239.90 512.16   Q 240.03 600.69 239.91 626.14   Q 239.77 658.14 240.03 687.36   C 240.29 716.50 239.54 752.84 240.13 785.41   Q 240.22 790.18 239.98 822.25   Q 239.82 844.28 240.07 919.49   C 240.19 953.77 239.58 982.63 239.99 1009.31   C 240.45 1038.88 240.03 1073.85 239.89 1102.06   C 239.82 1114.06 240.72 1124.19 240.29 1136.67   Q 239.82 1149.98 240.00 1172.45   Q 240.07 1180.09 241.24 1186.00   L 0.00 1186.00   L 0.00 0.00   L 241.15 0.00   Z"/>
<path xmlns="http://www.w3.org/2000/svg" fill="#8d512e" d="   M 253.15 0.00   Q 254.14 4.39 254.15 8.88   C 254.22 30.73 253.62 54.45 253.81 76.28   Q 254.05 103.58 253.84 106.33   C 253.44 111.69 253.07 119.23 253.25 124.62   Q 254.47 161.63 253.44 191.81   C 253.14 200.65 253.61 207.77 253.99 218.34   C 254.43 230.58 253.40 244.07 254.09 256.70   C 254.59 265.81 253.46 277.10 253.73 287.84   C 254.31 310.52 254.01 331.22 253.71 355.01   Q 253.59 364.28 254.08 372.42   C 254.79 384.53 253.84 395.65 254.03 408.22   Q 254.26 423.17 254.09 426.60   C 253.13 446.69 254.02 466.60 253.92 487.08   Q 253.80 511.47 253.78 512.45   C 253.36 544.39 254.60 576.26 253.83 607.60   Q 253.52 619.87 253.65 626.43   Q 254.45 666.89 253.91 685.69   Q 253.43 702.76 253.68 710.07   Q 254.58 735.83 254.03 760.46   C 253.78 771.83 254.43 782.50 254.27 793.92   Q 253.46 850.67 254.16 889.72   Q 254.62 915.28 254.29 927.39   Q 253.66 950.13 254.04 964.46   C 254.77 992.35 253.77 1023.41 253.91 1047.78   Q 254.08 1078.73 254.06 1085.83   C 253.99 1107.31 254.46 1118.29 253.98 1137.69   Q 253.57 1154.61 254.49 1175.47   Q 254.67 1179.60 253.38 1186.00   L 241.24 1186.00   Q 240.07 1180.09 240.00 1172.45   Q 239.82 1149.98 240.29 1136.67   C 240.72 1124.19 239.82 1114.06 239.89 1102.06   C 240.03 1073.85 240.45 1038.88 239.99 1009.31   C 239.58 982.63 240.19 953.77 240.07 919.49   Q 239.82 844.28 239.98 822.25   Q 240.22 790.18 240.13 785.41   C 239.54 752.84 240.29 716.50 240.03 687.36   Q 239.77 658.14 239.91 626.14   Q 240.03 600.69 239.90 512.16   C 239.85 476.13 240.83 441.90 239.54 406.49   C 239.17 396.28 240.63 387.56 240.44 376.95   Q 239.88 345.18 239.92 300.56   C 239.93 289.53 240.56 280.50 240.01 270.54   Q 239.82 267.15 239.98 254.34   C 240.20 236.55 239.31 215.24 239.94 202.53   Q 240.83 184.71 240.77 180.58   C 240.60 169.05 239.81 153.11 239.85 139.32   Q 240.19 42.65 240.14 10.51   Q 240.13 4.54 241.15 0.00   L 253.15 0.00   Z"/>
<path xmlns="http://www.w3.org/2000/svg" fill="#9c5d36" d="   M 496.40 0.00   C 495.38 7.56 495.87 16.03 495.89 18.71   C 495.97 30.92 495.09 41.42 495.36 54.86   C 495.80 77.25 495.53 92.96 495.39 128.85   C 495.29 153.81 495.59 175.83 495.25 205.06   Q 495.01 226.09 495.67 261.00   Q 495.91 273.99 495.53 288.25   Q 494.94 309.99 495.12 315.50   C 496.21 347.93 495.49 379.15 495.44 410.73   Q 495.29 508.99 495.40 549.28   Q 495.46 575.36 495.20 587.29   C 495.00 596.04 495.65 606.17 495.39 615.69   Q 494.90 633.17 495.14 646.50   C 495.58 671.66 495.21 698.16 495.07 720.55   C 494.96 736.34 495.48 754.95 495.38 772.00   C 495.16 812.35 495.47 859.10 495.64 888.67   C 495.73 904.47 495.22 917.71 495.48 931.96   C 495.76 947.69 495.26 967.70 495.55 987.45   Q 495.64 993.75 495.56 1010.48   Q 495.25 1072.21 495.55 1118.74   C 495.69 1140.16 494.79 1165.93 496.13 1184.15   A 1.53 1.52 -89.6 0 0 497.50 1185.55   L 502.12 1186.00   L 253.38 1186.00   Q 254.67 1179.60 254.49 1175.47   Q 253.57 1154.61 253.98 1137.69   C 254.46 1118.29 253.99 1107.31 254.06 1085.83   Q 254.08 1078.73 253.91 1047.78   C 253.77 1023.41 254.77 992.35 254.04 964.46   Q 253.66 950.13 254.29 927.39   Q 254.62 915.28 254.16 889.72   Q 253.46 850.67 254.27 793.92   C 254.43 782.50 253.78 771.83 254.03 760.46   Q 254.58 735.83 253.68 710.07   Q 253.43 702.76 253.91 685.69   Q 254.45 666.89 253.65 626.43   Q 253.52 619.87 253.83 607.60   C 254.60 576.26 253.36 544.39 253.78 512.45   Q 253.80 511.47 253.92 487.08   C 254.02 466.60 253.13 446.69 254.09 426.60   Q 254.26 423.17 254.03 408.22   C 253.84 395.65 254.79 384.53 254.08 372.42   Q 253.59 364.28 253.71 355.01   C 254.01 331.22 254.31 310.52 253.73 287.84   C 253.46 277.10 254.59 265.81 254.09 256.70   C 253.40 244.07 254.43 230.58 253.99 218.34   C 253.61 207.77 253.14 200.65 253.44 191.81   Q 254.47 161.63 253.25 124.62   C 253.07 119.23 253.44 111.69 253.84 106.33   Q 254.05 103.58 253.81 76.28   C 253.62 54.45 254.22 30.73 254.15 8.88   Q 254.14 4.39 253.15 0.00   L 496.40 0.00   Z"/>
<path xmlns="http://www.w3.org/2000/svg" fill="#8d512e" d="   M 507.86 0.00   Q 509.05 4.23 509.17 8.59   C 509.57 22.86 509.05 39.59 509.19 51.74   Q 509.39 67.94 509.36 115.00   Q 509.35 124.39 509.04 228.15   Q 508.97 252.51 509.00 288.64   C 509.01 307.94 509.29 325.19 509.20 341.81   Q 508.89 401.03 509.10 410.52   Q 509.55 431.30 509.25 442.55   C 508.54 468.83 509.66 496.23 509.38 521.47   Q 509.06 548.89 509.53 573.91   C 509.84 590.88 508.74 607.71 509.18 622.17   Q 509.62 636.53 509.20 656.43   Q 508.85 673.08 509.19 697.50   C 509.46 716.83 508.96 730.63 509.37 750.28   C 509.73 767.30 509.08 786.77 509.18 808.31   Q 509.60 906.03 509.09 1020.95   C 509.04 1031.58 509.54 1043.72 509.28 1054.80   Q 509.12 1061.82 509.42 1080.20   C 509.74 1099.72 509.00 1115.31 509.18 1134.89   Q 509.33 1150.69 509.20 1181.58   Q 509.19 1182.97 508.61 1186.00   L 502.12 1186.00   L 497.50 1185.55   A 1.53 1.52 -89.6 0 1 496.13 1184.15   C 494.79 1165.93 495.69 1140.16 495.55 1118.74   Q 495.25 1072.21 495.56 1010.48   Q 495.64 993.75 495.55 987.45   C 495.26 967.70 495.76 947.69 495.48 931.96   C 495.22 917.71 495.73 904.47 495.64 888.67   C 495.47 859.10 495.16 812.35 495.38 772.00   C 495.48 754.95 494.96 736.34 495.07 720.55   C 495.21 698.16 495.58 671.66 495.14 646.50   Q 494.90 633.17 495.39 615.69   C 495.65 606.17 495.00 596.04 495.20 587.29   Q 495.46 575.36 495.40 549.28   Q 495.29 508.99 495.44 410.73   C 495.49 379.15 496.21 347.93 495.12 315.50   Q 494.94 309.99 495.53 288.25   Q 495.91 273.99 495.67 261.00   Q 495.01 226.09 495.25 205.06   C 495.59 175.83 495.29 153.81 495.39 128.85   C 495.53 92.96 495.80 77.25 495.36 54.86   C 495.09 41.42 495.97 30.92 495.89 18.71   C 495.87 16.03 495.38 7.56 496.40 0.00   L 507.86 0.00   Z"/>
<path xmlns="http://www.w3.org/2000/svg" fill="#9c5d36" d="   M 750.00 0.00   Q 749.88 5.00 749.87 10.01   Q 749.79 116.52 749.77 118.25   C 749.60 130.99 749.08 140.19 749.52 150.89   C 750.34 170.66 749.72 191.79 749.78 213.62   Q 749.95 276.79 749.85 341.93   C 749.83 352.69 750.28 364.22 750.00 375.48   Q 749.71 386.95 749.80 400.66   Q 750.11 450.29 749.76 471.41   C 749.48 488.63 750.21 508.41 749.84 528.05   Q 749.51 545.73 749.83 590.02   C 749.90 598.48 749.51 607.57 749.58 615.48   Q 749.88 647.51 749.72 669.75   C 749.60 686.68 750.12 703.79 749.76 720.13   C 749.20 746.01 749.86 776.21 749.94 807.28   Q 750.00 831.14 749.90 925.63   Q 749.81 1017.59 749.82 1039.14   Q 749.84 1107.76 749.97 1175.75   Q 749.99 1182.08 751.49 1186.00   L 508.61 1186.00   Q 509.19 1182.97 509.20 1181.58   Q 509.33 1150.69 509.18 1134.89   C 509.00 1115.31 509.74 1099.72 509.42 1080.20   Q 509.12 1061.82 509.28 1054.80   C 509.54 1043.72 509.04 1031.58 509.09 1020.95   Q 509.60 906.03 509.18 808.31   C 509.08 786.77 509.73 767.30 509.37 750.28   C 508.96 730.63 509.46 716.83 509.19 697.50   Q 508.85 673.08 509.20 656.43   Q 509.62 636.53 509.18 622.17   C 508.74 607.71 509.84 590.88 509.53 573.91   Q 509.06 548.89 509.38 521.47   C 509.66 496.23 508.54 468.83 509.25 442.55   Q 509.55 431.30 509.10 410.52   Q 508.89 401.03 509.20 341.81   C 509.29 325.19 509.01 307.94 509.00 288.64   Q 508.97 252.51 509.04 228.15   Q 509.35 124.39 509.36 115.00   Q 509.39 67.94 509.19 51.74   C 509.05 39.59 509.57 22.86 509.17 8.59   Q 509.05 4.23 507.86 0.00   L 750.00 0.00   Z"/>
<path xmlns="http://www.w3.org/2000/svg" fill="#8d512e" d="   M 763.24 0.00   Q 764.13 4.14 764.12 8.38   Q 764.07 24.47 764.45 47.84   C 764.80 69.30 763.85 93.45 764.22 114.90   Q 764.52 132.45 764.19 154.73   C 763.93 172.81 764.27 194.93 764.51 209.65   Q 764.55 212.25 764.40 237.24   Q 764.26 260.35 764.46 291.25   Q 764.63 316.83 764.41 326.42   C 763.70 356.37 764.51 379.96 764.44 414.32   C 764.42 425.42 763.26 439.13 763.65 449.38   Q 764.54 472.40 764.45 477.50   C 764.15 496.19 763.72 510.95 764.23 529.30   C 764.69 545.88 763.74 562.58 764.10 580.49   C 764.49 599.93 764.13 614.57 764.43 634.59   C 764.49 638.66 764.13 645.19 764.16 649.88   Q 764.37 686.56 764.12 759.50   C 764.05 781.26 764.71 803.96 764.38 827.24   Q 764.13 844.41 764.27 878.04   C 764.54 944.15 764.19 1021.70 764.33 1087.33   Q 764.43 1132.43 764.35 1178.71   C 764.35 1181.20 764.02 1183.60 763.62 1186.00   L 751.49 1186.00   Q 749.99 1182.08 749.97 1175.75   Q 749.84 1107.76 749.82 1039.14   Q 749.81 1017.59 749.90 925.63   Q 750.00 831.14 749.94 807.28   C 749.86 776.21 749.20 746.01 749.76 720.13   C 750.12 703.79 749.60 686.68 749.72 669.75   Q 749.88 647.51 749.58 615.48   C 749.51 607.57 749.90 598.48 749.83 590.02   Q 749.51 545.73 749.84 528.05   C 750.21 508.41 749.48 488.63 749.76 471.41   Q 750.11 450.29 749.80 400.66   Q 749.71 386.95 750.00 375.48   C 750.28 364.22 749.83 352.69 749.85 341.93   Q 749.95 276.79 749.78 213.62   C 749.72 191.79 750.34 170.66 749.52 150.89   C 749.08 140.19 749.60 130.99 749.77 118.25   Q 749.79 116.52 749.87 10.01   Q 749.88 5.00 750.00 0.00   L 763.24 0.00   Z"/>
<path xmlns="http://www.w3.org/2000/svg" fill="#9c5d36" d="   M 1005.75 0.00   Q 1004.99 4.31 1004.98 5.54   Q 1004.64 34.96 1004.94 70.50   Q 1005.12 91.72 1004.76 153.85   C 1004.60 182.22 1005.14 208.25 1004.89 235.79   Q 1004.68 259.93 1004.79 297.22   Q 1004.81 305.69 1004.99 375.16   Q 1005.05 396.56 1004.89 563.42   C 1004.87 575.36 1004.54 588.08 1004.86 600.38   Q 1005.03 606.82 1004.89 628.11   Q 1004.77 647.75 1004.92 693.68   C 1004.96 706.01 1005.86 714.56 1005.40 724.74   Q 1004.88 736.16 1004.86 746.44   C 1004.71 802.41 1004.92 844.09 1004.87 902.85   Q 1004.70 1108.58 1004.90 1177.87   Q 1004.91 1181.22 1006.25 1186.00   L 763.62 1186.00   C 764.02 1183.60 764.35 1181.20 764.35 1178.71   Q 764.43 1132.43 764.33 1087.33   C 764.19 1021.70 764.54 944.15 764.27 878.04   Q 764.13 844.41 764.38 827.24   C 764.71 803.96 764.05 781.26 764.12 759.50   Q 764.37 686.56 764.16 649.88   C 764.13 645.19 764.49 638.66 764.43 634.59   C 764.13 614.57 764.49 599.93 764.10 580.49   C 763.74 562.58 764.69 545.88 764.23 529.30   C 763.72 510.95 764.15 496.19 764.45 477.50   Q 764.54 472.40 763.65 449.38   C 763.26 439.13 764.42 425.42 764.44 414.32   C 764.51 379.96 763.70 356.37 764.41 326.42   Q 764.63 316.83 764.46 291.25   Q 764.26 260.35 764.40 237.24   Q 764.55 212.25 764.51 209.65   C 764.27 194.93 763.93 172.81 764.19 154.73   Q 764.52 132.45 764.22 114.90   C 763.85 93.45 764.80 69.30 764.45 47.84   Q 764.07 24.47 764.12 8.38   Q 764.13 4.14 763.24 0.00   L 1005.75 0.00   Z"/>
<path xmlns="http://www.w3.org/2000/svg" fill="#8d512e" d="   M 1018.74 0.00   C 1020.25 5.85 1019.47 13.20 1019.51 17.23   C 1019.75 39.34 1019.44 57.42 1019.81 79.03   Q 1020.36 110.88 1019.61 134.67   C 1019.43 140.41 1019.86 147.87 1020.10 152.69   Q 1020.28 156.25 1020.09 166.19   C 1019.80 180.85 1019.13 192.34 1019.49 205.97   Q 1019.78 216.77 1019.88 264.16   Q 1019.89 269.19 1019.87 276.10   Q 1019.80 300.50 1019.20 366.31   Q 1019.05 382.52 1019.75 411.46   Q 1020.04 423.85 1019.73 432.03   C 1019.14 447.40 1020.17 460.40 1019.67 477.37   Q 1019.32 489.43 1019.98 508.26   Q 1020.42 520.75 1019.90 546.77   C 1019.59 562.65 1020.10 573.81 1019.66 589.72   Q 1019.37 600.12 1019.45 621.94   C 1019.57 649.91 1019.92 676.96 1019.48 706.10   Q 1019.21 724.41 1020.10 741.98   C 1020.41 748.11 1020.11 753.94 1019.71 759.62   Q 1019.42 763.85 1019.43 772.83   Q 1019.46 799.04 1019.87 832.47   C 1020.03 845.16 1019.22 860.25 1019.62 874.19   Q 1020.45 902.39 1019.43 936.15   Q 1019.26 941.69 1019.77 974.91   Q 1019.89 983.14 1019.80 988.00   C 1019.60 999.48 1020.04 1007.94 1019.69 1020.74   C 1019.08 1043.51 1020.85 1067.11 1019.69 1091.06   Q 1019.41 1097.04 1019.62 1113.95   Q 1019.94 1139.84 1019.33 1180.78   Q 1019.29 1183.40 1019.04 1186.00   L 1006.25 1186.00   Q 1004.91 1181.22 1004.90 1177.87   Q 1004.70 1108.58 1004.87 902.85   C 1004.92 844.09 1004.71 802.41 1004.86 746.44   Q 1004.88 736.16 1005.40 724.74   C 1005.86 714.56 1004.96 706.01 1004.92 693.68   Q 1004.77 647.75 1004.89 628.11   Q 1005.03 606.82 1004.86 600.38   C 1004.54 588.08 1004.87 575.36 1004.89 563.42   Q 1005.05 396.56 1004.99 375.16   Q 1004.81 305.69 1004.79 297.22   Q 1004.68 259.93 1004.89 235.79   C 1005.14 208.25 1004.60 182.22 1004.76 153.85   Q 1005.12 91.72 1004.94 70.50   Q 1004.64 34.96 1004.98 5.54   Q 1004.99 4.31 1005.75 0.00   L 1018.74 0.00   Z"/>
<path xmlns="http://www.w3.org/2000/svg" fill="#9c5d36" d="   M 1260.16 0.00   Q 1259.68 33.53 1259.93 67.07   C 1260.09 89.04 1259.74 109.66 1259.81 130.80   Q 1259.85 142.63 1259.88 169.68   Q 1259.93 205.64 1259.96 208.53   Q 1259.98 210.02 1259.99 224.82   Q 1260.02 253.20 1259.77 276.69   C 1259.44 308.67 1259.87 344.77 1260.26 376.64   Q 1260.37 385.56 1259.71 398.56   C 1258.94 413.64 1259.97 431.20 1259.98 445.66   Q 1260.03 502.89 1259.76 604.47   Q 1259.71 621.98 1259.75 625.03   C 1259.98 642.78 1259.73 662.57 1259.79 676.49   Q 1259.98 721.56 1259.52 747.52   C 1259.26 762.14 1260.18 775.66 1259.89 790.10   Q 1259.67 801.41 1259.88 822.03   Q 1260.21 853.86 1260.01 895.25   C 1259.83 932.80 1260.20 970.67 1259.90 1007.25   C 1259.70 1032.13 1260.07 1059.58 1259.59 1086.59   Q 1259.37 1099.40 1259.99 1114.45   C 1260.34 1122.73 1260.03 1131.12 1259.74 1139.91   Q 1259.17 1156.99 1259.88 1176.89   Q 1260.08 1182.47 1260.76 1186.00   L 1019.04 1186.00   Q 1019.29 1183.40 1019.33 1180.78   Q 1019.94 1139.84 1019.62 1113.95   Q 1019.41 1097.04 1019.69 1091.06   C 1020.85 1067.11 1019.08 1043.51 1019.69 1020.74   C 1020.04 1007.94 1019.60 999.48 1019.80 988.00   Q 1019.89 983.14 1019.77 974.91   Q 1019.26 941.69 1019.43 936.15   Q 1020.45 902.39 1019.62 874.19   C 1019.22 860.25 1020.03 845.16 1019.87 832.47   Q 1019.46 799.04 1019.43 772.83   Q 1019.42 763.85 1019.71 759.62   C 1020.11 753.94 1020.41 748.11 1020.10 741.98   Q 1019.21 724.41 1019.48 706.10   C 1019.92 676.96 1019.57 649.91 1019.45 621.94   Q 1019.37 600.12 1019.66 589.72   C 1020.10 573.81 1019.59 562.65 1019.90 546.77   Q 1020.42 520.75 1019.98 508.26   Q 1019.32 489.43 1019.67 477.37   C 1020.17 460.40 1019.14 447.40 1019.73 432.03   Q 1020.04 423.85 1019.75 411.46   Q 1019.05 382.52 1019.20 366.31   Q 1019.80 300.50 1019.87 276.10   Q 1019.89 269.19 1019.88 264.16   Q 1019.78 216.77 1019.49 205.97   C 1019.13 192.34 1019.80 180.85 1020.09 166.19   Q 1020.28 156.25 1020.10 152.69   C 1019.86 147.87 1019.43 140.41 1019.61 134.67   Q 1020.36 110.88 1019.81 79.03   C 1019.44 57.42 1019.75 39.34 1019.51 17.23   C 1019.47 13.20 1020.25 5.85 1018.74 0.00   L 1260.16 0.00   Z"/>
<path xmlns="http://www.w3.org/2000/svg" fill="#8d512e" d="   M 1273.68 0.00   C 1274.01 6.93 1273.46 14.73 1273.72 20.70   Q 1274.43 37.17 1274.31 45.40   Q 1273.90 75.59 1274.15 107.70   C 1274.27 123.13 1273.76 139.33 1273.97 158.53   Q 1274.17 176.39 1273.66 199.53   Q 1273.50 206.70 1273.87 226.67   Q 1274.11 240.23 1274.13 253.81   Q 1274.18 310.03 1273.62 373.49   C 1273.43 395.13 1274.62 415.73 1274.28 438.51   C 1274.11 449.89 1274.92 460.74 1274.49 472.89   C 1273.98 487.14 1274.06 497.66 1274.46 515.58   C 1274.71 526.86 1273.81 538.95 1273.88 549.53   C 1274.04 574.06 1273.71 584.56 1274.22 608.22   C 1274.65 628.83 1273.78 647.65 1274.20 668.50   C 1274.54 685.12 1274.13 695.83 1273.84 718.12   Q 1273.69 729.80 1274.05 745.86   Q 1274.81 779.66 1273.73 804.54   Q 1273.63 806.85 1274.33 827.89   Q 1274.55 834.35 1274.15 849.64   C 1273.72 865.56 1273.96 880.41 1274.16 898.41   C 1274.25 906.64 1273.83 914.72 1274.12 922.48   C 1274.65 936.73 1273.67 955.84 1274.00 965.72   C 1274.44 979.45 1274.02 989.23 1274.23 1005.23   Q 1274.58 1031.66 1274.30 1036.96   Q 1273.51 1051.60 1273.82 1060.29   Q 1274.38 1075.93 1274.35 1077.48   Q 1274.03 1094.38 1274.09 1131.37   Q 1274.13 1155.13 1273.99 1178.77   Q 1273.96 1183.38 1271.39 1186.00   L 1260.76 1186.00   Q 1260.08 1182.47 1259.88 1176.89   Q 1259.17 1156.99 1259.74 1139.91   C 1260.03 1131.12 1260.34 1122.73 1259.99 1114.45   Q 1259.37 1099.40 1259.59 1086.59   C 1260.07 1059.58 1259.70 1032.13 1259.90 1007.25   C 1260.20 970.67 1259.83 932.80 1260.01 895.25   Q 1260.21 853.86 1259.88 822.03   Q 1259.67 801.41 1259.89 790.10   C 1260.18 775.66 1259.26 762.14 1259.52 747.52   Q 1259.98 721.56 1259.79 676.49   C 1259.73 662.57 1259.98 642.78 1259.75 625.03   Q 1259.71 621.98 1259.76 604.47   Q 1260.03 502.89 1259.98 445.66   C 1259.97 431.20 1258.94 413.64 1259.71 398.56   Q 1260.37 385.56 1260.26 376.64   C 1259.87 344.77 1259.44 308.67 1259.77 276.69   Q 1260.02 253.20 1259.99 224.82   Q 1259.98 210.02 1259.96 208.53   Q 1259.93 205.64 1259.88 169.68   Q 1259.85 142.63 1259.81 130.80   C 1259.74 109.66 1260.09 89.04 1259.93 67.07   Q 1259.68 33.53 1260.16 0.00   L 1273.68 0.00   Z"/>
<path xmlns="http://www.w3.org/2000/svg" fill="#9c5d36" d="   M 1515.75 0.00   Q 1514.99 3.87 1514.98 6.26   Q 1514.91 30.92 1515.03 129.00   C 1515.05 143.57 1514.75 159.82 1514.94 175.00   Q 1515.18 193.34 1515.10 209.50   Q 1514.73 288.30 1514.97 385.02   Q 1515.06 424.46 1515.03 447.08   Q 1514.95 497.03 1514.89 536.37   Q 1514.81 589.05 1514.91 608.33   Q 1514.99 622.56 1514.96 655.65   Q 1514.92 693.46 1514.93 1166.24   C 1514.93 1175.09 1514.62 1179.89 1516.01 1186.00   L 1271.39 1186.00   Q 1273.96 1183.38 1273.99 1178.77   Q 1274.13 1155.13 1274.09 1131.37   Q 1274.03 1094.38 1274.35 1077.48   Q 1274.38 1075.93 1273.82 1060.29   Q 1273.51 1051.60 1274.30 1036.96   Q 1274.58 1031.66 1274.23 1005.23   C 1274.02 989.23 1274.44 979.45 1274.00 965.72   C 1273.67 955.84 1274.65 936.73 1274.12 922.48   C 1273.83 914.72 1274.25 906.64 1274.16 898.41   C 1273.96 880.41 1273.72 865.56 1274.15 849.64   Q 1274.55 834.35 1274.33 827.89   Q 1273.63 806.85 1273.73 804.54   Q 1274.81 779.66 1274.05 745.86   Q 1273.69 729.80 1273.84 718.12   C 1274.13 695.83 1274.54 685.12 1274.20 668.50   C 1273.78 647.65 1274.65 628.83 1274.22 608.22   C 1273.71 584.56 1274.04 574.06 1273.88 549.53   C 1273.81 538.95 1274.71 526.86 1274.46 515.58   C 1274.06 497.66 1273.98 487.14 1274.49 472.89   C 1274.92 460.74 1274.11 449.89 1274.28 438.51   C 1274.62 415.73 1273.43 395.13 1273.62 373.49   Q 1274.18 310.03 1274.13 253.81   Q 1274.11 240.23 1273.87 226.67   Q 1273.50 206.70 1273.66 199.53   Q 1274.17 176.39 1273.97 158.53   C 1273.76 139.33 1274.27 123.13 1274.15 107.70   Q 1273.90 75.59 1274.31 45.40   Q 1274.43 37.17 1273.72 20.70   C 1273.46 14.73 1274.01 6.93 1273.68 0.00   L 1515.75 0.00   Z"/>
<path xmlns="http://www.w3.org/2000/svg" fill="#8d512e" d="   M 1528.50 0.00   Q 1529.78 5.01 1529.67 10.22   C 1529.22 30.41 1529.68 50.23 1529.31 69.57   C 1529.11 80.25 1529.75 95.77 1529.21 108.48   Q 1529.01 112.99 1529.46 123.64   Q 1529.71 129.53 1529.57 146.36   Q 1529.36 172.01 1529.26 177.51   C 1528.98 192.57 1529.82 209.39 1529.71 221.49   C 1529.43 252.04 1530.02 291.29 1529.33 327.18   Q 1529.00 344.41 1529.36 365.78   C 1529.59 379.99 1528.82 396.74 1529.19 410.89   Q 1529.72 430.96 1529.41 449.79   C 1529.18 463.55 1529.76 476.47 1529.50 490.67   Q 1529.20 507.15 1529.31 521.35   Q 1529.71 572.88 1529.19 606.30   C 1528.97 620.29 1529.77 635.76 1529.69 650.79   Q 1529.34 721.61 1529.79 793.52   C 1530.01 827.37 1529.27 854.08 1529.88 887.48   Q 1530.00 893.52 1529.68 926.46   C 1529.39 956.76 1530.25 992.85 1529.81 1021.00   C 1529.58 1035.62 1530.27 1049.72 1530.02 1063.00   C 1529.54 1089.70 1530.01 1118.28 1529.58 1144.41   C 1529.41 1155.04 1529.63 1167.36 1529.46 1179.80   Q 1529.41 1182.91 1529.00 1186.00   L 1516.01 1186.00   C 1514.62 1179.89 1514.93 1175.09 1514.93 1166.24   Q 1514.92 693.46 1514.96 655.65   Q 1514.99 622.56 1514.91 608.33   Q 1514.81 589.05 1514.89 536.37   Q 1514.95 497.03 1515.03 447.08   Q 1515.06 424.46 1514.97 385.02   Q 1514.73 288.30 1515.10 209.50   Q 1515.18 193.34 1514.94 175.00   C 1514.75 159.82 1515.05 143.57 1515.03 129.00   Q 1514.91 30.92 1514.98 6.26   Q 1514.99 3.87 1515.75 0.00   L 1528.50 0.00   Z"/>
<path xmlns="http://www.w3.org/2000/svg" fill="#9c5d36" d="   M 1768.00 0.00   L 1768.00 1186.00   L 1529.00 1186.00   Q 1529.41 1182.91 1529.46 1179.80   C 1529.63 1167.36 1529.41 1155.04 1529.58 1144.41   C 1530.01 1118.28 1529.54 1089.70 1530.02 1063.00   C 1530.27 1049.72 1529.58 1035.62 1529.81 1021.00   C 1530.25 992.85 1529.39 956.76 1529.68 926.46   Q 1530.00 893.52 1529.88 887.48   C 1529.27 854.08 1530.01 827.37 1529.79 793.52   Q 1529.34 721.61 1529.69 650.79   C 1529.77 635.76 1528.97 620.29 1529.19 606.30   Q 1529.71 572.88 1529.31 521.35   Q 1529.20 507.15 1529.50 490.67   C 1529.76 476.47 1529.18 463.55 1529.41 449.79   Q 1529.72 430.96 1529.19 410.89   C 1528.82 396.74 1529.59 379.99 1529.36 365.78   Q 1529.00 344.41 1529.33 327.18   C 1530.02 291.29 1529.43 252.04 1529.71 221.49   C 1529.82 209.39 1528.98 192.57 1529.26 177.51   Q 1529.36 172.01 1529.57 146.36   Q 1529.71 129.53 1529.46 123.64   Q 1529.01 112.99 1529.21 108.48   C 1529.75 95.77 1529.11 80.25 1529.31 69.57   C 1529.68 50.23 1529.22 30.41 1529.67 10.22   Q 1529.78 5.01 1528.50 0.00   L 1768.00 0.00   Z"/>
</g></g></g></svg>