<svg xmlns="http://www.w3.org/2000/svg" direction="ltr" width="2048" height="2048" viewBox="34090.885330818244 18758.499754154385 2048 2048" stroke-linecap="round" stroke-linejoin="round" data-color-mode="light" class="tl-container tl-theme__force-sRGB tl-theme__light" style="background-color: transparent;"><defs/><g transform="matrix(1, 0, 0, 1, 34090.8853, 18758.4998)" opacity="1"><g transform="scale(1.4143646408839778, 1.4143646408839778)"><g>
<g xmlns="http://www.w3.org/2000/svg" stroke-width="2.00" fill="none" stroke-linecap="butt">
<path stroke="#858585" vector-effect="non-scaling-stroke" d="   M 1167.72 603.39   Q 1161.55 602.98 1155.04 603.21   Q 1145.05 603.58 1142.39 603.58   Q 1016.72 603.61 891.07 603.38   C 889.39 603.38 886.98 603.52 885.94 602.31   Q 856.18 567.55 850.99 561.76   C 845.98 556.18 841.87 550.90 837.29 545.88   C 829.04 536.85 817.19 522.52 806.31 510.53   Q 799.89 503.46 794.95 497.74   C 779.41 479.77 764.68 463.00 750.77 446.72   Q 732.94 425.85 722.24 413.97   C 711.58 402.14 702.05 390.36 690.44 377.29   C 674.58 359.43 653.76 334.93 633.65 311.94   C 626.76 304.06 617.86 294.60 610.94 285.83   C 609.18 283.59 606.87 281.40 604.64 278.86   Q 592.64 265.16 584.33 255.53   Q 582.47 253.38 580.46 250.72   Q 578.60 248.26 576.65 245.85"/>
<path stroke="#a2a2a2" vector-effect="non-scaling-stroke" d="   M 834.25 1230.63   Q 834.12 1214.96 834.10 1199.25   Q 833.91 1091.73 834.00 870.51   Q 834.05 759.30 834.05 640.50   Q 834.05 616.22 834.24 606.26   C 834.27 604.29 833.94 602.96 832.61 601.69   Q 828.65 597.90 821.79 589.99   Q 817.27 584.77 789.30 552.47   C 785.51 548.09 780.59 543.16 777.07 538.92   Q 767.78 527.72 760.32 519.48   Q 758.08 517.00 745.22 502.32   Q 679.52 427.34 668.99 415.51   C 657.19 402.26 647.87 391.04 636.72 378.51   Q 626.46 366.98 619.00 358.22   Q 610.70 348.48 601.12 337.98   Q 588.13 323.75 577.60 310.98   A 1.09 1.09 0.0 0 0 576.06 310.83   Q 574.66 311.97 573.28 313.54   Q 568.83 318.62 565.57 321.56   C 562.32 324.48 559.06 329.37 556.42 332.42   Q 522.74 371.28 498.83 398.33   C 488.51 409.99 477.71 422.97 466.91 435.11   Q 431.20 475.22 412.39 496.99   Q 397.41 514.33 384.28 529.19   Q 364.23 551.88 356.03 561.28   Q 354.60 562.92 332.89 587.63   Q 330.95 589.84 326.06 595.78   Q 322.48 600.13 319.01 603.76"/>
<path stroke="#a2a2a2" vector-effect="non-scaling-stroke" d="   M 650.15 1230.43   L 650.15 946.36   A 0.34 0.34 0.0 0 0 649.81 946.02   L 503.66 946.02   A 0.52 0.52 0.0 0 0 503.14 946.55   L 503.63 1230.50"/>
<path stroke="#c8c8c8" vector-effect="non-scaling-stroke" d="   M 1001.06 738.80   Q 983.84 738.81 981.82 738.68   A 0.40 0.40 0.0 0 0 981.39 739.08   L 981.39 774.03   A 0.83 0.82 -90.0 0 1 980.57 774.86   L 941.58 774.86   A 0.42 0.42 0.0 0 0 941.16 775.28   L 941.16 811.06   A 0.44 0.44 0.0 0 1 940.72 811.50   L 904.49 811.50   A 0.38 0.37 -0.0 0 0 904.11 811.87   L 904.11 883.26   A 0.77 0.77 0.0 0 0 904.88 884.03   L 939.55 884.03   A 0.84 0.83 90.0 0 0 940.38 883.19   L 940.38 847.90   A 0.68 0.68 0.0 0 1 941.06 847.22   L 981.12 847.22   A 0.66 0.65 90.0 0 1 981.77 847.88   L 981.77 883.60   A 0.56 0.56 0.0 0 0 982.32 884.16   Q 984.25 884.17 1001.14 884.16   Q 1018.03 884.15 1019.96 884.14   A 0.56 0.56 0.0 0 0 1020.51 883.58   L 1020.47 847.86   A 0.66 0.65 89.9 0 1 1021.12 847.20   L 1061.18 847.15   A 0.68 0.68 0.0 0 1 1061.86 847.83   L 1061.90 883.12   A 0.84 0.83 89.9 0 0 1062.73 883.96   L 1097.40 883.93   A 0.77 0.77 0.0 0 0 1098.17 883.15   L 1098.09 811.77   A 0.38 0.37 -0.1 0 0 1097.71 811.40   L 1061.48 811.43   A 0.44 0.44 0.0 0 1 1061.04 811.00   L 1061.00 775.22   A 0.42 0.42 0.0 0 0 1060.58 774.80   L 1021.59 774.84   A 0.83 0.82 89.9 0 1 1020.77 774.01   L 1020.73 739.06   A 0.40 0.40 0.0 0 0 1020.30 738.66   Q 1018.28 738.79 1001.06 738.80"/>
<path stroke="#c8c8c8" vector-effect="non-scaling-stroke" d="   M 979.2750 925.2343   A 0.46 0.46 0.0 0 0 978.8142 924.7751   L 904.3743 924.9050   A 0.46 0.46 0.0 0 0 903.9151 925.3658   L 904.0450 999.8057   A 0.46 0.46 0.0 0 0 904.5058 1000.2649   L 978.9457 1000.1350   A 0.46 0.46 0.0 0 0 979.4049 999.6742   L 979.2750 925.2343"/>
<path stroke="#c8c8c8" vector-effect="non-scaling-stroke" d="   M 1098.35 925.31   A 0.37 0.37 0.0 0 0 1097.98 924.94   L 1023.48 924.94   A 0.37 0.37 0.0 0 0 1023.11 925.31   L 1023.11 999.81   A 0.37 0.37 0.0 0 0 1023.48 1000.18   L 1097.98 1000.18   A 0.37 0.37 0.0 0 0 1098.35 999.81   L 1098.35 925.31"/>
<path stroke="#d9d9d9" vector-effect="non-scaling-stroke" d="   M 634.42 748.34   A 4.49 4.43 86.3 0 1 635.96 749.71   Q 648.75 767.75 664.40 784.11   Q 676.30 796.55 689.64 805.61   C 697.69 811.07 706.61 814.51 716.55 813.94   C 720.95 813.68 723.54 812.38 727.10 810.08   C 735.19 804.86 741.55 798.76 744.97 789.47   Q 749.21 777.92 749.71 762.23   Q 750.24 745.57 747.73 726.75   Q 745.09 706.89 737.68 674.24   C 735.35 663.97 731.67 653.28 728.05 642.20   Q 721.17 621.09 707.75 603.01   C 702.92 596.49 697.11 592.18 690.46 587.04   Q 686.40 583.89 681.00 581.75   C 670.07 577.42 657.72 575.22 646.21 577.73   C 639.51 579.19 631.50 581.91 625.12 585.55   C 620.01 588.46 614.96 591.47 608.94 593.95   Q 578.09 606.68 545.68 594.77   Q 538.39 592.09 530.52 587.05   Q 524.59 583.26 520.91 581.73   C 499.40 572.78 478.06 575.75 459.33 589.38   Q 452.64 594.25 450.53 596.29   C 441.28 605.20 433.03 619.70 427.93 631.94   Q 418.71 654.09 413.86 676.91   Q 408.55 701.86 406.31 715.75   Q 401.78 743.91 403.40 770.01   C 404.57 788.85 412.26 805.69 430.67 812.82   Q 434.43 814.28 438.00 814.05   C 452.39 813.13 463.64 806.41 474.64 796.90   Q 489.98 783.64 501.01 770.00   Q 510.24 758.58 513.62 753.90   Q 518.52 747.11 526.42 746.39   Q 536.84 745.44 548.04 744.17   C 565.19 742.23 586.45 742.23 605.76 744.10   Q 625.68 746.04 627.25 746.23   Q 631.47 746.75 634.42 748.34"/>
<path stroke="#d9d9d9" vector-effect="non-scaling-stroke" d="   M 655.34 634.41   A 16.06 16.06 0.0 0 0 639.28 618.35   A 16.06 16.06 0.0 0 0 623.22 634.41   A 16.06 16.06 0.0 0 0 639.28 650.47   A 16.06 16.06 0.0 0 0 655.34 634.41"/>
<path stroke="#d9d9d9" vector-effect="non-scaling-stroke" d="   M 484.47 654.95   L 457.77 654.95   A 1.20 1.19 1.2 0 0 456.57 656.09   Q 456.14 664.71 456.58 673.97   Q 456.71 676.71 459.28 676.79   Q 470.53 677.11 483.82 676.33   A 1.29 1.28 88.3 0 1 485.18 677.62   L 485.18 703.11   A 2.17 2.17 0.0 0 0 487.35 705.28   L 504.07 705.28   A 1.37 1.36 0.0 0 0 505.44 703.92   L 505.44 677.69   A 0.86 0.86 0.0 0 1 506.30 676.83   L 532.99 676.83   A 1.39 1.39 0.0 0 0 534.38 675.50   Q 534.76 667.34 534.45 657.25   Q 534.38 654.98 531.79 654.94   Q 518.35 654.74 506.65 655.15   A 0.99 0.98 -0.9 0 1 505.63 654.17   L 505.63 627.61   A 1.72 1.71 -90.0 0 0 503.92 625.89   L 486.92 625.89   A 1.66 1.65 90.0 0 0 485.27 627.55   L 485.27 654.15   A 0.80 0.80 0.0 0 1 484.47 654.95"/>
<path stroke="#d9d9d9" vector-effect="non-scaling-stroke" d="   M 697.24 661.74   A 16.16 16.16 0.0 0 0 681.08 645.58   A 16.16 16.16 0.0 0 0 664.92 661.74   A 16.16 16.16 0.0 0 0 681.08 677.90   A 16.16 16.16 0.0 0 0 697.24 661.74"/>
<path stroke="#d9d9d9" vector-effect="non-scaling-stroke" d="   M 654.9506 691.4085   A 14.21 14.21 0.0 0 0 640.1580 677.8061   L 637.4004 677.9216   A 14.21 14.21 0.0 0 0 623.7979 692.7142   L 623.9294 695.8515   A 14.21 14.21 0.0 0 0 638.7220 709.4539   L 641.4796 709.3384   A 14.21 14.21 0.0 0 0 655.0821 694.5458   L 654.9506 691.4085"/>
</g>
<path xmlns="http://www.w3.org/2000/svg" fill="#797979" d="   M 1167.72 603.39   Q 1161.55 602.98 1155.04 603.21   Q 1145.05 603.58 1142.39 603.58   Q 1016.72 603.61 891.07 603.38   C 889.39 603.38 886.98 603.52 885.94 602.31   Q 856.18 567.55 850.99 561.76   C 845.98 556.18 841.87 550.90 837.29 545.88   C 829.04 536.85 817.19 522.52 806.31 510.53   Q 799.89 503.46 794.95 497.74   C 779.41 479.77 764.68 463.00 750.77 446.72   Q 732.94 425.85 722.24 413.97   C 711.58 402.14 702.05 390.36 690.44 377.29   C 674.58 359.43 653.76 334.93 633.65 311.94   C 626.76 304.06 617.86 294.60 610.94 285.83   C 609.18 283.59 606.87 281.40 604.64 278.86   Q 592.64 265.16 584.33 255.53   Q 582.47 253.38 580.46 250.72   Q 578.60 248.26 576.65 245.85   Q 578.18 245.33 581.25 245.32   Q 731.45 244.95 891.53 245.14   Q 898.44 245.15 902.46 245.39   C 906.85 245.65 909.46 248.99 912.66 252.74   Q 968.80 318.42 1057.08 419.05   C 1070.47 434.31 1081.46 447.40 1094.85 462.70   Q 1111.35 481.55 1160.35 538.45   C 1164.94 543.78 1172.27 551.24 1177.73 557.76   Q 1188.46 570.59 1195.57 578.29   Q 1199.15 582.17 1205.60 590.22   Q 1209.74 595.38 1215.63 601.76   A 0.72 0.72 0.0 0 1 1215.18 602.96   Q 1212.82 603.21 1210.75 603.22   Q 1189.86 603.31 1170.00 602.64   Q 1168.77 602.60 1167.72 603.39   Z"/>
<path xmlns="http://www.w3.org/2000/svg" fill="#919191" d="   M 576.65 245.85   Q 578.60 248.26 580.46 250.72   Q 582.47 253.38 584.33 255.53   Q 592.64 265.16 604.64 278.86   C 606.87 281.40 609.18 283.59 610.94 285.83   C 617.86 294.60 626.76 304.06 633.65 311.94   C 653.76 334.93 674.58 359.43 690.44 377.29   C 702.05 390.36 711.58 402.14 722.24 413.97   Q 732.94 425.85 750.77 446.72   C 764.68 463.00 779.41 479.77 794.95 497.74   Q 799.89 503.46 806.31 510.53   C 817.19 522.52 829.04 536.85 837.29 545.88   C 841.87 550.90 845.98 556.18 850.99 561.76   Q 856.18 567.55 885.94 602.31   C 886.98 603.52 889.39 603.38 891.07 603.38   Q 1016.72 603.61 1142.39 603.58   Q 1145.05 603.58 1155.04 603.21   Q 1161.55 602.98 1167.72 603.39   Q 1166.86 611.41 1167.04 619.57   Q 1167.27 630.17 1167.27 630.44   Q 1167.37 913.05 1167.31 1215.50   Q 1167.31 1218.38 1167.79 1224.84   C 1167.90 1226.38 1167.63 1228.11 1167.18 1229.36   A 2.59 2.57 9.8 0 1 1164.75 1231.06   L 834.25 1230.63   Q 834.12 1214.96 834.10 1199.25   Q 833.91 1091.73 834.00 870.51   Q 834.05 759.30 834.05 640.50   Q 834.05 616.22 834.24 606.26   C 834.27 604.29 833.94 602.96 832.61 601.69   Q 828.65 597.90 821.79 589.99   Q 817.27 584.77 789.30 552.47   C 785.51 548.09 780.59 543.16 777.07 538.92   Q 767.78 527.72 760.32 519.48   Q 758.08 517.00 745.22 502.32   Q 679.52 427.34 668.99 415.51   C 657.19 402.26 647.87 391.04 636.72 378.51   Q 626.46 366.98 619.00 358.22   Q 610.70 348.48 601.12 337.98   Q 588.13 323.75 577.60 310.98   A 1.09 1.09 0.0 0 0 576.06 310.83   Q 574.66 311.97 573.28 313.54   Q 568.83 318.62 565.57 321.56   C 562.32 324.48 559.06 329.37 556.42 332.42   Q 522.74 371.28 498.83 398.33   C 488.51 409.99 477.71 422.97 466.91 435.11   Q 431.20 475.22 412.39 496.99   Q 397.41 514.33 384.28 529.19   Q 364.23 551.88 356.03 561.28   Q 354.60 562.92 332.89 587.63   Q 330.95 589.84 326.06 595.78   Q 322.48 600.13 319.01 603.76   Q 315.75 602.26 311.29 602.54   Q 307.76 602.76 307.71 602.77   Q 292.43 603.14 272.00 603.67   Q 269.10 603.75 267.10 603.04   A 1.06 1.06 0.0 0 1 266.75 601.25   Q 268.94 599.30 270.86 597.12   Q 276.37 590.86 281.78 584.50   Q 285.62 579.99 319.76 540.83   Q 339.93 517.69 357.62 497.06   C 390.22 459.04 429.34 414.31 463.99 374.06   Q 469.16 368.05 472.10 365.02   C 475.85 361.17 479.01 357.05 482.74 352.78   Q 517.55 312.94 542.76 283.50   C 551.07 273.79 563.13 260.44 572.85 248.61   Q 574.19 246.97 576.65 245.85   Z   M 1001.06 738.80   Q 983.84 738.81 981.82 738.68   A 0.40 0.40 0.0 0 0 981.39 739.08   L 981.39 774.03   A 0.83 0.82 -90.0 0 1 980.57 774.86   L 941.58 774.86   A 0.42 0.42 0.0 0 0 941.16 775.28   L 941.16 811.06   A 0.44 0.44 0.0 0 1 940.72 811.50   L 904.49 811.50   A 0.38 0.37 -0.0 0 0 904.11 811.87   L 904.11 883.26   A 0.77 0.77 0.0 0 0 904.88 884.03   L 939.55 884.03   A 0.84 0.83 90.0 0 0 940.38 883.19   L 940.38 847.90   A 0.68 0.68 0.0 0 1 941.06 847.22   L 981.12 847.22   A 0.66 0.65 90.0 0 1 981.77 847.88   L 981.77 883.60   A 0.56 0.56 0.0 0 0 982.32 884.16   Q 984.25 884.17 1001.14 884.16   Q 1018.03 884.15 1019.96 884.14   A 0.56 0.56 0.0 0 0 1020.51 883.58   L 1020.47 847.86   A 0.66 0.65 89.9 0 1 1021.12 847.20   L 1061.18 847.15   A 0.68 0.68 0.0 0 1 1061.86 847.83   L 1061.90 883.12   A 0.84 0.83 89.9 0 0 1062.73 883.96   L 1097.40 883.93   A 0.77 0.77 0.0 0 0 1098.17 883.15   L 1098.09 811.77   A 0.38 0.37 -0.1 0 0 1097.71 811.40   L 1061.48 811.43   A 0.44 0.44 0.0 0 1 1061.04 811.00   L 1061.00 775.22   A 0.42 0.42 0.0 0 0 1060.58 774.80   L 1021.59 774.84   A 0.83 0.82 89.9 0 1 1020.77 774.01   L 1020.73 739.06   A 0.40 0.40 0.0 0 0 1020.30 738.66   Q 1018.28 738.79 1001.06 738.80   Z   M 979.2750 925.2343   A 0.46 0.46 0.0 0 0 978.8142 924.7751   L 904.3743 924.9050   A 0.46 0.46 0.0 0 0 903.9151 925.3658   L 904.0450 999.8057   A 0.46 0.46 0.0 0 0 904.5058 1000.2649   L 978.9457 1000.1350   A 0.46 0.46 0.0 0 0 979.4049 999.6742   L 979.2750 925.2343   Z   M 1098.35 925.31   A 0.37 0.37 0.0 0 0 1097.98 924.94   L 1023.48 924.94   A 0.37 0.37 0.0 0 0 1023.11 925.31   L 1023.11 999.81   A 0.37 0.37 0.0 0 0 1023.48 1000.18   L 1097.98 1000.18   A 0.37 0.37 0.0 0 0 1098.35 999.81   L 1098.35 925.31   Z"/>
<path xmlns="http://www.w3.org/2000/svg" fill="#b2b2b2" d="   M 834.25 1230.63   L 650.15 1230.43   L 650.15 946.36   A 0.34 0.34 0.0 0 0 649.81 946.02   L 503.66 946.02   A 0.52 0.52 0.0 0 0 503.14 946.55   L 503.63 1230.50   L 320.02 1230.27   A 0.72 0.71 82.6 0 1 319.33 1229.73   Q 318.46 1226.27 318.45 1225.75   Q 318.32 1213.51 318.35 1187.25   Q 318.68 911.06 318.76 655.25   Q 318.77 633.56 318.79 611.00   Q 318.79 607.89 319.01 603.76   Q 322.48 600.13 326.06 595.78   Q 330.95 589.84 332.89 587.63   Q 354.60 562.92 356.03 561.28   Q 364.23 551.88 384.28 529.19   Q 397.41 514.33 412.39 496.99   Q 431.20 475.22 466.91 435.11   C 477.71 422.97 488.51 409.99 498.83 398.33   Q 522.74 371.28 556.42 332.42   C 559.06 329.37 562.32 324.48 565.57 321.56   Q 568.83 318.62 573.28 313.54   Q 574.66 311.97 576.06 310.83   A 1.09 1.09 0.0 0 1 577.60 310.98   Q 588.13 323.75 601.12 337.98   Q 610.70 348.48 619.00 358.22   Q 626.46 366.98 636.72 378.51   C 647.87 391.04 657.19 402.26 668.99 415.51   Q 679.52 427.34 745.22 502.32   Q 758.08 517.00 760.32 519.48   Q 767.78 527.72 777.07 538.92   C 780.59 543.16 785.51 548.09 789.30 552.47   Q 817.27 584.77 821.79 589.99   Q 828.65 597.90 832.61 601.69   C 833.94 602.96 834.27 604.29 834.24 606.26   Q 834.05 616.22 834.05 640.50   Q 834.05 759.30 834.00 870.51   Q 833.91 1091.73 834.10 1199.25   Q 834.12 1214.96 834.25 1230.63   Z   M 634.42 748.34   A 4.49 4.43 86.3 0 1 635.96 749.71   Q 648.75 767.75 664.40 784.11   Q 676.30 796.55 689.64 805.61   C 697.69 811.07 706.61 814.51 716.55 813.94   C 720.95 813.68 723.54 812.38 727.10 810.08   C 735.19 804.86 741.55 798.76 744.97 789.47   Q 749.21 777.92 749.71 762.23   Q 750.24 745.57 747.73 726.75   Q 745.09 706.89 737.68 674.24   C 735.35 663.97 731.67 653.28 728.05 642.20   Q 721.17 621.09 707.75 603.01   C 702.92 596.49 697.11 592.18 690.46 587.04   Q 686.40 583.89 681.00 581.75   C 670.07 577.42 657.72 575.22 646.21 577.73   C 639.51 579.19 631.50 581.91 625.12 585.55   C 620.01 588.46 614.96 591.47 608.94 593.95   Q 578.09 606.68 545.68 594.77   Q 538.39 592.09 530.52 587.05   Q 524.59 583.26 520.91 581.73   C 499.40 572.78 478.06 575.75 459.33 589.38   Q 452.64 594.25 450.53 596.29   C 441.28 605.20 433.03 619.70 427.93 631.94   Q 418.71 654.09 413.86 676.91   Q 408.55 701.86 406.31 715.75   Q 401.78 743.91 403.40 770.01   C 404.57 788.85 412.26 805.69 430.67 812.82   Q 434.43 814.28 438.00 814.05   C 452.39 813.13 463.64 806.41 474.64 796.90   Q 489.98 783.64 501.01 770.00   Q 510.24 758.58 513.62 753.90   Q 518.52 747.11 526.42 746.39   Q 536.84 745.44 548.04 744.17   C 565.19 742.23 586.45 742.23 605.76 744.10   Q 625.68 746.04 627.25 746.23   Q 631.47 746.75 634.42 748.34   Z"/>
<path xmlns="http://www.w3.org/2000/svg" fill="#ffffff" d="   M 634.42 748.34   Q 631.47 746.75 627.25 746.23   Q 625.68 746.04 605.76 744.10   C 586.45 742.23 565.19 742.23 548.04 744.17   Q 536.84 745.44 526.42 746.39   Q 518.52 747.11 513.62 753.90   Q 510.24 758.58 501.01 770.00   Q 489.98 783.64 474.64 796.90   C 463.64 806.41 452.39 813.13 438.00 814.05   Q 434.43 814.28 430.67 812.82   C 412.26 805.69 404.57 788.85 403.40 770.01   Q 401.78 743.91 406.31 715.75   Q 408.55 701.86 413.86 676.91   Q 418.71 654.09 427.93 631.94   C 433.03 619.70 441.28 605.20 450.53 596.29   Q 452.64 594.25 459.33 589.38   C 478.06 575.75 499.40 572.78 520.91 581.73   Q 524.59 583.26 530.52 587.05   Q 538.39 592.09 545.68 594.77   Q 578.09 606.68 608.94 593.95   C 614.96 591.47 620.01 588.46 625.12 585.55   C 631.50 581.91 639.51 579.19 646.21 577.73   C 657.72 575.22 670.07 577.42 681.00 581.75   Q 686.40 583.89 690.46 587.04   C 697.11 592.18 702.92 596.49 707.75 603.01   Q 721.17 621.09 728.05 642.20   C 731.67 653.28 735.35 663.97 737.68 674.24   Q 745.09 706.89 747.73 726.75   Q 750.24 745.57 749.71 762.23   Q 749.21 777.92 744.97 789.47   C 741.55 798.76 735.19 804.86 727.10 810.08   C 723.54 812.38 720.95 813.68 716.55 813.94   C 706.61 814.51 697.69 811.07 689.64 805.61   Q 676.30 796.55 664.40 784.11   Q 648.75 767.75 635.96 749.71   A 4.49 4.43 86.3 0 0 634.42 748.34   Z   M 655.34 634.41   A 16.06 16.06 0.0 0 0 639.28 618.35   A 16.06 16.06 0.0 0 0 623.22 634.41   A 16.06 16.06 0.0 0 0 639.28 650.47   A 16.06 16.06 0.0 0 0 655.34 634.41   Z   M 484.47 654.95   L 457.77 654.95   A 1.20 1.19 1.2 0 0 456.57 656.09   Q 456.14 664.71 456.58 673.97   Q 456.71 676.71 459.28 676.79   Q 470.53 677.11 483.82 676.33   A 1.29 1.28 88.3 0 1 485.18 677.62   L 485.18 703.11   A 2.17 2.17 0.0 0 0 487.35 705.28   L 504.07 705.28   A 1.37 1.36 0.0 0 0 505.44 703.92   L 505.44 677.69   A 0.86 0.86 0.0 0 1 506.30 676.83   L 532.99 676.83   A 1.39 1.39 0.0 0 0 534.38 675.50   Q 534.76 667.34 534.45 657.25   Q 534.38 654.98 531.79 654.94   Q 518.35 654.74 506.65 655.15   A 0.99 0.98 -0.9 0 1 505.63 654.17   L 505.63 627.61   A 1.72 1.71 -90.0 0 0 503.92 625.89   L 486.92 625.89   A 1.66 1.65 90.0 0 0 485.27 627.55   L 485.27 654.15   A 0.80 0.80 0.0 0 1 484.47 654.95   Z   M 697.24 661.74   A 16.16 16.16 0.0 0 0 681.08 645.58   A 16.16 16.16 0.0 0 0 664.92 661.74   A 16.16 16.16 0.0 0 0 681.08 677.90   A 16.16 16.16 0.0 0 0 697.24 661.74   Z   M 654.9506 691.4085   A 14.21 14.21 0.0 0 0 640.1580 677.8061   L 637.4004 677.9216   A 14.21 14.21 0.0 0 0 623.7979 692.7142   L 623.9294 695.8515   A 14.21 14.21 0.0 0 0 638.7220 709.4539   L 641.4796 709.3384   A 14.21 14.21 0.0 0 0 655.0821 694.5458   L 654.9506 691.4085   Z"/>
<circle xmlns="http://www.w3.org/2000/svg" fill="#b2b2b2" cx="639.28" cy="634.41" r="16.06"/>
<path xmlns="http://www.w3.org/2000/svg" fill="#b2b2b2" d="   M 484.47 654.95   A 0.80 0.80 0.0 0 0 485.27 654.15   L 485.27 627.55   A 1.66 1.65 -90.0 0 1 486.92 625.89   L 503.92 625.89   A 1.72 1.71 90.0 0 1 505.63 627.61   L 505.63 654.17   A 0.99 0.98 -0.9 0 0 506.65 655.15   Q 518.35 654.74 531.79 654.94   Q 534.38 654.98 534.45 657.25   Q 534.76 667.34 534.38 675.50   A 1.39 1.39 0.0 0 1 532.99 676.83   L 506.30 676.83   A 0.86 0.86 0.0 0 0 505.44 677.69   L 505.44 703.92   A 1.37 1.36 -0.0 0 1 504.07 705.28   L 487.35 705.28   A 2.17 2.17 0.0 0 1 485.18 703.11   L 485.18 677.62   A 1.29 1.28 88.3 0 0 483.82 676.33   Q 470.53 677.11 459.28 676.79   Q 456.71 676.71 456.58 673.97   Q 456.14 664.71 456.57 656.09   A 1.20 1.19 1.2 0 1 457.77 654.95   L 484.47 654.95   Z"/>
<circle xmlns="http://www.w3.org/2000/svg" fill="#b2b2b2" cx="681.08" cy="661.74" r="16.16"/>
<rect xmlns="http://www.w3.org/2000/svg" fill="#b2b2b2" x="-15.59" y="-15.78" transform="translate(639.44,693.63) rotate(-2.4)" width="31.18" height="31.56" rx="14.21"/>
<path xmlns="http://www.w3.org/2000/svg" fill="#ffffff" d="   M 1001.14 884.16   Q 984.25 884.17 982.32 884.16   A 0.56 0.56 0.0 0 1 981.77 883.60   L 981.77 847.88   A 0.66 0.65 -90.0 0 0 981.12 847.22   L 941.06 847.22   A 0.68 0.68 0.0 0 0 940.38 847.90   L 940.38 883.19   A 0.84 0.83 90.0 0 1 939.55 884.03   L 904.88 884.03   A 0.77 0.77 0.0 0 1 904.11 883.26   L 904.11 811.87   A 0.38 0.37 -0.0 0 1 904.49 811.50   L 940.72 811.50   A 0.44 0.44 0.0 0 0 941.16 811.06   L 941.16 775.28   A 0.42 0.42 0.0 0 1 941.58 774.86   L 980.57 774.86   A 0.83 0.82 90.0 0 0 981.39 774.03   L 981.39 739.08   A 0.40 0.40 0.0 0 1 981.82 738.68   Q 983.84 738.81 1001.06 738.80   Q 1018.28 738.79 1020.30 738.66   A 0.40 0.40 0.0 0 1 1020.73 739.06   L 1020.77 774.01   A 0.83 0.82 89.9 0 0 1021.59 774.84   L 1060.58 774.80   A 0.42 0.42 0.0 0 1 1061.00 775.22   L 1061.04 811.00   A 0.44 0.44 0.0 0 0 1061.48 811.43   L 1097.71 811.40   A 0.38 0.37 -0.1 0 1 1098.09 811.77   L 1098.17 883.15   A 0.77 0.77 0.0 0 1 1097.40 883.93   L 1062.73 883.96   A 0.84 0.83 89.9 0 1 1061.90 883.12   L 1061.86 847.83   A 0.68 0.68 0.0 0 0 1061.18 847.15   L 1021.12 847.20   A 0.66 0.65 89.9 0 0 1020.47 847.86   L 1020.51 883.58   A 0.56 0.56 0.0 0 1 1019.96 884.14   Q 1018.03 884.15 1001.14 884.16   Z"/>
<rect xmlns="http://www.w3.org/2000/svg" fill="#ffffff" x="-37.68" y="-37.68" transform="translate(941.66,962.52) rotate(-0.1)" width="75.36" height="75.36" rx="0.46"/>
<rect xmlns="http://www.w3.org/2000/svg" fill="#ffffff" x="1023.11" y="924.94" width="75.24" height="75.24" rx="0.37"/>
<path xmlns="http://www.w3.org/2000/svg" fill="#919191" d="   M 650.15 1230.43   L 503.63 1230.50   L 503.14 946.55   A 0.52 0.52 0.0 0 1 503.66 946.02   L 649.81 946.02   A 0.34 0.34 0.0 0 1 650.15 946.36   L 650.15 1230.43   Z"/>
</g></g></g></svg>