<svg xmlns="http://www.w3.org/2000/svg" direction="ltr" width="4438.630301895711" height="4438.630301895713" viewBox="23363.753554040544 -5201.027414197845 4438.630301895711 4438.630301895713" stroke-linecap="round" stroke-linejoin="round" data-color-mode="light" class="tl-container tl-theme__force-sRGB tl-theme__light" style="background-color: transparent;"><defs/><g transform="matrix(1, 0, 0, 1, 23363.7536, -5201.0274)" opacity="1"><g transform="scale(3.065352418436266, 3.065352418436266)"><g>
<g xmlns="http://www.w3.org/2000/svg" stroke-width="2.00" fill="none" stroke-linecap="butt">
<path stroke="#2185e5" vector-effect="non-scaling-stroke" d="   M 627.09 275.41   Q 625.59 276.29 623.30 276.27   A 0.99 0.99 0.0 0 0 622.44 277.75   C 624.46 281.21 626.71 284.33 629.92 287.42   Q 635.85 293.14 639.78 297.82   C 643.68 302.46 647.76 306.42 652.27 311.35   Q 680.74 342.48 719.67 385.61   Q 748.81 417.89 751.59 420.96   Q 754.97 424.71 767.17 437.96   Q 772.67 443.93 782.30 455.11   Q 792.15 466.54 802.61 477.00   C 804.89 479.28 806.97 482.22 809.17 484.86"/>
<path stroke="#9683ab" vector-effect="non-scaling-stroke" d="   M 809.17 484.86   Q 808.50 485.78 807.74 485.81   Q 800.40 486.07 775.75 485.91   Q 725.51 485.59 684.94 485.64   Q 557.42 485.79 426.03 485.65   Q 425.45 485.65 411.75 485.82   Q 408.43 485.86 407.33 484.59"/>
<path stroke="#e56150" vector-effect="non-scaling-stroke" d="   M 816.46 485.75   Q 817.61 486.88 817.47 487.76   Q 816.64 492.91 816.66 496.25   Q 816.78 519.02 816.87 541.75   Q 817.22 640.47 817.02 932.50   Q 816.96 1017.74 816.94 1105.00   Q 816.93 1186.02 816.99 1240.00   Q 817.01 1251.68 816.51 1267.00   Q 816.44 1268.95 816.98 1274.22   C 817.11 1275.46 818.04 1276.34 817.79 1277.73"/>
<path stroke="#70648a" vector-effect="non-scaling-stroke" d="   M 992.37 485.84   L 816.46 485.75"/>
<path stroke="#7a749b" vector-effect="non-scaling-stroke" d="   M 816.46 485.75   Q 812.23 486.04 809.17 484.86"/>
<path stroke="#e56150" vector-effect="non-scaling-stroke" d="   M 569.87 586.52   L 529.78 586.52   A 0.67 0.67 0.0 0 0 529.11 587.18   Q 528.40 629.54 529.10 670.75   Q 529.21 677.25 528.94 705.03   C 528.85 713.49 529.89 718.37 535.26 724.25   C 540.79 730.30 547.29 731.96 555.25 731.99   Q 578.59 732.08 702.83 732.10   C 718.11 732.10 730.61 721.68 731.52 705.99   C 732.13 695.46 731.56 683.74 731.67 674.34   Q 731.86 658.71 731.73 641.75   C 731.50 610.94 731.89 580.29 731.61 549.36   Q 731.58 546.21 730.80 545.78   A 1.29 1.28 59.3 0 0 730.18 545.62   L 572.24 545.68   A 1.04 1.03 0.6 0 0 571.20 546.69   L 570.49 585.91   A 0.62 0.62 0.0 0 1 569.87 586.52"/>
<path stroke="#f3af99" vector-effect="non-scaling-stroke" d="   M 525.26 815.72   A 34.12 34.12 0.0 0 0 491.14 781.60   A 34.12 34.12 0.0 0 0 457.02 815.72   A 34.12 34.12 0.0 0 0 491.14 849.84   A 34.12 34.12 0.0 0 0 525.26 815.72"/>
<path stroke="#f3af99" vector-effect="non-scaling-stroke" d="   M 643.33 815.70   A 34.12 34.12 0.0 0 0 609.21 781.58   A 34.12 34.12 0.0 0 0 575.09 815.70   A 34.12 34.12 0.0 0 0 609.21 849.82   A 34.12 34.12 0.0 0 0 643.33 815.70"/>
<path stroke="#f3af99" vector-effect="non-scaling-stroke" d="   M 761.18 815.81   A 34.12 34.12 0.0 0 0 727.06 781.69   A 34.12 34.12 0.0 0 0 692.94 815.81   A 34.12 34.12 0.0 0 0 727.06 849.93   A 34.12 34.12 0.0 0 0 761.18 815.81"/>
<path stroke="#f3af99" vector-effect="non-scaling-stroke" d="   M 525.38 930.38   A 34.12 34.12 0.0 0 0 491.26 896.26   A 34.12 34.12 0.0 0 0 457.14 930.38   A 34.12 34.12 0.0 0 0 491.26 964.50   A 34.12 34.12 0.0 0 0 525.38 930.38"/>
<path stroke="#f3af99" vector-effect="non-scaling-stroke" d="   M 643.35 930.37   A 34.15 34.15 0.0 0 0 609.20 896.22   A 34.15 34.15 0.0 0 0 575.05 930.37   A 34.15 34.15 0.0 0 0 609.20 964.52   A 34.15 34.15 0.0 0 0 643.35 930.37"/>
<path stroke="#f3af99" vector-effect="non-scaling-stroke" d="   M 761.08 930.44   A 34.08 34.08 0.0 0 0 727.00 896.36   A 34.08 34.08 0.0 0 0 692.92 930.44   A 34.08 34.08 0.0 0 0 727.00 964.52   A 34.08 34.08 0.0 0 0 761.08 930.44"/>
<path stroke="#f3af99" vector-effect="non-scaling-stroke" d="   M 525.31 1045.13   A 34.10 34.10 0.0 0 0 491.21 1011.03   A 34.10 34.10 0.0 0 0 457.11 1045.13   A 34.10 34.10 0.0 0 0 491.21 1079.23   A 34.10 34.10 0.0 0 0 525.31 1045.13"/>
<path stroke="#f3af99" vector-effect="non-scaling-stroke" d="   M 643.39 1045.10   A 34.14 34.14 0.0 0 0 609.25 1010.96   A 34.14 34.14 0.0 0 0 575.11 1045.10   A 34.14 34.14 0.0 0 0 609.25 1079.24   A 34.14 34.14 0.0 0 0 643.39 1045.10"/>
<path stroke="#f3af99" vector-effect="non-scaling-stroke" d="   M 761.21 1045.20   A 34.11 34.11 0.0 0 0 727.10 1011.09   A 34.11 34.11 0.0 0 0 692.99 1045.20   A 34.11 34.11 0.0 0 0 727.10 1079.31   A 34.11 34.11 0.0 0 0 761.21 1045.20"/>
<path stroke="#e99f88" vector-effect="non-scaling-stroke" d="   M 574.26 723.29   Q 674.93 723.18 698.96 723.33   Q 707.49 723.38 710.85 722.03   Q 718.60 718.91 721.65 710.91   Q 723.01 707.34 722.80 697.92   Q 722.49 684.17 722.79 668.00   Q 722.85 664.98 722.88 648.25   Q 722.95 615.91 722.86 583.87   C 722.83 573.61 722.40 563.41 723.06 554.19   A 0.21 0.21 0.0 0 0 722.85 553.97   L 579.29 553.97   A 0.29 0.29 0.0 0 0 579.00 554.26   Q 579.31 618.78 579.19 697.13   C 579.18 708.40 579.28 714.25 573.85 722.53   A 0.49 0.49 0.0 0 0 574.26 723.29"/>
<path stroke="#e56150" vector-effect="non-scaling-stroke" d="   M 536.86 595.80   C 536.95 598.15 537.51 601.14 537.58 604.74   Q 538.22 635.80 537.26 664.76   Q 536.79 678.88 537.06 686.50   Q 537.57 700.45 538.14 708.20   C 538.79 716.91 546.25 723.52 554.98 722.72   Q 565.48 721.75 569.12 713.79   Q 570.80 710.12 570.71 699.87   Q 570.70 698.66 570.46 666.11   Q 570.39 657.42 570.67 650.89   C 571.16 639.31 570.37 624.89 570.56 616.35   Q 570.90 601.29 570.96 597.03   A 1.59 1.58 0.9 0 0 569.40 595.43   L 537.78 594.86   A 0.90 0.90 0.0 0 0 536.86 595.80"/>
<path stroke="#e99f88" vector-effect="non-scaling-stroke" d="   M 706.20 572.68   A 0.65 0.65 0.0 0 0 705.55 572.03   L 596.79 572.03   A 0.65 0.65 0.0 0 0 596.14 572.68   L 596.14 594.94   A 0.65 0.65 0.0 0 0 596.79 595.59   L 705.55 595.59   A 0.65 0.65 0.0 0 0 706.20 594.94   L 706.20 572.68"/>
<path stroke="#e99f88" vector-effect="non-scaling-stroke" d="   M 642.8357 609.6492   A 0.47 0.47 0.0 0 0 642.3649 609.1800   L 596.5250 609.2600   A 0.47 0.47 0.0 0 0 596.0558 609.7309   L 596.1443 660.4308   A 0.47 0.47 0.0 0 0 596.6151 660.9000   L 642.4550 660.8200   A 0.47 0.47 0.0 0 0 642.9242 660.3491   L 642.8357 609.6492"/>
<path stroke="#e99f88" vector-effect="non-scaling-stroke" d="   M 706.31 610.56   A 0.77 0.77 0.0 0 0 705.54 609.79   L 656.42 609.79   A 0.77 0.77 0.0 0 0 655.65 610.56   L 655.65 617.90   A 0.77 0.77 0.0 0 0 656.42 618.67   L 705.54 618.67   A 0.77 0.77 0.0 0 0 706.31 617.90   L 706.31 610.56"/>
<path stroke="#e99f88" vector-effect="non-scaling-stroke" d="   M 706.45 631.93   A 0.78 0.78 0.0 0 0 705.67 631.15   L 656.61 631.15   A 0.78 0.78 0.0 0 0 655.83 631.93   L 655.83 639.07   A 0.78 0.78 0.0 0 0 656.61 639.85   L 705.67 639.85   A 0.78 0.78 0.0 0 0 706.45 639.07   L 706.45 631.93"/>
<path stroke="#e99f88" vector-effect="non-scaling-stroke" d="   M 706.3662 653.0242   A 0.77 0.77 0.0 0 0 705.5976 652.2529   L 656.4576 652.1671   A 0.77 0.77 0.0 0 0 655.6863 652.9358   L 655.6738 660.1158   A 0.77 0.77 0.0 0 0 656.4424 660.8871   L 705.5824 660.9729   A 0.77 0.77 0.0 0 0 706.3537 660.2042   L 706.3662 653.0242"/>
<path stroke="#e99f88" vector-effect="non-scaling-stroke" d="   M 706.23 674.56   A 0.91 0.91 0.0 0 0 705.32 673.65   L 596.88 673.65   A 0.91 0.91 0.0 0 0 595.97 674.56   L 595.97 681.24   A 0.91 0.91 0.0 0 0 596.88 682.15   L 705.32 682.15   A 0.91 0.91 0.0 0 0 706.23 681.24   L 706.23 674.56"/>
<path stroke="#e99f88" vector-effect="non-scaling-stroke" d="   M 706.39 695.56   A 0.84 0.84 0.0 0 0 705.55 694.72   L 597.11 694.72   A 0.84 0.84 0.0 0 0 596.27 695.56   L 596.27 702.76   A 0.84 0.84 0.0 0 0 597.11 703.60   L 705.55 703.60   A 0.84 0.84 0.0 0 0 706.39 702.76   L 706.39 695.56"/>
</g>
<path xmlns="http://www.w3.org/2000/svg" fill="#3d94f4" d="   M 627.09 275.41   Q 625.59 276.29 623.30 276.27   A 0.99 0.99 0.0 0 0 622.44 277.75   C 624.46 281.21 626.71 284.33 629.92 287.42   Q 635.85 293.14 639.78 297.82   C 643.68 302.46 647.76 306.42 652.27 311.35   Q 680.74 342.48 719.67 385.61   Q 748.81 417.89 751.59 420.96   Q 754.97 424.71 767.17 437.96   Q 772.67 443.93 782.30 455.11   Q 792.15 466.54 802.61 477.00   C 804.89 479.28 806.97 482.22 809.17 484.86   Q 808.50 485.78 807.74 485.81   Q 800.40 486.07 775.75 485.91   Q 725.51 485.59 684.94 485.64   Q 557.42 485.79 426.03 485.65   Q 425.45 485.65 411.75 485.82   Q 408.43 485.86 407.33 484.59   Q 409.74 481.57 410.66 480.66   C 458.37 433.48 507.91 385.80 551.19 343.18   Q 554.98 339.45 612.79 282.28   Q 614.35 280.73 615.89 279.14   Q 620.46 274.40 627.09 275.41   Z"/>
<path xmlns="http://www.w3.org/2000/svg" fill="#0476d5" d="   M 992.37 485.84   L 816.46 485.75   Q 812.23 486.04 809.17 484.86   C 806.97 482.22 804.89 479.28 802.61 477.00   Q 792.15 466.54 782.30 455.11   Q 772.67 443.93 767.17 437.96   Q 754.97 424.71 751.59 420.96   Q 748.81 417.89 719.67 385.61   Q 680.74 342.48 652.27 311.35   C 647.76 306.42 643.68 302.46 639.78 297.82   Q 635.85 293.14 629.92 287.42   C 626.71 284.33 624.46 281.21 622.44 277.75   A 0.99 0.99 0.0 0 1 623.30 276.27   Q 625.59 276.29 627.09 275.41   Q 703.48 275.45 780.00 275.39   Q 790.52 275.38 791.00 275.35   Q 794.58 275.14 799.51 275.69   A 3.09 3.07 64.2 0 1 800.79 276.14   Q 802.27 277.06 803.61 278.62   C 816.56 293.61 828.91 306.26 843.84 322.84   C 855.94 336.27 868.71 349.67 880.19 362.79   C 886.14 369.60 894.25 377.69 900.99 385.35   Q 912.95 398.93 922.95 409.51   C 933.32 420.49 941.05 429.55 952.18 441.31   Q 964.10 453.91 980.14 472.09   Q 980.16 472.11 986.53 478.72   Q 989.74 482.05 992.37 485.84   Z"/>
<path xmlns="http://www.w3.org/2000/svg" fill="#ef7161" d="   M 407.33 484.59   Q 408.43 485.86 411.75 485.82   Q 425.45 485.65 426.03 485.65   Q 557.42 485.79 684.94 485.64   Q 725.51 485.59 775.75 485.91   Q 800.40 486.07 807.74 485.81   Q 808.50 485.78 809.17 484.86   Q 812.23 486.04 816.46 485.75   Q 817.61 486.88 817.47 487.76   Q 816.64 492.91 816.66 496.25   Q 816.78 519.02 816.87 541.75   Q 817.22 640.47 817.02 932.50   Q 816.96 1017.74 816.94 1105.00   Q 816.93 1186.02 816.99 1240.00   Q 817.01 1251.68 816.51 1267.00   Q 816.44 1268.95 816.98 1274.22   C 817.11 1275.46 818.04 1276.34 817.79 1277.73   L 407.58 1277.64   A 1.91 1.91 0.0 0 1 405.70 1276.06   C 405.12 1272.64 405.39 1269.11 405.39 1265.60   Q 405.49 877.05 405.44 488.50   Q 405.44 486.41 407.33 484.59   Z   M 569.87 586.52   L 529.78 586.52   A 0.67 0.67 0.0 0 0 529.11 587.18   Q 528.40 629.54 529.10 670.75   Q 529.21 677.25 528.94 705.03   C 528.85 713.49 529.89 718.37 535.26 724.25   C 540.79 730.30 547.29 731.96 555.25 731.99   Q 578.59 732.08 702.83 732.10   C 718.11 732.10 730.61 721.68 731.52 705.99   C 732.13 695.46 731.56 683.74 731.67 674.34   Q 731.86 658.71 731.73 641.75   C 731.50 610.94 731.89 580.29 731.61 549.36   Q 731.58 546.21 730.80 545.78   A 1.29 1.28 59.3 0 0 730.18 545.62   L 572.24 545.68   A 1.04 1.03 0.6 0 0 571.20 546.69   L 570.49 585.91   A 0.62 0.62 0.0 0 1 569.87 586.52   Z   M 525.26 815.72   A 34.12 34.12 0.0 0 0 491.14 781.60   A 34.12 34.12 0.0 0 0 457.02 815.72   A 34.12 34.12 0.0 0 0 491.14 849.84   A 34.12 34.12 0.0 0 0 525.26 815.72   Z   M 643.33 815.70   A 34.12 34.12 0.0 0 0 609.21 781.58   A 34.12 34.12 0.0 0 0 575.09 815.70   A 34.12 34.12 0.0 0 0 609.21 849.82   A 34.12 34.12 0.0 0 0 643.33 815.70   Z   M 761.18 815.81   A 34.12 34.12 0.0 0 0 727.06 781.69   A 34.12 34.12 0.0 0 0 692.94 815.81   A 34.12 34.12 0.0 0 0 727.06 849.93   A 34.12 34.12 0.0 0 0 761.18 815.81   Z   M 525.38 930.38   A 34.12 34.12 0.0 0 0 491.26 896.26   A 34.12 34.12 0.0 0 0 457.14 930.38   A 34.12 34.12 0.0 0 0 491.26 964.50   A 34.12 34.12 0.0 0 0 525.38 930.38   Z   M 643.35 930.37   A 34.15 34.15 0.0 0 0 609.20 896.22   A 34.15 34.15 0.0 0 0 575.05 930.37   A 34.15 34.15 0.0 0 0 609.20 964.52   A 34.15 34.15 0.0 0 0 643.35 930.37   Z   M 761.08 930.44   A 34.08 34.08 0.0 0 0 727.00 896.36   A 34.08 34.08 0.0 0 0 692.92 930.44   A 34.08 34.08 0.0 0 0 727.00 964.52   A 34.08 34.08 0.0 0 0 761.08 930.44   Z   M 525.31 1045.13   A 34.10 34.10 0.0 0 0 491.21 1011.03   A 34.10 34.10 0.0 0 0 457.11 1045.13   A 34.10 34.10 0.0 0 0 491.21 1079.23   A 34.10 34.10 0.0 0 0 525.31 1045.13   Z   M 643.39 1045.10   A 34.14 34.14 0.0 0 0 609.25 1010.96   A 34.14 34.14 0.0 0 0 575.11 1045.10   A 34.14 34.14 0.0 0 0 609.25 1079.24   A 34.14 34.14 0.0 0 0 643.39 1045.10   Z   M 761.21 1045.20   A 34.11 34.11 0.0 0 0 727.10 1011.09   A 34.11 34.11 0.0 0 0 692.99 1045.20   A 34.11 34.11 0.0 0 0 727.10 1079.31   A 34.11 34.11 0.0 0 0 761.21 1045.20   Z"/>
<path xmlns="http://www.w3.org/2000/svg" fill="#db513f" d="   M 992.37 485.84   Q 993.01 487.34 993.01 489.00   Q 992.90 880.24 992.92 1271.48   Q 992.92 1272.25 992.55 1276.51   A 0.68 0.66 -3.5 0 1 992.01 1277.11   Q 988.90 1277.74 987.75 1277.74   Q 902.77 1277.77 817.79 1277.73   C 818.04 1276.34 817.11 1275.46 816.98 1274.22   Q 816.44 1268.95 816.51 1267.00   Q 817.01 1251.68 816.99 1240.00   Q 816.93 1186.02 816.94 1105.00   Q 816.96 1017.74 817.02 932.50   Q 817.22 640.47 816.87 541.75   Q 816.78 519.02 816.66 496.25   Q 816.64 492.91 817.47 487.76   Q 817.61 486.88 816.46 485.75   L 992.37 485.84   Z"/>
<path xmlns="http://www.w3.org/2000/svg" fill="#db513f" d="   M 569.87 586.52   A 0.62 0.62 0.0 0 0 570.49 585.91   L 571.20 546.69   A 1.04 1.03 0.6 0 1 572.24 545.68   L 730.18 545.62   A 1.29 1.28 59.3 0 1 730.80 545.78   Q 731.58 546.21 731.61 549.36   C 731.89 580.29 731.50 610.94 731.73 641.75   Q 731.86 658.71 731.67 674.34   C 731.56 683.74 732.13 695.46 731.52 705.99   C 730.61 721.68 718.11 732.10 702.83 732.10   Q 578.59 732.08 555.25 731.99   C 547.29 731.96 540.79 730.30 535.26 724.25   C 529.89 718.37 528.85 713.49 528.94 705.03   Q 529.21 677.25 529.10 670.75   Q 528.40 629.54 529.11 587.18   A 0.67 0.67 0.0 0 1 529.78 586.52   L 569.87 586.52   Z   M 574.26 723.29   Q 674.93 723.18 698.96 723.33   Q 707.49 723.38 710.85 722.03   Q 718.60 718.91 721.65 710.91   Q 723.01 707.34 722.80 697.92   Q 722.49 684.17 722.79 668.00   Q 722.85 664.98 722.88 648.25   Q 722.95 615.91 722.86 583.87   C 722.83 573.61 722.40 563.41 723.06 554.19   A 0.21 0.21 0.0 0 0 722.85 553.97   L 579.29 553.97   A 0.29 0.29 0.0 0 0 579.00 554.26   Q 579.31 618.78 579.19 697.13   C 579.18 708.40 579.28 714.25 573.85 722.53   A 0.49 0.49 0.0 0 0 574.26 723.29   Z   M 536.86 595.80   C 536.95 598.15 537.51 601.14 537.58 604.74   Q 538.22 635.80 537.26 664.76   Q 536.79 678.88 537.06 686.50   Q 537.57 700.45 538.14 708.20   C 538.79 716.91 546.25 723.52 554.98 722.72   Q 565.48 721.75 569.12 713.79   Q 570.80 710.12 570.71 699.87   Q 570.70 698.66 570.46 666.11   Q 570.39 657.42 570.67 650.89   C 571.16 639.31 570.37 624.89 570.56 616.35   Q 570.90 601.29 570.96 597.03   A 1.59 1.58 0.9 0 0 569.40 595.43   L 537.78 594.86   A 0.90 0.90 0.0 0 0 536.86 595.80   Z"/>
<path xmlns="http://www.w3.org/2000/svg" fill="#f6ecd1" d="   M 574.26 723.29   A 0.49 0.49 0.0 0 1 573.85 722.53   C 579.28 714.25 579.18 708.40 579.19 697.13   Q 579.31 618.78 579.00 554.26   A 0.29 0.29 0.0 0 1 579.29 553.97   L 722.85 553.97   A 0.21 0.21 0.0 0 1 723.06 554.19   C 722.40 563.41 722.83 573.61 722.86 583.87   Q 722.95 615.91 722.88 648.25   Q 722.85 664.98 722.79 668.00   Q 722.49 684.17 722.80 697.92   Q 723.01 707.34 721.65 710.91   Q 718.60 718.91 710.85 722.03   Q 707.49 723.38 698.96 723.33   Q 674.93 723.18 574.26 723.29   Z   M 706.20 572.68   A 0.65 0.65 0.0 0 0 705.55 572.03   L 596.79 572.03   A 0.65 0.65 0.0 0 0 596.14 572.68   L 596.14 594.94   A 0.65 0.65 0.0 0 0 596.79 595.59   L 705.55 595.59   A 0.65 0.65 0.0 0 0 706.20 594.94   L 706.20 572.68   Z   M 642.8357 609.6492   A 0.47 0.47 0.0 0 0 642.3649 609.1800   L 596.5250 609.2600   A 0.47 0.47 0.0 0 0 596.0558 609.7309   L 596.1443 660.4308   A 0.47 0.47 0.0 0 0 596.6151 660.9000   L 642.4550 660.8200   A 0.47 0.47 0.0 0 0 642.9242 660.3491   L 642.8357 609.6492   Z   M 706.31 610.56   A 0.77 0.77 0.0 0 0 705.54 609.79   L 656.42 609.79   A 0.77 0.77 0.0 0 0 655.65 610.56   L 655.65 617.90   A 0.77 0.77 0.0 0 0 656.42 618.67   L 705.54 618.67   A 0.77 0.77 0.0 0 0 706.31 617.90   L 706.31 610.56   Z   M 706.45 631.93   A 0.78 0.78 0.0 0 0 705.67 631.15   L 656.61 631.15   A 0.78 0.78 0.0 0 0 655.83 631.93   L 655.83 639.07   A 0.78 0.78 0.0 0 0 656.61 639.85   L 705.67 639.85   A 0.78 0.78 0.0 0 0 706.45 639.07   L 706.45 631.93   Z   M 706.3662 653.0242   A 0.77 0.77 0.0 0 0 705.5976 652.2529   L 656.4576 652.1671   A 0.77 0.77 0.0 0 0 655.6863 652.9358   L 655.6738 660.1158   A 0.77 0.77 0.0 0 0 656.4424 660.8871   L 705.5824 660.9729   A 0.77 0.77 0.0 0 0 706.3537 660.2042   L 706.3662 653.0242   Z   M 706.23 674.56   A 0.91 0.91 0.0 0 0 705.32 673.65   L 596.88 673.65   A 0.91 0.91 0.0 0 0 595.97 674.56   L 595.97 681.24   A 0.91 0.91 0.0 0 0 596.88 682.15   L 705.32 682.15   A 0.91 0.91 0.0 0 0 706.23 681.24   L 706.23 674.56   Z   M 706.39 695.56   A 0.84 0.84 0.0 0 0 705.55 694.72   L 597.11 694.72   A 0.84 0.84 0.0 0 0 596.27 695.56   L 596.27 702.76   A 0.84 0.84 0.0 0 0 597.11 703.60   L 705.55 703.60   A 0.84 0.84 0.0 0 0 706.39 702.76   L 706.39 695.56   Z"/>
<rect xmlns="http://www.w3.org/2000/svg" fill="#db513f" x="596.14" y="572.03" width="110.06" height="23.56" rx="0.65"/>
<path xmlns="http://www.w3.org/2000/svg" fill="#ef7161" d="   M 536.86 595.80   A 0.90 0.90 0.0 0 1 537.78 594.86   L 569.40 595.43   A 1.59 1.58 0.9 0 1 570.96 597.03   Q 570.90 601.29 570.56 616.35   C 570.37 624.89 571.16 639.31 570.67 650.89   Q 570.39 657.42 570.46 666.11   Q 570.70 698.66 570.71 699.87   Q 570.80 710.12 569.12 713.79   Q 565.48 721.75 554.98 722.72   C 546.25 723.52 538.79 716.91 538.14 708.20   Q 537.57 700.45 537.06 686.50   Q 536.79 678.88 537.26 664.76   Q 538.22 635.80 537.58 604.74   C 537.51 601.14 536.95 598.15 536.86 595.80   Z"/>
<rect xmlns="http://www.w3.org/2000/svg" fill="#db513f" x="-23.39" y="-25.82" transform="translate(619.49,635.04) rotate(-0.1)" width="46.78" height="51.64" rx="0.47"/>
<rect xmlns="http://www.w3.org/2000/svg" fill="#db513f" x="655.65" y="609.79" width="50.66" height="8.88" rx="0.77"/>
<rect xmlns="http://www.w3.org/2000/svg" fill="#db513f" x="655.83" y="631.15" width="50.62" height="8.70" rx="0.78"/>
<rect xmlns="http://www.w3.org/2000/svg" fill="#db513f" x="-25.34" y="-4.36" transform="translate(681.02,656.57) rotate(0.1)" width="50.68" height="8.72" rx="0.77"/>
<rect xmlns="http://www.w3.org/2000/svg" fill="#db513f" x="595.97" y="673.65" width="110.26" height="8.50" rx="0.91"/>
<rect xmlns="http://www.w3.org/2000/svg" fill="#db513f" x="596.27" y="694.72" width="110.12" height="8.88" rx="0.84"/>
<circle xmlns="http://www.w3.org/2000/svg" fill="#f6ecd1" cx="491.14" cy="815.72" r="34.12"/>
<circle xmlns="http://www.w3.org/2000/svg" fill="#f6ecd1" cx="609.21" cy="815.70" r="34.12"/>
<circle xmlns="http://www.w3.org/2000/svg" fill="#f6ecd1" cx="727.06" cy="815.81" r="34.12"/>
<circle xmlns="http://www.w3.org/2000/svg" fill="#f6ecd1" cx="491.26" cy="930.38" r="34.12"/>
<circle xmlns="http://www.w3.org/2000/svg" fill="#f6ecd1" cx="609.20" cy="930.37" r="34.15"/>
<circle xmlns="http://www.w3.org/2000/svg" fill="#f6ecd1" cx="727.00" cy="930.44" r="34.08"/>
<circle xmlns="http://www.w3.org/2000/svg" fill="#f6ecd1" cx="491.21" cy="1045.13" r="34.10"/>
<circle xmlns="http://www.w3.org/2000/svg" fill="#f6ecd1" cx="609.25" cy="1045.10" r="34.14"/>
<circle xmlns="http://www.w3.org/2000/svg" fill="#f6ecd1" cx="727.10" cy="1045.20" r="34.11"/>
</g></g></g></svg>