<svg xmlns="http://www.w3.org/2000/svg" direction="ltr" width="2752" height="1535.8347960764077" viewBox="23539.75107899829 9654.1814861499 2752 1535.8347960764077" stroke-linecap="round" stroke-linejoin="round" data-color-mode="light" class="tl-container tl-theme__force-sRGB tl-theme__light" style="background-color: transparent;"><defs/><g transform="matrix(1, 0, 0, 1, 23539.7511, 9654.1815)" opacity="1"><g transform="scale(1.420753742901394, 1.4207537429013941)"><g>
<g xmlns="http://www.w3.org/2000/svg" stroke-width="2.00" fill="none" stroke-linecap="butt">
<path stroke="#898889" vector-effect="non-scaling-stroke" d="   M 1117.72 260.50   C 1117.67 265.68 1118.14 271.26 1117.88 276.10   Q 1116.25 305.91 1117.48 338.82   Q 1117.79 347.16 1117.29 354.53   A 1.32 1.32 0.0 0 1 1115.97 355.76   Q 1099.68 355.68 1083.12 355.98   Q 1081.14 356.02 1078.11 355.63   Q 1075.67 355.32 1073.10 355.13"/>
<path stroke="#979796" vector-effect="non-scaling-stroke" d="   M 1073.10 355.13   Q 1073.58 340.98 1073.45 327.21   Q 1073.26 307.13 1073.34 299.29   Q 1073.66 268.39 1073.25 237.50   Q 1073.18 231.85 1074.37 219.25"/>
<path stroke="#898889" vector-effect="non-scaling-stroke" d="   M 1304.68 513.34   Q 1296.68 512.88 1288.60 512.99   Q 1274.92 513.19 1274.87 513.19   Q 1162.69 513.09 1050.51 513.16   Q 1045.77 513.17 1041.18 513.04"/>
<path stroke="#9f9f9f" vector-effect="non-scaling-stroke" d="   M 1041.18 513.04   Q 1033.12 503.36 1030.49 500.51   Q 1011.28 479.59 993.34 458.63   Q 983.96 447.66 977.18 440.12   C 962.91 424.24 948.52 407.34 936.44 393.83   Q 919.42 374.78 914.21 368.80   C 909.74 363.68 906.46 359.22 902.32 354.86   Q 899.19 351.56 893.12 344.70   C 883.19 333.47 872.35 321.73 863.42 310.94   C 856.14 302.15 847.99 294.16 840.83 285.53   C 834.60 278.00 826.59 270.33 819.47 262.75"/>
<path stroke="#9f9f9f" vector-effect="non-scaling-stroke" d="   M 1073.10 355.13   Q 1067.98 350.31 1063.12 345.38   Q 1052.51 334.65 1041.52 322.74   Q 1039.83 320.91 1032.04 313.73   C 1029.78 311.64 1028.98 309.69 1029.01 306.75   Q 1029.22 283.63 1029.06 260.47"/>
<path stroke="#979796" vector-effect="non-scaling-stroke" d="   M 1041.18 513.04   L 1006.64 513.21   A 0.50 0.50 0.0 0 0 1006.14 513.71   L 1006.42 816.29"/>
<path stroke="#979796" vector-effect="non-scaling-stroke" d="   M 871.79 816.19   Q 871.20 809.71 871.44 803.06   Q 871.89 790.10 871.89 789.93   Q 871.96 730.62 871.94 626.55   A 1.09 1.09 0.0 0 0 870.85 625.46   L 770.71 625.46   A 1.04 1.03 -90.0 0 0 769.68 626.50   L 770.18 816.12"/>
<path stroke="#ababab" vector-effect="non-scaling-stroke" d="   M 1110.5562 627.5174   A 32.42 31.96 -73.3 0 0 1070.6280 649.3860   A 32.42 31.96 -73.3 0 0 1091.9238 689.6226   A 32.42 31.96 -73.3 0 0 1131.8520 667.7540   A 32.42 31.96 -73.3 0 0 1110.5562 627.5174"/>
<path stroke="#ababab" vector-effect="non-scaling-stroke" d="   M 1219.2782 628.3352   A 32.19 32.06 -70.4 0 0 1178.2776 647.9054   A 32.19 32.06 -70.4 0 0 1197.6818 688.9848   A 32.19 32.06 -70.4 0 0 1238.6824 669.4146   A 32.19 32.06 -70.4 0 0 1219.2782 628.3352"/>
</g>
<path xmlns="http://www.w3.org/2000/svg" fill="#818080" d="   M 1117.72 260.50   C 1117.67 265.68 1118.14 271.26 1117.88 276.10   Q 1116.25 305.91 1117.48 338.82   Q 1117.79 347.16 1117.29 354.53   A 1.32 1.32 0.0 0 1 1115.97 355.76   Q 1099.68 355.68 1083.12 355.98   Q 1081.14 356.02 1078.11 355.63   Q 1075.67 355.32 1073.10 355.13   Q 1073.58 340.98 1073.45 327.21   Q 1073.26 307.13 1073.34 299.29   Q 1073.66 268.39 1073.25 237.50   Q 1073.18 231.85 1074.37 219.25   Q 1092.04 219.09 1109.50 219.15   Q 1113.45 219.16 1117.27 219.85   A 0.58 0.57 -85.3 0 1 1117.75 220.42   L 1117.72 260.50   Z"/>
<path xmlns="http://www.w3.org/2000/svg" fill="#adadac" d="   M 1074.37 219.25   Q 1073.18 231.85 1073.25 237.50   Q 1073.66 268.39 1073.34 299.29   Q 1073.26 307.13 1073.45 327.21   Q 1073.58 340.98 1073.10 355.13   Q 1067.98 350.31 1063.12 345.38   Q 1052.51 334.65 1041.52 322.74   Q 1039.83 320.91 1032.04 313.73   C 1029.78 311.64 1028.98 309.69 1029.01 306.75   Q 1029.22 283.63 1029.06 260.47   Q 1029.24 249.95 1029.33 239.29   C 1029.38 233.25 1028.94 227.20 1028.85 221.14   A 0.92 0.92 0.0 0 1 1029.28 220.36   Q 1030.99 219.31 1033.00 219.32   Q 1053.79 219.49 1074.37 219.25   Z"/>
<path xmlns="http://www.w3.org/2000/svg" fill="#909091" d="   M 1029.06 260.47   Q 1029.22 283.63 1029.01 306.75   C 1028.98 309.69 1029.78 311.64 1032.04 313.73   Q 1039.83 320.91 1041.52 322.74   Q 1052.51 334.65 1063.12 345.38   Q 1067.98 350.31 1073.10 355.13   Q 1075.67 355.32 1078.11 355.63   Q 1081.14 356.02 1083.12 355.98   Q 1099.68 355.68 1115.97 355.76   A 1.32 1.32 0.0 0 0 1117.29 354.53   Q 1117.79 347.16 1117.48 338.82   Q 1116.25 305.91 1117.88 276.10   C 1118.14 271.26 1117.67 265.68 1117.72 260.50   L 1124.07 262.38   A 3.50 3.45 77.5 0 1 1125.75 263.47   L 1337.90 512.63   A 0.46 0.45 -20.1 0 1 1337.55 513.38   L 1304.68 513.34   Q 1296.68 512.88 1288.60 512.99   Q 1274.92 513.19 1274.87 513.19   Q 1162.69 513.09 1050.51 513.16   Q 1045.77 513.17 1041.18 513.04   Q 1033.12 503.36 1030.49 500.51   Q 1011.28 479.59 993.34 458.63   Q 983.96 447.66 977.18 440.12   C 962.91 424.24 948.52 407.34 936.44 393.83   Q 919.42 374.78 914.21 368.80   C 909.74 363.68 906.46 359.22 902.32 354.86   Q 899.19 351.56 893.12 344.70   C 883.19 333.47 872.35 321.73 863.42 310.94   C 856.14 302.15 847.99 294.16 840.83 285.53   C 834.60 278.00 826.59 270.33 819.47 262.75   Q 820.13 261.98 821.02 261.94   Q 829.95 261.59 849.50 261.59   Q 968.86 261.57 1024.75 261.72   Q 1026.87 261.73 1029.06 260.47   Z"/>
<path xmlns="http://www.w3.org/2000/svg" fill="#adadac" d="   M 819.47 262.75   C 826.59 270.33 834.60 278.00 840.83 285.53   C 847.99 294.16 856.14 302.15 863.42 310.94   C 872.35 321.73 883.19 333.47 893.12 344.70   Q 899.19 351.56 902.32 354.86   C 906.46 359.22 909.74 363.68 914.21 368.80   Q 919.42 374.78 936.44 393.83   C 948.52 407.34 962.91 424.24 977.18 440.12   Q 983.96 447.66 993.34 458.63   Q 1011.28 479.59 1030.49 500.51   Q 1033.12 503.36 1041.18 513.04   L 1006.64 513.21   A 0.50 0.50 0.0 0 0 1006.14 513.71   L 1006.42 816.29   L 871.79 816.19   Q 871.20 809.71 871.44 803.06   Q 871.89 790.10 871.89 789.93   Q 871.96 730.62 871.94 626.55   A 1.09 1.09 0.0 0 0 870.85 625.46   L 770.71 625.46   A 1.04 1.03 -90.0 0 0 769.68 626.50   L 770.18 816.12   Q 704.14 815.94 638.00 816.26   C 635.77 816.27 634.22 814.76 634.60 812.21   Q 634.73 811.32 634.71 805.75   Q 634.33 685.27 634.59 628.00   Q 634.64 618.88 634.64 618.75   Q 634.19 570.06 634.33 517.75   Q 634.34 516.87 633.93 514.54   A 1.02 1.02 0.0 0 0 633.17 513.72   Q 630.90 513.14 628.50 513.22   Q 613.29 513.75 599.38 512.98   A 0.46 0.46 0.0 0 1 598.96 512.42   Q 599.31 510.79 600.46 509.46   Q 624.30 481.98 631.29 474.20   Q 635.47 469.54 639.67 464.28   C 643.20 459.87 647.76 455.39 651.21 451.34   C 659.59 441.51 670.92 429.53 678.03 421.32   C 686.81 411.19 692.66 405.14 700.47 396.05   Q 719.02 374.45 737.61 353.98   Q 759.13 330.27 774.93 312.09   Q 791.96 292.48 818.72 263.22   Q 819.02 262.90 819.47 262.75   Z   M 787.54 466.78   Q 787.42 470.12 788.86 475.02   Q 794.35 493.68 812.39 499.05   C 825.05 502.82 837.43 497.25 845.70 487.73   C 849.40 483.48 850.99 478.49 852.76 473.07   C 855.18 465.65 852.53 457.56 849.20 451.45   Q 847.73 448.76 844.45 445.61   C 839.89 441.22 836.62 438.28 831.56 436.68   Q 816.53 431.93 804.56 438.96   C 794.68 444.75 787.94 455.55 787.54 466.78   Z"/>
<path xmlns="http://www.w3.org/2000/svg" fill="#818080" d="   M 1304.68 513.34   Q 1303.37 515.28 1303.38 517.68   Q 1303.54 580.20 1303.63 807.50   Q 1303.64 811.17 1304.05 813.76   A 1.88 1.87 -13.1 0 1 1302.75 815.85   Q 1300.24 816.63 1297.25 816.57   Q 1280.91 816.21 1270.84 816.27   Q 1252.25 816.38 1252.16 816.38   Q 1129.34 816.39 1006.42 816.29   L 1006.14 513.71   A 0.50 0.50 0.0 0 1 1006.64 513.21   L 1041.18 513.04   Q 1045.77 513.17 1050.51 513.16   Q 1162.69 513.09 1274.87 513.19   Q 1274.92 513.19 1288.60 512.99   Q 1296.68 512.88 1304.68 513.34   Z   M 1110.5562 627.5174   A 32.42 31.96 -73.3 0 0 1070.6280 649.3860   A 32.42 31.96 -73.3 0 0 1091.9238 689.6226   A 32.42 31.96 -73.3 0 0 1131.8520 667.7540   A 32.42 31.96 -73.3 0 0 1110.5562 627.5174   Z   M 1219.2782 628.3352   A 32.19 32.06 -70.4 0 0 1178.2776 647.9054   A 32.19 32.06 -70.4 0 0 1197.6818 688.9848   A 32.19 32.06 -70.4 0 0 1238.6824 669.4146   A 32.19 32.06 -70.4 0 0 1219.2782 628.3352   Z"/>
<path xmlns="http://www.w3.org/2000/svg" fill="#818080" d="   M 871.79 816.19   L 770.18 816.12   L 769.68 626.50   A 1.04 1.03 -90.0 0 1 770.71 625.46   L 870.85 625.46   A 1.09 1.09 0.0 0 1 871.94 626.55   Q 871.96 730.62 871.89 789.93   Q 871.89 790.10 871.44 803.06   Q 871.20 809.71 871.79 816.19   Z"/>
<ellipse xmlns="http://www.w3.org/2000/svg" fill="#d5d5d5" cx="0.00" cy="0.00" transform="translate(1101.24,658.57) rotate(-73.3)" rx="32.42" ry="31.96"/>
<ellipse xmlns="http://www.w3.org/2000/svg" fill="#d5d5d5" cx="0.00" cy="0.00" transform="translate(1208.48,658.66) rotate(-70.4)" rx="32.19" ry="32.06"/>
</g></g></g></svg>