<svg xmlns="http://www.w3.org/2000/svg" direction="ltr" width="3095.162744227284" height="3095.162744227284" viewBox="16186.27872649853 -4529.2936353636305 3095.162744227284 3095.162744227284" stroke-linecap="round" stroke-linejoin="round" data-color-mode="light" class="tl-container tl-theme__force-sRGB tl-theme__light" style="background-color: transparent;"><defs/><g transform="matrix(1, 0, 0, 1, 16186.2787, -4529.2936)" opacity="1"><g transform="scale(2.1375433316486765, 2.1375433316486765)"><g>
<g xmlns="http://www.w3.org/2000/svg" stroke-width="2.00" fill="none" stroke-linecap="butt">
<path stroke="#e15243" vector-effect="non-scaling-stroke" d="   M 1014.61 291.66   Q 1013.38 305.26 1012.22 317.94   Q 1011.55 325.28 1010.55 330.59   C 1009.09 338.28 1008.71 344.58 1007.33 351.81   Q 1007.10 353.04 1006.00 360.39   Q 1000.26 398.55 998.04 416.21   C 996.41 429.07 994.26 441.97 991.34 461.92   Q 984.81 506.39 978.53 553.62   Q 977.26 563.21 975.77 572.76   C 973.64 586.49 971.88 602.08 969.25 616.68"/>
<path stroke="#ec8b48" vector-effect="non-scaling-stroke" d="   M 969.25 616.68   L 246.36 616.88"/>
<path stroke="#d46a25" vector-effect="non-scaling-stroke" d="   M 1206.36 616.70   Q 1089.70 616.81 973.25 616.74   Q 971.50 616.74 969.64 617.19"/>
<path stroke="#e17e3b" vector-effect="non-scaling-stroke" d="   M 969.64 617.19   L 969.25 616.68"/>
<path stroke="#dea42a" vector-effect="non-scaling-stroke" d="   M 678.34 1179.68   Q 677.77 1148.37 677.82 1117.02   Q 677.91 1061.51 677.91 1061.49   Q 677.74 986.69 677.94 919.22   A 1.32 1.32 0.0 0 0 676.62 917.89   L 539.13 917.89   A 0.73 0.72 90.0 0 0 538.41 918.62   Q 538.26 1046.17 538.53 1177.00   Q 538.53 1177.82 538.96 1179.74"/>
<path stroke="#dea42a" vector-effect="non-scaling-stroke" d="   M 970.04 1179.62   Q 969.24 1177.57 969.24 1175.25   Q 969.05 961.07 969.21 626.75   Q 969.22 619.52 969.64 617.19"/>
<path stroke="#dea42a" vector-effect="non-scaling-stroke" d="   M 610.31 784.09   C 617.13 778.82 621.95 774.71 628.85 769.09   C 632.53 766.10 639.65 762.58 638.51 756.81   C 637.26 750.48 635.12 745.28 632.59 738.12   Q 630.78 733.02 629.10 726.88   C 626.00 715.58 624.31 708.41 621.03 699.06   Q 616.73 686.82 616.15 684.76   Q 614.04 677.23 611.76 675.34   C 606.55 671.00 599.34 672.37 593.56 674.57   Q 579.64 679.87 567.51 688.78   C 555.78 697.40 545.78 705.93 537.73 716.21   Q 534.17 720.77 531.63 727.31   C 529.03 734.04 534.09 739.10 539.17 742.17   C 544.95 745.65 549.59 749.60 555.22 753.32   Q 571.48 764.09 575.47 767.05   Q 591.39 778.84 596.86 782.97   C 601.72 786.64 605.18 788.07 610.31 784.09"/>
<path stroke="#dea42a" vector-effect="non-scaling-stroke" d="   M 622.49 677.98   Q 622.50 678.02 625.30 684.55   C 628.34 691.65 629.35 699.23 631.54 706.57   Q 633.54 713.25 636.35 722.89   Q 639.36 733.20 642.89 753.89   Q 643.42 757.00 646.74 756.03   Q 657.25 752.95 664.52 749.47   C 669.59 747.04 673.33 744.81 673.69 738.80   Q 674.74 721.29 674.67 707.98   C 674.64 702.35 673.51 695.17 673.36 689.10   C 673.16 681.78 669.56 677.14 662.28 675.11   C 650.53 671.84 637.59 672.34 625.69 675.42   Q 622.98 676.13 622.60 676.94   A 1.56 1.56 0.0 0 0 622.49 677.98"/>
<path stroke="#dea42a" vector-effect="non-scaling-stroke" d="   M 681.73 689.85   A 0.72 0.72 0.0 0 0 680.79 690.57   Q 682.10 715.34 680.32 739.00   C 680.13 741.55 681.47 742.31 683.89 741.95   Q 689.58 741.10 709.98 740.45   C 724.50 739.98 721.05 722.84 715.29 715.71   Q 705.91 704.09 693.06 695.46   Q 687.50 691.72 681.73 689.85"/>
<path stroke="#dea42a" vector-effect="non-scaling-stroke" d="   M 595.18 789.26   Q 593.82 787.31 590.95 785.77   Q 586.84 783.56 573.81 776.68   C 560.69 769.75 549.34 760.15 538.30 750.69   C 535.48 748.27 533.46 746.68 530.01 748.26   C 525.95 750.13 522.64 760.08 521.07 764.71   C 518.21 773.07 516.02 781.72 517.07 790.01   C 517.72 795.18 521.14 797.92 525.89 799.62   C 532.74 802.07 542.30 804.49 550.45 807.61   Q 562.82 812.35 573.79 814.93   C 579.96 816.38 582.84 813.10 586.17 808.42   C 590.40 802.48 593.60 797.71 595.55 791.72   A 2.79 2.78 36.6 0 0 595.18 789.26"/>
<path stroke="#dea42a" vector-effect="non-scaling-stroke" d="   M 642.70 814.89   Q 643.31 840.08 642.56 857.28   C 642.33 862.56 644.08 867.12 650.26 866.83   C 665.95 866.08 677.89 866.35 702.29 866.60   Q 727.74 866.86 733.29 866.63   Q 742.39 866.24 742.57 856.99   Q 742.88 840.12 742.52 815.92   A 3.66 3.65 70.4 0 1 743.91 812.99   C 748.40 809.41 750.52 806.27 749.72 800.21   C 748.91 794.06 745.92 789.35 740.51 786.22   C 729.14 779.64 714.24 778.08 700.51 778.47   C 689.36 778.79 672.24 778.11 658.02 781.23   C 651.68 782.61 639.28 789.23 636.88 794.93   Q 632.00 806.57 642.07 813.70   A 1.52 1.52 0.0 0 1 642.70 814.89"/>
<path stroke="#dea42a" vector-effect="non-scaling-stroke" d="   M 526.11 806.86   A 0.94 0.94 0.0 0 0 524.83 807.82   C 526.13 823.16 531.45 840.30 543.28 850.56   C 548.63 855.20 555.84 859.11 561.92 853.61   Q 566.15 849.79 567.86 844.81   Q 572.25 832.05 575.56 822.90   A 1.16 1.16 0.0 0 0 574.82 821.40   Q 559.21 816.47 547.09 813.79   C 539.46 812.10 534.08 810.01 526.11 806.86"/>
<path stroke="#dea42a" vector-effect="non-scaling-stroke" d="   M 699.42 857.84   A 1.03 1.01 62.8 0 0 699.60 857.26   L 699.60 813.14   A 3.03 3.01 -17.1 0 1 700.93 810.64   C 704.58 808.20 707.82 804.07 705.70 799.63   Q 704.67 797.46 699.73 793.84   Q 689.12 786.07 675.27 786.92   Q 662.44 787.70 650.91 792.68   C 646.45 794.60 642.60 798.86 643.77 804.15   C 644.17 805.99 646.30 808.36 647.58 809.56   C 649.53 811.38 649.89 813.38 649.90 816.00   Q 650.01 844.60 649.59 855.99   Q 649.47 859.16 652.24 859.12   Q 663.42 858.98 694.90 858.70   C 696.35 858.68 698.64 858.98 699.42 857.84"/>
<path stroke="#dea42a" vector-effect="non-scaling-stroke" d="   M 584.60 1048.23   A 12.22 12.22 0.0 0 0 572.38 1036.01   A 12.22 12.22 0.0 0 0 560.16 1048.23   A 12.22 12.22 0.0 0 0 572.38 1060.45   A 12.22 12.22 0.0 0 0 584.60 1048.23"/>
</g>
<path xmlns="http://www.w3.org/2000/svg" fill="#ec5f4f" d="   M 1014.61 291.66   Q 1013.38 305.26 1012.22 317.94   Q 1011.55 325.28 1010.55 330.59   C 1009.09 338.28 1008.71 344.58 1007.33 351.81   Q 1007.10 353.04 1006.00 360.39   Q 1000.26 398.55 998.04 416.21   C 996.41 429.07 994.26 441.97 991.34 461.92   Q 984.81 506.39 978.53 553.62   Q 977.26 563.21 975.77 572.76   C 973.64 586.49 971.88 602.08 969.25 616.68   L 246.36 616.88   C 249.38 609.62 253.80 603.02 257.34 596.99   C 279.56 559.11 297.57 527.90 320.15 489.84   Q 348.80 441.54 358.34 424.83   C 360.62 420.84 363.17 417.15 365.26 413.43   Q 368.91 406.93 390.37 370.18   Q 400.85 352.23 426.17 309.38   Q 434.33 295.56 435.55 293.46   A 3.66 3.64 -74.8 0 1 438.70 291.65   L 1014.61 291.66   Z"/>
<path xmlns="http://www.w3.org/2000/svg" fill="#d64436" d="   M 1206.36 616.70   Q 1089.70 616.81 973.25 616.74   Q 971.50 616.74 969.64 617.19   L 969.25 616.68   C 971.88 602.08 973.64 586.49 975.77 572.76   Q 977.26 563.21 978.53 553.62   Q 984.81 506.39 991.34 461.92   C 994.26 441.97 996.41 429.07 998.04 416.21   Q 1000.26 398.55 1006.00 360.39   Q 1007.10 353.04 1007.33 351.81   C 1008.71 344.58 1009.09 338.28 1010.55 330.59   Q 1011.55 325.28 1012.22 317.94   Q 1013.38 305.26 1014.61 291.66   Q 1018.45 296.23 1021.23 301.21   Q 1025.77 309.37 1025.80 309.41   Q 1038.09 329.51 1046.04 343.46   C 1054.63 358.53 1062.50 371.18 1071.66 387.10   C 1082.55 406.03 1095.93 427.74 1108.97 450.16   Q 1116.05 462.32 1135.75 495.48   Q 1140.21 502.99 1192.53 591.75   Q 1196.89 599.13 1203.48 609.78   Q 1205.28 612.69 1206.36 616.70   Z"/>
<path xmlns="http://www.w3.org/2000/svg" fill="#d19013" d="   M 1206.36 616.70   Q 1207.13 618.64 1207.13 620.25   Q 1207.27 885.91 1207.17 1177.50   A 1.80 1.79 -8.9 0 1 1205.92 1179.21   Q 1204.78 1179.57 1202.74 1179.57   Q 1086.40 1179.37 970.04 1179.62   Q 969.24 1177.57 969.24 1175.25   Q 969.05 961.07 969.21 626.75   Q 969.22 619.52 969.64 617.19   Q 971.50 616.74 973.25 616.74   Q 1089.70 616.81 1206.36 616.70   Z   M 1135.07 797.62   A 47.38 47.38 0.0 0 0 1087.69 750.24   A 47.38 47.38 0.0 0 0 1040.31 797.62   A 47.38 47.38 0.0 0 0 1087.69 845.00   A 47.38 47.38 0.0 0 0 1135.07 797.62   Z   M 1040.2536 962.0524   A 47.51 47.02 -176.6 0 0 1084.8914 1011.8072   A 47.51 47.02 -176.6 0 0 1135.1064 967.6876   A 47.51 47.02 -176.6 0 0 1090.4686 917.9328   A 47.51 47.02 -176.6 0 0 1040.2536 962.0524   Z"/>
<path xmlns="http://www.w3.org/2000/svg" fill="#ebb740" d="   M 246.36 616.88   L 969.25 616.68   L 969.64 617.19   Q 969.22 619.52 969.21 626.75   Q 969.05 961.07 969.24 1175.25   Q 969.24 1177.57 970.04 1179.62   L 678.34 1179.68   Q 677.77 1148.37 677.82 1117.02   Q 677.91 1061.51 677.91 1061.49   Q 677.74 986.69 677.94 919.22   A 1.32 1.32 0.0 0 0 676.62 917.89   L 539.13 917.89   A 0.73 0.72 90.0 0 0 538.41 918.62   Q 538.26 1046.17 538.53 1177.00   Q 538.53 1177.82 538.96 1179.74   Q 324.13 1179.73 250.00 1179.59   Q 249.36 1179.59 246.93 1179.13   A 1.03 1.03 0.0 0 1 246.19 1178.55   Q 245.39 1176.77 245.49 1173.75   Q 245.61 1170.36 245.60 1159.25   Q 245.53 660.35 245.50 626.00   Q 245.49 620.29 246.36 616.88   Z   M 610.31 784.09   C 617.13 778.82 621.95 774.71 628.85 769.09   C 632.53 766.10 639.65 762.58 638.51 756.81   C 637.26 750.48 635.12 745.28 632.59 738.12   Q 630.78 733.02 629.10 726.88   C 626.00 715.58 624.31 708.41 621.03 699.06   Q 616.73 686.82 616.15 684.76   Q 614.04 677.23 611.76 675.34   C 606.55 671.00 599.34 672.37 593.56 674.57   Q 579.64 679.87 567.51 688.78   C 555.78 697.40 545.78 705.93 537.73 716.21   Q 534.17 720.77 531.63 727.31   C 529.03 734.04 534.09 739.10 539.17 742.17   C 544.95 745.65 549.59 749.60 555.22 753.32   Q 571.48 764.09 575.47 767.05   Q 591.39 778.84 596.86 782.97   C 601.72 786.64 605.18 788.07 610.31 784.09   Z   M 622.49 677.98   Q 622.50 678.02 625.30 684.55   C 628.34 691.65 629.35 699.23 631.54 706.57   Q 633.54 713.25 636.35 722.89   Q 639.36 733.20 642.89 753.89   Q 643.42 757.00 646.74 756.03   Q 657.25 752.95 664.52 749.47   C 669.59 747.04 673.33 744.81 673.69 738.80   Q 674.74 721.29 674.67 707.98   C 674.64 702.35 673.51 695.17 673.36 689.10   C 673.16 681.78 669.56 677.14 662.28 675.11   C 650.53 671.84 637.59 672.34 625.69 675.42   Q 622.98 676.13 622.60 676.94   A 1.56 1.56 0.0 0 0 622.49 677.98   Z   M 681.73 689.85   A 0.72 0.72 0.0 0 0 680.79 690.57   Q 682.10 715.34 680.32 739.00   C 680.13 741.55 681.47 742.31 683.89 741.95   Q 689.58 741.10 709.98 740.45   C 724.50 739.98 721.05 722.84 715.29 715.71   Q 705.91 704.09 693.06 695.46   Q 687.50 691.72 681.73 689.85   Z   M 595.18 789.26   Q 593.82 787.31 590.95 785.77   Q 586.84 783.56 573.81 776.68   C 560.69 769.75 549.34 760.15 538.30 750.69   C 535.48 748.27 533.46 746.68 530.01 748.26   C 525.95 750.13 522.64 760.08 521.07 764.71   C 518.21 773.07 516.02 781.72 517.07 790.01   C 517.72 795.18 521.14 797.92 525.89 799.62   C 532.74 802.07 542.30 804.49 550.45 807.61   Q 562.82 812.35 573.79 814.93   C 579.96 816.38 582.84 813.10 586.17 808.42   C 590.40 802.48 593.60 797.71 595.55 791.72   A 2.79 2.78 36.6 0 0 595.18 789.26   Z   M 864.6711 753.8882   A 47.33 47.20 -67.2 0 0 802.8181 779.2293   A 47.33 47.20 -67.2 0 0 827.9889 841.1518   A 47.33 47.20 -67.2 0 0 889.8419 815.8107   A 47.33 47.20 -67.2 0 0 864.6711 753.8882   Z   M 417.80 797.54   A 47.22 47.22 0.0 0 0 370.58 750.32   A 47.22 47.22 0.0 0 0 323.36 797.54   A 47.22 47.22 0.0 0 0 370.58 844.76   A 47.22 47.22 0.0 0 0 417.80 797.54   Z   M 642.70 814.89   Q 643.31 840.08 642.56 857.28   C 642.33 862.56 644.08 867.12 650.26 866.83   C 665.95 866.08 677.89 866.35 702.29 866.60   Q 727.74 866.86 733.29 866.63   Q 742.39 866.24 742.57 856.99   Q 742.88 840.12 742.52 815.92   A 3.66 3.65 70.4 0 1 743.91 812.99   C 748.40 809.41 750.52 806.27 749.72 800.21   C 748.91 794.06 745.92 789.35 740.51 786.22   C 729.14 779.64 714.24 778.08 700.51 778.47   C 689.36 778.79 672.24 778.11 658.02 781.23   C 651.68 782.61 639.28 789.23 636.88 794.93   Q 632.00 806.57 642.07 813.70   A 1.52 1.52 0.0 0 1 642.70 814.89   Z   M 526.11 806.86   A 0.94 0.94 0.0 0 0 524.83 807.82   C 526.13 823.16 531.45 840.30 543.28 850.56   C 548.63 855.20 555.84 859.11 561.92 853.61   Q 566.15 849.79 567.86 844.81   Q 572.25 832.05 575.56 822.90   A 1.16 1.16 0.0 0 0 574.82 821.40   Q 559.21 816.47 547.09 813.79   C 539.46 812.10 534.08 810.01 526.11 806.86   Z   M 893.53 964.92   A 47.21 47.21 0.0 0 0 846.32 917.71   A 47.21 47.21 0.0 0 0 799.11 964.92   A 47.21 47.21 0.0 0 0 846.32 1012.13   A 47.21 47.21 0.0 0 0 893.53 964.92   Z   M 417.75 964.98   A 47.10 47.10 0.0 0 0 370.65 917.88   A 47.10 47.10 0.0 0 0 323.55 964.98   A 47.10 47.10 0.0 0 0 370.65 1012.08   A 47.10 47.10 0.0 0 0 417.75 964.98   Z"/>
<path xmlns="http://www.w3.org/2000/svg" fill="#d19013" d="   M 628.85 769.09   C 621.95 774.71 617.13 778.82 610.31 784.09   C 605.18 788.07 601.72 786.64 596.86 782.97   Q 591.39 778.84 575.47 767.05   Q 571.48 764.09 555.22 753.32   C 549.59 749.60 544.95 745.65 539.17 742.17   C 534.09 739.10 529.03 734.04 531.63 727.31   Q 534.17 720.77 537.73 716.21   C 545.78 705.93 555.78 697.40 567.51 688.78   Q 579.64 679.87 593.56 674.57   C 599.34 672.37 606.55 671.00 611.76 675.34   Q 614.04 677.23 616.15 684.76   Q 616.73 686.82 621.03 699.06   C 624.31 708.41 626.00 715.58 629.10 726.88   Q 630.78 733.02 632.59 738.12   C 635.12 745.28 637.26 750.48 638.51 756.81   C 639.65 762.58 632.53 766.10 628.85 769.09   Z"/>
<path xmlns="http://www.w3.org/2000/svg" fill="#d19013" d="   M 622.60 676.94   Q 622.98 676.13 625.69 675.42   C 637.59 672.34 650.53 671.84 662.28 675.11   C 669.56 677.14 673.16 681.78 673.36 689.10   C 673.51 695.17 674.64 702.35 674.67 707.98   Q 674.74 721.29 673.69 738.80   C 673.33 744.81 669.59 747.04 664.52 749.47   Q 657.25 752.95 646.74 756.03   Q 643.42 757.00 642.89 753.89   Q 639.36 733.20 636.35 722.89   Q 633.54 713.25 631.54 706.57   C 629.35 699.23 628.34 691.65 625.30 684.55   Q 622.50 678.02 622.49 677.98   A 1.56 1.56 0.0 0 1 622.60 676.94   Z"/>
<path xmlns="http://www.w3.org/2000/svg" fill="#d19013" d="   M 681.73 689.85   Q 687.50 691.72 693.06 695.46   Q 705.91 704.09 715.29 715.71   C 721.05 722.84 724.50 739.98 709.98 740.45   Q 689.58 741.10 683.89 741.95   C 681.47 742.31 680.13 741.55 680.32 739.00   Q 682.10 715.34 680.79 690.57   A 0.72 0.72 0.0 0 1 681.73 689.85   Z"/>
<path xmlns="http://www.w3.org/2000/svg" fill="#d19013" d="   M 595.18 789.26   A 2.79 2.78 36.6 0 1 595.55 791.72   C 593.60 797.71 590.40 802.48 586.17 808.42   C 582.84 813.10 579.96 816.38 573.79 814.93   Q 562.82 812.35 550.45 807.61   C 542.30 804.49 532.74 802.07 525.89 799.62   C 521.14 797.92 517.72 795.18 517.07 790.01   C 516.02 781.72 518.21 773.07 521.07 764.71   C 522.64 760.08 525.95 750.13 530.01 748.26   C 533.46 746.68 535.48 748.27 538.30 750.69   C 549.34 760.15 560.69 769.75 573.81 776.68   Q 586.84 783.56 590.95 785.77   Q 593.82 787.31 595.18 789.26   Z"/>
<path xmlns="http://www.w3.org/2000/svg" fill="#d19013" d="   M 642.70 814.89   A 1.52 1.52 0.0 0 0 642.07 813.70   Q 632.00 806.57 636.88 794.93   C 639.28 789.23 651.68 782.61 658.02 781.23   C 672.24 778.11 689.36 778.79 700.51 778.47   C 714.24 778.08 729.14 779.64 740.51 786.22   C 745.92 789.35 748.91 794.06 749.72 800.21   C 750.52 806.27 748.40 809.41 743.91 812.99   A 3.66 3.65 70.4 0 0 742.52 815.92   Q 742.88 840.12 742.57 856.99   Q 742.39 866.24 733.29 866.63   Q 727.74 866.86 702.29 866.60   C 677.89 866.35 665.95 866.08 650.26 866.83   C 644.08 867.12 642.33 862.56 642.56 857.28   Q 643.31 840.08 642.70 814.89   Z   M 699.42 857.84   A 1.03 1.01 62.8 0 0 699.60 857.26   L 699.60 813.14   A 3.03 3.01 -17.1 0 1 700.93 810.64   C 704.58 808.20 707.82 804.07 705.70 799.63   Q 704.67 797.46 699.73 793.84   Q 689.12 786.07 675.27 786.92   Q 662.44 787.70 650.91 792.68   C 646.45 794.60 642.60 798.86 643.77 804.15   C 644.17 805.99 646.30 808.36 647.58 809.56   C 649.53 811.38 649.89 813.38 649.90 816.00   Q 650.01 844.60 649.59 855.99   Q 649.47 859.16 652.24 859.12   Q 663.42 858.98 694.90 858.70   C 696.35 858.68 698.64 858.98 699.42 857.84   Z"/>
<path xmlns="http://www.w3.org/2000/svg" fill="#ebb740" d="   M 699.42 857.84   C 698.64 858.98 696.35 858.68 694.90 858.70   Q 663.42 858.98 652.24 859.12   Q 649.47 859.16 649.59 855.99   Q 650.01 844.60 649.90 816.00   C 649.89 813.38 649.53 811.38 647.58 809.56   C 646.30 808.36 644.17 805.99 643.77 804.15   C 642.60 798.86 646.45 794.60 650.91 792.68   Q 662.44 787.70 675.27 786.92   Q 689.12 786.07 699.73 793.84   Q 704.67 797.46 705.70 799.63   C 707.82 804.07 704.58 808.20 700.93 810.64   A 3.03 3.01 -17.1 0 0 699.60 813.14   L 699.60 857.26   A 1.03 1.01 62.8 0 1 699.42 857.84   Z"/>
<path xmlns="http://www.w3.org/2000/svg" fill="#d19013" d="   M 526.11 806.86   C 534.08 810.01 539.46 812.10 547.09 813.79   Q 559.21 816.47 574.82 821.40   A 1.16 1.16 0.0 0 1 575.56 822.90   Q 572.25 832.05 567.86 844.81   Q 566.15 849.79 561.92 853.61   C 555.84 859.11 548.63 855.20 543.28 850.56   C 531.45 840.30 526.13 823.16 524.83 807.82   A 0.94 0.94 0.0 0 1 526.11 806.86   Z"/>
<path xmlns="http://www.w3.org/2000/svg" fill="#d19013" d="   M 678.34 1179.68   L 538.96 1179.74   Q 538.53 1177.82 538.53 1177.00   Q 538.26 1046.17 538.41 918.62   A 0.73 0.72 90.0 0 1 539.13 917.89   L 676.62 917.89   A 1.32 1.32 0.0 0 1 677.94 919.22   Q 677.74 986.69 677.91 1061.49   Q 677.91 1061.51 677.82 1117.02   Q 677.77 1148.37 678.34 1179.68   Z   M 584.60 1048.23   A 12.22 12.22 0.0 0 0 572.38 1036.01   A 12.22 12.22 0.0 0 0 560.16 1048.23   A 12.22 12.22 0.0 0 0 572.38 1060.45   A 12.22 12.22 0.0 0 0 584.60 1048.23   Z"/>
<circle xmlns="http://www.w3.org/2000/svg" fill="#ebb740" cx="572.38" cy="1048.23" r="12.22"/>
</g></g></g></svg>