<svg xmlns="http://www.w3.org/2000/svg" direction="ltr" width="25134.649521000913" height="14027.132747652035" viewBox="28691.501183197488 8396.275196936367 25134.649521000913 14027.132747652035" stroke-linecap="round" stroke-linejoin="round" data-color-mode="light" class="tl-container tl-theme__force-sRGB tl-theme__light" style="background-color: transparent;"><defs/><g transform="matrix(1, 0, 0, 1, 28691.5012, 8396.2752)" opacity="1"><g transform="scale(12.976070996902898, 12.9760709969029)"><g>
<g xmlns="http://www.w3.org/2000/svg" stroke-width="2.00" fill="none" stroke-linecap="butt">
<path stroke="#cfcac1" vector-effect="non-scaling-stroke" d="   M 1937.00 706.21   Q 1472.09 706.18 1007.18 706.23   Q 991.12 706.23 986.05 707.71   C 971.17 712.04 961.51 723.65 957.83 738.91   Q 956.57 744.16 956.64 755.72   Q 956.87 789.04 956.74 864.63   A 0.39 0.38 -0.0 0 1 956.35 865.01   Q 944.44 864.99 944.25 864.99   Q 536.59 864.78 510.25 864.75   Q 478.09 864.70 448.66 865.19   A 0.48 0.47 89.4 0 1 448.18 864.71   Q 448.12 644.38 448.18 641.32   C 448.42 628.99 447.14 622.25 441.18 612.64   Q 429.38 593.61 406.75 593.59   Q 203.37 593.34 0.00 593.43"/>
<path stroke="#90a398" vector-effect="non-scaling-stroke" d="   M 113.67 480.37   L 113.61 534.40"/>
<path stroke="#97b3a2" vector-effect="non-scaling-stroke" d="   M 113.61 534.40   L 113.50 534.98   A 0.63 0.63 0.0 0 1 112.67 535.45   Q 93.77 528.81 78.56 541.12   Q 64.99 552.09 65.52 569.99   A 0.56 0.56 0.0 0 0 66.08 570.53   L 294.90 570.53   A 1.13 1.12 10.7 0 0 295.95 569.82   C 301.35 556.35 297.97 539.48 287.47 529.80   C 275.48 518.74 258.23 517.25 243.57 524.12   A 0.83 0.83 0.0 0 1 242.42 523.60   C 240.11 515.76 235.98 509.02 229.13 504.23   Q 222.66 499.70 217.45 498.11   Q 196.51 491.72 178.72 505.17   Q 169.84 511.88 166.91 522.22   A 0.67 0.67 0.0 0 1 165.90 522.60   Q 152.28 513.62 136.66 517.79   Q 136.65 517.80 132.71 519.29   Q 130.42 520.15 128.57 519.90"/>
<path stroke="#90a398" vector-effect="non-scaling-stroke" d="   M 128.57 519.90   Q 128.99 513.28 128.94 507.75   Q 128.80 493.89 128.56 480.43"/>
<path stroke="#9cbfe7" vector-effect="non-scaling-stroke" d="   M 128.56 480.43   C 150.83 477.24 168.07 461.67 172.78 439.79   Q 177.81 416.41 163.54 397.12   C 147.26 375.11 116.34 368.54 93.05 384.05   C 52.18 411.26 65.01 472.90 113.67 480.37"/>
<path stroke="#3776a5" vector-effect="non-scaling-stroke" d="   M 128.56 480.43   L 128.70 428.00   A 1.35 1.34 0.2 0 0 127.35 426.65   L 114.91 426.64   A 0.97 0.96 90.0 0 0 113.95 427.61   L 113.67 480.37"/>
<path stroke="#316a60" vector-effect="non-scaling-stroke" d="   M 128.57 519.90   L 122.72 524.51   A 9.88 9.57 -87.1 0 0 121.67 525.49   L 113.61 534.40"/>
<path stroke="#97b3a2" vector-effect="non-scaling-stroke" d="   M 1803.77 631.63   Q 1786.27 625.89 1771.13 635.66   A 0.71 0.71 0.0 0 1 1770.08 635.30   C 1762.05 613.35 1738.69 602.30 1716.77 612.15   C 1708.00 616.09 1701.83 620.75 1697.69 628.96   Q 1695.33 633.64 1694.22 636.22   A 0.72 0.71 23.1 0 1 1693.28 636.59   C 1684.30 632.75 1675.62 631.55 1666.47 633.74   C 1644.61 638.95 1633.22 662.02 1641.41 682.82   A 1.43 1.42 79.0 0 0 1642.73 683.72   L 1870.88 683.72   A 0.60 0.59 -90.0 0 0 1871.47 683.12   Q 1871.51 665.25 1859.34 654.40   C 1851.04 647.00 1840.72 644.39 1830.08 647.13   Q 1827.67 647.75 1824.90 648.61   A 0.78 0.77 -26.2 0 1 1824.05 648.33   L 1819.08 641.49"/>
<path stroke="#efd393" vector-effect="non-scaling-stroke" d="   M 1819.08 641.49   L 1818.48 594.61   A 1.63 1.61 85.3 0 1 1819.85 592.98   Q 1846.52 588.88 1858.51 565.55   C 1861.21 560.30 1863.38 552.09 1863.76 546.54   Q 1865.44 522.43 1849.55 505.32   Q 1832.41 486.87 1807.78 488.55   Q 1783.18 490.24 1768.75 509.32   Q 1754.55 528.11 1759.33 552.60   Q 1761.49 563.69 1768.75 573.35   Q 1781.88 590.83 1803.28 592.90   A 0.77 0.77 0.0 0 1 1803.98 593.67   L 1803.77 631.63"/>
<path stroke="#919a5b" vector-effect="non-scaling-stroke" d="   M 1819.08 641.49   Q 1811.86 635.22 1803.77 631.63"/>
<path stroke="#90a398" vector-effect="non-scaling-stroke" d="   M 522.68 742.08   L 522.84 771.04"/>
<path stroke="#97b3a2" vector-effect="non-scaling-stroke" d="   M 522.84 771.04   L 522.71 800.77   A 0.96 0.92 -28.2 0 1 522.53 801.32   L 517.97 807.81   A 0.64 0.64 0.0 0 1 517.22 808.03   C 502.72 802.30 486.22 807.25 477.45 820.18   Q 470.11 831.00 469.47 843.39   A 0.68 0.68 0.0 0 0 470.15 844.10   L 699.51 844.10   A 0.96 0.95 10.0 0 0 700.41 843.48   Q 705.04 831.28 702.09 819.97   C 698.26 805.32 685.79 795.01 670.75 793.11   C 663.09 792.14 655.53 793.99 648.61 797.18   A 0.72 0.71 68.5 0 1 647.63 796.75   Q 641.39 777.36 622.15 770.87   Q 608.19 766.16 593.32 772.39   C 589.17 774.12 586.59 775.37 583.51 778.01   Q 574.91 785.37 571.49 795.81   A 0.56 0.55 -64.2 0 1 570.67 796.10   Q 555.86 786.43 538.49 791.04"/>
<path stroke="#90a398" vector-effect="non-scaling-stroke" d="   M 538.49 791.04   L 538.31 741.96"/>
<path stroke="#97b3a2" vector-effect="non-scaling-stroke" d="   M 538.31 741.96   C 551.17 740.45 560.65 734.92 569.62 725.95   C 576.50 719.08 580.54 709.78 582.51 700.75   C 585.39 687.50 583.06 672.35 574.99 660.75   Q 556.84 634.66 525.92 637.33   C 508.28 638.85 494.52 648.10 485.06 662.58   Q 479.37 671.28 477.98 682.02   Q 474.97 705.33 489.24 723.56   C 497.28 733.84 509.83 739.99 522.68 742.08"/>
<path stroke="#316a60" vector-effect="non-scaling-stroke" d="   M 538.31 741.96   L 537.90 689.41   A 1.19 1.19 0.0 0 0 536.71 688.23   L 523.61 688.23   A 0.65 0.65 0.0 0 0 522.96 688.86   Q 522.68 695.87 522.49 714.34   C 522.42 721.53 523.12 727.34 523.21 733.97   Q 523.25 736.19 523.06 738.04   Q 522.85 740.00 522.68 742.08"/>
<path stroke="#316a60" vector-effect="non-scaling-stroke" d="   M 538.49 791.04   L 534.19 793.12   A 10.04 9.78 13.0 0 0 532.64 794.06   L 530.14 795.89   A 5.56 5.28 1.5 0 0 529.32 796.63   Q 527.31 798.89 524.78 799.98   A 1.35 1.35 0.0 0 1 522.89 798.74   L 522.84 771.04"/>
<path stroke="#cfcac1" vector-effect="non-scaling-stroke" d="   M 1937.00 792.49   L 1724.92 792.54"/>
<path stroke="#cc8c84" vector-effect="non-scaling-stroke" d="   M 1724.92 792.54   L 1710.72 752.80"/>
<path stroke="#cfcac1" vector-effect="non-scaling-stroke" d="   M 1710.72 752.80   L 1749.93 753.14   A 1.25 1.25 0.0 0 0 1751.19 751.89   L 1751.19 746.71   A 1.21 1.21 0.0 0 0 1749.97 745.50   L 1708.00 745.65"/>
<path stroke="#cc8c84" vector-effect="non-scaling-stroke" d="   M 1708.00 745.65   L 1702.84 731.42   A 0.45 0.44 -5.5 0 0 1702.49 731.14   Q 1701.67 731.02 1701.24 732.25   Q 1698.74 739.29 1696.44 745.79"/>
<path stroke="#cfcac1" vector-effect="non-scaling-stroke" d="   M 1696.44 745.79   L 1683.67 745.90   A 1.23 1.22 89.8 0 0 1682.46 747.13   L 1682.46 751.60   A 1.22 1.21 -89.8 0 0 1683.66 752.82   L 1693.72 752.96"/>
<path stroke="#cc8c84" vector-effect="non-scaling-stroke" d="   M 1693.72 752.96   L 1679.65 792.79"/>
<path stroke="#cfcac1" vector-effect="non-scaling-stroke" d="   M 1679.65 792.79   L 1652.38 792.14"/>
<path stroke="#769dce" vector-effect="non-scaling-stroke" d="   M 1652.38 792.14   Q 1652.82 774.02 1642.28 760.25   Q 1623.52 735.75 1591.85 739.03   Q 1582.93 739.95 1572.99 745.51"/>
<path stroke="#cfcac1" vector-effect="non-scaling-stroke" d="   M 1572.99 745.51   L 1555.49 745.41   A 1.55 1.55 0.0 0 0 1553.93 746.96   L 1553.93 751.63   A 1.59 1.59 0.0 0 0 1555.46 753.22   L 1562.44 753.49"/>
<path stroke="#769dce" vector-effect="non-scaling-stroke" d="   M 1562.44 753.49   Q 1559.73 756.53 1557.34 759.56   Q 1545.92 774.08 1546.50 792.34"/>
<path stroke="#cfcac1" vector-effect="non-scaling-stroke" d="   M 1546.50 792.34   L 1371.74 792.66"/>
<path stroke="#709189" vector-effect="non-scaling-stroke" d="   M 1371.74 792.66   Q 1372.15 777.25 1364.46 764.05   Q 1362.51 760.69 1355.49 753.01"/>
<path stroke="#cfcac1" vector-effect="non-scaling-stroke" d="   M 1355.49 753.01   L 1366.80 753.38   A 1.65 1.64 0.8 0 0 1368.50 751.74   L 1368.50 747.13   A 1.74 1.73 0.0 0 0 1366.76 745.40   L 1345.38 745.49"/>
<path stroke="#709189" vector-effect="non-scaling-stroke" d="   M 1345.38 745.49   Q 1322.69 734.06 1299.66 742.19   Q 1291.57 745.05 1285.00 750.66   Q 1274.12 759.95 1268.77 772.55   Q 1265.25 780.86 1265.40 792.39"/>
<path stroke="#cfcac1" vector-effect="non-scaling-stroke" d="   M 1265.40 792.39   L 1234.26 792.62"/>
<path stroke="#cc8c84" vector-effect="non-scaling-stroke" d="   M 1234.26 792.62   L 1220.09 752.99"/>
<path stroke="#cfcac1" vector-effect="non-scaling-stroke" d="   M 1220.09 752.99   L 1238.54 752.89   A 1.54 1.54 0.0 0 0 1240.07 751.35   L 1240.07 746.75   A 1.36 1.36 0.0 0 0 1238.68 745.39   L 1217.48 745.74"/>
<path stroke="#cc8c84" vector-effect="non-scaling-stroke" d="   M 1217.48 745.74   L 1212.20 731.36   A 0.35 0.35 0.0 0 0 1211.63 731.22   L 1211.22 731.60   A 0.09 0.03 -73.2 0 0 1211.20 731.63   L 1205.97 745.89"/>
<path stroke="#cfcac1" vector-effect="non-scaling-stroke" d="   M 1205.97 745.89   L 1171.30 745.54   A 1.01 1.00 -89.7 0 0 1170.29 746.55   L 1170.29 752.19   A 1.08 1.07 89.7 0 0 1171.37 753.27   L 1203.44 752.96"/>
<path stroke="#cc8c84" vector-effect="non-scaling-stroke" d="   M 1203.44 752.96   L 1189.44 792.46"/>
<path stroke="#cfcac1" vector-effect="non-scaling-stroke" d="   M 1189.44 792.46   L 1042.99 792.55   A 0.74 0.73 90.0 0 0 1042.26 793.29   Q 1042.19 886.24 1042.30 905.25   Q 1042.35 912.85 1041.43 917.98   C 1038.83 932.58 1027.17 944.69 1012.99 949.22   C 1007.07 951.12 1000.48 951.26 993.75 951.25   C 857.69 951.08 615.04 951.37 402.25 951.20   C 390.44 951.20 376.61 943.84 370.00 934.05   Q 365.55 927.45 363.37 919.10   Q 362.12 914.32 362.15 902.80   Q 362.28 860.29 362.29 680.10   A 0.59 0.59 0.0 0 0 361.70 679.51   L 0.00 679.56"/>
<path stroke="#cfcac1" vector-effect="non-scaling-stroke" d="   M 0.00 640.18   L 70.37 640.16   A 0.22 0.22 0.0 0 0 70.59 639.94   L 70.59 632.91   A 0.21 0.21 0.0 0 0 70.38 632.70   L 0.00 632.71"/>
<path stroke="#cfcac1" vector-effect="non-scaling-stroke" d="   M 198.4351 633.5607   A 0.85 0.85 0.0 0 0 197.5865 632.7093   L 129.6866 632.5908   A 0.85 0.85 0.0 0 0 128.8352 633.4393   L 128.8249 639.2993   A 0.85 0.85 0.0 0 0 129.6735 640.1507   L 197.5734 640.2692   A 0.85 0.85 0.0 0 0 198.4248 639.4207   L 198.4351 633.5607"/>
<path stroke="#cfcac1" vector-effect="non-scaling-stroke" d="   M 327.0748 633.4290   A 0.81 0.81 0.0 0 0 326.2634 632.6204   L 258.0035 632.7396   A 0.81 0.81 0.0 0 0 257.1949 633.5510   L 257.2052 639.4510   A 0.81 0.81 0.0 0 0 258.0166 640.2596   L 326.2765 640.1404   A 0.81 0.81 0.0 0 0 327.0851 639.3290   L 327.0748 633.4290"/>
<path stroke="#cfcac1" vector-effect="non-scaling-stroke" d="   M 408.83 709.62   A 0.62 0.62 0.0 0 0 408.21 709.00   L 402.09 709.00   A 0.62 0.62 0.0 0 0 401.47 709.62   L 401.47 775.88   A 0.62 0.62 0.0 0 0 402.09 776.50   L 408.21 776.50   A 0.62 0.62 0.0 0 0 408.83 775.88   L 408.83 709.62"/>
<path stroke="#cfcac1" vector-effect="non-scaling-stroke" d="   M 1111.35 746.69   A 1.00 1.00 0.0 0 0 1110.35 745.69   L 1043.61 745.69   A 1.00 1.00 0.0 0 0 1042.61 746.69   L 1042.61 752.07   A 1.00 1.00 0.0 0 0 1043.61 753.07   L 1110.35 753.07   A 1.00 1.00 0.0 0 0 1111.35 752.07   L 1111.35 746.69"/>
<path stroke="#cfcac1" vector-effect="non-scaling-stroke" d="   M 1495.91 746.66   A 1.03 1.03 0.0 0 0 1494.88 745.63   L 1427.00 745.63   A 1.03 1.03 0.0 0 0 1425.97 746.66   L 1425.97 751.98   A 1.03 1.03 0.0 0 0 1427.00 753.01   L 1494.88 753.01   A 1.03 1.03 0.0 0 0 1495.91 751.98   L 1495.91 746.66"/>
<path stroke="#cfcac1" vector-effect="non-scaling-stroke" d="   M 1879.7148 746.6211   A 0.90 0.90 0.0 0 0 1878.8164 745.7195   L 1810.6165 745.6005   A 0.90 0.90 0.0 0 0 1809.7149 746.4989   L 1809.7052 752.0989   A 0.90 0.90 0.0 0 0 1810.6036 753.0005   L 1878.8035 753.1195   A 0.90 0.90 0.0 0 0 1879.7051 752.2211   L 1879.7148 746.6211"/>
<path stroke="#cfcac1" vector-effect="non-scaling-stroke" d="   M 1003.6216 801.6832   A 0.71 0.71 0.0 0 0 1002.9104 800.9745   L 996.5104 800.9856   A 0.71 0.71 0.0 0 0 995.8016 801.6969   L 995.9184 868.5768   A 0.71 0.71 0.0 0 0 996.6296 869.2855   L 1003.0296 869.2744   A 0.71 0.71 0.0 0 0 1003.7384 868.5631   L 1003.6216 801.6832"/>
<path stroke="#cfcac1" vector-effect="non-scaling-stroke" d="   M 408.92 835.67   A 0.91 0.91 0.0 0 0 408.01 834.76   L 402.25 834.76   A 0.91 0.91 0.0 0 0 401.34 835.67   L 401.34 902.87   A 0.91 0.91 0.0 0 0 402.25 903.78   L 408.01 903.78   A 0.91 0.91 0.0 0 0 408.92 902.87   L 408.92 835.67"/>
<path stroke="#cfcac1" vector-effect="non-scaling-stroke" d="   M 557.86 905.14   A 0.79 0.79 0.0 0 0 557.07 904.35   L 488.87 904.35   A 0.79 0.79 0.0 0 0 488.08 905.14   L 488.08 910.94   A 0.79 0.79 0.0 0 0 488.87 911.73   L 557.07 911.73   A 0.79 0.79 0.0 0 0 557.86 910.94   L 557.86 905.14"/>
<path stroke="#cfcac1" vector-effect="non-scaling-stroke" d="   M 686.41 905.28   A 0.99 0.99 0.0 0 0 685.42 904.29   L 617.10 904.29   A 0.99 0.99 0.0 0 0 616.11 905.28   L 616.11 910.76   A 0.99 0.99 0.0 0 0 617.10 911.75   L 685.42 911.75   A 0.99 0.99 0.0 0 0 686.41 910.76   L 686.41 905.28"/>
<path stroke="#cfcac1" vector-effect="non-scaling-stroke" d="   M 813.0949 905.0798   A 0.87 0.87 0.0 0 0 812.2234 904.2113   L 744.9435 904.3287   A 0.87 0.87 0.0 0 0 744.0750 905.2002   L 744.0851 910.9802   A 0.87 0.87 0.0 0 0 744.9566 911.8487   L 812.2365 911.7313   A 0.87 0.87 0.0 0 0 813.1050 910.8598   L 813.0949 905.0798"/>
<path stroke="#cfcac1" vector-effect="non-scaling-stroke" d="   M 941.93 905.23   A 0.96 0.96 0.0 0 0 940.97 904.27   L 873.45 904.27   A 0.96 0.96 0.0 0 0 872.49 905.23   L 872.49 910.83   A 0.96 0.96 0.0 0 0 873.45 911.79   L 940.97 911.79   A 0.96 0.96 0.0 0 0 941.93 910.83   L 941.93 905.23"/>
<path stroke="#f3ae9d" vector-effect="non-scaling-stroke" d="   M 1189.44 792.46   L 1163.22 868.52"/>
<path stroke="#97b3a2" vector-effect="non-scaling-stroke" d="   M 1163.22 868.52   L 1084.18 868.35   A 0.72 0.72 0.0 0 0 1083.46 869.07   L 1083.46 951.00   A 0.31 0.31 0.0 0 0 1083.77 951.31   L 1387.15 951.31   A 0.43 0.43 0.0 0 0 1387.58 950.88   L 1387.58 869.12   A 0.69 0.69 0.0 0 0 1386.90 868.43   L 1326.85 868.41"/>
<path stroke="#90a398" vector-effect="non-scaling-stroke" d="   M 1326.85 868.41   L 1326.81 844.60"/>
<path stroke="#97b3a2" vector-effect="non-scaling-stroke" d="   M 1326.81 844.60   Q 1347.65 840.88 1360.65 824.88   Q 1371.83 811.12 1371.74 792.66"/>
<path stroke="#9cbfe7" vector-effect="non-scaling-stroke" d="   M 1546.50 792.34   Q 1546.31 811.16 1557.10 824.86   C 1565.02 834.92 1578.36 843.45 1591.71 844.39"/>
<path stroke="#90a398" vector-effect="non-scaling-stroke" d="   M 1591.71 844.39   L 1591.87 868.45"/>
<path stroke="#97b3a2" vector-effect="non-scaling-stroke" d="   M 1591.87 868.45   L 1518.37 868.43   A 0.56 0.56 0.0 0 0 1517.81 868.99   L 1517.81 950.87   A 0.49 0.49 0.0 0 0 1518.30 951.36   L 1796.69 951.36   A 0.63 0.63 0.0 0 0 1797.32 950.73   L 1797.32 869.26   A 0.85 0.85 0.0 0 0 1796.47 868.41   L 1751.21 868.41"/>
<path stroke="#f3ae9d" vector-effect="non-scaling-stroke" d="   M 1751.21 868.41   L 1724.92 792.54"/>
<path stroke="#90a398" vector-effect="non-scaling-stroke" d="   M 169.01 812.93   L 168.94 845.84"/>
<path stroke="#97b3a2" vector-effect="non-scaling-stroke" d="   M 168.94 845.84   L 113.46 845.88   A 0.32 0.32 0.0 0 0 113.14 846.20   L 113.14 947.61   A 0.39 0.38 -0.0 0 0 113.53 947.99   L 340.30 947.99   A 0.38 0.37 -0.0 0 0 340.68 947.62   L 340.68 846.27   A 0.48 0.47 0.0 0 0 340.20 845.80   L 313.36 845.74"/>
<path stroke="#f3ae9d" vector-effect="non-scaling-stroke" d="   M 313.36 845.74   Q 312.67 846.02 312.41 845.30   C 299.81 810.42 285.18 767.44 271.33 728.46   A 0.47 0.47 0.0 0 0 270.45 728.46   C 256.16 768.47 243.23 806.03 229.20 845.02   Q 229.05 845.44 228.83 845.58   Q 228.54 845.76 228.18 845.74"/>
<path stroke="#97b3a2" vector-effect="non-scaling-stroke" d="   M 228.18 845.74   Q 228.05 845.79 227.93 845.84   A 0.85 0.79 -55.1 0 1 227.60 845.91   L 184.51 845.76"/>
<path stroke="#90a398" vector-effect="non-scaling-stroke" d="   M 184.51 845.76   L 184.42 812.81"/>
<path stroke="#9cbfe7" vector-effect="non-scaling-stroke" d="   M 184.42 812.81   Q 192.97 811.81 200.57 807.87   C 228.48 793.40 239.12 759.91 222.68 732.51   C 214.91 719.58 201.09 709.47 186.02 707.33   C 163.48 704.14 144.15 712.29 131.80 730.78   C 117.60 752.04 120.71 779.59 138.80 797.69   Q 151.33 810.22 169.01 812.93"/>
<path stroke="#3776a5" vector-effect="non-scaling-stroke" d="   M 184.42 812.81   L 184.43 758.25   A 0.66 0.65 0.0 0 0 183.77 757.60   L 169.68 757.60   A 0.75 0.74 90.0 0 0 168.94 758.35   L 169.01 812.93"/>
<path stroke="#316a60" vector-effect="non-scaling-stroke" d="   M 184.51 845.76   L 184.38 882.53   A 0.89 0.89 0.0 0 1 183.49 883.42   L 169.81 883.42   A 0.90 0.90 0.0 0 1 168.91 882.52   L 168.94 845.84"/>
<path stroke="#919a5b" vector-effect="non-scaling-stroke" d="   M 263.49 866.08   L 263.56 911.43   A 0.65 0.64 90.0 0 0 264.20 912.08   L 277.62 912.08   A 0.68 0.67 -90.0 0 0 278.29 911.40   L 278.25 866.09"/>
<path stroke="#947565" vector-effect="non-scaling-stroke" d="   M 313.36 845.74   Q 312.61 845.92 312.68 846.15   Q 315.93 855.76 319.44 865.25   A 0.65 0.64 79.8 0 1 318.84 866.12   L 278.25 866.09"/>
<path stroke="#ed9556" vector-effect="non-scaling-stroke" d="   M 278.25 866.09   L 263.49 866.08"/>
<path stroke="#947565" vector-effect="non-scaling-stroke" d="   M 263.49 866.08   L 222.72 866.02   A 0.67 0.66 9.8 0 1 222.09 865.13   L 228.84 846.40   A 0.48 0.48 0.0 0 0 228.55 845.79   Q 228.37 845.73 228.18 845.74"/>
<path stroke="#f3ae9d" vector-effect="non-scaling-stroke" d="   M 1217.48 745.74   L 1220.09 752.99"/>
<path stroke="#f3ae9d" vector-effect="non-scaling-stroke" d="   M 1234.26 792.62   L 1260.35 868.22"/>
<path stroke="#947565" vector-effect="non-scaling-stroke" d="   M 1260.35 868.22   L 1219.48 868.51"/>
<path stroke="#ed9556" vector-effect="non-scaling-stroke" d="   M 1219.48 868.51   L 1203.89 868.48"/>
<path stroke="#947565" vector-effect="non-scaling-stroke" d="   M 1203.89 868.48   L 1163.22 868.52"/>
<path stroke="#f3ae9d" vector-effect="non-scaling-stroke" d="   M 1203.44 752.96   L 1205.97 745.89"/>
<path stroke="#f3ae9d" vector-effect="non-scaling-stroke" d="   M 1708.00 745.65   L 1710.72 752.80"/>
<path stroke="#947565" vector-effect="non-scaling-stroke" d="   M 1751.21 868.41   L 1710.53 868.74"/>
<path stroke="#ed9556" vector-effect="non-scaling-stroke" d="   M 1710.53 868.74   Q 1710.38 868.66 1710.24 868.58   A 1.54 1.49 -31.1 0 0 1709.58 868.43   Q 1702.57 868.59 1695.52 868.40   Q 1695.33 868.40 1695.17 868.51   Q 1694.98 868.64 1694.92 868.79"/>
<path stroke="#947565" vector-effect="non-scaling-stroke" d="   M 1694.92 868.79   L 1694.01 868.57   A 1.66 1.12 -29.4 0 0 1693.76 868.55   L 1653.67 868.58"/>
<path stroke="#f3ae9d" vector-effect="non-scaling-stroke" d="   M 1653.67 868.58   L 1679.65 792.79"/>
<path stroke="#f3ae9d" vector-effect="non-scaling-stroke" d="   M 1693.72 752.96   L 1696.44 745.79"/>
<path stroke="#97b3a2" vector-effect="non-scaling-stroke" d="   M 1345.38 745.49   L 1355.49 753.01"/>
<path stroke="#316a60" vector-effect="non-scaling-stroke" d="   M 1326.81 844.60   L 1326.54 791.27   A 1.53 1.53 0.0 0 0 1325.01 789.75   L 1312.89 789.75   A 1.35 1.35 0.0 0 0 1311.54 791.08   Q 1311.23 814.34 1312.07 836.50   Q 1312.22 840.30 1311.59 844.08"/>
<path stroke="#97b3a2" vector-effect="non-scaling-stroke" d="   M 1311.59 844.08   Q 1301.30 843.29 1291.81 837.43   Q 1266.60 821.87 1265.40 792.39"/>
<path stroke="#9cbfe7" vector-effect="non-scaling-stroke" d="   M 1652.38 792.14   Q 1652.66 816.28 1634.77 832.03   Q 1622.86 842.51 1607.03 844.57"/>
<path stroke="#3776a5" vector-effect="non-scaling-stroke" d="   M 1607.03 844.57   L 1607.09 790.74   A 0.85 0.85 0.0 0 0 1606.24 789.89   L 1592.77 789.89   A 1.03 1.03 0.0 0 0 1591.74 790.92   L 1591.71 844.39"/>
<path stroke="#9cbfe7" vector-effect="non-scaling-stroke" d="   M 1562.44 753.49   L 1572.99 745.51"/>
<path stroke="#316a60" vector-effect="non-scaling-stroke" d="   M 1326.85 868.41   Q 1326.38 871.02 1326.39 872.50   Q 1326.56 891.28 1326.63 911.00   Q 1326.63 912.93 1326.29 914.27   A 0.79 0.78 -82.9 0 1 1325.53 914.87   L 1312.74 914.87   A 1.00 1.00 0.0 0 1 1311.74 913.87   L 1311.76 868.43"/>
<path stroke="#90a398" vector-effect="non-scaling-stroke" d="   M 1311.76 868.43   L 1311.59 844.08"/>
<path stroke="#90a398" vector-effect="non-scaling-stroke" d="   M 1607.03 844.57   L 1606.85 868.44"/>
<path stroke="#316a60" vector-effect="non-scaling-stroke" d="   M 1606.85 868.44   L 1606.99 914.13   A 0.84 0.84 0.0 0 1 1606.15 914.98   L 1592.55 914.98   A 0.85 0.85 0.0 0 1 1591.70 914.13   L 1591.87 868.45"/>
<path stroke="#97b3a2" vector-effect="non-scaling-stroke" d="   M 1311.76 868.43   L 1260.35 868.22"/>
<path stroke="#97b3a2" vector-effect="non-scaling-stroke" d="   M 1653.67 868.58   L 1606.85 868.44"/>
<path stroke="#919a5b" vector-effect="non-scaling-stroke" d="   M 1203.89 868.48   L 1203.83 914.16   A 0.49 0.49 0.0 0 0 1204.32 914.65   L 1218.97 914.65   A 0.46 0.46 0.0 0 0 1219.43 914.19   L 1219.48 868.51"/>
<path stroke="#919a5b" vector-effect="non-scaling-stroke" d="   M 1694.92 868.79   L 1694.88 914.27   A 0.54 0.54 0.0 0 0 1695.42 914.81   L 1709.94 914.81   A 0.55 0.54 -0.0 0 0 1710.49 914.27   L 1710.53 868.74"/>
</g>
<path xmlns="http://www.w3.org/2000/svg" fill="#f5ecda" d="   M 1937.00 0.00   L 1937.00 706.21   Q 1472.09 706.18 1007.18 706.23   Q 991.12 706.23 986.05 707.71   C 971.17 712.04 961.51 723.65 957.83 738.91   Q 956.57 744.16 956.64 755.72   Q 956.87 789.04 956.74 864.63   A 0.39 0.38 -0.0 0 1 956.35 865.01   Q 944.44 864.99 944.25 864.99   Q 536.59 864.78 510.25 864.75   Q 478.09 864.70 448.66 865.19   A 0.48 0.47 89.4 0 1 448.18 864.71   Q 448.12 644.38 448.18 641.32   C 448.42 628.99 447.14 622.25 441.18 612.64   Q 429.38 593.61 406.75 593.59   Q 203.37 593.34 0.00 593.43   L 0.00 0.00   L 1937.00 0.00   Z   M 113.67 480.37   L 113.61 534.40   L 113.50 534.98   A 0.63 0.63 0.0 0 1 112.67 535.45   Q 93.77 528.81 78.56 541.12   Q 64.99 552.09 65.52 569.99   A 0.56 0.56 0.0 0 0 66.08 570.53   L 294.90 570.53   A 1.13 1.12 10.7 0 0 295.95 569.82   C 301.35 556.35 297.97 539.48 287.47 529.80   C 275.48 518.74 258.23 517.25 243.57 524.12   A 0.83 0.83 0.0 0 1 242.42 523.60   C 240.11 515.76 235.98 509.02 229.13 504.23   Q 222.66 499.70 217.45 498.11   Q 196.51 491.72 178.72 505.17   Q 169.84 511.88 166.91 522.22   A 0.67 0.67 0.0 0 1 165.90 522.60   Q 152.28 513.62 136.66 517.79   Q 136.65 517.80 132.71 519.29   Q 130.42 520.15 128.57 519.90   Q 128.99 513.28 128.94 507.75   Q 128.80 493.89 128.56 480.43   C 150.83 477.24 168.07 461.67 172.78 439.79   Q 177.81 416.41 163.54 397.12   C 147.26 375.11 116.34 368.54 93.05 384.05   C 52.18 411.26 65.01 472.90 113.67 480.37   Z   M 1803.77 631.63   Q 1786.27 625.89 1771.13 635.66   A 0.71 0.71 0.0 0 1 1770.08 635.30   C 1762.05 613.35 1738.69 602.30 1716.77 612.15   C 1708.00 616.09 1701.83 620.75 1697.69 628.96   Q 1695.33 633.64 1694.22 636.22   A 0.72 0.71 23.1 0 1 1693.28 636.59   C 1684.30 632.75 1675.62 631.55 1666.47 633.74   C 1644.61 638.95 1633.22 662.02 1641.41 682.82   A 1.43 1.42 79.0 0 0 1642.73 683.72   L 1870.88 683.72   A 0.60 0.59 -90.0 0 0 1871.47 683.12   Q 1871.51 665.25 1859.34 654.40   C 1851.04 647.00 1840.72 644.39 1830.08 647.13   Q 1827.67 647.75 1824.90 648.61   A 0.78 0.77 -26.2 0 1 1824.05 648.33   L 1819.08 641.49   L 1818.48 594.61   A 1.63 1.61 85.3 0 1 1819.85 592.98   Q 1846.52 588.88 1858.51 565.55   C 1861.21 560.30 1863.38 552.09 1863.76 546.54   Q 1865.44 522.43 1849.55 505.32   Q 1832.41 486.87 1807.78 488.55   Q 1783.18 490.24 1768.75 509.32   Q 1754.55 528.11 1759.33 552.60   Q 1761.49 563.69 1768.75 573.35   Q 1781.88 590.83 1803.28 592.90   A 0.77 0.77 0.0 0 1 1803.98 593.67   L 1803.77 631.63   Z   M 522.68 742.08   L 522.84 771.04   L 522.71 800.77   A 0.96 0.92 -28.2 0 1 522.53 801.32   L 517.97 807.81   A 0.64 0.64 0.0 0 1 517.22 808.03   C 502.72 802.30 486.22 807.25 477.45 820.18   Q 470.11 831.00 469.47 843.39   A 0.68 0.68 0.0 0 0 470.15 844.10   L 699.51 844.10   A 0.96 0.95 10.0 0 0 700.41 843.48   Q 705.04 831.28 702.09 819.97   C 698.26 805.32 685.79 795.01 670.75 793.11   C 663.09 792.14 655.53 793.99 648.61 797.18   A 0.72 0.71 68.5 0 1 647.63 796.75   Q 641.39 777.36 622.15 770.87   Q 608.19 766.16 593.32 772.39   C 589.17 774.12 586.59 775.37 583.51 778.01   Q 574.91 785.37 571.49 795.81   A 0.56 0.55 -64.2 0 1 570.67 796.10   Q 555.86 786.43 538.49 791.04   L 538.31 741.96   C 551.17 740.45 560.65 734.92 569.62 725.95   C 576.50 719.08 580.54 709.78 582.51 700.75   C 585.39 687.50 583.06 672.35 574.99 660.75   Q 556.84 634.66 525.92 637.33   C 508.28 638.85 494.52 648.10 485.06 662.58   Q 479.37 671.28 477.98 682.02   Q 474.97 705.33 489.24 723.56   C 497.28 733.84 509.83 739.99 522.68 742.08   Z"/>
<path xmlns="http://www.w3.org/2000/svg" fill="#4392f4" d="   M 128.56 480.43   L 128.70 428.00   A 1.35 1.34 0.2 0 0 127.35 426.65   L 114.91 426.64   A 0.97 0.96 90.0 0 0 113.95 427.61   L 113.67 480.37   C 65.01 472.90 52.18 411.26 93.05 384.05   C 116.34 368.54 147.26 375.11 163.54 397.12   Q 177.81 416.41 172.78 439.79   C 168.07 461.67 150.83 477.24 128.56 480.43   Z"/>
<path xmlns="http://www.w3.org/2000/svg" fill="#2a5956" d="   M 128.56 480.43   Q 128.80 493.89 128.94 507.75   Q 128.99 513.28 128.57 519.90   L 122.72 524.51   A 9.88 9.57 -87.1 0 0 121.67 525.49   L 113.61 534.40   L 113.67 480.37   L 113.95 427.61   A 0.97 0.96 90.0 0 1 114.91 426.64   L 127.35 426.65   A 1.35 1.34 0.2 0 1 128.70 428.00   L 128.56 480.43   Z"/>
<path xmlns="http://www.w3.org/2000/svg" fill="#e9ba4c" d="   M 1819.08 641.49   Q 1811.86 635.22 1803.77 631.63   L 1803.98 593.67   A 0.77 0.77 0.0 0 0 1803.28 592.90   Q 1781.88 590.83 1768.75 573.35   Q 1761.49 563.69 1759.33 552.60   Q 1754.55 528.11 1768.75 509.32   Q 1783.18 490.24 1807.78 488.55   Q 1832.41 486.87 1849.55 505.32   Q 1865.44 522.43 1863.76 546.54   C 1863.38 552.09 1861.21 560.30 1858.51 565.55   Q 1846.52 588.88 1819.85 592.98   A 1.63 1.61 85.3 0 0 1818.48 594.61   L 1819.08 641.49   Z"/>
<path xmlns="http://www.w3.org/2000/svg" fill="#387a6a" d="   M 113.61 534.40   L 121.67 525.49   A 9.88 9.57 -87.1 0 1 122.72 524.51   L 128.57 519.90   Q 130.42 520.15 132.71 519.29   Q 136.65 517.80 136.66 517.79   Q 152.28 513.62 165.90 522.60   A 0.67 0.67 0.0 0 0 166.91 522.22   Q 169.84 511.88 178.72 505.17   Q 196.51 491.72 217.45 498.11   Q 222.66 499.70 229.13 504.23   C 235.98 509.02 240.11 515.76 242.42 523.60   A 0.83 0.83 0.0 0 0 243.57 524.12   C 258.23 517.25 275.48 518.74 287.47 529.80   C 297.97 539.48 301.35 556.35 295.95 569.82   A 1.13 1.12 10.7 0 1 294.90 570.53   L 66.08 570.53   A 0.56 0.56 0.0 0 1 65.52 569.99   Q 64.99 552.09 78.56 541.12   Q 93.77 528.81 112.67 535.45   A 0.63 0.63 0.0 0 0 113.50 534.98   L 113.61 534.40   Z"/>
<path xmlns="http://www.w3.org/2000/svg" fill="#a8a7a7" d="   M 1937.00 706.21   L 1937.00 792.49   L 1724.92 792.54   L 1710.72 752.80   L 1749.93 753.14   A 1.25 1.25 0.0 0 0 1751.19 751.89   L 1751.19 746.71   A 1.21 1.21 0.0 0 0 1749.97 745.50   L 1708.00 745.65   L 1702.84 731.42   A 0.45 0.44 -5.5 0 0 1702.49 731.14   Q 1701.67 731.02 1701.24 732.25   Q 1698.74 739.29 1696.44 745.79   L 1683.67 745.90   A 1.23 1.22 89.8 0 0 1682.46 747.13   L 1682.46 751.60   A 1.22 1.21 -89.8 0 0 1683.66 752.82   L 1693.72 752.96   L 1679.65 792.79   L 1652.38 792.14   Q 1652.82 774.02 1642.28 760.25   Q 1623.52 735.75 1591.85 739.03   Q 1582.93 739.95 1572.99 745.51   L 1555.49 745.41   A 1.55 1.55 0.0 0 0 1553.93 746.96   L 1553.93 751.63   A 1.59 1.59 0.0 0 0 1555.46 753.22   L 1562.44 753.49   Q 1559.73 756.53 1557.34 759.56   Q 1545.92 774.08 1546.50 792.34   L 1371.74 792.66   Q 1372.15 777.25 1364.46 764.05   Q 1362.51 760.69 1355.49 753.01   L 1366.80 753.38   A 1.65 1.64 0.8 0 0 1368.50 751.74   L 1368.50 747.13   A 1.74 1.73 0.0 0 0 1366.76 745.40   L 1345.38 745.49   Q 1322.69 734.06 1299.66 742.19   Q 1291.57 745.05 1285.00 750.66   Q 1274.12 759.95 1268.77 772.55   Q 1265.25 780.86 1265.40 792.39   L 1234.26 792.62   L 1220.09 752.99   L 1238.54 752.89   A 1.54 1.54 0.0 0 0 1240.07 751.35   L 1240.07 746.75   A 1.36 1.36 0.0 0 0 1238.68 745.39   L 1217.48 745.74   L 1212.20 731.36   A 0.35 0.35 0.0 0 0 1211.63 731.22   L 1211.22 731.60   A 0.09 0.03 -73.2 0 0 1211.20 731.63   L 1205.97 745.89   L 1171.30 745.54   A 1.01 1.00 -89.7 0 0 1170.29 746.55   L 1170.29 752.19   A 1.08 1.07 89.7 0 0 1171.37 753.27   L 1203.44 752.96   L 1189.44 792.46   L 1042.99 792.55   A 0.74 0.73 90.0 0 0 1042.26 793.29   Q 1042.19 886.24 1042.30 905.25   Q 1042.35 912.85 1041.43 917.98   C 1038.83 932.58 1027.17 944.69 1012.99 949.22   C 1007.07 951.12 1000.48 951.26 993.75 951.25   C 857.69 951.08 615.04 951.37 402.25 951.20   C 390.44 951.20 376.61 943.84 370.00 934.05   Q 365.55 927.45 363.37 919.10   Q 362.12 914.32 362.15 902.80   Q 362.28 860.29 362.29 680.10   A 0.59 0.59 0.0 0 0 361.70 679.51   L 0.00 679.56   L 0.00 640.18   L 70.37 640.16   A 0.22 0.22 0.0 0 0 70.59 639.94   L 70.59 632.91   A 0.21 0.21 0.0 0 0 70.38 632.70   L 0.00 632.71   L 0.00 593.43   Q 203.37 593.34 406.75 593.59   Q 429.38 593.61 441.18 612.64   C 447.14 622.25 448.42 628.99 448.18 641.32   Q 448.12 644.38 448.18 864.71   A 0.48 0.47 89.4 0 0 448.66 865.19   Q 478.09 864.70 510.25 864.75   Q 536.59 864.78 944.25 864.99   Q 944.44 864.99 956.35 865.01   A 0.39 0.38 0.0 0 0 956.74 864.63   Q 956.87 789.04 956.64 755.72   Q 956.57 744.16 957.83 738.91   C 961.51 723.65 971.17 712.04 986.05 707.71   Q 991.12 706.23 1007.18 706.23   Q 1472.09 706.18 1937.00 706.21   Z   M 198.4351 633.5607   A 0.85 0.85 0.0 0 0 197.5865 632.7093   L 129.6866 632.5908   A 0.85 0.85 0.0 0 0 128.8352 633.4393   L 128.8249 639.2993   A 0.85 0.85 0.0 0 0 129.6735 640.1507   L 197.5734 640.2692   A 0.85 0.85 0.0 0 0 198.4248 639.4207   L 198.4351 633.5607   Z   M 327.0748 633.4290   A 0.81 0.81 0.0 0 0 326.2634 632.6204   L 258.0035 632.7396   A 0.81 0.81 0.0 0 0 257.1949 633.5510   L 257.2052 639.4510   A 0.81 0.81 0.0 0 0 258.0166 640.2596   L 326.2765 640.1404   A 0.81 0.81 0.0 0 0 327.0851 639.3290   L 327.0748 633.4290   Z   M 408.83 709.62   A 0.62 0.62 0.0 0 0 408.21 709.00   L 402.09 709.00   A 0.62 0.62 0.0 0 0 401.47 709.62   L 401.47 775.88   A 0.62 0.62 0.0 0 0 402.09 776.50   L 408.21 776.50   A 0.62 0.62 0.0 0 0 408.83 775.88   L 408.83 709.62   Z   M 1111.35 746.69   A 1.00 1.00 0.0 0 0 1110.35 745.69   L 1043.61 745.69   A 1.00 1.00 0.0 0 0 1042.61 746.69   L 1042.61 752.07   A 1.00 1.00 0.0 0 0 1043.61 753.07   L 1110.35 753.07   A 1.00 1.00 0.0 0 0 1111.35 752.07   L 1111.35 746.69   Z   M 1495.91 746.66   A 1.03 1.03 0.0 0 0 1494.88 745.63   L 1427.00 745.63   A 1.03 1.03 0.0 0 0 1425.97 746.66   L 1425.97 751.98   A 1.03 1.03 0.0 0 0 1427.00 753.01   L 1494.88 753.01   A 1.03 1.03 0.0 0 0 1495.91 751.98   L 1495.91 746.66   Z   M 1879.7148 746.6211   A 0.90 0.90 0.0 0 0 1878.8164 745.7195   L 1810.6165 745.6005   A 0.90 0.90 0.0 0 0 1809.7149 746.4989   L 1809.7052 752.0989   A 0.90 0.90 0.0 0 0 1810.6036 753.0005   L 1878.8035 753.1195   A 0.90 0.90 0.0 0 0 1879.7051 752.2211   L 1879.7148 746.6211   Z   M 1003.6216 801.6832   A 0.71 0.71 0.0 0 0 1002.9104 800.9745   L 996.5104 800.9856   A 0.71 0.71 0.0 0 0 995.8016 801.6969   L 995.9184 868.5768   A 0.71 0.71 0.0 0 0 996.6296 869.2855   L 1003.0296 869.2744   A 0.71 0.71 0.0 0 0 1003.7384 868.5631   L 1003.6216 801.6832   Z   M 408.92 835.67   A 0.91 0.91 0.0 0 0 408.01 834.76   L 402.25 834.76   A 0.91 0.91 0.0 0 0 401.34 835.67   L 401.34 902.87   A 0.91 0.91 0.0 0 0 402.25 903.78   L 408.01 903.78   A 0.91 0.91 0.0 0 0 408.92 902.87   L 408.92 835.67   Z   M 557.86 905.14   A 0.79 0.79 0.0 0 0 557.07 904.35   L 488.87 904.35   A 0.79 0.79 0.0 0 0 488.08 905.14   L 488.08 910.94   A 0.79 0.79 0.0 0 0 488.87 911.73   L 557.07 911.73   A 0.79 0.79 0.0 0 0 557.86 910.94   L 557.86 905.14   Z   M 686.41 905.28   A 0.99 0.99 0.0 0 0 685.42 904.29   L 617.10 904.29   A 0.99 0.99 0.0 0 0 616.11 905.28   L 616.11 910.76   A 0.99 0.99 0.0 0 0 617.10 911.75   L 685.42 911.75   A 0.99 0.99 0.0 0 0 686.41 910.76   L 686.41 905.28   Z   M 813.0949 905.0798   A 0.87 0.87 0.0 0 0 812.2234 904.2113   L 744.9435 904.3287   A 0.87 0.87 0.0 0 0 744.0750 905.2002   L 744.0851 910.9802   A 0.87 0.87 0.0 0 0 744.9566 911.8487   L 812.2365 911.7313   A 0.87 0.87 0.0 0 0 813.1050 910.8598   L 813.0949 905.0798   Z   M 941.93 905.23   A 0.96 0.96 0.0 0 0 940.97 904.27   L 873.45 904.27   A 0.96 0.96 0.0 0 0 872.49 905.23   L 872.49 910.83   A 0.96 0.96 0.0 0 0 873.45 911.79   L 940.97 911.79   A 0.96 0.96 0.0 0 0 941.93 910.83   L 941.93 905.23   Z"/>
<path xmlns="http://www.w3.org/2000/svg" fill="#387a6a" d="   M 1803.77 631.63   Q 1811.86 635.22 1819.08 641.49   L 1824.05 648.33   A 0.78 0.77 -26.2 0 0 1824.90 648.61   Q 1827.67 647.75 1830.08 647.13   C 1840.72 644.39 1851.04 647.00 1859.34 654.40   Q 1871.51 665.25 1871.47 683.12   A 0.60 0.59 -90.0 0 1 1870.88 683.72   L 1642.73 683.72   A 1.43 1.42 79.0 0 1 1641.41 682.82   C 1633.22 662.02 1644.61 638.95 1666.47 633.74   C 1675.62 631.55 1684.30 632.75 1693.28 636.59   A 0.72 0.71 23.1 0 0 1694.22 636.22   Q 1695.33 633.64 1697.69 628.96   C 1701.83 620.75 1708.00 616.09 1716.77 612.15   C 1738.69 602.30 1762.05 613.35 1770.08 635.30   A 0.71 0.71 0.0 0 0 1771.13 635.66   Q 1786.27 625.89 1803.77 631.63   Z"/>
<path xmlns="http://www.w3.org/2000/svg" fill="#f5ecda" d="   M 0.00 640.18   L 0.00 632.71   L 70.38 632.70   A 0.21 0.21 0.0 0 1 70.59 632.91   L 70.59 639.94   A 0.22 0.22 0.0 0 1 70.37 640.16   L 0.00 640.18   Z"/>
<rect xmlns="http://www.w3.org/2000/svg" fill="#f5ecda" x="-34.80" y="-3.78" transform="translate(163.63,636.43) rotate(0.1)" width="69.60" height="7.56" rx="0.85"/>
<rect xmlns="http://www.w3.org/2000/svg" fill="#f5ecda" x="-34.94" y="-3.76" transform="translate(292.14,636.44) rotate(-0.1)" width="69.88" height="7.52" rx="0.81"/>
<path xmlns="http://www.w3.org/2000/svg" fill="#387a6a" d="   M 538.31 741.96   L 537.90 689.41   A 1.19 1.19 0.0 0 0 536.71 688.23   L 523.61 688.23   A 0.65 0.65 0.0 0 0 522.96 688.86   Q 522.68 695.87 522.49 714.34   C 522.42 721.53 523.12 727.34 523.21 733.97   Q 523.25 736.19 523.06 738.04   Q 522.85 740.00 522.68 742.08   C 509.83 739.99 497.28 733.84 489.24 723.56   Q 474.97 705.33 477.98 682.02   Q 479.37 671.28 485.06 662.58   C 494.52 648.10 508.28 638.85 525.92 637.33   Q 556.84 634.66 574.99 660.75   C 583.06 672.35 585.39 687.50 582.51 700.75   C 580.54 709.78 576.50 719.08 569.62 725.95   C 560.65 734.92 551.17 740.45 538.31 741.96   Z"/>
<path xmlns="http://www.w3.org/2000/svg" fill="#f5ecda" d="   M 1189.44 792.46   L 1163.22 868.52   L 1084.18 868.35   A 0.72 0.72 0.0 0 0 1083.46 869.07   L 1083.46 951.00   A 0.31 0.31 0.0 0 0 1083.77 951.31   L 1387.15 951.31   A 0.43 0.43 0.0 0 0 1387.58 950.88   L 1387.58 869.12   A 0.69 0.69 0.0 0 0 1386.90 868.43   L 1326.85 868.41   L 1326.81 844.60   Q 1347.65 840.88 1360.65 824.88   Q 1371.83 811.12 1371.74 792.66   L 1546.50 792.34   Q 1546.31 811.16 1557.10 824.86   C 1565.02 834.92 1578.36 843.45 1591.71 844.39   L 1591.87 868.45   L 1518.37 868.43   A 0.56 0.56 0.0 0 0 1517.81 868.99   L 1517.81 950.87   A 0.49 0.49 0.0 0 0 1518.30 951.36   L 1796.69 951.36   A 0.63 0.63 0.0 0 0 1797.32 950.73   L 1797.32 869.26   A 0.85 0.85 0.0 0 0 1796.47 868.41   L 1751.21 868.41   L 1724.92 792.54   L 1937.00 792.49   L 1937.00 1081.00   L 0.00 1081.00   L 0.00 679.56   L 361.70 679.51   A 0.59 0.59 0.0 0 1 362.29 680.10   Q 362.28 860.29 362.15 902.80   Q 362.12 914.32 363.37 919.10   Q 365.55 927.45 370.00 934.05   C 376.61 943.84 390.44 951.20 402.25 951.20   C 615.04 951.37 857.69 951.08 993.75 951.25   C 1000.48 951.26 1007.07 951.12 1012.99 949.22   C 1027.17 944.69 1038.83 932.58 1041.43 917.98   Q 1042.35 912.85 1042.30 905.25   Q 1042.19 886.24 1042.26 793.29   A 0.74 0.73 -90.0 0 1 1042.99 792.55   L 1189.44 792.46   Z   M 169.01 812.93   L 168.94 845.84   L 113.46 845.88   A 0.32 0.32 0.0 0 0 113.14 846.20   L 113.14 947.61   A 0.39 0.38 -0.0 0 0 113.53 947.99   L 340.30 947.99   A 0.38 0.37 -0.0 0 0 340.68 947.62   L 340.68 846.27   A 0.48 0.47 0.0 0 0 340.20 845.80   L 313.36 845.74   Q 312.67 846.02 312.41 845.30   C 299.81 810.42 285.18 767.44 271.33 728.46   A 0.47 0.47 0.0 0 0 270.45 728.46   C 256.16 768.47 243.23 806.03 229.20 845.02   Q 229.05 845.44 228.83 845.58   Q 228.54 845.76 228.18 845.74   Q 228.05 845.79 227.93 845.84   A 0.85 0.79 -55.1 0 1 227.60 845.91   L 184.51 845.76   L 184.42 812.81   Q 192.97 811.81 200.57 807.87   C 228.48 793.40 239.12 759.91 222.68 732.51   C 214.91 719.58 201.09 709.47 186.02 707.33   C 163.48 704.14 144.15 712.29 131.80 730.78   C 117.60 752.04 120.71 779.59 138.80 797.69   Q 151.33 810.22 169.01 812.93   Z"/>
<path xmlns="http://www.w3.org/2000/svg" fill="#2a5956" d="   M 538.31 741.96   L 538.49 791.04   L 534.19 793.12   A 10.04 9.78 13.0 0 0 532.64 794.06   L 530.14 795.89   A 5.56 5.28 1.5 0 0 529.32 796.63   Q 527.31 798.89 524.78 799.98   A 1.35 1.35 0.0 0 1 522.89 798.74   L 522.84 771.04   L 522.68 742.08   Q 522.85 740.00 523.06 738.04   Q 523.25 736.19 523.21 733.97   C 523.12 727.34 522.42 721.53 522.49 714.34   Q 522.68 695.87 522.96 688.86   A 0.65 0.65 0.0 0 1 523.61 688.23   L 536.71 688.23   A 1.19 1.19 0.0 0 1 537.90 689.41   L 538.31 741.96   Z"/>
<path xmlns="http://www.w3.org/2000/svg" fill="#4392f4" d="   M 184.42 812.81   L 184.43 758.25   A 0.66 0.65 0.0 0 0 183.77 757.60   L 169.68 757.60   A 0.75 0.74 90.0 0 0 168.94 758.35   L 169.01 812.93   Q 151.33 810.22 138.80 797.69   C 120.71 779.59 117.60 752.04 131.80 730.78   C 144.15 712.29 163.48 704.14 186.02 707.33   C 201.09 709.47 214.91 719.58 222.68 732.51   C 239.12 759.91 228.48 793.40 200.57 807.87   Q 192.97 811.81 184.42 812.81   Z"/>
<rect xmlns="http://www.w3.org/2000/svg" fill="#f5ecda" x="401.47" y="709.00" width="7.36" height="67.50" rx="0.62"/>
<path xmlns="http://www.w3.org/2000/svg" fill="#f07060" d="   M 313.36 845.74   Q 312.61 845.92 312.68 846.15   Q 315.93 855.76 319.44 865.25   A 0.65 0.64 79.8 0 1 318.84 866.12   L 278.25 866.09   L 263.49 866.08   L 222.72 866.02   A 0.67 0.66 9.8 0 1 222.09 865.13   L 228.84 846.40   A 0.48 0.48 0.0 0 0 228.55 845.79   Q 228.37 845.73 228.18 845.74   Q 228.54 845.76 228.83 845.58   Q 229.05 845.44 229.20 845.02   C 243.23 806.03 256.16 768.47 270.45 728.46   A 0.47 0.47 0.0 0 1 271.33 728.46   C 285.18 767.44 299.81 810.42 312.41 845.30   Q 312.67 846.02 313.36 845.74   Z"/>
<path xmlns="http://www.w3.org/2000/svg" fill="#f07060" d="   M 1217.48 745.74   L 1220.09 752.99   L 1234.26 792.62   L 1260.35 868.22   L 1219.48 868.51   L 1203.89 868.48   L 1163.22 868.52   L 1189.44 792.46   L 1203.44 752.96   L 1205.97 745.89   L 1211.20 731.63   A 0.09 0.03 -73.2 0 1 1211.22 731.60   L 1211.63 731.22   A 0.35 0.35 0.0 0 1 1212.20 731.36   L 1217.48 745.74   Z"/>
<path xmlns="http://www.w3.org/2000/svg" fill="#f07060" d="   M 1708.00 745.65   L 1710.72 752.80   L 1724.92 792.54   L 1751.21 868.41   L 1710.53 868.74   Q 1710.38 868.66 1710.24 868.58   A 1.54 1.49 -31.1 0 0 1709.58 868.43   Q 1702.57 868.59 1695.52 868.40   Q 1695.33 868.40 1695.17 868.51   Q 1694.98 868.64 1694.92 868.79   L 1694.01 868.57   A 1.66 1.12 -29.4 0 0 1693.76 868.55   L 1653.67 868.58   L 1679.65 792.79   L 1693.72 752.96   L 1696.44 745.79   Q 1698.74 739.29 1701.24 732.25   Q 1701.67 731.02 1702.49 731.14   A 0.45 0.44 -5.5 0 1 1702.84 731.42   L 1708.00 745.65   Z"/>
<path xmlns="http://www.w3.org/2000/svg" fill="#387a6a" d="   M 1345.38 745.49   L 1355.49 753.01   Q 1362.51 760.69 1364.46 764.05   Q 1372.15 777.25 1371.74 792.66   Q 1371.83 811.12 1360.65 824.88   Q 1347.65 840.88 1326.81 844.60   L 1326.54 791.27   A 1.53 1.53 0.0 0 0 1325.01 789.75   L 1312.89 789.75   A 1.35 1.35 0.0 0 0 1311.54 791.08   Q 1311.23 814.34 1312.07 836.50   Q 1312.22 840.30 1311.59 844.08   Q 1301.30 843.29 1291.81 837.43   Q 1266.60 821.87 1265.40 792.39   Q 1265.25 780.86 1268.77 772.55   Q 1274.12 759.95 1285.00 750.66   Q 1291.57 745.05 1299.66 742.19   Q 1322.69 734.06 1345.38 745.49   Z"/>
<path xmlns="http://www.w3.org/2000/svg" fill="#4392f4" d="   M 1652.38 792.14   Q 1652.66 816.28 1634.77 832.03   Q 1622.86 842.51 1607.03 844.57   L 1607.09 790.74   A 0.85 0.85 0.0 0 0 1606.24 789.89   L 1592.77 789.89   A 1.03 1.03 0.0 0 0 1591.74 790.92   L 1591.71 844.39   C 1578.36 843.45 1565.02 834.92 1557.10 824.86   Q 1546.31 811.16 1546.50 792.34   Q 1545.92 774.08 1557.34 759.56   Q 1559.73 756.53 1562.44 753.49   L 1572.99 745.51   Q 1582.93 739.95 1591.85 739.03   Q 1623.52 735.75 1642.28 760.25   Q 1652.82 774.02 1652.38 792.14   Z"/>
<path xmlns="http://www.w3.org/2000/svg" fill="#f5ecda" d="   M 1355.49 753.01   L 1345.38 745.49   L 1366.76 745.40   A 1.74 1.73 -0.0 0 1 1368.50 747.13   L 1368.50 751.74   A 1.65 1.64 0.8 0 1 1366.80 753.38   L 1355.49 753.01   Z"/>
<path xmlns="http://www.w3.org/2000/svg" fill="#f5ecda" d="   M 1572.99 745.51   L 1562.44 753.49   L 1555.46 753.22   A 1.59 1.59 0.0 0 1 1553.93 751.63   L 1553.93 746.96   A 1.55 1.55 0.0 0 1 1555.49 745.41   L 1572.99 745.51   Z"/>
<rect xmlns="http://www.w3.org/2000/svg" fill="#f5ecda" x="1042.61" y="745.69" width="68.74" height="7.38" rx="1.00"/>
<path xmlns="http://www.w3.org/2000/svg" fill="#f5ecda" d="   M 1205.97 745.89   L 1203.44 752.96   L 1171.37 753.27   A 1.08 1.07 89.7 0 1 1170.29 752.19   L 1170.29 746.55   A 1.01 1.00 -89.7 0 1 1171.30 745.54   L 1205.97 745.89   Z"/>
<path xmlns="http://www.w3.org/2000/svg" fill="#f5ecda" d="   M 1220.09 752.99   L 1217.48 745.74   L 1238.68 745.39   A 1.36 1.36 0.0 0 1 1240.07 746.75   L 1240.07 751.35   A 1.54 1.54 0.0 0 1 1238.54 752.89   L 1220.09 752.99   Z"/>
<rect xmlns="http://www.w3.org/2000/svg" fill="#f5ecda" x="1425.97" y="745.63" width="69.94" height="7.38" rx="1.03"/>
<path xmlns="http://www.w3.org/2000/svg" fill="#f5ecda" d="   M 1710.72 752.80   L 1708.00 745.65   L 1749.97 745.50   A 1.21 1.21 0.0 0 1 1751.19 746.71   L 1751.19 751.89   A 1.25 1.25 0.0 0 1 1749.93 753.14   L 1710.72 752.80   Z"/>
<rect xmlns="http://www.w3.org/2000/svg" fill="#f5ecda" x="-35.00" y="-3.70" transform="translate(1844.71,749.36) rotate(0.1)" width="70.00" height="7.40" rx="0.90"/>
<path xmlns="http://www.w3.org/2000/svg" fill="#f5ecda" d="   M 1696.44 745.79   L 1693.72 752.96   L 1683.66 752.82   A 1.22 1.21 -89.8 0 1 1682.46 751.60   L 1682.46 747.13   A 1.23 1.22 89.8 0 1 1683.67 745.90   L 1696.44 745.79   Z"/>
<path xmlns="http://www.w3.org/2000/svg" fill="#2a5956" d="   M 184.42 812.81   L 184.51 845.76   L 184.38 882.53   A 0.89 0.89 0.0 0 1 183.49 883.42   L 169.81 883.42   A 0.90 0.90 0.0 0 1 168.91 882.52   L 168.94 845.84   L 169.01 812.93   L 168.94 758.35   A 0.75 0.74 90.0 0 1 169.68 757.60   L 183.77 757.60   A 0.66 0.65 0.0 0 1 184.43 758.25   L 184.42 812.81   Z"/>
<path xmlns="http://www.w3.org/2000/svg" fill="#387a6a" d="   M 522.84 771.04   L 522.89 798.74   A 1.35 1.35 0.0 0 0 524.78 799.98   Q 527.31 798.89 529.32 796.63   A 5.56 5.28 1.5 0 1 530.14 795.89   L 532.64 794.06   A 10.04 9.78 13.0 0 1 534.19 793.12   L 538.49 791.04   Q 555.86 786.43 570.67 796.10   A 0.56 0.55 -64.2 0 0 571.49 795.81   Q 574.91 785.37 583.51 778.01   C 586.59 775.37 589.17 774.12 593.32 772.39   Q 608.19 766.16 622.15 770.87   Q 641.39 777.36 647.63 796.75   A 0.72 0.71 68.5 0 0 648.61 797.18   C 655.53 793.99 663.09 792.14 670.75 793.11   C 685.79 795.01 698.26 805.32 702.09 819.97   Q 705.04 831.28 700.41 843.48   A 0.96 0.95 10.0 0 1 699.51 844.10   L 470.15 844.10   A 0.68 0.68 0.0 0 1 469.47 843.39   Q 470.11 831.00 477.45 820.18   C 486.22 807.25 502.72 802.30 517.22 808.03   A 0.64 0.64 0.0 0 0 517.97 807.81   L 522.53 801.32   A 0.96 0.92 -28.2 0 0 522.71 800.77   L 522.84 771.04   Z"/>
<path xmlns="http://www.w3.org/2000/svg" fill="#2a5956" d="   M 1326.81 844.60   L 1326.85 868.41   Q 1326.38 871.02 1326.39 872.50   Q 1326.56 891.28 1326.63 911.00   Q 1326.63 912.93 1326.29 914.27   A 0.79 0.78 -82.9 0 1 1325.53 914.87   L 1312.74 914.87   A 1.00 1.00 0.0 0 1 1311.74 913.87   L 1311.76 868.43   L 1311.59 844.08   Q 1312.22 840.30 1312.07 836.50   Q 1311.23 814.34 1311.54 791.08   A 1.35 1.35 0.0 0 1 1312.89 789.75   L 1325.01 789.75   A 1.53 1.53 0.0 0 1 1326.54 791.27   L 1326.81 844.60   Z"/>
<path xmlns="http://www.w3.org/2000/svg" fill="#2a5956" d="   M 1607.03 844.57   L 1606.85 868.44   L 1606.99 914.13   A 0.84 0.84 0.0 0 1 1606.15 914.98   L 1592.55 914.98   A 0.85 0.85 0.0 0 1 1591.70 914.13   L 1591.87 868.45   L 1591.71 844.39   L 1591.74 790.92   A 1.03 1.03 0.0 0 1 1592.77 789.89   L 1606.24 789.89   A 0.85 0.85 0.0 0 1 1607.09 790.74   L 1607.03 844.57   Z"/>
<path xmlns="http://www.w3.org/2000/svg" fill="#f5ecda" d="   M 1265.40 792.39   Q 1266.60 821.87 1291.81 837.43   Q 1301.30 843.29 1311.59 844.08   L 1311.76 868.43   L 1260.35 868.22   L 1234.26 792.62   L 1265.40 792.39   Z"/>
<path xmlns="http://www.w3.org/2000/svg" fill="#f5ecda" d="   M 1652.38 792.14   L 1679.65 792.79   L 1653.67 868.58   L 1606.85 868.44   L 1607.03 844.57   Q 1622.86 842.51 1634.77 832.03   Q 1652.66 816.28 1652.38 792.14   Z"/>
<rect xmlns="http://www.w3.org/2000/svg" fill="#f5ecda" x="-3.91" y="-34.15" transform="translate(999.77,835.13) rotate(-0.1)" width="7.82" height="68.30" rx="0.71"/>
<rect xmlns="http://www.w3.org/2000/svg" fill="#f5ecda" x="401.34" y="834.76" width="7.58" height="69.02" rx="0.91"/>
<path xmlns="http://www.w3.org/2000/svg" fill="#387a6a" d="   M 168.94 845.84   L 168.91 882.52   A 0.90 0.90 0.0 0 0 169.81 883.42   L 183.49 883.42   A 0.89 0.89 0.0 0 0 184.38 882.53   L 184.51 845.76   L 227.60 845.91   A 0.85 0.79 -55.1 0 0 227.93 845.84   Q 228.05 845.79 228.18 845.74   Q 228.37 845.73 228.55 845.79   A 0.48 0.48 0.0 0 1 228.84 846.40   L 222.09 865.13   A 0.67 0.66 9.8 0 0 222.72 866.02   L 263.49 866.08   L 263.56 911.43   A 0.65 0.64 90.0 0 0 264.20 912.08   L 277.62 912.08   A 0.68 0.67 -90.0 0 0 278.29 911.40   L 278.25 866.09   L 318.84 866.12   A 0.65 0.64 79.8 0 0 319.44 865.25   Q 315.93 855.76 312.68 846.15   Q 312.61 845.92 313.36 845.74   L 340.20 845.80   A 0.48 0.47 -0.0 0 1 340.68 846.27   L 340.68 947.62   A 0.38 0.37 0.0 0 1 340.30 947.99   L 113.53 947.99   A 0.39 0.38 -0.0 0 1 113.14 947.61   L 113.14 846.20   A 0.32 0.32 0.0 0 1 113.46 845.88   L 168.94 845.84   Z"/>
<path xmlns="http://www.w3.org/2000/svg" fill="#e9ba4c" d="   M 278.25 866.09   L 278.29 911.40   A 0.68 0.67 -90.0 0 1 277.62 912.08   L 264.20 912.08   A 0.65 0.64 -90.0 0 1 263.56 911.43   L 263.49 866.08   L 278.25 866.09   Z"/>
<path xmlns="http://www.w3.org/2000/svg" fill="#387a6a" d="   M 1163.22 868.52   L 1203.89 868.48   L 1203.83 914.16   A 0.49 0.49 0.0 0 0 1204.32 914.65   L 1218.97 914.65   A 0.46 0.46 0.0 0 0 1219.43 914.19   L 1219.48 868.51   L 1260.35 868.22   L 1311.76 868.43   L 1311.74 913.87   A 1.00 1.00 0.0 0 0 1312.74 914.87   L 1325.53 914.87   A 0.79 0.78 -82.9 0 0 1326.29 914.27   Q 1326.63 912.93 1326.63 911.00   Q 1326.56 891.28 1326.39 872.50   Q 1326.38 871.02 1326.85 868.41   L 1386.90 868.43   A 0.69 0.69 0.0 0 1 1387.58 869.12   L 1387.58 950.88   A 0.43 0.43 0.0 0 1 1387.15 951.31   L 1083.77 951.31   A 0.31 0.31 0.0 0 1 1083.46 951.00   L 1083.46 869.07   A 0.72 0.72 0.0 0 1 1084.18 868.35   L 1163.22 868.52   Z"/>
<path xmlns="http://www.w3.org/2000/svg" fill="#e9ba4c" d="   M 1219.48 868.51   L 1219.43 914.19   A 0.46 0.46 0.0 0 1 1218.97 914.65   L 1204.32 914.65   A 0.49 0.49 0.0 0 1 1203.83 914.16   L 1203.89 868.48   L 1219.48 868.51   Z"/>
<path xmlns="http://www.w3.org/2000/svg" fill="#387a6a" d="   M 1591.87 868.45   L 1591.70 914.13   A 0.85 0.85 0.0 0 0 1592.55 914.98   L 1606.15 914.98   A 0.84 0.84 0.0 0 0 1606.99 914.13   L 1606.85 868.44   L 1653.67 868.58   L 1693.76 868.55   A 1.66 1.12 -29.4 0 1 1694.01 868.57   L 1694.92 868.79   L 1694.88 914.27   A 0.54 0.54 0.0 0 0 1695.42 914.81   L 1709.94 914.81   A 0.55 0.54 -0.0 0 0 1710.49 914.27   L 1710.53 868.74   L 1751.21 868.41   L 1796.47 868.41   A 0.85 0.85 0.0 0 1 1797.32 869.26   L 1797.32 950.73   A 0.63 0.63 0.0 0 1 1796.69 951.36   L 1518.30 951.36   A 0.49 0.49 0.0 0 1 1517.81 950.87   L 1517.81 868.99   A 0.56 0.56 0.0 0 1 1518.37 868.43   L 1591.87 868.45   Z"/>
<path xmlns="http://www.w3.org/2000/svg" fill="#e9ba4c" d="   M 1710.53 868.74   L 1710.49 914.27   A 0.55 0.54 -0.0 0 1 1709.94 914.81   L 1695.42 914.81   A 0.54 0.54 0.0 0 1 1694.88 914.27   L 1694.92 868.79   Q 1694.98 868.64 1695.17 868.51   Q 1695.33 868.40 1695.52 868.40   Q 1702.57 868.59 1709.58 868.43   A 1.54 1.49 -31.1 0 1 1710.24 868.58   Q 1710.38 868.66 1710.53 868.74   Z"/>
<rect xmlns="http://www.w3.org/2000/svg" fill="#f5ecda" x="488.08" y="904.35" width="69.78" height="7.38" rx="0.79"/>
<rect xmlns="http://www.w3.org/2000/svg" fill="#f5ecda" x="616.11" y="904.29" width="70.30" height="7.46" rx="0.99"/>
<rect xmlns="http://www.w3.org/2000/svg" fill="#f5ecda" x="-34.51" y="-3.76" transform="translate(778.59,908.03) rotate(-0.1)" width="69.02" height="7.52" rx="0.87"/>
<rect xmlns="http://www.w3.org/2000/svg" fill="#f5ecda" x="872.49" y="904.27" width="69.44" height="7.52" rx="0.96"/>
</g></g></g></svg>