<svg xmlns="http://www.w3.org/2000/svg" direction="ltr" width="2048" height="2048" viewBox="32010.885330818244 18758.499754154385 2048 2048" stroke-linecap="round" stroke-linejoin="round" data-color-mode="light" class="tl-container tl-theme__force-sRGB tl-theme__light" style="background-color: transparent;"><defs/><g transform="matrix(1, 0, 0, 1, 32010.8853, 18758.4998)" opacity="1"><g transform="scale(1.4143646408839778, 1.4143646408839778)"><g>
<g xmlns="http://www.w3.org/2000/svg" stroke-width="2.00" fill="none" stroke-linecap="butt">
<path stroke="#848484" vector-effect="non-scaling-stroke" d="   M 925.76 406.68   Q 924.16 419.89 922.53 432.82   Q 920.91 445.62 918.90 458.89   Q 914.53 487.64 912.92 502.49   Q 912.37 507.56 907.45 540.83   Q 904.15 563.13 902.04 579.18   Q 899.43 598.95 894.30 633.75   A 0.57 0.56 -85.0 0 0 894.84 634.40   Q 904.66 634.78 910.79 634.71   C 947.24 634.27 983.72 634.52 1020.17 634.61   Q 1027.12 634.63 1039.31 634.18   Q 1048.86 633.83 1058.48 633.89"/>
<path stroke="#a3a3a3" vector-effect="non-scaling-stroke" d="   M 894.98 1038.46   L 894.33 1035.55   A 5.64 5.52 39.6 0 1 894.21 1034.40   L 894.40 635.34   A 0.50 0.50 0.0 0 0 893.90 634.84   Q 865.19 634.48 836.42 634.58   Q 798.02 634.72 785.57 634.71   Q 533.00 634.49 455.75 634.53   C 438.08 634.53 422.83 634.39 406.66 634.59   Q 398.15 634.70 389.62 633.97"/>
<path stroke="#a3a3a3" vector-effect="non-scaling-stroke" d="   M 699.96 1038.55   Q 699.02 1037.09 699.03 1035.75   C 699.52 993.38 699.21 951.07 699.36 908.56   Q 699.43 890.78 698.06 885.13   Q 694.37 869.95 681.83 858.35   C 668.76 846.27 654.63 843.43 637.55 845.86   C 627.18 847.34 617.34 853.46 609.73 860.51   Q 594.63 874.51 594.37 895.00   Q 593.78 941.40 594.31 1018.67   Q 594.31 1018.74 594.07 1027.31   Q 593.91 1033.05 594.83 1038.54"/>
<path stroke="#909090" vector-effect="non-scaling-stroke" d="   M 952.81 867.32   Q 949.77 869.62 947.62 873.18"/>
<path stroke="#a3a3a3" vector-effect="non-scaling-stroke" d="   M 947.62 873.18   Q 941.51 885.20 945.57 898.61"/>
<path stroke="#909090" vector-effect="non-scaling-stroke" d="   M 945.57 898.61   L 947.34 903.05"/>
<path stroke="#848484" vector-effect="non-scaling-stroke" d="   M 947.34 903.05   L 949.07 905.46   A 0.26 0.26 0.0 0 0 949.49 905.47   Q 949.55 905.40 949.63 905.24   Q 949.73 905.06 949.43 904.79   Q 949.00 904.41 949.00 904.40   A 0.20 0.20 0.0 0 1 949.36 904.27   Q 950.22 905.43 950.03 906.38   A 0.85 0.84 26.3 0 0 950.30 907.17   L 952.42 909.05"/>
<path stroke="#848484" vector-effect="non-scaling-stroke" d="   M 961.25 882.21   L 960.84 876.02   A 1.33 1.26 22.3 0 0 960.47 875.20   Q 957.23 871.86 953.05 870.00"/>
<path stroke="#848484" vector-effect="non-scaling-stroke" d="   M 953.05 870.00   Q 952.91 869.92 952.85 869.81   Q 952.84 869.80 952.85 869.81   Q 952.91 869.92 953.05 870.00"/>
<path stroke="#848484" vector-effect="non-scaling-stroke" d="   M 953.05 870.00   L 959.79 878.24   A 1.38 1.37 -65.8 0 1 960.09 879.04   C 960.38 886.73 956.59 894.45 948.18 895.42   A 0.84 0.84 0.0 0 0 947.44 896.30   L 947.59 900.27   A 0.08 0.07 -44.4 0 0 947.74 900.27   Q 947.84 899.20 947.86 896.87   Q 947.86 896.37 948.08 896.56   A 0.12 0.11 -64.3 0 1 948.11 896.66   L 947.34 903.05"/>
<path stroke="#a3a3a3" vector-effect="non-scaling-stroke" d="   M 945.57 898.61   L 947.02 888.29   A 0.95 0.95 0.0 0 1 948.58 887.70   Q 950.71 889.55 953.32 890.58   A 0.31 0.30 -64.1 0 1 953.47 891.02   L 953.34 891.24   A 0.09 0.09 0.0 0 1 953.23 891.28   L 947.76 889.17   A 0.85 0.84 -77.3 0 0 946.61 889.90   L 946.02 898.88   A 0.06 0.06 0.0 0 0 946.08 898.95   L 946.35 898.97   A 0.16 0.16 0.0 0 0 946.52 898.82   L 946.91 892.93   A 0.85 0.85 0.0 0 1 947.66 892.15   L 954.39 891.40   A 1.07 1.06 -71.9 0 0 955.09 891.04   Q 959.57 886.11 959.31 878.93   A 1.11 1.10 6.4 0 0 958.48 877.90   L 951.67 876.09   A 0.85 0.84 22.3 0 0 950.73 876.48   L 948.38 880.55   A 0.54 0.53 61.0 0 1 947.38 880.26   L 947.62 873.18"/>
<path stroke="#a3a3a3" vector-effect="non-scaling-stroke" d="   M 689.03 696.02   C 689.03 693.17 689.21 690.14 687.13 687.62   C 682.50 682.02 677.57 681.45 670.23 680.89   Q 663.75 680.40 656.92 681.50   Q 654.65 681.86 654.05 682.80   Q 653.28 683.99 654.32 686.01   Q 657.38 691.89 658.86 698.14   Q 663.23 716.54 667.83 735.44   Q 668.40 737.74 668.99 739.13   A 1.47 1.45 1.9 0 0 669.68 739.86   Q 671.60 740.79 672.98 740.44   C 679.61 738.73 690.19 733.04 689.69 725.02   Q 689.04 714.45 689.03 696.02"/>
<path stroke="#a3a3a3" vector-effect="non-scaling-stroke" d="   M 612.97 742.74   Q 613.17 742.88 613.36 742.91   A 1.80 1.72 -21.0 0 1 614.10 743.22   Q 619.94 747.64 633.99 757.99   C 638.33 761.19 641.70 762.22 645.75 758.67   Q 653.38 751.98 657.89 748.94   C 660.56 747.15 662.37 745.00 663.85 742.80   A 3.46 3.43 51.8 0 0 664.21 739.66   C 661.21 731.75 660.08 723.47 657.64 715.62   Q 653.68 702.85 649.86 689.68   C 646.92 679.59 639.70 679.83 631.61 683.35   Q 622.22 687.44 611.99 695.21   Q 607.86 698.36 604.97 701.30   C 599.17 707.19 590.07 715.27 590.36 724.26   A 3.90 3.89 -71.9 0 0 591.84 727.19   Q 601.20 734.57 612.97 742.74"/>
<path stroke="#a3a3a3" vector-effect="non-scaling-stroke" d="   M 694.34 693.45   C 695.01 701.44 695.19 705.80 694.22 712.83   Q 693.03 721.51 693.11 727.17   Q 693.14 728.83 694.58 729.55   A 1.36 1.35 -32.0 0 0 695.24 729.70   L 713.60 728.98   A 1.78 1.64 33.4 0 0 713.97 728.92   C 725.69 725.77 719.82 709.85 713.31 704.22   Q 704.79 696.84 694.97 692.98   A 0.46 0.46 0.0 0 0 694.34 693.45"/>
<path stroke="#a3a3a3" vector-effect="non-scaling-stroke" d="   M 589.06 732.85   A 0.63 0.63 0.0 0 0 588.11 733.06   C 583.20 742.77 579.65 752.47 580.85 763.47   C 581.69 771.20 587.00 770.36 592.06 772.32   Q 601.52 775.99 617.83 780.92   C 621.12 781.92 623.32 781.83 625.72 779.18   Q 629.40 775.12 633.59 767.84   Q 634.64 766.00 634.89 764.90   A 2.13 2.12 -69.7 0 0 633.81 762.54   C 618.22 754.36 603.36 743.93 589.06 732.85"/>
<path stroke="#a3a3a3" vector-effect="non-scaling-stroke" d="   M 671.00 816.79   Q 683.13 817.39 702.18 817.57   C 704.36 817.59 707.60 816.87 710.29 816.93   Q 722.52 817.21 728.54 817.26   Q 737.73 817.33 737.45 808.14   Q 737.05 794.85 737.45 785.50   C 737.58 782.32 738.65 780.50 740.68 778.15   C 745.28 772.84 742.44 765.15 737.02 761.73   C 729.18 756.80 721.36 755.48 711.24 754.78   Q 705.25 754.37 696.50 754.45   Q 689.48 754.51 679.63 756.60   C 671.11 758.41 661.59 763.48 662.09 773.46   A 2.86 2.80 32.0 0 0 662.36 774.57   Q 663.60 777.28 666.27 780.09   A 2.51 2.45 -76.8 0 1 666.85 781.05   Q 667.68 783.59 667.68 784.32   Q 667.66 789.69 668.19 814.60   A 1.58 1.56 27.4 0 0 668.47 815.46   Q 669.34 816.70 671.00 816.79"/>
<path stroke="#a3a3a3" vector-effect="non-scaling-stroke" d="   M 585.60 774.22   A 0.88 0.88 0.0 0 0 584.64 775.22   Q 586.45 787.69 592.46 798.82   C 595.81 805.03 600.15 809.92 607.74 809.55   C 615.29 809.18 618.03 797.72 620.75 789.98   Q 621.74 787.18 619.05 786.20   Q 590.59 775.83 586.60 774.41   Q 586.27 774.29 585.60 774.22"/>
<path stroke="#a3a3a3" vector-effect="non-scaling-stroke" d="   M 705.98 810.74   L 705.98 780.87   A 4.67 4.66 -23.3 0 1 707.26 777.66   C 709.91 774.86 713.22 771.69 709.64 767.89   Q 705.51 763.51 698.96 762.55   C 689.14 761.12 679.17 760.45 671.68 766.40   Q 669.64 768.03 668.54 770.10   A 3.44 3.43 -52.4 0 0 669.05 774.05   C 671.02 776.15 673.14 778.41 673.08 780.51   C 672.92 786.77 673.71 791.73 673.00 797.46   Q 672.42 802.14 672.43 811.01   A 1.13 1.12 87.8 0 0 673.63 812.13   Q 689.27 811.04 704.96 811.72   A 0.98 0.98 0.0 0 0 705.98 810.74"/>
<path stroke="#a3a3a3" vector-effect="non-scaling-stroke" d="   M 615.8574 939.4595   A 8.67 8.41 -102.0 0 0 609.4338 949.6885   A 8.67 8.41 -102.0 0 0 619.4626 956.4205   A 8.67 8.41 -102.0 0 0 625.8862 946.1915   A 8.67 8.41 -102.0 0 0 615.8574 939.4595"/>
</g>
<path xmlns="http://www.w3.org/2000/svg" fill="#909090" d="   M 925.76 406.68   Q 924.16 419.89 922.53 432.82   Q 920.91 445.62 918.90 458.89   Q 914.53 487.64 912.92 502.49   Q 912.37 507.56 907.45 540.83   Q 904.15 563.13 902.04 579.18   Q 899.43 598.95 894.30 633.75   A 0.57 0.56 -85.0 0 0 894.84 634.40   Q 904.66 634.78 910.79 634.71   C 947.24 634.27 983.72 634.52 1020.17 634.61   Q 1027.12 634.63 1039.31 634.18   Q 1048.86 633.83 1058.48 633.89   Q 1058.91 645.87 1058.89 663.75   Q 1058.71 803.30 1058.89 1025.86   C 1058.89 1029.99 1059.52 1033.19 1058.37 1037.32   A 1.84 1.82 -82.3 0 1 1056.61 1038.67   L 894.98 1038.46   L 894.33 1035.55   A 5.64 5.52 39.6 0 1 894.21 1034.40   L 894.40 635.34   A 0.50 0.50 0.0 0 0 893.90 634.84   Q 865.19 634.48 836.42 634.58   Q 798.02 634.72 785.57 634.71   Q 533.00 634.49 455.75 634.53   C 438.08 634.53 422.83 634.39 406.66 634.59   Q 398.15 634.70 389.62 633.97   Q 390.18 631.73 390.56 631.09   Q 437.41 551.12 482.90 472.81   C 496.12 450.04 507.68 431.03 518.97 411.22   Q 520.27 408.95 521.84 407.20   A 1.86 1.83 15.8 0 1 522.88 406.63   Q 526.70 405.96 527.25 405.96   Q 594.20 405.59 638.00 405.60   Q 780.38 405.63 920.50 405.77   Q 923.05 405.77 925.76 406.68   Z   M 976.8937 737.0550   A 32.87 32.74 -89.0 0 0 943.5850 769.3486   A 32.87 32.74 -89.0 0 0 975.7463 802.7850   A 32.87 32.74 -89.0 0 0 1009.0550 770.4914   A 32.87 32.74 -89.0 0 0 976.8937 737.0550   Z   M 952.81 867.32   Q 949.77 869.62 947.62 873.18   Q 941.51 885.20 945.57 898.61   L 947.34 903.05   L 949.07 905.46   A 0.26 0.26 0.0 0 0 949.49 905.47   Q 949.55 905.40 949.63 905.24   Q 949.73 905.06 949.43 904.79   Q 949.00 904.41 949.00 904.40   A 0.20 0.20 0.0 0 1 949.36 904.27   Q 950.22 905.43 950.03 906.38   A 0.85 0.84 26.3 0 0 950.30 907.17   L 952.42 909.05   Q 965.24 923.73 983.18 920.23   Q 988.60 919.17 993.65 915.94   C 1001.58 910.87 1007.75 902.14 1008.79 893.55   C 1010.52 879.19 1003.78 864.95 990.62 858.63   C 977.62 852.38 961.38 855.18 952.81 867.32   Z"/>
<path xmlns="http://www.w3.org/2000/svg" fill="#787878" d="   M 1058.48 633.89   Q 1048.86 633.83 1039.31 634.18   Q 1027.12 634.63 1020.17 634.61   C 983.72 634.52 947.24 634.27 910.79 634.71   Q 904.66 634.78 894.84 634.40   A 0.57 0.56 -85.0 0 1 894.30 633.75   Q 899.43 598.95 902.04 579.18   Q 904.15 563.13 907.45 540.83   Q 912.37 507.56 912.92 502.49   Q 914.53 487.64 918.90 458.89   Q 920.91 445.62 922.53 432.82   Q 924.16 419.89 925.76 406.68   Q 927.78 408.16 928.90 410.11   Q 931.78 415.16 933.02 417.29   Q 949.07 444.95 951.13 448.57   Q 956.84 458.61 975.88 491.09   Q 993.45 521.07 1013.73 556.28   Q 1030.02 584.55 1040.10 601.32   C 1045.20 609.81 1051.75 621.60 1055.99 628.71   Q 1057.05 630.48 1058.48 633.89   Z"/>
<path xmlns="http://www.w3.org/2000/svg" fill="#b5b5b5" d="   M 389.62 633.97   Q 398.15 634.70 406.66 634.59   C 422.83 634.39 438.08 634.53 455.75 634.53   Q 533.00 634.49 785.57 634.71   Q 798.02 634.72 836.42 634.58   Q 865.19 634.48 893.90 634.84   A 0.50 0.50 0.0 0 1 894.40 635.34   L 894.21 1034.40   A 5.64 5.52 39.6 0 0 894.33 1035.55   L 894.98 1038.46   L 699.96 1038.55   Q 699.02 1037.09 699.03 1035.75   C 699.52 993.38 699.21 951.07 699.36 908.56   Q 699.43 890.78 698.06 885.13   Q 694.37 869.95 681.83 858.35   C 668.76 846.27 654.63 843.43 637.55 845.86   C 627.18 847.34 617.34 853.46 609.73 860.51   Q 594.63 874.51 594.37 895.00   Q 593.78 941.40 594.31 1018.67   Q 594.31 1018.74 594.07 1027.31   Q 593.91 1033.05 594.83 1038.54   L 391.57 1038.50   A 1.83 1.81 82.2 0 1 389.82 1037.16   Q 388.94 1033.96 388.94 1030.51   Q 388.79 765.60 389.08 637.50   Q 389.09 635.74 389.62 633.97   Z   M 689.03 696.02   C 689.03 693.17 689.21 690.14 687.13 687.62   C 682.50 682.02 677.57 681.45 670.23 680.89   Q 663.75 680.40 656.92 681.50   Q 654.65 681.86 654.05 682.80   Q 653.28 683.99 654.32 686.01   Q 657.38 691.89 658.86 698.14   Q 663.23 716.54 667.83 735.44   Q 668.40 737.74 668.99 739.13   A 1.47 1.45 1.9 0 0 669.68 739.86   Q 671.60 740.79 672.98 740.44   C 679.61 738.73 690.19 733.04 689.69 725.02   Q 689.04 714.45 689.03 696.02   Z   M 612.97 742.74   Q 613.17 742.88 613.36 742.91   A 1.80 1.72 -21.0 0 1 614.10 743.22   Q 619.94 747.64 633.99 757.99   C 638.33 761.19 641.70 762.22 645.75 758.67   Q 653.38 751.98 657.89 748.94   C 660.56 747.15 662.37 745.00 663.85 742.80   A 3.46 3.43 51.8 0 0 664.21 739.66   C 661.21 731.75 660.08 723.47 657.64 715.62   Q 653.68 702.85 649.86 689.68   C 646.92 679.59 639.70 679.83 631.61 683.35   Q 622.22 687.44 611.99 695.21   Q 607.86 698.36 604.97 701.30   C 599.17 707.19 590.07 715.27 590.36 724.26   A 3.90 3.89 -71.9 0 0 591.84 727.19   Q 601.20 734.57 612.97 742.74   Z   M 694.34 693.45   C 695.01 701.44 695.19 705.80 694.22 712.83   Q 693.03 721.51 693.11 727.17   Q 693.14 728.83 694.58 729.55   A 1.36 1.35 -32.0 0 0 695.24 729.70   L 713.60 728.98   A 1.78 1.64 33.4 0 0 713.97 728.92   C 725.69 725.77 719.82 709.85 713.31 704.22   Q 704.79 696.84 694.97 692.98   A 0.46 0.46 0.0 0 0 694.34 693.45   Z   M 589.06 732.85   A 0.63 0.63 0.0 0 0 588.11 733.06   C 583.20 742.77 579.65 752.47 580.85 763.47   C 581.69 771.20 587.00 770.36 592.06 772.32   Q 601.52 775.99 617.83 780.92   C 621.12 781.92 623.32 781.83 625.72 779.18   Q 629.40 775.12 633.59 767.84   Q 634.64 766.00 634.89 764.90   A 2.13 2.12 -69.7 0 0 633.81 762.54   C 618.22 754.36 603.36 743.93 589.06 732.85   Z   M 482.7838 737.4815   A 33.00 32.84 -79.8 0 0 444.6190 764.1445   A 33.00 32.84 -79.8 0 0 471.0962 802.4385   A 33.00 32.84 -79.8 0 0 509.2610 775.7755   A 33.00 32.84 -79.8 0 0 482.7838 737.4815   Z   M 841.72 770.04   A 32.94 32.94 0.0 0 0 808.78 737.10   A 32.94 32.94 0.0 0 0 775.84 770.04   A 32.94 32.94 0.0 0 0 808.78 802.98   A 32.94 32.94 0.0 0 0 841.72 770.04   Z   M 671.00 816.79   Q 683.13 817.39 702.18 817.57   C 704.36 817.59 707.60 816.87 710.29 816.93   Q 722.52 817.21 728.54 817.26   Q 737.73 817.33 737.45 808.14   Q 737.05 794.85 737.45 785.50   C 737.58 782.32 738.65 780.50 740.68 778.15   C 745.28 772.84 742.44 765.15 737.02 761.73   C 729.18 756.80 721.36 755.48 711.24 754.78   Q 705.25 754.37 696.50 754.45   Q 689.48 754.51 679.63 756.60   C 671.11 758.41 661.59 763.48 662.09 773.46   A 2.86 2.80 32.0 0 0 662.36 774.57   Q 663.60 777.28 666.27 780.09   A 2.51 2.45 -76.8 0 1 666.85 781.05   Q 667.68 783.59 667.68 784.32   Q 667.66 789.69 668.19 814.60   A 1.58 1.56 27.4 0 0 668.47 815.46   Q 669.34 816.70 671.00 816.79   Z   M 585.60 774.22   A 0.88 0.88 0.0 0 0 584.64 775.22   Q 586.45 787.69 592.46 798.82   C 595.81 805.03 600.15 809.92 607.74 809.55   C 615.29 809.18 618.03 797.72 620.75 789.98   Q 621.74 787.18 619.05 786.20   Q 590.59 775.83 586.60 774.41   Q 586.27 774.29 585.60 774.22   Z   M 477.7487 855.0885   A 33.00 32.82 -88.7 0 0 444.1884 887.3354   A 33.00 32.82 -88.7 0 0 476.2513 921.0715   A 33.00 32.82 -88.7 0 0 509.8116 888.8246   A 33.00 32.82 -88.7 0 0 477.7487 855.0885   Z   M 841.62 888.09   A 32.95 32.95 0.0 0 0 808.67 855.14   A 32.95 32.95 0.0 0 0 775.72 888.09   A 32.95 32.95 0.0 0 0 808.67 921.04   A 32.95 32.95 0.0 0 0 841.62 888.09   Z"/>
<path xmlns="http://www.w3.org/2000/svg" fill="#909090" d="   M 689.03 696.02   Q 689.04 714.45 689.69 725.02   C 690.19 733.04 679.61 738.73 672.98 740.44   Q 671.60 740.79 669.68 739.86   A 1.47 1.45 1.9 0 1 668.99 739.13   Q 668.40 737.74 667.83 735.44   Q 663.23 716.54 658.86 698.14   Q 657.38 691.89 654.32 686.01   Q 653.28 683.99 654.05 682.80   Q 654.65 681.86 656.92 681.50   Q 663.75 680.40 670.23 680.89   C 677.57 681.45 682.50 682.02 687.13 687.62   C 689.21 690.14 689.03 693.17 689.03 696.02   Z"/>
<path xmlns="http://www.w3.org/2000/svg" fill="#909090" d="   M 612.97 742.74   Q 601.20 734.57 591.84 727.19   A 3.90 3.89 -71.9 0 1 590.36 724.26   C 590.07 715.27 599.17 707.19 604.97 701.30   Q 607.86 698.36 611.99 695.21   Q 622.22 687.44 631.61 683.35   C 639.70 679.83 646.92 679.59 649.86 689.68   Q 653.68 702.85 657.64 715.62   C 660.08 723.47 661.21 731.75 664.21 739.66   A 3.46 3.43 51.8 0 1 663.85 742.80   C 662.37 745.00 660.56 747.15 657.89 748.94   Q 653.38 751.98 645.75 758.67   C 641.70 762.22 638.33 761.19 633.99 757.99   Q 619.94 747.64 614.10 743.22   A 1.80 1.72 -21.0 0 0 613.36 742.91   Q 613.17 742.88 612.97 742.74   Z"/>
<path xmlns="http://www.w3.org/2000/svg" fill="#909090" d="   M 694.34 693.45   A 0.46 0.46 0.0 0 1 694.97 692.98   Q 704.79 696.84 713.31 704.22   C 719.82 709.85 725.69 725.77 713.97 728.92   A 1.78 1.64 33.4 0 1 713.60 728.98   L 695.24 729.70   A 1.36 1.35 -32.0 0 1 694.58 729.55   Q 693.14 728.83 693.11 727.17   Q 693.03 721.51 694.22 712.83   C 695.19 705.80 695.01 701.44 694.34 693.45   Z"/>
<path xmlns="http://www.w3.org/2000/svg" fill="#909090" d="   M 589.06 732.85   C 603.36 743.93 618.22 754.36 633.81 762.54   A 2.13 2.12 -69.7 0 1 634.89 764.90   Q 634.64 766.00 633.59 767.84   Q 629.40 775.12 625.72 779.18   C 623.32 781.83 621.12 781.92 617.83 780.92   Q 601.52 775.99 592.06 772.32   C 587.00 770.36 581.69 771.20 580.85 763.47   C 579.65 752.47 583.20 742.77 588.11 733.06   A 0.63 0.63 0.0 0 1 589.06 732.85   Z"/>
<path xmlns="http://www.w3.org/2000/svg" fill="#909090" d="   M 671.00 816.79   Q 669.34 816.70 668.47 815.46   A 1.58 1.56 27.4 0 1 668.19 814.60   Q 667.66 789.69 667.68 784.32   Q 667.68 783.59 666.85 781.05   A 2.51 2.45 -76.8 0 0 666.27 780.09   Q 663.60 777.28 662.36 774.57   A 2.86 2.80 32.0 0 1 662.09 773.46   C 661.59 763.48 671.11 758.41 679.63 756.60   Q 689.48 754.51 696.50 754.45   Q 705.25 754.37 711.24 754.78   C 721.36 755.48 729.18 756.80 737.02 761.73   C 742.44 765.15 745.28 772.84 740.68 778.15   C 738.65 780.50 737.58 782.32 737.45 785.50   Q 737.05 794.85 737.45 808.14   Q 737.73 817.33 728.54 817.26   Q 722.52 817.21 710.29 816.93   C 707.60 816.87 704.36 817.59 702.18 817.57   Q 683.13 817.39 671.00 816.79   Z   M 705.98 810.74   L 705.98 780.87   A 4.67 4.66 -23.3 0 1 707.26 777.66   C 709.91 774.86 713.22 771.69 709.64 767.89   Q 705.51 763.51 698.96 762.55   C 689.14 761.12 679.17 760.45 671.68 766.40   Q 669.64 768.03 668.54 770.10   A 3.44 3.43 -52.4 0 0 669.05 774.05   C 671.02 776.15 673.14 778.41 673.08 780.51   C 672.92 786.77 673.71 791.73 673.00 797.46   Q 672.42 802.14 672.43 811.01   A 1.13 1.12 87.8 0 0 673.63 812.13   Q 689.27 811.04 704.96 811.72   A 0.98 0.98 0.0 0 0 705.98 810.74   Z"/>
<path xmlns="http://www.w3.org/2000/svg" fill="#b5b5b5" d="   M 705.98 810.74   A 0.98 0.98 0.0 0 1 704.96 811.72   Q 689.27 811.04 673.63 812.13   A 1.13 1.12 87.8 0 1 672.43 811.01   Q 672.42 802.14 673.00 797.46   C 673.71 791.73 672.92 786.77 673.08 780.51   C 673.14 778.41 671.02 776.15 669.05 774.05   A 3.44 3.43 -52.4 0 1 668.54 770.10   Q 669.64 768.03 671.68 766.40   C 679.17 760.45 689.14 761.12 698.96 762.55   Q 705.51 763.51 709.64 767.89   C 713.22 771.69 709.91 774.86 707.26 777.66   A 4.67 4.66 -23.3 0 0 705.98 780.87   L 705.98 810.74   Z"/>
<path xmlns="http://www.w3.org/2000/svg" fill="#909090" d="   M 585.60 774.22   Q 586.27 774.29 586.60 774.41   Q 590.59 775.83 619.05 786.20   Q 621.74 787.18 620.75 789.98   C 618.03 797.72 615.29 809.18 607.74 809.55   C 600.15 809.92 595.81 805.03 592.46 798.82   Q 586.45 787.69 584.64 775.22   A 0.88 0.88 0.0 0 1 585.60 774.22   Z"/>
<path xmlns="http://www.w3.org/2000/svg" fill="#909090" d="   M 699.96 1038.55   L 594.83 1038.54   Q 593.91 1033.05 594.07 1027.31   Q 594.31 1018.74 594.31 1018.67   Q 593.78 941.40 594.37 895.00   Q 594.63 874.51 609.73 860.51   C 617.34 853.46 627.18 847.34 637.55 845.86   C 654.63 843.43 668.76 846.27 681.83 858.35   Q 694.37 869.95 698.06 885.13   Q 699.43 890.78 699.36 908.56   C 699.21 951.07 699.52 993.38 699.03 1035.75   Q 699.02 1037.09 699.96 1038.55   Z   M 615.8574 939.4595   A 8.67 8.41 -102.0 0 0 609.4338 949.6885   A 8.67 8.41 -102.0 0 0 619.4626 956.4205   A 8.67 8.41 -102.0 0 0 625.8862 946.1915   A 8.67 8.41 -102.0 0 0 615.8574 939.4595   Z"/>
<path xmlns="http://www.w3.org/2000/svg" fill="#909090" d="   M 952.81 867.32   L 960.51 874.11   A 0.97 0.96 19.2 0 1 960.84 874.79   L 961.25 882.21   L 960.84 876.02   A 1.33 1.26 22.3 0 0 960.47 875.20   Q 957.23 871.86 953.05 870.00   Q 952.91 869.92 952.85 869.81   Q 952.84 869.80 952.85 869.81   Q 952.91 869.92 953.05 870.00   L 959.79 878.24   A 1.38 1.37 -65.8 0 1 960.09 879.04   C 960.38 886.73 956.59 894.45 948.18 895.42   A 0.84 0.84 0.0 0 0 947.44 896.30   L 947.59 900.27   A 0.08 0.07 -44.4 0 0 947.74 900.27   Q 947.84 899.20 947.86 896.87   Q 947.86 896.37 948.08 896.56   A 0.12 0.11 -64.3 0 1 948.11 896.66   L 947.34 903.05   L 945.57 898.61   L 947.02 888.29   A 0.95 0.95 0.0 0 1 948.58 887.70   Q 950.71 889.55 953.32 890.58   A 0.31 0.30 -64.1 0 1 953.47 891.02   L 953.34 891.24   A 0.09 0.09 0.0 0 1 953.23 891.28   L 947.76 889.17   A 0.85 0.84 -77.3 0 0 946.61 889.90   L 946.02 898.88   A 0.06 0.06 0.0 0 0 946.08 898.95   L 946.35 898.97   A 0.16 0.16 0.0 0 0 946.52 898.82   L 946.91 892.93   A 0.85 0.85 0.0 0 1 947.66 892.15   L 954.39 891.40   A 1.07 1.06 -71.9 0 0 955.09 891.04   Q 959.57 886.11 959.31 878.93   A 1.11 1.10 6.4 0 0 958.48 877.90   L 951.67 876.09   A 0.85 0.84 22.3 0 0 950.73 876.48   L 948.38 880.55   A 0.54 0.53 61.0 0 1 947.38 880.26   L 947.62 873.18   Q 949.77 869.62 952.81 867.32   Z"/>
<path xmlns="http://www.w3.org/2000/svg" fill="#787878" d="   M 953.05 870.00   Q 952.91 869.92 952.85 869.81   Q 952.84 869.80 952.85 869.81   Q 952.91 869.92 953.05 870.00   Z"/>
<path xmlns="http://www.w3.org/2000/svg" fill="#787878" d="   M 961.25 882.21   Q 960.63 888.10 958.97 890.17   C 954.20 896.10 949.45 901.49 952.42 909.05   L 950.30 907.17   A 0.85 0.84 26.3 0 1 950.03 906.38   Q 950.22 905.43 949.36 904.27   A 0.20 0.20 0.0 0 0 949.00 904.40   Q 949.00 904.41 949.43 904.79   Q 949.73 905.06 949.63 905.24   Q 949.55 905.40 949.49 905.47   A 0.26 0.26 0.0 0 1 949.07 905.46   L 947.34 903.05   L 948.11 896.66   A 0.12 0.11 -64.3 0 0 948.08 896.56   Q 947.86 896.37 947.86 896.87   Q 947.84 899.20 947.74 900.27   A 0.08 0.07 -44.4 0 1 947.59 900.27   L 947.44 896.30   A 0.84 0.84 0.0 0 1 948.18 895.42   C 956.59 894.45 960.38 886.73 960.09 879.04   A 1.38 1.37 -65.8 0 0 959.79 878.24   L 953.05 870.00   Q 957.23 871.86 960.47 875.20   A 1.33 1.26 22.3 0 1 960.84 876.02   L 961.25 882.21   Z"/>
<path xmlns="http://www.w3.org/2000/svg" fill="#b5b5b5" d="   M 947.62 873.18   L 947.38 880.26   A 0.54 0.53 61.0 0 0 948.38 880.55   L 950.73 876.48   A 0.85 0.84 22.3 0 1 951.67 876.09   L 958.48 877.90   A 1.11 1.10 6.4 0 1 959.31 878.93   Q 959.57 886.11 955.09 891.04   A 1.07 1.06 -71.9 0 1 954.39 891.40   L 947.66 892.15   A 0.85 0.85 0.0 0 0 946.91 892.93   L 946.52 898.82   A 0.16 0.16 0.0 0 1 946.35 898.97   L 946.08 898.95   A 0.06 0.06 0.0 0 1 946.02 898.88   L 946.61 889.90   A 0.85 0.84 -77.3 0 1 947.76 889.17   L 953.23 891.28   A 0.09 0.09 0.0 0 0 953.34 891.24   L 953.47 891.02   A 0.31 0.30 -64.1 0 0 953.32 890.58   Q 950.71 889.55 948.58 887.70   A 0.95 0.95 0.0 0 0 947.02 888.29   L 945.57 898.61   Q 941.51 885.20 947.62 873.18   Z"/>
<ellipse xmlns="http://www.w3.org/2000/svg" fill="#b5b5b5" cx="0.00" cy="0.00" transform="translate(617.66,947.94) rotate(-102.0)" rx="8.67" ry="8.41"/>
</g></g></g></svg>