<svg xmlns="http://www.w3.org/2000/svg" direction="ltr" width="5107.3709359252425" height="5107.370935925244" viewBox="17512.544082510354 -3784.4715362012494 5107.3709359252425 5107.370935925244" stroke-linecap="round" stroke-linejoin="round" data-color-mode="light" class="tl-container tl-theme__force-sRGB tl-theme__light" style="background-color: transparent;"><defs/><g transform="matrix(1, 0, 0, 1, 17512.5441, -3784.4715)" opacity="1"><g transform="scale(3.52718987287655, 3.52718987287655)"><g>
<g xmlns="http://www.w3.org/2000/svg" stroke-width="2.00" fill="none" stroke-linecap="butt">
<path stroke="#1152a4" vector-effect="non-scaling-stroke" d="   M 976.11 649.48   Q 969.05 648.81 961.88 648.33   Q 954.96 647.86 947.62 648.00   C 899.89 648.89 856.20 648.49 814.25 648.66   Q 811.53 648.67 808.18 648.26"/>
<path stroke="#273c89" vector-effect="non-scaling-stroke" d="   M 808.18 648.26   Q 805.12 643.72 803.34 641.92   Q 797.02 635.52 791.69 630.17   C 787.86 626.34 783.82 621.35 781.41 618.29   C 775.68 611.01 767.74 603.74 761.47 596.71   Q 746.81 580.28 737.46 569.29   Q 728.07 558.25 721.32 551.61   Q 714.21 544.61 705.03 533.73   Q 694.54 521.29 691.01 517.23   C 689.82 515.87 688.69 513.93 687.33 513.09   C 685.63 512.03 685.16 510.33 683.89 509.20   Q 672.69 499.34 659.17 482.08   Q 654.41 476.01 647.92 469.55   C 641.83 463.49 637.20 458.10 631.36 452.39   Q 628.68 449.76 624.74 442.79"/>
<path stroke="#185bb7" vector-effect="non-scaling-stroke" d="   M 808.18 648.26   L 776.20 648.77"/>
<path stroke="#356ccb" vector-effect="non-scaling-stroke" d="   M 776.20 648.77   L 624.69 480.87   A 0.60 0.60 0.0 0 0 623.79 480.88   C 611.43 495.30 599.22 507.58 587.65 520.94   C 577.34 532.84 564.23 546.01 552.79 559.54   Q 549.07 563.93 529.30 585.29   C 520.68 594.61 511.78 605.37 503.85 613.85   Q 488.78 629.98 477.22 643.84   C 475.70 645.66 473.80 647.41 472.09 649.21"/>
<path stroke="#1f83e6" vector-effect="non-scaling-stroke" d="   M 776.20 648.77   C 775.70 653.06 776.14 658.70 776.13 661.69   Q 775.88 830.97 776.01 1000.25   Q 776.01 1001.75 776.71 1005.16"/>
<path stroke="#1f83e6" vector-effect="non-scaling-stroke" d="   M 669.16 1005.18   Q 667.94 1003.32 667.98 999.50   C 668.39 959.93 667.78 894.61 668.24 843.90   A 1.29 1.29 0.0 0 0 666.95 842.60   L 580.98 842.60   A 0.77 0.77 0.0 0 0 580.21 843.38   Q 580.57 877.82 580.53 906.50   Q 580.48 934.79 580.39 986.25   Q 580.38 991.64 581.29 1005.22"/>
<path stroke="#9dcafd" vector-effect="non-scaling-stroke" d="   M 526.25 693.40   Q 524.23 704.48 522.48 717.44   C 520.74 730.38 519.81 752.05 533.71 759.45   C 545.52 765.73 556.79 758.87 565.64 750.88   Q 575.51 741.97 586.14 728.90   Q 588.96 725.44 592.38 723.83   Q 594.93 722.63 600.28 722.62   Q 637.87 722.54 652.10 722.84   Q 657.86 722.97 661.49 727.54   C 670.76 739.25 680.00 750.04 692.44 757.96   C 700.39 763.02 710.52 763.65 717.64 757.00   C 723.57 751.47 726.35 744.34 726.70 735.92   Q 727.30 721.85 725.62 712.31   Q 722.16 692.56 720.03 683.90   C 717.11 672.02 713.54 659.90 707.70 648.81   C 702.51 638.96 694.00 630.84 683.52 627.24   Q 668.76 622.17 654.14 630.13   C 651.28 631.69 644.85 635.14 640.64 636.47   Q 621.38 642.55 603.07 634.65   C 597.97 632.45 590.43 627.61 584.27 626.27   Q 572.73 623.76 561.91 628.32   C 549.62 633.50 539.81 647.58 535.26 660.26   Q 529.19 677.19 526.25 693.40"/>
<path stroke="#9dcafd" vector-effect="non-scaling-stroke" d="   M 654.0931 653.7382   A 9.46 9.29 -145.4 0 0 656.6047 666.7569   A 9.46 9.29 -145.4 0 0 669.6669 664.4818   A 9.46 9.29 -145.4 0 0 667.1553 651.4631   A 9.46 9.29 -145.4 0 0 654.0931 653.7382"/>
<path stroke="#9dcafd" vector-effect="non-scaling-stroke" d="   M 552.90 676.94   Q 552.91 680.70 553.12 681.61   A 2.89 2.88 -6.7 0 0 555.93 683.82   L 569.33 683.78   A 0.68 0.67 0.8 0 1 570.01 684.47   Q 569.90 691.71 570.02 696.24   C 570.16 701.17 572.76 700.52 576.47 700.52   C 580.18 700.52 582.78 701.16 582.90 696.23   Q 583.02 691.70 582.89 684.46   A 0.68 0.67 -0.9 0 1 583.57 683.76   L 596.97 683.78   A 2.89 2.88 6.5 0 0 599.77 681.56   Q 599.99 680.65 599.98 676.89   Q 599.98 673.12 599.76 672.22   A 2.89 2.88 -6.7 0 0 596.96 670.00   L 583.56 670.04   A 0.68 0.67 0.8 0 1 582.88 669.35   Q 582.99 662.11 582.86 657.58   C 582.73 652.65 580.13 653.30 576.42 653.30   C 572.70 653.31 570.10 652.67 569.98 657.60   Q 569.87 662.13 569.99 669.37   A 0.68 0.67 -0.9 0 1 569.31 670.06   L 555.91 670.05   A 2.89 2.88 6.5 0 0 553.11 672.27   Q 552.90 673.17 552.90 676.94"/>
<path stroke="#9dcafd" vector-effect="non-scaling-stroke" d="   M 679.8013 667.7240   A 9.58 9.38 -133.7 0 0 679.6386 681.1305   A 9.58 9.38 -133.7 0 0 693.0387 681.5760   A 9.58 9.38 -133.7 0 0 693.2014 668.1695   A 9.58 9.38 -133.7 0 0 679.8013 667.7240"/>
<path stroke="#9dcafd" vector-effect="non-scaling-stroke" d="   M 655.6456 685.7267   A 9.53 9.37 -131.9 0 0 655.0358 699.0776   A 9.53 9.37 -131.9 0 0 668.3744 699.9133   A 9.53 9.37 -131.9 0 0 668.9842 686.5624   A 9.53 9.37 -131.9 0 0 655.6456 685.7267"/>
<path stroke="#81b8e9" vector-effect="non-scaling-stroke" d="   M 843.07 763.23   A 0.59 0.59 0.0 0 1 842.48 763.82   L 821.89 763.82   A 0.59 0.59 0.0 0 0 821.30 764.41   L 821.30 804.43   A 0.59 0.59 0.0 0 0 821.89 805.02   L 842.61 805.02   A 0.59 0.59 0.0 0 0 843.20 804.43   L 843.20 785.32   A 0.59 0.59 0.0 0 1 843.79 784.73   L 867.14 784.73   A 0.59 0.59 0.0 0 1 867.73 785.32   L 867.73 804.35   A 0.59 0.59 0.0 0 0 868.32 804.94   L 889.76 804.94   A 0.59 0.59 0.0 0 0 890.35 804.35   L 890.35 785.35   A 0.59 0.59 0.0 0 1 890.94 784.76   L 914.49 784.76   A 0.59 0.59 0.0 0 1 915.08 785.35   L 915.08 804.34   A 0.59 0.59 0.0 0 0 915.67 804.93   L 936.74 804.93   A 0.59 0.59 0.0 0 0 937.33 804.34   L 937.33 764.43   A 0.59 0.59 0.0 0 0 936.74 763.84   L 914.72 763.84   A 0.59 0.59 0.0 0 1 914.13 763.25   L 914.13 743.50   A 0.59 0.59 0.0 0 0 913.54 742.91   L 891.19 742.91   A 0.59 0.59 0.0 0 1 890.60 742.32   L 890.60 722.20   A 0.59 0.59 0.0 0 0 890.01 721.61   L 866.56 721.61   A 0.59 0.59 0.0 0 0 865.97 722.20   L 865.97 742.32   A 0.59 0.59 0.0 0 1 865.38 742.91   L 843.66 742.91   A 0.59 0.59 0.0 0 0 843.07 743.50   L 843.07 763.23"/>
<path stroke="#81b8e9" vector-effect="non-scaling-stroke" d="   M 937.0650 828.5218   A 0.26 0.26 0.0 0 0 936.8041 828.2627   L 892.4244 828.4176   A 0.26 0.26 0.0 0 0 892.1653 828.6785   L 892.3150 871.5582   A 0.26 0.26 0.0 0 0 892.5759 871.8173   L 936.9556 871.6624   A 0.26 0.26 0.0 0 0 937.2147 871.4015   L 937.0650 828.5218"/>
<path stroke="#81b8e9" vector-effect="non-scaling-stroke" d="   M 866.46 828.75   A 0.45 0.45 0.0 0 0 866.01 828.30   L 821.79 828.30   A 0.45 0.45 0.0 0 0 821.34 828.75   L 821.34 871.31   A 0.45 0.45 0.0 0 0 821.79 871.76   L 866.01 871.76   A 0.45 0.45 0.0 0 0 866.46 871.31   L 866.46 828.75"/>
</g>
<path xmlns="http://www.w3.org/2000/svg" fill="#1f3376" d="   M 976.11 649.48   Q 969.05 648.81 961.88 648.33   Q 954.96 647.86 947.62 648.00   C 899.89 648.89 856.20 648.49 814.25 648.66   Q 811.53 648.67 808.18 648.26   Q 805.12 643.72 803.34 641.92   Q 797.02 635.52 791.69 630.17   C 787.86 626.34 783.82 621.35 781.41 618.29   C 775.68 611.01 767.74 603.74 761.47 596.71   Q 746.81 580.28 737.46 569.29   Q 728.07 558.25 721.32 551.61   Q 714.21 544.61 705.03 533.73   Q 694.54 521.29 691.01 517.23   C 689.82 515.87 688.69 513.93 687.33 513.09   C 685.63 512.03 685.16 510.33 683.89 509.20   Q 672.69 499.34 659.17 482.08   Q 654.41 476.01 647.92 469.55   C 641.83 463.49 637.20 458.10 631.36 452.39   Q 628.68 449.76 624.74 442.79   Q 626.81 442.41 630.00 442.42   Q 713.76 442.44 815.75 442.41   Q 819.38 442.41 822.34 442.78   A 3.13 3.11 -17.0 0 1 824.26 443.79   L 1006.46 647.07   A 0.72 0.72 0.0 0 1 1005.93 648.27   Q 1001.79 648.35 995.25 648.41   C 989.89 648.46 982.59 647.54 977.24 647.88   Q 976.25 647.94 976.11 649.48   Z"/>
<path xmlns="http://www.w3.org/2000/svg" fill="#2e449b" d="   M 624.74 442.79   Q 628.68 449.76 631.36 452.39   C 637.20 458.10 641.83 463.49 647.92 469.55   Q 654.41 476.01 659.17 482.08   Q 672.69 499.34 683.89 509.20   C 685.16 510.33 685.63 512.03 687.33 513.09   C 688.69 513.93 689.82 515.87 691.01 517.23   Q 694.54 521.29 705.03 533.73   Q 714.21 544.61 721.32 551.61   Q 728.07 558.25 737.46 569.29   Q 746.81 580.28 761.47 596.71   C 767.74 603.74 775.68 611.01 781.41 618.29   C 783.82 621.35 787.86 626.34 791.69 630.17   Q 797.02 635.52 803.34 641.92   Q 805.12 643.72 808.18 648.26   L 776.20 648.77   L 624.69 480.87   A 0.60 0.60 0.0 0 0 623.79 480.88   C 611.43 495.30 599.22 507.58 587.65 520.94   C 577.34 532.84 564.23 546.01 552.79 559.54   Q 549.07 563.93 529.30 585.29   C 520.68 594.61 511.78 605.37 503.85 613.85   Q 488.78 629.98 477.22 643.84   C 475.70 645.66 473.80 647.41 472.09 649.21   Q 472.24 648.43 471.99 648.02   Q 471.76 647.62 470.90 647.66   C 463.18 647.97 459.13 648.34 451.74 648.12   Q 446.43 647.96 442.75 648.57   Q 442.15 648.67 441.28 648.13   A 0.63 0.62 37.5 0 1 441.15 647.19   C 444.89 643.01 448.41 638.49 452.41 634.07   Q 483.43 599.83 505.02 575.27   Q 526.22 551.14 529.81 547.24   Q 541.43 534.62 554.73 519.33   Q 563.52 509.21 587.30 483.22   Q 590.77 479.42 604.67 463.75   Q 611.86 455.64 622.20 444.45   Q 623.63 442.90 624.74 442.79   Z"/>
<path xmlns="http://www.w3.org/2000/svg" fill="#3b94fa" d="   M 776.20 648.77   C 775.70 653.06 776.14 658.70 776.13 661.69   Q 775.88 830.97 776.01 1000.25   Q 776.01 1001.75 776.71 1005.16   L 669.16 1005.18   Q 667.94 1003.32 667.98 999.50   C 668.39 959.93 667.78 894.61 668.24 843.90   A 1.29 1.29 0.0 0 0 666.95 842.60   L 580.98 842.60   A 0.77 0.77 0.0 0 0 580.21 843.38   Q 580.57 877.82 580.53 906.50   Q 580.48 934.79 580.39 986.25   Q 580.38 991.64 581.29 1005.22   Q 535.40 1005.35 489.50 1005.34   Q 483.26 1005.33 473.24 1004.78   A 0.88 0.87 -88.6 0 1 472.41 1003.90   L 472.09 649.21   C 473.80 647.41 475.70 645.66 477.22 643.84   Q 488.78 629.98 503.85 613.85   C 511.78 605.37 520.68 594.61 529.30 585.29   Q 549.07 563.93 552.79 559.54   C 564.23 546.01 577.34 532.84 587.65 520.94   C 599.22 507.58 611.43 495.30 623.79 480.88   A 0.60 0.60 0.0 0 1 624.69 480.87   L 776.20 648.77   Z   M 526.25 693.40   Q 524.23 704.48 522.48 717.44   C 520.74 730.38 519.81 752.05 533.71 759.45   C 545.52 765.73 556.79 758.87 565.64 750.88   Q 575.51 741.97 586.14 728.90   Q 588.96 725.44 592.38 723.83   Q 594.93 722.63 600.28 722.62   Q 637.87 722.54 652.10 722.84   Q 657.86 722.97 661.49 727.54   C 670.76 739.25 680.00 750.04 692.44 757.96   C 700.39 763.02 710.52 763.65 717.64 757.00   C 723.57 751.47 726.35 744.34 726.70 735.92   Q 727.30 721.85 725.62 712.31   Q 722.16 692.56 720.03 683.90   C 717.11 672.02 713.54 659.90 707.70 648.81   C 702.51 638.96 694.00 630.84 683.52 627.24   Q 668.76 622.17 654.14 630.13   C 651.28 631.69 644.85 635.14 640.64 636.47   Q 621.38 642.55 603.07 634.65   C 597.97 632.45 590.43 627.61 584.27 626.27   Q 572.73 623.76 561.91 628.32   C 549.62 633.50 539.81 647.58 535.26 660.26   Q 529.19 677.19 526.25 693.40   Z"/>
<path xmlns="http://www.w3.org/2000/svg" fill="#ffffff" d="   M 526.25 693.40   Q 529.19 677.19 535.26 660.26   C 539.81 647.58 549.62 633.50 561.91 628.32   Q 572.73 623.76 584.27 626.27   C 590.43 627.61 597.97 632.45 603.07 634.65   Q 621.38 642.55 640.64 636.47   C 644.85 635.14 651.28 631.69 654.14 630.13   Q 668.76 622.17 683.52 627.24   C 694.00 630.84 702.51 638.96 707.70 648.81   C 713.54 659.90 717.11 672.02 720.03 683.90   Q 722.16 692.56 725.62 712.31   Q 727.30 721.85 726.70 735.92   C 726.35 744.34 723.57 751.47 717.64 757.00   C 710.52 763.65 700.39 763.02 692.44 757.96   C 680.00 750.04 670.76 739.25 661.49 727.54   Q 657.86 722.97 652.10 722.84   Q 637.87 722.54 600.28 722.62   Q 594.93 722.63 592.38 723.83   Q 588.96 725.44 586.14 728.90   Q 575.51 741.97 565.64 750.88   C 556.79 758.87 545.52 765.73 533.71 759.45   C 519.81 752.05 520.74 730.38 522.48 717.44   Q 524.23 704.48 526.25 693.40   Z   M 654.0931 653.7382   A 9.46 9.29 -145.4 0 0 656.6047 666.7569   A 9.46 9.29 -145.4 0 0 669.6669 664.4818   A 9.46 9.29 -145.4 0 0 667.1553 651.4631   A 9.46 9.29 -145.4 0 0 654.0931 653.7382   Z   M 552.90 676.94   Q 552.91 680.70 553.12 681.61   A 2.89 2.88 -6.7 0 0 555.93 683.82   L 569.33 683.78   A 0.68 0.67 0.8 0 1 570.01 684.47   Q 569.90 691.71 570.02 696.24   C 570.16 701.17 572.76 700.52 576.47 700.52   C 580.18 700.52 582.78 701.16 582.90 696.23   Q 583.02 691.70 582.89 684.46   A 0.68 0.67 -0.9 0 1 583.57 683.76   L 596.97 683.78   A 2.89 2.88 6.5 0 0 599.77 681.56   Q 599.99 680.65 599.98 676.89   Q 599.98 673.12 599.76 672.22   A 2.89 2.88 -6.7 0 0 596.96 670.00   L 583.56 670.04   A 0.68 0.67 0.8 0 1 582.88 669.35   Q 582.99 662.11 582.86 657.58   C 582.73 652.65 580.13 653.30 576.42 653.30   C 572.70 653.31 570.10 652.67 569.98 657.60   Q 569.87 662.13 569.99 669.37   A 0.68 0.67 -0.9 0 1 569.31 670.06   L 555.91 670.05   A 2.89 2.88 6.5 0 0 553.11 672.27   Q 552.90 673.17 552.90 676.94   Z   M 679.8013 667.7240   A 9.58 9.38 -133.7 0 0 679.6386 681.1305   A 9.58 9.38 -133.7 0 0 693.0387 681.5760   A 9.58 9.38 -133.7 0 0 693.2014 668.1695   A 9.58 9.38 -133.7 0 0 679.8013 667.7240   Z   M 655.6456 685.7267   A 9.53 9.37 -131.9 0 0 655.0358 699.0776   A 9.53 9.37 -131.9 0 0 668.3744 699.9133   A 9.53 9.37 -131.9 0 0 668.9842 686.5624   A 9.53 9.37 -131.9 0 0 655.6456 685.7267   Z"/>
<path xmlns="http://www.w3.org/2000/svg" fill="#0271d2" d="   M 808.18 648.26   Q 811.53 648.67 814.25 648.66   C 856.20 648.49 899.89 648.89 947.62 648.00   Q 954.96 647.86 961.88 648.33   Q 969.05 648.81 976.11 649.48   L 975.92 1004.36   A 0.73 0.72 90.0 0 1 975.20 1005.09   L 776.71 1005.16   Q 776.01 1001.75 776.01 1000.25   Q 775.88 830.97 776.13 661.69   C 776.14 658.70 775.70 653.06 776.20 648.77   L 808.18 648.26   Z   M 843.07 763.23   A 0.59 0.59 0.0 0 1 842.48 763.82   L 821.89 763.82   A 0.59 0.59 0.0 0 0 821.30 764.41   L 821.30 804.43   A 0.59 0.59 0.0 0 0 821.89 805.02   L 842.61 805.02   A 0.59 0.59 0.0 0 0 843.20 804.43   L 843.20 785.32   A 0.59 0.59 0.0 0 1 843.79 784.73   L 867.14 784.73   A 0.59 0.59 0.0 0 1 867.73 785.32   L 867.73 804.35   A 0.59 0.59 0.0 0 0 868.32 804.94   L 889.76 804.94   A 0.59 0.59 0.0 0 0 890.35 804.35   L 890.35 785.35   A 0.59 0.59 0.0 0 1 890.94 784.76   L 914.49 784.76   A 0.59 0.59 0.0 0 1 915.08 785.35   L 915.08 804.34   A 0.59 0.59 0.0 0 0 915.67 804.93   L 936.74 804.93   A 0.59 0.59 0.0 0 0 937.33 804.34   L 937.33 764.43   A 0.59 0.59 0.0 0 0 936.74 763.84   L 914.72 763.84   A 0.59 0.59 0.0 0 1 914.13 763.25   L 914.13 743.50   A 0.59 0.59 0.0 0 0 913.54 742.91   L 891.19 742.91   A 0.59 0.59 0.0 0 1 890.60 742.32   L 890.60 722.20   A 0.59 0.59 0.0 0 0 890.01 721.61   L 866.56 721.61   A 0.59 0.59 0.0 0 0 865.97 722.20   L 865.97 742.32   A 0.59 0.59 0.0 0 1 865.38 742.91   L 843.66 742.91   A 0.59 0.59 0.0 0 0 843.07 743.50   L 843.07 763.23   Z   M 937.0650 828.5218   A 0.26 0.26 0.0 0 0 936.8041 828.2627   L 892.4244 828.4176   A 0.26 0.26 0.0 0 0 892.1653 828.6785   L 892.3150 871.5582   A 0.26 0.26 0.0 0 0 892.5759 871.8173   L 936.9556 871.6624   A 0.26 0.26 0.0 0 0 937.2147 871.4015   L 937.0650 828.5218   Z   M 866.46 828.75   A 0.45 0.45 0.0 0 0 866.01 828.30   L 821.79 828.30   A 0.45 0.45 0.0 0 0 821.34 828.75   L 821.34 871.31   A 0.45 0.45 0.0 0 0 821.79 871.76   L 866.01 871.76   A 0.45 0.45 0.0 0 0 866.46 871.31   L 866.46 828.75   Z"/>
<ellipse xmlns="http://www.w3.org/2000/svg" fill="#3b94fa" cx="0.00" cy="0.00" transform="translate(661.88,659.11) rotate(-145.4)" rx="9.46" ry="9.29"/>
<path xmlns="http://www.w3.org/2000/svg" fill="#3b94fa" d="   M 576.42 653.30   C 580.13 653.30 582.73 652.65 582.86 657.58   Q 582.99 662.11 582.88 669.35   A 0.68 0.67 0.8 0 0 583.56 670.04   L 596.96 670.00   A 2.89 2.88 -6.7 0 1 599.76 672.22   Q 599.98 673.12 599.98 676.89   Q 599.99 680.65 599.77 681.56   A 2.89 2.88 6.5 0 1 596.97 683.78   L 583.57 683.76   A 0.68 0.67 -0.9 0 0 582.89 684.46   Q 583.02 691.70 582.90 696.23   C 582.78 701.16 580.18 700.52 576.47 700.52   C 572.76 700.52 570.16 701.17 570.02 696.24   Q 569.90 691.71 570.01 684.47   A 0.68 0.67 0.8 0 0 569.33 683.78   L 555.93 683.82   A 2.89 2.88 -6.7 0 1 553.12 681.61   Q 552.91 680.70 552.90 676.94   Q 552.90 673.17 553.11 672.27   A 2.89 2.88 6.5 0 1 555.91 670.05   L 569.31 670.06   A 0.68 0.67 -0.9 0 0 569.99 669.37   Q 569.87 662.13 569.98 657.60   C 570.10 652.67 572.70 653.31 576.42 653.30   Z"/>
<ellipse xmlns="http://www.w3.org/2000/svg" fill="#3b94fa" cx="0.00" cy="0.00" transform="translate(686.42,674.65) rotate(-133.7)" rx="9.58" ry="9.38"/>
<ellipse xmlns="http://www.w3.org/2000/svg" fill="#3b94fa" cx="0.00" cy="0.00" transform="translate(662.01,692.82) rotate(-131.9)" rx="9.53" ry="9.37"/>
<path xmlns="http://www.w3.org/2000/svg" fill="#ffffff" d="   M 843.07 763.23   L 843.07 743.50   A 0.59 0.59 0.0 0 1 843.66 742.91   L 865.38 742.91   A 0.59 0.59 0.0 0 0 865.97 742.32   L 865.97 722.20   A 0.59 0.59 0.0 0 1 866.56 721.61   L 890.01 721.61   A 0.59 0.59 0.0 0 1 890.60 722.20   L 890.60 742.32   A 0.59 0.59 0.0 0 0 891.19 742.91   L 913.54 742.91   A 0.59 0.59 0.0 0 1 914.13 743.50   L 914.13 763.25   A 0.59 0.59 0.0 0 0 914.72 763.84   L 936.74 763.84   A 0.59 0.59 0.0 0 1 937.33 764.43   L 937.33 804.34   A 0.59 0.59 0.0 0 1 936.74 804.93   L 915.67 804.93   A 0.59 0.59 0.0 0 1 915.08 804.34   L 915.08 785.35   A 0.59 0.59 0.0 0 0 914.49 784.76   L 890.94 784.76   A 0.59 0.59 0.0 0 0 890.35 785.35   L 890.35 804.35   A 0.59 0.59 0.0 0 1 889.76 804.94   L 868.32 804.94   A 0.59 0.59 0.0 0 1 867.73 804.35   L 867.73 785.32   A 0.59 0.59 0.0 0 0 867.14 784.73   L 843.79 784.73   A 0.59 0.59 0.0 0 0 843.20 785.32   L 843.20 804.43   A 0.59 0.59 0.0 0 1 842.61 805.02   L 821.89 805.02   A 0.59 0.59 0.0 0 1 821.30 804.43   L 821.30 764.41   A 0.59 0.59 0.0 0 1 821.89 763.82   L 842.48 763.82   A 0.59 0.59 0.0 0 0 843.07 763.23   Z"/>
<rect xmlns="http://www.w3.org/2000/svg" fill="#ffffff" x="-22.45" y="-21.70" transform="translate(914.69,850.04) rotate(-0.2)" width="44.90" height="43.40" rx="0.26"/>
<rect xmlns="http://www.w3.org/2000/svg" fill="#ffffff" x="821.34" y="828.30" width="45.12" height="43.46" rx="0.45"/>
<path xmlns="http://www.w3.org/2000/svg" fill="#0271d2" d="   M 669.16 1005.18   L 581.29 1005.22   Q 580.38 991.64 580.39 986.25   Q 580.48 934.79 580.53 906.50   Q 580.57 877.82 580.21 843.38   A 0.77 0.77 0.0 0 1 580.98 842.60   L 666.95 842.60   A 1.29 1.29 0.0 0 1 668.24 843.90   C 667.78 894.61 668.39 959.93 667.98 999.50   Q 667.94 1003.32 669.16 1005.18   Z"/>
</g></g></g></svg>