<svg xmlns="http://www.w3.org/2000/svg" direction="ltr" width="4121.625083073188" height="4121.625083073188" viewBox="20846.783403161528 -4372.841380616727 4121.625083073188 4121.625083073188" stroke-linecap="round" stroke-linejoin="round" data-color-mode="light" class="tl-container tl-theme__force-sRGB tl-theme__light" style="background-color: transparent;"><defs/><g transform="matrix(1, 0, 0, 1, 20846.7834, -4372.8414)" opacity="1"><g transform="scale(2.846426162343362, 2.846426162343362)"><g>
<g xmlns="http://www.w3.org/2000/svg" stroke-width="2.00" fill="none" stroke-linecap="butt">
<path stroke="#2a685b" vector-effect="non-scaling-stroke" d="   M 911.25 335.31   L 857.63 335.83   A 1.17 1.13 -69.8 0 0 856.74 336.26   C 855.80 337.41 856.56 338.79 856.59 340.23   C 857.22 371.33 856.05 414.60 856.66 448.25   Q 857.20 478.33 857.05 481.58   C 856.85 485.61 856.50 489.54 855.96 492.24   Q 855.83 492.87 856.27 497.21   Q 856.58 500.31 855.55 503.42"/>
<path stroke="#7b8245" vector-effect="non-scaling-stroke" d="   M 855.55 503.42   Q 852.88 500.55 850.72 498.27   Q 840.34 487.35 824.86 472.66   Q 813.97 462.33 803.49 452.16   A 5.44 5.43 21.9 0 1 801.85 448.32   L 801.54 408.26"/>
<path stroke="#7b8245" vector-effect="non-scaling-stroke" d="   M 911.70 414.00   Q 911.98 412.02 912.06 412.52"/>
<path stroke="#73713a" vector-effect="non-scaling-stroke" d="   M 1144.42 683.03   Q 1123.17 683.77 1114.88 683.64   Q 1092.35 683.29 1050.26 683.30   Q 956.88 683.34 863.50 683.29   C 853.71 683.28 835.53 683.65 821.53 683.34"/>
<path stroke="#d39e34" vector-effect="non-scaling-stroke" d="   M 821.53 683.34   Q 822.12 682.68 821.86 682.42   C 821.19 681.78 820.48 681.69 819.87 681.15   Q 808.63 671.34 807.04 669.77   Q 804.93 667.68 798.34 660.17   C 794.47 655.77 787.15 650.27 782.63 645.49   C 771.27 633.50 759.83 623.29 747.91 611.36   C 736.16 599.61 722.66 587.07 708.85 573.43   Q 684.40 549.29 678.77 543.88   C 659.76 525.63 642.23 507.88 623.69 490.13   C 611.28 478.25 597.99 464.41 584.20 451.45   Q 573.68 441.56 564.69 432.26   Q 562.06 429.54 553.39 421.69   Q 547.44 416.31 542.03 410.26"/>
<path stroke="#2a685b" vector-effect="non-scaling-stroke" d="   M 911.75 408.61   Q 910.62 410.15 911.70 414.00"/>
<path stroke="#73713a" vector-effect="non-scaling-stroke" d="   M 911.70 414.00   L 912.08 502.47   A 1.42 1.41 -3.4 0 1 910.82 503.88   Q 909.79 504.00 908.51 503.98   Q 884.51 503.69 867.50 504.09   Q 860.51 504.25 855.55 503.42"/>
<path stroke="#83844a" vector-effect="non-scaling-stroke" d="   M 821.53 683.34   L 773.71 683.51"/>
<path stroke="#8b9455" vector-effect="non-scaling-stroke" d="   M 773.71 683.51   L 543.08 458.78   A 1.29 1.29 0.0 0 0 541.28 458.78   L 309.07 684.61"/>
<path stroke="#2a685b" vector-effect="non-scaling-stroke" d="   M 773.71 683.51   Q 773.54 692.63 773.52 702.50   Q 773.36 830.70 773.20 979.00   Q 773.16 1012.07 773.40 1045.91   Q 773.45 1053.30 773.27 1056.59   C 772.89 1063.19 772.70 1069.38 773.22 1076.18"/>
<path stroke="#2a685b" vector-effect="non-scaling-stroke" d="   M 604.05 1076.02   L 604.34 840.38   A 1.13 1.12 0.3 0 0 603.21 839.25   L 479.88 839.25   A 0.93 0.93 0.0 0 0 478.95 840.16   Q 478.35 877.81 478.82 918.92   C 479.05 938.92 478.09 959.86 478.77 980.26   C 479.11 990.24 479.14 1003.56 478.87 1011.25   Q 477.81 1041.54 479.14 1071.88   Q 479.19 1072.95 480.51 1076.11"/>
<path stroke="#90aba7" vector-effect="non-scaling-stroke" d="   M 1004.08 847.89   L 1003.69 847.92   A 1.25 1.14 -65.2 0 0 1003.02 848.20   C 996.43 853.74 992.01 858.02 988.81 866.02   C 983.03 880.44 986.32 896.36 996.16 908.19   C 998.02 910.43 1000.68 912.10 1003.22 913.79"/>
<path stroke="#2a685b" vector-effect="non-scaling-stroke" d="   M 1003.22 913.79   Q 1004.82 915.70 1006.70 915.75"/>
<path stroke="#8b9455" vector-effect="non-scaling-stroke" d="   M 1008.12 872.46   Q 1007.05 875.95 1008.44 879.49   Q 1012.11 888.83 1011.61 898.90   Q 1011.51 900.82 1009.73 903.76"/>
<path stroke="#f1d7a1" vector-effect="non-scaling-stroke" d="   M 1003.79 848.72   Q 1002.72 849.75 1002.43 851.02   A 1.76 1.70 44.0 0 0 1002.46 851.86   Q 1002.90 853.46 1003.13 855.11   Q 1003.21 853.54 1003.24 853.49   A 0.10 0.09 50.6 0 1 1003.41 853.51   L 1004.03 855.40   A 0.30 0.30 0.0 0 0 1004.60 855.42   Q 1004.74 855.12 1004.43 853.48   A 0.10 0.09 -79.2 0 1 1004.57 853.38   L 1004.88 853.59   A 0.50 0.50 0.0 0 1 1005.07 854.17   C 1004.26 856.52 1005.91 859.52 1006.20 862.00   Q 1006.66 866.04 1006.39 873.81   C 1006.24 878.02 1007.06 881.48 1008.66 884.90   A 9.02 8.87 -61.3 0 1 1009.43 887.61   Q 1009.97 891.98 1010.47 893.36   Q 1012.49 898.94 1009.25 902.55   A 0.10 0.10 0.0 0 1 1009.08 902.50   Q 1009.05 902.41 1009.22 902.23   C 1010.60 900.79 1011.12 897.61 1011.09 895.50   A 0.18 0.18 0.0 0 0 1010.91 895.32   L 1010.90 895.32   A 0.20 0.19 -1.6 0 0 1010.71 895.51   C 1010.72 900.92 1008.02 903.27 1003.05 905.93   A 0.22 0.22 0.0 0 0 1002.95 906.20   L 1003.05 906.50   A 0.03 0.02 -27.1 0 0 1003.09 906.51   L 1009.73 903.76"/>
<path stroke="#98bbb2" vector-effect="non-scaling-stroke" d="   M 1009.73 903.76   Q 1009.56 904.28 1008.74 904.72"/>
<path stroke="#98bbb2" vector-effect="non-scaling-stroke" d="   M 1002.35 911.72   Q 1001.33 911.83 1001.84 911.51   Q 1002.87 912.77 1003.22 913.79"/>
<path stroke="#83844a" vector-effect="non-scaling-stroke" d="   M 521.78 959.03   A 11.68 11.68 0.0 0 0 510.10 947.35   A 11.68 11.68 0.0 0 0 498.42 959.03   A 11.68 11.68 0.0 0 0 510.10 970.71   A 11.68 11.68 0.0 0 0 521.78 959.03"/>
<path stroke="#f1d7a1" vector-effect="non-scaling-stroke" d="   M 1001.98 910.25   A 0.11 0.11 0.0 0 0 1001.87 910.14   A 0.11 0.11 0.0 0 0 1001.76 910.25   A 0.11 0.11 0.0 0 0 1001.87 910.36   A 0.11 0.11 0.0 0 0 1001.98 910.25"/>
</g>
<path xmlns="http://www.w3.org/2000/svg" fill="#327866" d="   M 911.25 335.31   L 857.63 335.83   A 1.17 1.13 -69.8 0 0 856.74 336.26   C 855.80 337.41 856.56 338.79 856.59 340.23   C 857.22 371.33 856.05 414.60 856.66 448.25   Q 857.20 478.33 857.05 481.58   C 856.85 485.61 856.50 489.54 855.96 492.24   Q 855.83 492.87 856.27 497.21   Q 856.58 500.31 855.55 503.42   Q 852.88 500.55 850.72 498.27   Q 840.34 487.35 824.86 472.66   Q 813.97 462.33 803.49 452.16   A 5.44 5.43 21.9 0 1 801.85 448.32   L 801.54 408.26   L 801.79 336.06   A 0.77 0.77 0.0 0 1 802.26 335.35   Q 804.00 334.61 805.76 334.62   Q 849.76 334.97 887.22 335.08   Q 887.36 335.08 897.27 334.85   Q 903.71 334.70 911.25 335.31   Z"/>
<path xmlns="http://www.w3.org/2000/svg" fill="#225750" d="   M 911.75 408.61   Q 910.62 410.15 911.70 414.00   L 912.08 502.47   A 1.42 1.41 -3.4 0 1 910.82 503.88   Q 909.79 504.00 908.51 503.98   Q 884.51 503.69 867.50 504.09   Q 860.51 504.25 855.55 503.42   Q 856.58 500.31 856.27 497.21   Q 855.83 492.87 855.96 492.24   C 856.50 489.54 856.85 485.61 857.05 481.58   Q 857.20 478.33 856.66 448.25   C 856.05 414.60 857.22 371.33 856.59 340.23   C 856.56 338.79 855.80 337.41 856.74 336.26   A 1.17 1.13 -69.8 0 1 857.63 335.83   L 911.25 335.31   Q 912.08 340.39 911.95 346.04   Q 911.77 354.39 911.77 354.45   Q 911.97 381.64 911.75 408.61   Z"/>
<path xmlns="http://www.w3.org/2000/svg" fill="#c38b24" d="   M 801.54 408.26   L 801.85 448.32   A 5.44 5.43 21.9 0 0 803.49 452.16   Q 813.97 462.33 824.86 472.66   Q 840.34 487.35 850.72 498.27   Q 852.88 500.55 855.55 503.42   Q 860.51 504.25 867.50 504.09   Q 884.51 503.69 908.51 503.98   Q 909.79 504.00 910.82 503.88   A 1.42 1.41 -3.4 0 0 912.08 502.47   L 911.70 414.00   Q 911.98 412.02 912.06 412.52   Q 920.07 420.49 928.16 428.59   Q 948.20 448.67 956.20 456.53   Q 972.01 472.07 984.25 484.50   C 997.07 497.52 1011.25 510.77 1025.02 524.45   Q 1036.17 535.52 1084.49 583.10   C 1094.40 592.86 1103.22 601.19 1114.65 612.60   Q 1154.15 652.06 1184.60 681.74   A 0.39 0.38 -38.6 0 1 1184.53 682.35   Q 1183.22 683.13 1181.50 683.13   Q 1163.07 683.14 1144.42 683.03   Q 1123.17 683.77 1114.88 683.64   Q 1092.35 683.29 1050.26 683.30   Q 956.88 683.34 863.50 683.29   C 853.71 683.28 835.53 683.65 821.53 683.34   Q 822.12 682.68 821.86 682.42   C 821.19 681.78 820.48 681.69 819.87 681.15   Q 808.63 671.34 807.04 669.77   Q 804.93 667.68 798.34 660.17   C 794.47 655.77 787.15 650.27 782.63 645.49   C 771.27 633.50 759.83 623.29 747.91 611.36   C 736.16 599.61 722.66 587.07 708.85 573.43   Q 684.40 549.29 678.77 543.88   C 659.76 525.63 642.23 507.88 623.69 490.13   C 611.28 478.25 597.99 464.41 584.20 451.45   Q 573.68 441.56 564.69 432.26   Q 562.06 429.54 553.39 421.69   Q 547.44 416.31 542.03 410.26   Q 543.75 409.46 544.75 409.46   Q 672.20 409.03 799.65 409.09   Q 800.52 409.09 801.54 408.26   Z"/>
<path xmlns="http://www.w3.org/2000/svg" fill="#327866" d="   M 911.75 408.61   L 912.06 412.52   Q 911.98 412.02 911.70 414.00   Q 910.62 410.15 911.75 408.61   Z"/>
<path xmlns="http://www.w3.org/2000/svg" fill="#e3b043" d="   M 542.03 410.26   Q 547.44 416.31 553.39 421.69   Q 562.06 429.54 564.69 432.26   Q 573.68 441.56 584.20 451.45   C 597.99 464.41 611.28 478.25 623.69 490.13   C 642.23 507.88 659.76 525.63 678.77 543.88   Q 684.40 549.29 708.85 573.43   C 722.66 587.07 736.16 599.61 747.91 611.36   C 759.83 623.29 771.27 633.50 782.63 645.49   C 787.15 650.27 794.47 655.77 798.34 660.17   Q 804.93 667.68 807.04 669.77   Q 808.63 671.34 819.87 681.15   C 820.48 681.69 821.19 681.78 821.86 682.42   Q 822.12 682.68 821.53 683.34   L 773.71 683.51   L 543.08 458.78   A 1.29 1.29 0.0 0 0 541.28 458.78   L 309.07 684.61   Q 308.72 683.21 307.75 683.22   C 294.34 683.46 280.80 683.48 267.25 683.60   Q 264.64 683.62 262.70 682.58   A 0.67 0.66 -53.6 0 1 262.54 681.52   Q 269.63 674.38 279.27 665.27   C 289.81 655.29 300.20 644.76 310.43 635.28   C 315.61 630.47 322.19 623.31 328.67 617.05   Q 346.34 600.01 369.71 576.46   C 378.76 567.33 397.84 549.92 410.90 536.58   C 417.46 529.88 423.81 524.04 430.61 517.37   Q 483.71 465.25 493.63 455.87   C 501.32 448.62 507.66 441.63 515.90 434.21   C 523.61 427.28 531.56 418.49 538.85 411.85   Q 540.61 410.24 542.03 410.26   Z"/>
<path xmlns="http://www.w3.org/2000/svg" fill="#327866" d="   M 773.71 683.51   Q 773.54 692.63 773.52 702.50   Q 773.36 830.70 773.20 979.00   Q 773.16 1012.07 773.40 1045.91   Q 773.45 1053.30 773.27 1056.59   C 772.89 1063.19 772.70 1069.38 773.22 1076.18   L 604.05 1076.02   L 604.34 840.38   A 1.13 1.12 0.3 0 0 603.21 839.25   L 479.88 839.25   A 0.93 0.93 0.0 0 0 478.95 840.16   Q 478.35 877.81 478.82 918.92   C 479.05 938.92 478.09 959.86 478.77 980.26   C 479.11 990.24 479.14 1003.56 478.87 1011.25   Q 477.81 1041.54 479.14 1071.88   Q 479.19 1072.95 480.51 1076.11   Q 471.69 1076.21 463.00 1076.18   Q 387.66 1075.94 312.42 1076.10   Q 309.36 1076.11 309.36 1072.97   Q 309.24 751.30 309.23 687.02   Q 309.23 685.66 309.07 684.61   L 541.28 458.78   A 1.29 1.29 0.0 0 1 543.08 458.78   L 773.71 683.51   Z   M 538.6910 601.7343   A 40.43 39.73 -93.7 0 0 501.6528 644.6439   A 40.43 39.73 -93.7 0 0 543.9090 682.4257   A 40.43 39.73 -93.7 0 0 580.9472 639.5161   A 40.43 39.73 -93.7 0 0 538.6910 601.7343   Z"/>
<path xmlns="http://www.w3.org/2000/svg" fill="#225750" d="   M 821.53 683.34   C 835.53 683.65 853.71 683.28 863.50 683.29   Q 956.88 683.34 1050.26 683.30   Q 1092.35 683.29 1114.88 683.64   Q 1123.17 683.77 1144.42 683.03   Q 1143.80 689.93 1143.93 696.32   Q 1144.10 704.19 1144.10 704.68   Q 1144.16 888.81 1144.18 1072.93   Q 1144.18 1076.22 1140.98 1076.22   Q 957.08 1075.92 773.22 1076.18   C 772.70 1069.38 772.89 1063.19 773.27 1056.59   Q 773.45 1053.30 773.40 1045.91   Q 773.16 1012.07 773.20 979.00   Q 773.36 830.70 773.52 702.50   Q 773.54 692.63 773.71 683.51   L 821.53 683.34   Z   M 889.7828 840.4153   A 40.29 40.08 -92.4 0 0 851.4252 882.3484   A 40.29 40.08 -92.4 0 0 893.1572 920.9247   A 40.29 40.08 -92.4 0 0 931.5148 878.9916   A 40.29 40.08 -92.4 0 0 889.7828 840.4153   Z   M 1004.08 847.89   L 1003.69 847.92   A 1.25 1.14 -65.2 0 0 1003.02 848.20   C 996.43 853.74 992.01 858.02 988.81 866.02   C 983.03 880.44 986.32 896.36 996.16 908.19   C 998.02 910.43 1000.68 912.10 1003.22 913.79   Q 1004.82 915.70 1006.70 915.75   C 1017.79 922.24 1032.80 922.49 1044.11 916.27   Q 1059.32 907.91 1064.07 892.10   C 1066.81 883.01 1066.01 872.21 1062.06 863.95   Q 1054.75 848.66 1039.88 842.72   C 1028.65 838.24 1016.81 839.46 1006.58 845.63   A 4.81 4.49 5.8 0 0 1005.79 846.23   L 1004.08 847.89   Z"/>
<path xmlns="http://www.w3.org/2000/svg" fill="#225750" d="   M 604.05 1076.02   L 480.51 1076.11   Q 479.19 1072.95 479.14 1071.88   Q 477.81 1041.54 478.87 1011.25   C 479.14 1003.56 479.11 990.24 478.77 980.26   C 478.09 959.86 479.05 938.92 478.82 918.92   Q 478.35 877.81 478.95 840.16   A 0.93 0.93 0.0 0 1 479.88 839.25   L 603.21 839.25   A 1.13 1.12 0.3 0 1 604.34 840.38   L 604.05 1076.02   Z   M 521.78 959.03   A 11.68 11.68 0.0 0 0 510.10 947.35   A 11.68 11.68 0.0 0 0 498.42 959.03   A 11.68 11.68 0.0 0 0 510.10 970.71   A 11.68 11.68 0.0 0 0 521.78 959.03   Z"/>
<path xmlns="http://www.w3.org/2000/svg" fill="#fefefe" d="   M 1004.08 847.89   L 1003.79 848.72   Q 1002.72 849.75 1002.43 851.02   A 1.76 1.70 44.0 0 0 1002.46 851.86   Q 1002.90 853.46 1003.13 855.11   Q 1003.21 853.54 1003.24 853.49   A 0.10 0.09 50.6 0 1 1003.41 853.51   L 1004.03 855.40   A 0.30 0.30 0.0 0 0 1004.60 855.42   Q 1004.74 855.12 1004.43 853.48   A 0.10 0.09 -79.2 0 1 1004.57 853.38   L 1004.88 853.59   A 0.50 0.50 0.0 0 1 1005.07 854.17   C 1004.26 856.52 1005.91 859.52 1006.20 862.00   Q 1006.66 866.04 1006.39 873.81   C 1006.24 878.02 1007.06 881.48 1008.66 884.90   A 9.02 8.87 -61.3 0 1 1009.43 887.61   Q 1009.97 891.98 1010.47 893.36   Q 1012.49 898.94 1009.25 902.55   A 0.10 0.10 0.0 0 1 1009.08 902.50   Q 1009.05 902.41 1009.22 902.23   C 1010.60 900.79 1011.12 897.61 1011.09 895.50   A 0.18 0.18 0.0 0 0 1010.91 895.32   L 1010.90 895.32   A 0.20 0.19 -1.6 0 0 1010.71 895.51   C 1010.72 900.92 1008.02 903.27 1003.05 905.93   A 0.22 0.22 0.0 0 0 1002.95 906.20   L 1003.05 906.50   A 0.03 0.02 -27.1 0 0 1003.09 906.51   L 1009.73 903.76   Q 1009.56 904.28 1008.74 904.72   L 1007.02 905.21   A 0.22 0.22 0.0 0 0 1007.04 905.63   Q 1007.60 905.73 1008.21 905.42   Q 1008.24 905.40 1008.55 905.49   Q 1008.78 905.56 1009.00 905.60   A 0.02 0.02 0.0 0 1 1009.00 905.64   Q 1008.87 905.67 1008.77 905.79   Q 1008.69 905.89 1008.63 905.88   Q 1005.42 905.18 1002.90 907.42   A 1.10 1.06 72.0 0 0 1002.54 908.16   L 1002.35 911.72   Q 1001.33 911.83 1001.84 911.51   Q 1002.87 912.77 1003.22 913.79   C 1000.68 912.10 998.02 910.43 996.16 908.19   C 986.32 896.36 983.03 880.44 988.81 866.02   C 992.01 858.02 996.43 853.74 1003.02 848.20   A 1.25 1.14 -65.2 0 1 1003.69 847.92   L 1004.08 847.89   Z   M 1001.98 910.25   A 0.11 0.11 0.0 0 0 1001.87 910.14   A 0.11 0.11 0.0 0 0 1001.76 910.25   A 0.11 0.11 0.0 0 0 1001.87 910.36   A 0.11 0.11 0.0 0 0 1001.98 910.25   Z"/>
<path xmlns="http://www.w3.org/2000/svg" fill="#e3b043" d="   M 1003.79 848.72   Q 1003.46 849.70 1004.15 850.03   A 0.67 0.67 0.0 0 1 1004.53 850.73   L 1004.45 851.39   A 0.56 0.55 82.2 0 0 1005.22 851.98   Q 1005.26 851.96 1005.36 851.90   A 0.39 0.39 0.0 0 1 1005.95 852.30   Q 1005.70 853.99 1006.18 855.69   A 0.18 0.18 0.0 0 0 1006.53 855.64   L 1006.53 855.18   A 0.03 0.03 0.0 0 1 1006.58 855.17   L 1007.89 858.82   A 0.04 0.04 0.0 0 1 1007.85 858.87   Q 1007.54 858.78 1007.53 859.08   A 0.31 0.23 37.0 0 0 1007.57 859.22   Q 1008.15 860.11 1007.71 860.35   A 0.33 0.33 0.0 0 0 1007.72 860.94   Q 1008.38 861.28 1007.99 862.11   Q 1007.82 862.46 1007.89 863.37   Q 1008.25 867.92 1008.12 872.46   Q 1007.05 875.95 1008.44 879.49   Q 1012.11 888.83 1011.61 898.90   Q 1011.51 900.82 1009.73 903.76   L 1003.09 906.51   A 0.03 0.02 -27.1 0 1 1003.05 906.50   L 1002.95 906.20   A 0.22 0.22 0.0 0 1 1003.05 905.93   C 1008.02 903.27 1010.72 900.92 1010.71 895.51   A 0.20 0.19 -1.6 0 1 1010.90 895.32   L 1010.91 895.32   A 0.18 0.18 0.0 0 1 1011.09 895.50   C 1011.12 897.61 1010.60 900.79 1009.22 902.23   Q 1009.05 902.41 1009.08 902.50   A 0.10 0.10 0.0 0 0 1009.25 902.55   Q 1012.49 898.94 1010.47 893.36   Q 1009.97 891.98 1009.43 887.61   A 9.02 8.87 -61.3 0 0 1008.66 884.90   C 1007.06 881.48 1006.24 878.02 1006.39 873.81   Q 1006.66 866.04 1006.20 862.00   C 1005.91 859.52 1004.26 856.52 1005.07 854.17   A 0.50 0.50 0.0 0 0 1004.88 853.59   L 1004.57 853.38   A 0.10 0.09 -79.2 0 0 1004.43 853.48   Q 1004.74 855.12 1004.60 855.42   A 0.30 0.30 0.0 0 1 1004.03 855.40   L 1003.41 853.51   A 0.10 0.09 50.6 0 0 1003.24 853.49   Q 1003.21 853.54 1003.13 855.11   Q 1002.90 853.46 1002.46 851.86   A 1.76 1.70 44.0 0 1 1002.43 851.02   Q 1002.72 849.75 1003.79 848.72   Z"/>
<path xmlns="http://www.w3.org/2000/svg" fill="#327866" d="   M 1008.12 872.46   Q 1008.18 876.39 1009.40 878.47   Q 1011.96 882.82 1011.90 883.12   A 0.32 0.31 79.9 0 0 1012.37 883.45   Q 1012.52 883.36 1012.40 883.00   A 0.46 0.46 0.0 0 1 1012.68 882.41   L 1013.07 882.27   A 0.04 0.04 0.0 0 1 1013.12 882.30   Q 1013.90 885.69 1014.12 888.88   Q 1013.84 886.55 1012.75 884.40   A 0.20 0.20 0.0 0 0 1012.37 884.50   Q 1012.52 889.54 1014.04 894.67   C 1015.47 899.46 1014.76 904.46 1008.74 904.72   Q 1009.56 904.28 1009.73 903.76   Q 1011.51 900.82 1011.61 898.90   Q 1012.11 888.83 1008.44 879.49   Q 1007.05 875.95 1008.12 872.46   Z"/>
<circle xmlns="http://www.w3.org/2000/svg" fill="#e3b043" cx="1001.87" cy="910.25" r="0.11"/>
<path xmlns="http://www.w3.org/2000/svg" fill="#327866" d="   M 1006.70 915.75   Q 1004.82 915.70 1003.22 913.79   Q 1002.87 912.77 1001.84 911.51   Q 1001.33 911.83 1002.35 911.72   Q 1002.49 911.63 1002.64 911.36   A 0.30 0.30 0.0 0 1 1003.18 911.37   Q 1003.21 911.45 1003.29 911.75   A 0.32 0.32 0.0 0 0 1003.91 911.74   Q 1003.92 911.72 1003.72 911.35   A 0.05 0.05 0.0 0 1 1003.80 911.29   Q 1003.89 911.39 1003.96 911.50   Q 1004.00 911.57 1004.00 911.68   Q 1003.97 914.21 1006.70 915.75   Z"/>
<circle xmlns="http://www.w3.org/2000/svg" fill="#e3b043" cx="510.10" cy="959.03" r="11.68"/>
</g></g></g></svg>