<svg xmlns="http://www.w3.org/2000/svg" direction="ltr" width="2048" height="2048" viewBox="38041.73758797796 18678.499754154385 2048 2048" stroke-linecap="round" stroke-linejoin="round" data-color-mode="light" class="tl-container tl-theme__force-sRGB tl-theme__light" style="background-color: transparent;"><defs/><g transform="matrix(1, 0, 0, 1, 38041.7376, 18678.4998)" opacity="1"><g transform="scale(1.4143646408839778, 1.4143646408839778)"><g>
<g xmlns="http://www.w3.org/2000/svg" stroke-width="2.00" fill="none" stroke-linecap="butt">
<path stroke="#868686" vector-effect="non-scaling-stroke" d="   M 1014.03 427.15   Q 1004.41 428.34 994.81 428.14   Q 980.24 427.83 980.18 427.83   Q 921.21 428.20 862.25 428.02   Q 847.24 427.97 832.23 427.32"/>
<path stroke="#989898" vector-effect="non-scaling-stroke" d="   M 832.23 427.32   L 831.76 427.07"/>
<path stroke="#868686" vector-effect="non-scaling-stroke" d="   M 831.76 427.07   L 830.41 424.88   A 0.09 0.03 73.2 0 1 830.39 424.85   Q 821.43 413.77 812.27 402.76   Q 803.51 392.23 794.67 381.86   C 780.46 365.22 768.61 350.46 753.55 332.63   C 751.19 329.84 749.26 326.96 746.56 324.20   Q 745.67 323.29 741.24 318.01   Q 734.29 309.76 727.99 301.99   C 721.42 293.90 713.62 285.44 707.82 278.36   Q 691.36 258.25 674.95 238.89   C 673.15 236.77 670.36 234.44 668.92 232.59   Q 665.22 227.84 661.10 222.15   Q 658.24 218.20 649.86 211.25"/>
<path stroke="#a4a4a4" vector-effect="non-scaling-stroke" d="   M 832.23 427.32   Q 832.87 427.63 832.87 428.00   C 832.37 477.21 832.54 502.86 832.52 554.75   Q 832.36 940.90 832.45 1125.00   Q 832.45 1143.05 832.66 1179.23   A 1.81 1.77 -56.8 0 0 832.77 1179.79   Q 833.45 1181.49 833.02 1181.87"/>
<path stroke="#a4a4a4" vector-effect="non-scaling-stroke" d="   M 698.26 1182.03   Q 697.72 1172.32 697.73 1168.48   Q 697.84 1094.51 697.96 1085.25   Q 698.04 1079.18 697.70 1067.63   A 0.83 0.83 0.0 0 0 696.87 1066.82   L 604.93 1066.82   A 0.53 0.52 0.0 0 0 604.40 1067.34   L 604.23 1182.10"/>
<path stroke="#a4a4a4" vector-effect="non-scaling-stroke" d="   M 831.76 427.07   C 823.74 427.45 815.72 428.04 807.74 428.02   C 747.64 427.82 665.36 427.80 527.31 427.85   Q 527.23 427.85 505.70 427.59   Q 487.35 427.37 469.12 428.70"/>
<path stroke="#a4a4a4" vector-effect="non-scaling-stroke" d="   M 587.98 540.35   Q 586.03 540.31 580.22 539.90   Q 564.39 538.81 548.18 540.46   A 0.84 0.83 -3.7 0 0 547.43 541.31   C 547.73 553.07 546.75 565.62 546.84 577.25   Q 547.23 624.59 546.89 664.44   C 546.83 671.45 547.38 677.55 551.23 682.74   Q 560.00 694.59 574.82 694.48   Q 652.86 693.91 715.85 694.21   C 727.10 694.27 736.46 694.75 745.49 688.04   C 752.64 682.71 755.93 672.54 755.88 664.02   Q 755.59 608.22 755.88 553.92   C 755.94 542.99 755.53 528.95 755.33 520.25   Q 755.11 510.64 755.88 495.49   A 0.90 0.89 4.7 0 0 755.08 494.55   C 753.02 494.34 748.85 493.96 745.96 494.10   Q 721.10 495.26 698.53 494.83   Q 673.18 494.34 663.50 494.50   C 648.45 494.74 627.45 495.04 609.57 494.43   Q 597.63 494.03 590.60 494.34   A 1.06 1.06 0.0 0 0 589.59 495.40   L 589.59 538.77   A 1.58 1.57 -89.3 0 1 587.98 540.35"/>
<path stroke="#dbdbdb" vector-effect="non-scaling-stroke" d="   M 654.2408 753.4944   A 28.21 28.02 -84.2 0 0 623.5134 778.7284   A 28.21 28.02 -84.2 0 0 648.5392 809.6256   A 28.21 28.02 -84.2 0 0 679.2666 784.3916   A 28.21 28.02 -84.2 0 0 654.2408 753.4944"/>
<path stroke="#dbdbdb" vector-effect="non-scaling-stroke" d="   M 778.52 781.61   A 28.13 28.13 0.0 0 0 750.39 753.48   A 28.13 28.13 0.0 0 0 722.26 781.61   A 28.13 28.13 0.0 0 0 750.39 809.74   A 28.13 28.13 0.0 0 0 778.52 781.61"/>
<path stroke="#dbdbdb" vector-effect="non-scaling-stroke" d="   M 551.7276 753.6421   A 28.03 27.84 -90.7 0 0 524.2321 782.0101   A 28.03 27.84 -90.7 0 0 552.4124 809.6979   A 28.03 27.84 -90.7 0 0 579.9079 781.3299   A 28.03 27.84 -90.7 0 0 551.7276 753.6421"/>
<path stroke="#c9c9c9" vector-effect="non-scaling-stroke" d="   M 593.02 683.94   A 0.57 0.56 -72.2 0 0 593.48 684.84   Q 655.33 684.60 720.91 684.91   Q 731.69 684.96 734.93 683.57   Q 741.81 680.62 744.99 673.44   Q 746.40 670.24 746.42 660.90   Q 746.56 597.88 746.37 575.68   C 746.16 550.70 746.80 530.55 746.58 504.97   A 0.84 0.84 0.0 0 0 745.74 504.13   L 599.20 504.13   A 0.48 0.47 -0.0 0 0 598.72 504.60   Q 598.28 526.16 598.61 542.57   Q 599.05 563.90 598.66 580.44   Q 598.24 598.22 598.79 626.60   C 599.03 638.90 598.54 650.80 598.55 665.19   C 598.55 672.76 597.17 678.30 593.02 683.94"/>
<path stroke="#a4a4a4" vector-effect="non-scaling-stroke" d="   M 588.58 548.57   L 556.24 548.74   A 0.29 0.29 0.0 0 0 555.96 549.03   L 556.57 667.12   A 17.88 14.99 89.7 0 0 571.66 684.92   L 574.60 684.90   A 17.88 14.99 89.7 0 0 589.49 666.94   L 588.87 548.85   A 0.29 0.29 0.0 0 0 588.58 548.57"/>
<path stroke="#c9c9c9" vector-effect="non-scaling-stroke" d="   M 729.90 523.41   A 0.42 0.42 0.0 0 0 729.48 522.99   L 615.82 522.99   A 0.42 0.42 0.0 0 0 615.40 523.41   L 615.40 548.69   A 0.42 0.42 0.0 0 0 615.82 549.11   L 729.48 549.11   A 0.42 0.42 0.0 0 0 729.90 548.69   L 729.90 523.41"/>
<path stroke="#c9c9c9" vector-effect="non-scaling-stroke" d="   M 665.43 563.42   A 0.32 0.32 0.0 0 0 665.11 563.10   L 615.63 563.10   A 0.32 0.32 0.0 0 0 615.31 563.42   L 615.31 618.66   A 0.32 0.32 0.0 0 0 615.63 618.98   L 665.11 618.98   A 0.32 0.32 0.0 0 0 665.43 618.66   L 665.43 563.42"/>
<path stroke="#c9c9c9" vector-effect="non-scaling-stroke" d="   M 730.16 563.66   A 0.50 0.50 0.0 0 0 729.66 563.16   L 679.22 563.16   A 0.50 0.50 0.0 0 0 678.72 563.66   L 678.72 572.24   A 0.50 0.50 0.0 0 0 679.22 572.74   L 729.66 572.74   A 0.50 0.50 0.0 0 0 730.16 572.24   L 730.16 563.66"/>
<path stroke="#c9c9c9" vector-effect="non-scaling-stroke" d="   M 730.15 586.85   A 0.52 0.52 0.0 0 0 729.63 586.33   L 679.33 586.33   A 0.52 0.52 0.0 0 0 678.81 586.85   L 678.81 595.37   A 0.52 0.52 0.0 0 0 679.33 595.89   L 729.63 595.89   A 0.52 0.52 0.0 0 0 730.15 595.37   L 730.15 586.85"/>
<path stroke="#c9c9c9" vector-effect="non-scaling-stroke" d="   M 730.29 610.19   A 0.72 0.72 0.0 0 0 729.57 609.47   L 679.55 609.47   A 0.72 0.72 0.0 0 0 678.83 610.19   L 678.83 618.01   A 0.72 0.72 0.0 0 0 679.55 618.73   L 729.57 618.73   A 0.72 0.72 0.0 0 0 730.29 618.01   L 730.29 610.19"/>
<path stroke="#c9c9c9" vector-effect="non-scaling-stroke" d="   M 730.13 633.50   A 0.99 0.99 0.0 0 0 729.14 632.51   L 616.14 632.51   A 0.99 0.99 0.0 0 0 615.15 633.50   L 615.15 640.64   A 0.99 0.99 0.0 0 0 616.14 641.63   L 729.14 641.63   A 0.99 0.99 0.0 0 0 730.13 640.64   L 730.13 633.50"/>
<path stroke="#c9c9c9" vector-effect="non-scaling-stroke" d="   M 730.12 655.77   A 0.68 0.68 0.0 0 0 729.44 655.09   L 615.82 655.09   A 0.68 0.68 0.0 0 0 615.14 655.77   L 615.14 663.55   A 0.68 0.68 0.0 0 0 615.82 664.23   L 729.44 664.23   A 0.68 0.68 0.0 0 0 730.12 663.55   L 730.12 655.77"/>
<path stroke="#a4a4a4" vector-effect="non-scaling-stroke" d="   M 621.4651 1117.6779   A 6.87 6.63 -104.8 0 0 616.8100 1126.0136   A 6.87 6.63 -104.8 0 0 624.9749 1130.9621   A 6.87 6.63 -104.8 0 0 629.6300 1122.6264   A 6.87 6.63 -104.8 0 0 621.4651 1117.6779"/>
</g>
<path xmlns="http://www.w3.org/2000/svg" fill="#797979" d="   M 1014.03 427.15   Q 1004.41 428.34 994.81 428.14   Q 980.24 427.83 980.18 427.83   Q 921.21 428.20 862.25 428.02   Q 847.24 427.97 832.23 427.32   L 831.76 427.07   L 830.41 424.88   A 0.09 0.03 73.2 0 1 830.39 424.85   Q 821.43 413.77 812.27 402.76   Q 803.51 392.23 794.67 381.86   C 780.46 365.22 768.61 350.46 753.55 332.63   C 751.19 329.84 749.26 326.96 746.56 324.20   Q 745.67 323.29 741.24 318.01   Q 734.29 309.76 727.99 301.99   C 721.42 293.90 713.62 285.44 707.82 278.36   Q 691.36 258.25 674.95 238.89   C 673.15 236.77 670.36 234.44 668.92 232.59   Q 665.22 227.84 661.10 222.15   Q 658.24 218.20 649.86 211.25   Q 651.62 209.58 653.34 209.58   Q 740.20 209.75 828.25 209.62   Q 831.04 209.61 833.77 211.63   A 3.76 3.31 84.2 0 1 834.34 212.16   Q 853.75 234.76 873.88 259.27   C 896.89 287.29 923.86 318.82 942.39 341.23   C 954.90 356.36 967.90 370.93 980.27 386.14   Q 985.97 393.15 997.20 406.55   Q 1005.56 416.54 1014.03 427.15   Z"/>
<path xmlns="http://www.w3.org/2000/svg" fill="#929292" d="   M 649.86 211.25   Q 658.24 218.20 661.10 222.15   Q 665.22 227.84 668.92 232.59   C 670.36 234.44 673.15 236.77 674.95 238.89   Q 691.36 258.25 707.82 278.36   C 713.62 285.44 721.42 293.90 727.99 301.99   Q 734.29 309.76 741.24 318.01   Q 745.67 323.29 746.56 324.20   C 749.26 326.96 751.19 329.84 753.55 332.63   C 768.61 350.46 780.46 365.22 794.67 381.86   Q 803.51 392.23 812.27 402.76   Q 821.43 413.77 830.39 424.85   A 0.09 0.03 73.2 0 0 830.41 424.88   L 831.76 427.07   C 823.74 427.45 815.72 428.04 807.74 428.02   C 747.64 427.82 665.36 427.80 527.31 427.85   Q 527.23 427.85 505.70 427.59   Q 487.35 427.37 469.12 428.70   L 469.96 426.35   A 2.33 2.32 75.2 0 1 470.36 425.66   C 475.96 418.98 480.76 412.50 487.01 405.15   Q 511.03 376.88 523.95 361.32   C 548.28 332.04 566.05 311.27 591.19 281.03   C 608.97 259.66 630.34 234.70 649.86 211.25   Z"/>
<path xmlns="http://www.w3.org/2000/svg" fill="#b6b6b6" d="   M 831.76 427.07   L 832.23 427.32   Q 832.87 427.63 832.87 428.00   C 832.37 477.21 832.54 502.86 832.52 554.75   Q 832.36 940.90 832.45 1125.00   Q 832.45 1143.05 832.66 1179.23   A 1.81 1.77 -56.8 0 0 832.77 1179.79   Q 833.45 1181.49 833.02 1181.87   L 698.26 1182.03   Q 697.72 1172.32 697.73 1168.48   Q 697.84 1094.51 697.96 1085.25   Q 698.04 1079.18 697.70 1067.63   A 0.83 0.83 0.0 0 0 696.87 1066.82   L 604.93 1066.82   A 0.53 0.52 0.0 0 0 604.40 1067.34   L 604.23 1182.10   L 471.22 1182.15   A 2.10 2.10 0.0 0 1 469.12 1180.10   Q 468.73 1164.14 468.73 1136.00   Q 468.75 1078.28 468.47 761.00   C 468.39 665.87 468.76 556.77 468.51 464.00   Q 468.46 444.59 469.12 428.70   Q 487.35 427.37 505.70 427.59   Q 527.23 427.85 527.31 427.85   C 665.36 427.80 747.64 427.82 807.74 428.02   C 815.72 428.04 823.74 427.45 831.76 427.07   Z   M 587.98 540.35   Q 586.03 540.31 580.22 539.90   Q 564.39 538.81 548.18 540.46   A 0.84 0.83 -3.7 0 0 547.43 541.31   C 547.73 553.07 546.75 565.62 546.84 577.25   Q 547.23 624.59 546.89 664.44   C 546.83 671.45 547.38 677.55 551.23 682.74   Q 560.00 694.59 574.82 694.48   Q 652.86 693.91 715.85 694.21   C 727.10 694.27 736.46 694.75 745.49 688.04   C 752.64 682.71 755.93 672.54 755.88 664.02   Q 755.59 608.22 755.88 553.92   C 755.94 542.99 755.53 528.95 755.33 520.25   Q 755.11 510.64 755.88 495.49   A 0.90 0.89 4.7 0 0 755.08 494.55   C 753.02 494.34 748.85 493.96 745.96 494.10   Q 721.10 495.26 698.53 494.83   Q 673.18 494.34 663.50 494.50   C 648.45 494.74 627.45 495.04 609.57 494.43   Q 597.63 494.03 590.60 494.34   A 1.06 1.06 0.0 0 0 589.59 495.40   L 589.59 538.77   A 1.58 1.57 -89.3 0 1 587.98 540.35   Z   M 654.2408 753.4944   A 28.21 28.02 -84.2 0 0 623.5134 778.7284   A 28.21 28.02 -84.2 0 0 648.5392 809.6256   A 28.21 28.02 -84.2 0 0 679.2666 784.3916   A 28.21 28.02 -84.2 0 0 654.2408 753.4944   Z   M 778.52 781.61   A 28.13 28.13 0.0 0 0 750.39 753.48   A 28.13 28.13 0.0 0 0 722.26 781.61   A 28.13 28.13 0.0 0 0 750.39 809.74   A 28.13 28.13 0.0 0 0 778.52 781.61   Z   M 551.7276 753.6421   A 28.03 27.84 -90.7 0 0 524.2321 782.0101   A 28.03 27.84 -90.7 0 0 552.4124 809.6979   A 28.03 27.84 -90.7 0 0 579.9079 781.3299   A 28.03 27.84 -90.7 0 0 551.7276 753.6421   Z   M 555.8494 854.7469   A 28.61 27.89 -81.6 0 0 524.0792 878.9757   A 28.61 27.89 -81.6 0 0 547.4906 911.3531   A 28.61 27.89 -81.6 0 0 579.2608 887.1243   A 28.61 27.89 -81.6 0 0 555.8494 854.7469   Z   M 679.24 883.04   A 28.43 28.43 0.0 0 0 650.81 854.61   A 28.43 28.43 0.0 0 0 622.38 883.04   A 28.43 28.43 0.0 0 0 650.81 911.47   A 28.43 28.43 0.0 0 0 679.24 883.04   Z   M 778.66 883.03   A 28.39 28.39 0.0 0 0 750.27 854.64   A 28.39 28.39 0.0 0 0 721.88 883.03   A 28.39 28.39 0.0 0 0 750.27 911.42   A 28.39 28.39 0.0 0 0 778.66 883.03   Z   M 554.6800 956.6909   A 28.42 27.99 -83.9 0 0 523.8285 981.9757   A 28.42 27.99 -83.9 0 0 548.6400 1013.2091   A 28.42 27.99 -83.9 0 0 579.4915 987.9243   A 28.42 27.99 -83.9 0 0 554.6800 956.6909   Z   M 679.10 984.89   A 28.29 28.29 0.0 0 0 650.81 956.60   A 28.29 28.29 0.0 0 0 622.52 984.89   A 28.29 28.29 0.0 0 0 650.81 1013.18   A 28.29 28.29 0.0 0 0 679.10 984.89   Z   M 778.46 984.90   A 28.32 28.32 0.0 0 0 750.14 956.58   A 28.32 28.32 0.0 0 0 721.82 984.90   A 28.32 28.32 0.0 0 0 750.14 1013.22   A 28.32 28.32 0.0 0 0 778.46 984.90   Z"/>
<path xmlns="http://www.w3.org/2000/svg" fill="#929292" d="   M 1014.03 427.15   Q 1014.02 428.67 1014.20 430.56   Q 1014.39 432.51 1014.36 433.96   Q 1014.16 445.83 1014.16 450.00   Q 1014.21 924.53 1014.23 954.75   Q 1014.36 1165.68 1014.40 1165.94   Q 1014.40 1165.98 1014.56 1172.06   Q 1014.68 1176.77 1014.16 1180.81   A 1.05 1.02 79.7 0 1 1013.64 1181.58   Q 1012.24 1182.37 1009.75 1182.27   Q 1005.02 1182.07 993.00 1182.00   C 954.58 1181.76 886.32 1181.73 833.02 1181.87   Q 833.45 1181.49 832.77 1179.79   A 1.81 1.77 -56.8 0 1 832.66 1179.23   Q 832.45 1143.05 832.45 1125.00   Q 832.36 940.90 832.52 554.75   C 832.54 502.86 832.37 477.21 832.87 428.00   Q 832.87 427.63 832.23 427.32   Q 847.24 427.97 862.25 428.02   Q 921.21 428.20 980.18 427.83   Q 980.24 427.83 994.81 428.14   Q 1004.41 428.34 1014.03 427.15   Z"/>
<path xmlns="http://www.w3.org/2000/svg" fill="#929292" d="   M 587.98 540.35   A 1.58 1.57 -89.3 0 0 589.59 538.77   L 589.59 495.40   A 1.06 1.06 0.0 0 1 590.60 494.34   Q 597.63 494.03 609.57 494.43   C 627.45 495.04 648.45 494.74 663.50 494.50   Q 673.18 494.34 698.53 494.83   Q 721.10 495.26 745.96 494.10   C 748.85 493.96 753.02 494.34 755.08 494.55   A 0.90 0.89 4.7 0 1 755.88 495.49   Q 755.11 510.64 755.33 520.25   C 755.53 528.95 755.94 542.99 755.88 553.92   Q 755.59 608.22 755.88 664.02   C 755.93 672.54 752.64 682.71 745.49 688.04   C 736.46 694.75 727.10 694.27 715.85 694.21   Q 652.86 693.91 574.82 694.48   Q 560.00 694.59 551.23 682.74   C 547.38 677.55 546.83 671.45 546.89 664.44   Q 547.23 624.59 546.84 577.25   C 546.75 565.62 547.73 553.07 547.43 541.31   A 0.84 0.83 -3.7 0 1 548.18 540.46   Q 564.39 538.81 580.22 539.90   Q 586.03 540.31 587.98 540.35   Z   M 593.02 683.94   A 0.57 0.56 -72.2 0 0 593.48 684.84   Q 655.33 684.60 720.91 684.91   Q 731.69 684.96 734.93 683.57   Q 741.81 680.62 744.99 673.44   Q 746.40 670.24 746.42 660.90   Q 746.56 597.88 746.37 575.68   C 746.16 550.70 746.80 530.55 746.58 504.97   A 0.84 0.84 0.0 0 0 745.74 504.13   L 599.20 504.13   A 0.48 0.47 -0.0 0 0 598.72 504.60   Q 598.28 526.16 598.61 542.57   Q 599.05 563.90 598.66 580.44   Q 598.24 598.22 598.79 626.60   C 599.03 638.90 598.54 650.80 598.55 665.19   C 598.55 672.76 597.17 678.30 593.02 683.94   Z   M 588.58 548.57   L 556.24 548.74   A 0.29 0.29 0.0 0 0 555.96 549.03   L 556.57 667.12   A 17.88 14.99 89.7 0 0 571.66 684.92   L 574.60 684.90   A 17.88 14.99 89.7 0 0 589.49 666.94   L 588.87 548.85   A 0.29 0.29 0.0 0 0 588.58 548.57   Z"/>
<path xmlns="http://www.w3.org/2000/svg" fill="#ffffff" d="   M 593.02 683.94   C 597.17 678.30 598.55 672.76 598.55 665.19   C 598.54 650.80 599.03 638.90 598.79 626.60   Q 598.24 598.22 598.66 580.44   Q 599.05 563.90 598.61 542.57   Q 598.28 526.16 598.72 504.60   A 0.48 0.47 0.0 0 1 599.20 504.13   L 745.74 504.13   A 0.84 0.84 0.0 0 1 746.58 504.97   C 746.80 530.55 746.16 550.70 746.37 575.68   Q 746.56 597.88 746.42 660.90   Q 746.40 670.24 744.99 673.44   Q 741.81 680.62 734.93 683.57   Q 731.69 684.96 720.91 684.91   Q 655.33 684.60 593.48 684.84   A 0.57 0.56 -72.2 0 1 593.02 683.94   Z   M 729.90 523.41   A 0.42 0.42 0.0 0 0 729.48 522.99   L 615.82 522.99   A 0.42 0.42 0.0 0 0 615.40 523.41   L 615.40 548.69   A 0.42 0.42 0.0 0 0 615.82 549.11   L 729.48 549.11   A 0.42 0.42 0.0 0 0 729.90 548.69   L 729.90 523.41   Z   M 665.43 563.42   A 0.32 0.32 0.0 0 0 665.11 563.10   L 615.63 563.10   A 0.32 0.32 0.0 0 0 615.31 563.42   L 615.31 618.66   A 0.32 0.32 0.0 0 0 615.63 618.98   L 665.11 618.98   A 0.32 0.32 0.0 0 0 665.43 618.66   L 665.43 563.42   Z   M 730.16 563.66   A 0.50 0.50 0.0 0 0 729.66 563.16   L 679.22 563.16   A 0.50 0.50 0.0 0 0 678.72 563.66   L 678.72 572.24   A 0.50 0.50 0.0 0 0 679.22 572.74   L 729.66 572.74   A 0.50 0.50 0.0 0 0 730.16 572.24   L 730.16 563.66   Z   M 730.15 586.85   A 0.52 0.52 0.0 0 0 729.63 586.33   L 679.33 586.33   A 0.52 0.52 0.0 0 0 678.81 586.85   L 678.81 595.37   A 0.52 0.52 0.0 0 0 679.33 595.89   L 729.63 595.89   A 0.52 0.52 0.0 0 0 730.15 595.37   L 730.15 586.85   Z   M 730.29 610.19   A 0.72 0.72 0.0 0 0 729.57 609.47   L 679.55 609.47   A 0.72 0.72 0.0 0 0 678.83 610.19   L 678.83 618.01   A 0.72 0.72 0.0 0 0 679.55 618.73   L 729.57 618.73   A 0.72 0.72 0.0 0 0 730.29 618.01   L 730.29 610.19   Z   M 730.13 633.50   A 0.99 0.99 0.0 0 0 729.14 632.51   L 616.14 632.51   A 0.99 0.99 0.0 0 0 615.15 633.50   L 615.15 640.64   A 0.99 0.99 0.0 0 0 616.14 641.63   L 729.14 641.63   A 0.99 0.99 0.0 0 0 730.13 640.64   L 730.13 633.50   Z   M 730.12 655.77   A 0.68 0.68 0.0 0 0 729.44 655.09   L 615.82 655.09   A 0.68 0.68 0.0 0 0 615.14 655.77   L 615.14 663.55   A 0.68 0.68 0.0 0 0 615.82 664.23   L 729.44 664.23   A 0.68 0.68 0.0 0 0 730.12 663.55   L 730.12 655.77   Z"/>
<rect xmlns="http://www.w3.org/2000/svg" fill="#929292" x="615.40" y="522.99" width="114.50" height="26.12" rx="0.42"/>
<path xmlns="http://www.w3.org/2000/svg" fill="#b6b6b6" d="   M 588.58 548.57   A 0.29 0.29 0.0 0 1 588.87 548.85   L 589.49 666.94   A 17.88 14.99 89.7 0 1 574.60 684.90   L 571.66 684.92   A 17.88 14.99 89.7 0 1 556.57 667.12   L 555.96 549.03   A 0.29 0.29 0.0 0 1 556.24 548.74   L 588.58 548.57   Z"/>
<rect xmlns="http://www.w3.org/2000/svg" fill="#929292" x="615.31" y="563.10" width="50.12" height="55.88" rx="0.32"/>
<rect xmlns="http://www.w3.org/2000/svg" fill="#929292" x="678.72" y="563.16" width="51.44" height="9.58" rx="0.50"/>
<rect xmlns="http://www.w3.org/2000/svg" fill="#929292" x="678.81" y="586.33" width="51.34" height="9.56" rx="0.52"/>
<rect xmlns="http://www.w3.org/2000/svg" fill="#929292" x="678.83" y="609.47" width="51.46" height="9.26" rx="0.72"/>
<rect xmlns="http://www.w3.org/2000/svg" fill="#929292" x="615.15" y="632.51" width="114.98" height="9.12" rx="0.99"/>
<rect xmlns="http://www.w3.org/2000/svg" fill="#929292" x="615.14" y="655.09" width="114.98" height="9.14" rx="0.68"/>
<ellipse xmlns="http://www.w3.org/2000/svg" fill="#ffffff" cx="0.00" cy="0.00" transform="translate(651.39,781.56) rotate(-84.2)" rx="28.21" ry="28.02"/>
<circle xmlns="http://www.w3.org/2000/svg" fill="#ffffff" cx="750.39" cy="781.61" r="28.13"/>
<ellipse xmlns="http://www.w3.org/2000/svg" fill="#ffffff" cx="0.00" cy="0.00" transform="translate(552.07,781.67) rotate(-90.7)" rx="28.03" ry="27.84"/>
<path xmlns="http://www.w3.org/2000/svg" fill="#929292" d="   M 698.26 1182.03   L 604.23 1182.10   L 604.40 1067.34   A 0.53 0.52 0.0 0 1 604.93 1066.82   L 696.87 1066.82   A 0.83 0.83 0.0 0 1 697.70 1067.63   Q 698.04 1079.18 697.96 1085.25   Q 697.84 1094.51 697.73 1168.48   Q 697.72 1172.32 698.26 1182.03   Z   M 621.4651 1117.6779   A 6.87 6.63 -104.8 0 0 616.8100 1126.0136   A 6.87 6.63 -104.8 0 0 624.9749 1130.9621   A 6.87 6.63 -104.8 0 0 629.6300 1122.6264   A 6.87 6.63 -104.8 0 0 621.4651 1117.6779   Z"/>
<ellipse xmlns="http://www.w3.org/2000/svg" fill="#b6b6b6" cx="0.00" cy="0.00" transform="translate(623.22,1124.32) rotate(-104.8)" rx="6.87" ry="6.63"/>
</g></g></g></svg>