<svg xmlns="http://www.w3.org/2000/svg" direction="ltr" width="1925.1084805028522" height="3001.1947593480363" viewBox="7047.035958575519 24537.718040314263 1925.1084805028522 3001.1947593480363" stroke-linecap="round" stroke-linejoin="round" data-color-mode="light" class="tl-container tl-theme__force-sRGB tl-theme__light" style="background-color: transparent;"><defs/><g transform="matrix(0, 1, -1, 0, 8972.1444, 24537.718)" opacity="1"><g transform="scale(1.9744702364131814, 1.9744702364131814)"><g>
<path xmlns="http://www.w3.org/2000/svg" fill="#ffffff" d="   M 108.71 803.05   Q 105.73 799.21 100.77 792.51   Q 93.20 782.28 88.48 768.65   Q 81.99 749.91 81.62 732.18   C 80.79 691.37 81.21 643.99 81.42 560.25   Q 81.45 550.91 81.40 523.50   Q 81.20 392.44 81.47 358.25   Q 81.61 341.00 81.60 323.75   Q 81.60 231.67 81.60 230.75   C 81.62 221.44 81.42 210.57 83.73 200.97   C 86.20 190.68 88.00 181.61 92.80 173.04   C 98.72 162.49 104.30 153.35 112.42 144.92   C 127.95 128.79 150.67 115.46 173.25 112.00   C 181.83 110.68 192.01 110.17 201.94 110.12   Q 237.08 109.97 280.75 110.00   Q 384.78 110.10 587.25 109.93   Q 610.56 109.91 639.24 110.11   C 662.43 110.27 683.22 109.88 708.59 109.94   Q 800.85 110.19 861.58 109.90   C 895.89 109.73 944.27 110.39 987.97 110.04   Q 1000.84 109.93 1038.53 109.94   Q 1246.27 109.97 1296.00 109.86   C 1308.79 109.84 1324.08 109.97 1338.42 110.98   Q 1346.49 111.55 1353.37 113.49   C 1369.54 118.04 1382.67 124.59 1395.53 134.90   Q 1402.83 140.75 1408.66 146.84   Q 1409.51 147.73 1417.69 158.48   Q 1421.15 163.03 1423.53 167.68   C 1426.29 173.09 1430.43 179.14 1432.42 187.07   Q 1434.29 194.52 1437.05 203.96   C 1438.13 207.68 1438.53 211.61 1438.54 215.73   Q 1438.63 269.57 1438.63 276.24   Q 1438.62 279.92 1438.71 286.25   Q 1439.06 313.38 1438.55 440.08   Q 1438.48 455.55 1438.77 462.91   C 1439.16 473.15 1438.43 482.21 1438.55 493.37   Q 1438.85 523.10 1438.80 543.75   Q 1438.75 569.66 1438.96 583.17   C 1439.40 611.25 1438.72 637.50 1439.09 667.56   Q 1439.47 698.74 1438.86 729.00   Q 1438.84 730.16 1437.80 741.85   C 1437.11 749.66 1435.09 755.11 1433.03 763.20   Q 1432.01 767.26 1430.08 771.71   Q 1422.78 788.57 1410.72 802.97   Q 1396.88 819.51 1376.86 829.63   Q 1370.31 832.94 1366.58 834.11   C 1356.39 837.30 1350.39 839.50 1341.98 840.07   Q 1340.90 840.14 1331.18 841.22   Q 1327.72 841.60 1320.31 841.57   Q 1237.26 841.20 1176.23 841.38   Q 1137.47 841.50 1105.28 841.36   C 1062.62 841.18 1020.66 841.58 978.68 841.16   Q 961.29 840.99 941.57 841.19   C 914.34 841.47 883.46 840.89 857.14 841.06   Q 823.80 841.27 809.86 841.19   C 785.57 841.04 744.75 841.58 702.18 841.12   C 692.27 841.02 682.60 841.42 673.95 841.31   C 649.93 841.02 623.14 841.48 598.52 841.18   C 573.96 840.89 546.31 841.45 526.41 841.15   C 509.15 840.90 492.42 841.33 472.87 841.23   Q 446.58 841.09 409.26 841.31   Q 391.87 841.41 380.74 841.23   C 367.56 841.01 355.33 841.35 342.76 841.32   Q 299.98 841.22 255.24 841.31   C 232.75 841.36 218.29 841.15 192.26 841.16   Q 151.82 841.18 121.84 815.60   Q 111.81 807.04 108.71 803.05   Z"/>
</g></g></g></svg>