<svg xmlns="http://www.w3.org/2000/svg" direction="ltr" width="1925.1084805028513" height="3001.1947593480363" viewBox="8769.649257572308 21480.696537564345 1925.1084805028513 3001.1947593480363" stroke-linecap="round" stroke-linejoin="round" data-color-mode="light" class="tl-container tl-theme__force-sRGB tl-theme__light" style="background-color: transparent;"><defs/><g transform="matrix(0, 1, -1, 0, 10694.7577, 21480.6965)" opacity="1"><g transform="scale(1.9744702364131814, 1.9744702364131814)"><g>
<path xmlns="http://www.w3.org/2000/svg" fill="#ffcbcb" d="   M 111.00 805.56   Q 108.35 802.99 101.12 792.97   C 90.72 778.56 85.10 761.83 82.58 744.36   Q 81.53 737.04 81.42 720.16   Q 81.16 682.06 81.20 675.25   Q 81.43 636.79 81.55 599.25   Q 81.63 573.63 81.48 548.08   Q 81.30 515.28 81.34 496.92   Q 81.46 434.94 81.62 355.50   Q 81.68 327.48 81.65 319.75   Q 81.39 248.17 81.86 214.75   C 82.01 204.57 85.56 193.35 88.11 184.08   C 90.38 175.81 96.43 166.54 101.41 158.73   Q 108.31 147.92 119.35 138.37   C 136.72 123.35 157.61 113.18 180.14 111.20   Q 192.00 110.16 194.50 110.14   Q 212.89 109.98 244.50 109.99   Q 416.56 110.09 590.60 109.93   C 614.04 109.90 639.20 110.21 660.47 110.10   C 712.00 109.82 780.69 110.28 846.43 109.97   C 890.22 109.76 927.81 110.29 965.80 110.12   Q 1010.56 109.92 1035.70 109.93   Q 1223.71 109.99 1301.50 109.87   Q 1321.02 109.84 1338.49 110.96   Q 1345.06 111.38 1351.88 113.12   C 1366.95 116.98 1380.91 123.50 1393.02 132.95   C 1400.50 138.80 1407.21 144.47 1412.73 152.04   C 1415.84 156.29 1419.50 160.42 1422.35 165.62   C 1426.59 173.34 1428.80 176.96 1431.01 182.69   Q 1431.71 184.49 1431.83 184.95   Q 1435.07 197.44 1436.77 202.98   Q 1438.24 207.78 1438.39 213.00   Q 1438.71 224.51 1438.71 276.58   Q 1438.71 278.99 1438.75 285.33   Q 1438.99 315.67 1438.55 439.58   Q 1438.49 455.70 1438.75 462.93   C 1439.13 473.37 1438.44 482.34 1438.58 494.02   Q 1438.83 515.37 1438.73 540.50   Q 1438.72 545.22 1438.96 583.84   Q 1439.14 612.19 1439.08 619.67   C 1438.97 631.88 1438.95 652.68 1439.09 667.43   Q 1439.45 707.14 1438.82 729.00   Q 1438.72 732.28 1437.72 742.47   Q 1437.04 749.32 1435.22 754.99   C 1433.67 759.82 1432.62 766.03 1430.26 771.32   Q 1421.96 789.94 1409.91 803.94   Q 1393.53 822.97 1368.83 833.34   Q 1367.89 833.74 1355.90 837.38   Q 1348.38 839.67 1342.66 840.03   C 1336.80 840.40 1329.27 841.62 1321.76 841.58   Q 1242.30 841.17 1170.45 841.40   C 1121.23 841.55 1072.66 841.14 1019.64 841.36   Q 1006.84 841.42 978.91 841.15   C 952.82 840.89 920.15 841.33 888.84 841.05   C 866.78 840.86 846.47 841.20 823.05 841.17   Q 785.62 841.11 722.23 841.24   C 713.13 841.26 699.91 840.96 688.75 841.16   Q 681.76 841.29 675.24 841.28   Q 497.35 841.03 393.00 841.21   Q 376.57 841.23 367.50 841.30   Q 353.29 841.41 329.18 841.30   C 296.56 841.16 270.45 841.38 237.25 841.25   Q 215.02 841.15 193.25 841.20   C 180.66 841.23 167.22 839.45 155.04 834.99   Q 136.80 828.32 121.38 815.35   Q 119.06 813.40 111.00 805.56   Z"/>
</g></g></g></svg>