<svg xmlns="http://www.w3.org/2000/svg" direction="ltr" width="256" height="256" viewBox="14975.319190468474 21771.456941462868 256 256" stroke-linecap="round" stroke-linejoin="round" data-color-mode="light" class="tl-container tl-theme__force-sRGB tl-theme__light" style="background-color: transparent;"><defs/><g transform="matrix(1, 0, 0, 1, 14975.3192, 21771.4569)" opacity="1"><g transform="scale(1, 1)"><g><path xmlns="http://www.w3.org/2000/svg" d="M200,40a8,8,0,0,0,0,16,16,16,0,0,1,16,16v58.08A44,44,0,0,0,145.68,152H110.32A44,44,0,0,0,40,130.08V72A16,16,0,0,1,56,56a8,8,0,0,0,0-16A32,32,0,0,0,24,72v92a44,44,0,0,0,87.81,4h32.38A44,44,0,0,0,232,164V72A32,32,0,0,0,200,40ZM68,192a28,28,0,1,1,28-28A28,28,0,0,1,68,192Zm120,0a28,28,0,1,1,28-28A28,28,0,0,1,188,192Z"/></g></g></g></svg>