<svg xmlns="http://www.w3.org/2000/svg" direction="ltr" width="256" height="256" viewBox="7513.090198826945 20948.456941462857 256 256" stroke-linecap="round" stroke-linejoin="round" data-color-mode="light" class="tl-container tl-theme__force-sRGB tl-theme__light" style="background-color: transparent;"><defs/><g transform="matrix(1, 0, 0, 1, 7513.0902, 20948.4569)" opacity="1"><g transform="scale(1, 1)"><g><path xmlns="http://www.w3.org/2000/svg" d="M248,64H8A8,8,0,0,0,8,80h8V192a8,8,0,0,0,16,0V144H224v48a8,8,0,0,0,16,0V80h8a8,8,0,0,0,0-16ZM32,80h88v48H32Zm192,48H136V80h88ZM96,104a8,8,0,0,1-8,8H64a8,8,0,0,1,0-16H88A8,8,0,0,1,96,104Zm64,0a8,8,0,0,1,8-8h24a8,8,0,0,1,0,16H168A8,8,0,0,1,160,104Z"/></g></g></g></svg>