<svg xmlns="http://www.w3.org/2000/svg" direction="ltr" width="256" height="256" viewBox="8716.14443907837 20948.456941462857 256 256" stroke-linecap="round" stroke-linejoin="round" data-color-mode="light" class="tl-container tl-theme__force-sRGB tl-theme__light" style="background-color: transparent;"><defs/><g transform="matrix(1, 0, 0, 1, 8716.1444, 20948.4569)" opacity="1"><g transform="scale(1, 1)"><g><path xmlns="http://www.w3.org/2000/svg" d="M228.12,17.14a8,8,0,0,0-7.88-.2L102,80H32A16,16,0,0,0,16,96V200a16,16,0,0,0,16,16h88a16,16,0,0,0,16-16V168a7.81,7.81,0,0,0-.34-2.3L113.54,92,216,37.33V160H200v-8a8,8,0,0,0-16,0v8a16,16,0,0,0,16,16h16a16,16,0,0,0,16-16V24A8,8,0,0,0,228.12,17.14ZM98.05,96l19.2,64H64V96ZM48,96v64H32V96ZM32,200h0V176h88v24Z"/></g></g></g></svg>