<svg xmlns="http://www.w3.org/2000/svg" direction="ltr" width="256" height="256" viewBox="7881.590198826945 23948.533656491018 256 256" stroke-linecap="round" stroke-linejoin="round" data-color-mode="light" class="tl-container tl-theme__force-sRGB tl-theme__light" style="background-color: transparent;"><defs/><g transform="matrix(1, 0, 0, 1, 7881.5902, 23948.5337)" opacity="1"><g transform="scale(1, 1)"><g><path xmlns="http://www.w3.org/2000/svg" d="M184,24H72A16,16,0,0,0,56,40V76a16.07,16.07,0,0,0,6.4,12.8L114.67,128,62.4,167.2A16.07,16.07,0,0,0,56,180v36a16,16,0,0,0,16,16H184a16,16,0,0,0,16-16V180.36a16.09,16.09,0,0,0-6.35-12.77L141.27,128l52.38-39.6A16.05,16.05,0,0,0,200,75.64V40A16,16,0,0,0,184,24Zm0,16V56H72V40Zm0,176H72V180l56-42,56,42.35Zm-56-98L72,76V72H184v3.64Z"/></g></g></g></svg>