<svg xmlns="http://www.w3.org/2000/svg" direction="ltr" width="256" height="256" viewBox="14979.60899276814 22574.20694146288 256 256" stroke-linecap="round" stroke-linejoin="round" data-color-mode="light" class="tl-container tl-theme__force-sRGB tl-theme__light" style="background-color: transparent;"><defs/><g transform="matrix(1, 0, 0, 1, 14979.609, 22574.2069)" opacity="1"><g transform="scale(1, 1)"><g><path xmlns="http://www.w3.org/2000/svg" d="M219.31,108.68l-80-80a16,16,0,0,0-22.62,0l-80,80A15.87,15.87,0,0,0,32,120v96a8,8,0,0,0,8,8H216a8,8,0,0,0,8-8V120A15.87,15.87,0,0,0,219.31,108.68ZM208,208H48V120l80-80,80,80Z"/></g></g></g></svg>