<svg xmlns="http://www.w3.org/2000/svg" direction="ltr" width="2852" height="916.7940485512918" viewBox="17651.927316773083 8462.287895806627 2852 916.7940485512918" stroke-linecap="round" stroke-linejoin="round" data-color-mode="light" class="tl-container tl-theme__force-sRGB tl-theme__light" style="background-color: transparent;"><defs/><g transform="matrix(1, 0, 0, 1, 17651.9273, 8462.2879)" opacity="1"><g transform="scale(1.1166797180892718, 1.1166797180892716)"><g>
<g xmlns="http://www.w3.org/2000/svg" stroke-width="2.00" fill="none" stroke-linecap="butt">
<path stroke="#acafb2" vector-effect="non-scaling-stroke" d="   M 2304.08 276.13   Q 2295.14 277.84 2285.86 277.56   Q 2278.89 277.36 2277.63 277.42   C 2271.08 277.71 2264.69 277.39 2257.95 277.39   Q 2038.93 277.54 2007.75 277.55   Q 1990.15 277.56 1974.50 277.56   Q 1819.50 277.53 1652.00 277.36   Q 1561.62 277.26 1427.25 277.64   Q 1403.36 277.71 1384.41 277.55   Q 1354.35 277.30 1341.59 277.50   C 1315.29 277.90 1289.85 277.38 1258.57 277.37   Q 1156.79 277.36 1075.75 277.36   Q 1041.41 277.36 1007.07 277.46   C 954.60 277.61 900.94 277.25 848.60 277.48   C 800.89 277.69 761.53 277.26 714.19 277.67   C 685.25 277.91 641.67 277.53 603.43 277.65   C 580.69 277.72 564.31 277.18 544.75 277.51   Q 534.45 277.68 500.74 277.64   Q 331.29 277.43 285.51 277.31   A 0.68 0.67 -89.6 0 0 284.83 277.99   L 285.25 715.94"/>
<path stroke="#acafb2" vector-effect="non-scaling-stroke" d="   M 2304.12 286.46   L 2304.16 287.97"/>
<path stroke="#acafb2" vector-effect="non-scaling-stroke" d="   M 2304.08 342.00   L 2304.09 342.97"/>
<path stroke="#acafb2" vector-effect="non-scaling-stroke" d="   M 2304.08 489.03   L 2304.06 491.54"/>
</g>
<path xmlns="http://www.w3.org/2000/svg" fill="#949799" d="   M 2304.08 276.13   Q 2295.14 277.84 2285.86 277.56   Q 2278.89 277.36 2277.63 277.42   C 2271.08 277.71 2264.69 277.39 2257.95 277.39   Q 2038.93 277.54 2007.75 277.55   Q 1990.15 277.56 1974.50 277.56   Q 1819.50 277.53 1652.00 277.36   Q 1561.62 277.26 1427.25 277.64   Q 1403.36 277.71 1384.41 277.55   Q 1354.35 277.30 1341.59 277.50   C 1315.29 277.90 1289.85 277.38 1258.57 277.37   Q 1156.79 277.36 1075.75 277.36   Q 1041.41 277.36 1007.07 277.46   C 954.60 277.61 900.94 277.25 848.60 277.48   C 800.89 277.69 761.53 277.26 714.19 277.67   C 685.25 277.91 641.67 277.53 603.43 277.65   C 580.69 277.72 564.31 277.18 544.75 277.51   Q 534.45 277.68 500.74 277.64   Q 331.29 277.43 285.51 277.31   A 0.68 0.67 -89.6 0 0 284.83 277.99   L 285.25 715.94   Q 264.07 716.05 252.02 715.76   Q 250.97 715.73 249.33 715.02   A 0.61 0.60 -71.8 0 1 248.98 714.32   Q 250.02 710.14 250.05 709.26   Q 250.35 700.49 250.69 694.11   Q 250.94 689.26 251.29 686.85   C 251.89 682.81 251.21 678.91 251.34 674.72   Q 251.40 672.67 251.72 651.75   C 251.75 649.71 252.42 646.14 252.43 643.45   Q 252.44 640.86 252.32 624.81   A 6.29 6.23 -40.3 0 1 252.43 623.54   Q 252.83 621.29 252.79 619.00   Q 252.64 609.51 253.11 586.76   Q 253.20 582.64 252.89 579.74   C 252.11 572.37 252.53 564.47 252.40 557.63   Q 252.26 550.28 252.37 544.87   Q 252.56 535.61 252.22 532.04   Q 251.64 526.06 252.21 519.98   Q 252.47 517.25 252.33 507.86   C 252.23 500.74 253.25 493.71 252.58 485.85   A 15.28 14.63 -46.0 0 1 252.59 483.12   Q 253.28 475.55 252.78 466.73   Q 252.25 457.55 252.29 456.25   C 252.43 451.05 251.85 447.06 251.93 442.25   Q 252.12 431.22 251.87 427.57   Q 251.27 418.55 251.54 412.92   Q 251.89 405.78 251.48 391.46   Q 251.27 384.16 251.14 370.02   Q 250.91 345.66 250.80 324.25   C 250.69 304.26 250.11 282.20 249.84 261.25   Q 249.72 252.05 249.10 245.02   A 1.67 1.67 0.0 0 1 250.61 243.22   Q 255.48 242.78 266.00 242.80   Q 334.20 242.94 403.75 242.92   Q 1584.35 242.74 2295.00 242.57   Q 2297.19 242.57 2302.68 243.02   A 1.32 1.32 0.0 0 1 2303.89 244.32   L 2304.08 276.13   Z"/>
<path xmlns="http://www.w3.org/2000/svg" fill="#c3c6ca" d="   M 2304.08 276.13   L 2304.12 286.46   L 2304.16 287.97   L 2304.08 342.00   L 2304.09 342.97   L 2304.08 489.03   L 2304.06 491.54   L 2304.46 714.43   A 0.74 0.73 81.4 0 1 2303.95 715.13   Q 2301.71 715.81 2299.99 715.98   C 2292.40 716.73 2286.57 716.17 2278.29 716.16   Q 2187.27 716.05 2096.25 716.04   Q 1575.34 715.98 1124.00 715.95   Q 704.68 715.91 285.25 715.94   L 284.83 277.99   A 0.68 0.67 -89.6 0 1 285.51 277.31   Q 331.29 277.43 500.74 277.64   Q 534.45 277.68 544.75 277.51   C 564.31 277.18 580.69 277.72 603.43 277.65   C 641.67 277.53 685.25 277.91 714.19 277.67   C 761.53 277.26 800.89 277.69 848.60 277.48   C 900.94 277.25 954.60 277.61 1007.07 277.46   Q 1041.41 277.36 1075.75 277.36   Q 1156.79 277.36 1258.57 277.37   C 1289.85 277.38 1315.29 277.90 1341.59 277.50   Q 1354.35 277.30 1384.41 277.55   Q 1403.36 277.71 1427.25 277.64   Q 1561.62 277.26 1652.00 277.36   Q 1819.50 277.53 1974.50 277.56   Q 1990.15 277.56 2007.75 277.55   Q 2038.93 277.54 2257.95 277.39   C 2264.69 277.39 2271.08 277.71 2277.63 277.42   Q 2278.89 277.36 2285.86 277.56   Q 2295.14 277.84 2304.08 276.13   Z"/>
<path xmlns="http://www.w3.org/2000/svg" fill="#949799" d="   M 2304.12 286.46   L 2304.16 287.97   L 2304.12 286.46   Z"/>
<path xmlns="http://www.w3.org/2000/svg" fill="#949799" d="   M 2304.09 342.97   L 2304.08 342.00   Q 2304.21 342.46 2304.09 342.97   Z"/>
<path xmlns="http://www.w3.org/2000/svg" fill="#949799" d="   M 2304.06 491.54   L 2304.08 489.03   L 2304.06 491.54   Z"/>
</g></g></g></svg>