<svg xmlns="http://www.w3.org/2000/svg" direction="ltr" width="1051.882291079602" height="912.2045761982181" viewBox="11472.919063521105 12851.49234190291 1051.882291079602 912.2045761982181" stroke-linecap="round" stroke-linejoin="round" data-color-mode="light" class="tl-container tl-theme__force-sRGB tl-theme__light" style="background-color: transparent;"><defs/><g transform="matrix(0.9998, -0.0175, 0.0175, 0.9998, 11271.343, 12035.1113)" opacity="1"><g transform="scale(1.3435717091322035, 1.3435717091322035)"><g>
<g xmlns="http://www.w3.org/2000/svg" stroke-width="2.00" fill="none" stroke-linecap="butt">
<path stroke="#9ebc91" vector-effect="non-scaling-stroke" d="   M 457.41 664.22   Q 459.24 665.59 461.01 665.56   Q 484.33 665.18 507.60 665.37   Q 538.25 665.62 553.42 665.50   Q 586.69 665.23 599.25 665.51   Q 604.89 665.64 613.35 665.48   Q 618.09 665.39 618.15 665.38   Q 663.78 665.28 710.25 665.26   Q 728.13 665.25 755.69 665.31   Q 815.70 665.42 831.46 665.38   Q 837.19 665.36 851.23 665.87   Q 853.92 665.97 871.50 665.20   Q 878.00 664.92 884.19 666.76   A 4.93 4.85 -34.1 0 0 885.17 666.94   Q 894.06 667.59 902.51 671.58"/>
<path stroke="#509b5e" vector-effect="non-scaling-stroke" d="   M 928.37 772.23   Q 925.12 764.00 922.02 755.71   Q 920.73 752.26 918.60 749.40   C 914.93 744.45 911.67 739.66 906.55 735.76   Q 901.78 732.13 896.53 729.49   Q 894.70 728.58 890.02 727.33   Q 886.69 726.44 883.49 725.15"/>
<path stroke="#9ebc91" vector-effect="non-scaling-stroke" d="   M 883.49 725.15   Q 884.58 724.61 884.58 723.50   Q 884.60 704.65 884.57 690.63   A 0.51 0.51 0.0 0 0 884.06 690.12   L 198.31 690.12   A 0.49 0.49 0.0 0 0 197.82 690.61   L 197.86 724.81"/>
<path stroke="#509b5e" vector-effect="non-scaling-stroke" d="   M 197.86 724.81   Q 197.89 726.16 196.26 726.57   Q 178.77 730.96 168.42 743.93   Q 164.79 748.48 158.97 760.20   Q 157.90 762.35 155.90 769.84   A 2.69 2.64 -20.8 0 1 155.50 770.71   L 154.07 772.74"/>
<path stroke="#a5cb9b" vector-effect="non-scaling-stroke" d="   M 883.49 725.15   Q 881.06 724.65 875.75 724.65   Q 541.13 724.66 206.50 724.79   Q 202.44 724.79 197.86 724.81"/>
</g>
<path xmlns="http://www.w3.org/2000/svg" fill="#498c54" d="   M 457.41 664.22   Q 459.24 665.59 461.01 665.56   Q 484.33 665.18 507.60 665.37   Q 538.25 665.62 553.42 665.50   Q 586.69 665.23 599.25 665.51   Q 604.89 665.64 613.35 665.48   Q 618.09 665.39 618.15 665.38   Q 663.78 665.28 710.25 665.26   Q 728.13 665.25 755.69 665.31   Q 815.70 665.42 831.46 665.38   Q 837.19 665.36 851.23 665.87   Q 853.92 665.97 871.50 665.20   Q 878.00 664.92 884.19 666.76   A 4.93 4.85 -34.1 0 0 885.17 666.94   Q 894.06 667.59 902.51 671.58   Q 905.77 672.78 908.87 675.12   Q 928.19 689.68 928.40 714.22   Q 928.65 743.21 928.37 772.23   Q 925.12 764.00 922.02 755.71   Q 920.73 752.26 918.60 749.40   C 914.93 744.45 911.67 739.66 906.55 735.76   Q 901.78 732.13 896.53 729.49   Q 894.70 728.58 890.02 727.33   Q 886.69 726.44 883.49 725.15   Q 884.58 724.61 884.58 723.50   Q 884.60 704.65 884.57 690.63   A 0.51 0.51 0.0 0 0 884.06 690.12   L 198.31 690.12   A 0.49 0.49 0.0 0 0 197.82 690.61   L 197.86 724.81   Q 197.89 726.16 196.26 726.57   Q 178.77 730.96 168.42 743.93   Q 164.79 748.48 158.97 760.20   Q 157.90 762.35 155.90 769.84   A 2.69 2.64 -20.8 0 1 155.50 770.71   L 154.07 772.74   Q 154.76 762.99 154.67 753.25   Q 154.23 707.39 154.59 676.25   C 154.72 665.48 157.18 655.69 161.70 643.93   Q 165.97 632.78 173.64 626.16   Q 175.98 624.14 183.60 618.82   C 188.78 615.20 196.76 613.90 204.94 612.87   Q 214.87 611.62 218.75 611.66   C 247.83 612.02 273.29 611.69 301.50 611.84   Q 335.09 612.02 389.52 611.79   Q 404.55 611.73 404.97 611.74   Q 410.93 611.97 420.08 614.94   Q 423.40 616.02 427.58 618.73   Q 434.65 623.32 434.66 623.33   Q 442.55 630.27 446.82 637.68   Q 448.47 640.53 452.20 650.90   Q 454.58 657.53 457.41 664.22   Z"/>
<path xmlns="http://www.w3.org/2000/svg" fill="#f2ebce" d="   M 902.51 671.58   Q 894.06 667.59 885.17 666.94   A 4.93 4.85 -34.1 0 1 884.19 666.76   Q 878.00 664.92 871.50 665.20   Q 853.92 665.97 851.23 665.87   Q 837.19 665.36 831.46 665.38   Q 815.70 665.42 755.69 665.31   Q 728.13 665.25 710.25 665.26   Q 663.78 665.28 618.15 665.38   Q 618.09 665.39 613.35 665.48   Q 604.89 665.64 599.25 665.51   Q 586.69 665.23 553.42 665.50   Q 538.25 665.62 507.60 665.37   Q 484.33 665.18 461.01 665.56   Q 459.24 665.59 457.41 664.22   Q 466.71 664.08 476.14 663.91   Q 485.42 663.75 494.86 663.80   Q 585.16 664.19 680.16 663.82   C 691.30 663.77 705.74 663.93 717.50 663.89   Q 747.49 663.79 866.05 663.96   Q 876.51 663.98 881.43 664.68   Q 888.63 665.71 896.36 668.41   Q 899.97 669.68 902.51 671.58   Z"/>
<path xmlns="http://www.w3.org/2000/svg" fill="#f2ebce" d="   M 883.49 725.15   Q 881.06 724.65 875.75 724.65   Q 541.13 724.66 206.50 724.79   Q 202.44 724.79 197.86 724.81   L 197.82 690.61   A 0.49 0.49 0.0 0 1 198.31 690.12   L 884.06 690.12   A 0.51 0.51 0.0 0 1 884.57 690.63   Q 884.60 704.65 884.58 723.50   Q 884.58 724.61 883.49 725.15   Z"/>
<path xmlns="http://www.w3.org/2000/svg" fill="#57aa67" d="   M 883.49 725.15   Q 886.69 726.44 890.02 727.33   Q 894.70 728.58 896.53 729.49   Q 901.78 732.13 906.55 735.76   C 911.67 739.66 914.93 744.45 918.60 749.40   Q 920.73 752.26 922.02 755.71   Q 925.12 764.00 928.37 772.23   C 928.70 844.18 928.14 926.45 928.48 987.93   C 928.93 1069.57 928.38 1142.36 928.03 1229.67   Q 927.98 1242.97 928.13 1251.84   Q 928.42 1268.90 928.21 1274.00   Q 928.05 1278.03 926.90 1280.96   A 2.54 2.53 12.8 0 1 924.35 1282.56   Q 917.49 1282.05 911.50 1282.04   C 803.60 1281.90 631.60 1282.55 475.01 1282.28   Q 313.32 1282.00 275.25 1281.98   Q 230.89 1281.96 174.25 1282.07   Q 168.80 1282.08 156.45 1282.11   A 0.84 0.84 0.0 0 1 155.71 1281.67   Q 154.03 1278.59 154.09 1276.38   Q 154.19 1272.22 154.19 1265.00   Q 154.20 1149.21 154.29 1057.25   Q 154.44 914.96 154.07 772.74   L 155.50 770.71   A 2.69 2.64 -20.8 0 0 155.90 769.84   Q 157.90 762.35 158.97 760.20   Q 164.79 748.48 168.42 743.93   Q 178.77 730.96 196.26 726.57   Q 197.89 726.16 197.86 724.81   Q 202.44 724.79 206.50 724.79   Q 541.13 724.66 875.75 724.65   Q 881.06 724.65 883.49 725.15   Z"/>
</g></g></g></svg>