<svg xmlns="http://www.w3.org/2000/svg" direction="ltr" width="1044.776873331977" height="879.8948215290619" viewBox="11497.440042971839 13447.545694381295 1044.776873331977 879.8948215290619" stroke-linecap="round" stroke-linejoin="round" data-color-mode="light" class="tl-container tl-theme__force-sRGB tl-theme__light" style="background-color: transparent;"><defs/><g transform="matrix(1, 0, 0, 1, 11424.0854, 13289.8466)" opacity="1"><g transform="scale(1.164174622628785, 1.164174622628785)"><g>
<g xmlns="http://www.w3.org/2000/svg" stroke-width="2.00" fill="none" stroke-linecap="butt">
<path stroke="#9cca52" vector-effect="non-scaling-stroke" d="   M 956.36 317.40   Q 953.85 307.16 949.89 299.86   Q 940.87 283.26 923.77 273.74   Q 917.23 270.10 906.44 267.69"/>
<path stroke="#bcd08c" vector-effect="non-scaling-stroke" d="   M 906.44 267.69   L 906.47 227.64   A 0.55 0.55 0.0 0 0 905.92 227.09   L 117.60 227.09   A 0.43 0.42 90.0 0 0 117.18 227.52   L 117.16 267.62"/>
<path stroke="#9cca52" vector-effect="non-scaling-stroke" d="   M 117.16 267.62   Q 117.15 268.29 115.63 268.68   Q 112.23 269.55 108.86 270.50   Q 96.79 273.88 87.76 282.51   Q 74.09 295.56 67.61 315.56"/>
<path stroke="#cee49f" vector-effect="non-scaling-stroke" d="   M 906.44 267.69   L 117.16 267.62"/>
</g>
<path xmlns="http://www.w3.org/2000/svg" fill="#8ab63f" d="   M 956.36 317.40   Q 953.85 307.16 949.89 299.86   Q 940.87 283.26 923.77 273.74   Q 917.23 270.10 906.44 267.69   L 906.47 227.64   A 0.55 0.55 0.0 0 0 905.92 227.09   L 117.60 227.09   A 0.43 0.42 90.0 0 0 117.18 227.52   L 117.16 267.62   Q 117.15 268.29 115.63 268.68   Q 112.23 269.55 108.86 270.50   Q 96.79 273.88 87.76 282.51   Q 74.09 295.56 67.61 315.56   Q 67.03 303.52 67.14 290.50   Q 67.33 268.90 67.37 214.12   Q 67.39 194.60 75.86 175.77   C 82.37 161.33 91.26 151.69 105.41 145.36   Q 113.23 141.87 122.27 140.50   Q 128.02 139.63 139.79 139.64   Q 301.00 139.71 347.50 139.49   C 353.99 139.46 360.29 140.34 366.53 141.87   Q 385.46 146.49 397.02 162.48   C 400.13 166.78 403.45 173.81 405.77 180.14   Q 406.35 181.74 411.12 194.59   C 412.17 197.40 412.26 199.18 416.00 199.18   Q 736.49 199.02 850.00 199.04   Q 887.27 199.05 898.74 199.23   Q 912.48 199.46 925.44 206.06   Q 945.24 216.15 952.53 236.97   Q 956.22 247.51 956.28 259.50   Q 956.45 288.21 956.36 317.40   Z"/>
<path xmlns="http://www.w3.org/2000/svg" fill="#eeead9" d="   M 906.44 267.69   L 117.16 267.62   L 117.18 227.52   A 0.43 0.42 -90.0 0 1 117.60 227.09   L 905.92 227.09   A 0.55 0.55 0.0 0 1 906.47 227.64   L 906.44 267.69   Z"/>
<path xmlns="http://www.w3.org/2000/svg" fill="#aedd65" d="   M 906.44 267.69   Q 917.23 270.10 923.77 273.74   Q 940.87 283.26 949.89 299.86   Q 953.85 307.16 956.36 317.40   L 956.30 886.17   A 1.10 1.09 90.0 0 1 955.21 887.27   L 69.23 887.27   A 2.14 2.14 0.0 0 1 67.09 885.11   Q 67.39 858.44 67.35 834.02   C 67.09 674.41 67.41 488.02 67.33 349.92   Q 67.33 349.84 67.14 335.08   Q 67.01 324.77 67.61 315.56   Q 74.09 295.56 87.76 282.51   Q 96.79 273.88 108.86 270.50   Q 112.23 269.55 115.63 268.68   Q 117.15 268.29 117.16 267.62   L 906.44 267.69   Z"/>
</g></g></g></svg>