<svg xmlns="http://www.w3.org/2000/svg" direction="ltr" width="1021.2016384119444" height="870.833047345679" viewBox="11538.2369235789 11402.120970338674 1021.2016384119444 870.833047345679" stroke-linecap="round" stroke-linejoin="round" data-color-mode="light" class="tl-container tl-theme__force-sRGB tl-theme__light" style="background-color: transparent;"><defs/><g transform="matrix(1, 0, 0, 1, 11465.9844, 11245.4448)" opacity="1"><g transform="scale(1.1385522152363556, 1.1385522152363556)"><g>
<g xmlns="http://www.w3.org/2000/svg" stroke-width="2.00" fill="none" stroke-linecap="butt">
<path stroke="#e07f99" vector-effect="non-scaling-stroke" d="   M 956.25 318.21   Q 951.64 306.17 949.97 303.05   Q 941.68 287.59 924.80 277.46   Q 916.29 272.35 906.22 271.15"/>
<path stroke="#e5b3af" vector-effect="non-scaling-stroke" d="   M 906.22 271.15   L 906.18 230.06   A 0.51 0.51 0.0 0 0 905.67 229.55   L 118.46 229.55   A 0.50 0.50 0.0 0 0 117.96 230.05   L 117.94 270.91"/>
<path stroke="#e07f99" vector-effect="non-scaling-stroke" d="   M 117.94 270.91   Q 114.24 272.07 110.29 273.17   Q 105.08 274.62 102.73 275.63   C 89.78 281.21 79.89 292.87 73.33 304.88   C 71.93 307.44 70.74 311.40 69.42 315.02   A 0.96 0.17 -80.0 0 0 69.38 315.13   L 67.60 322.54"/>
<path stroke="#f3bdba" vector-effect="non-scaling-stroke" d="   M 906.22 271.15   Q 903.14 270.58 897.00 270.58   Q 512.25 270.59 127.50 270.58   Q 121.81 270.58 117.94 270.91"/>
</g>
<path xmlns="http://www.w3.org/2000/svg" fill="#d2758e" d="   M 956.25 318.21   Q 951.64 306.17 949.97 303.05   Q 941.68 287.59 924.80 277.46   Q 916.29 272.35 906.22 271.15   L 906.18 230.06   A 0.51 0.51 0.0 0 0 905.67 229.55   L 118.46 229.55   A 0.50 0.50 0.0 0 0 117.96 230.05   L 117.94 270.91   Q 114.24 272.07 110.29 273.17   Q 105.08 274.62 102.73 275.63   C 89.78 281.21 79.89 292.87 73.33 304.88   C 71.93 307.44 70.74 311.40 69.42 315.02   A 0.96 0.17 -80.0 0 0 69.38 315.13   L 67.60 322.54   C 67.46 292.52 67.70 262.51 67.61 232.45   Q 67.55 210.64 68.74 203.13   Q 71.03 188.72 77.38 175.13   C 81.26 166.80 87.54 159.28 95.32 153.56   Q 111.55 141.64 134.49 141.66   Q 205.33 141.70 340.76 141.62   Q 357.93 141.61 364.61 143.16   Q 386.09 148.16 398.47 166.53   C 402.73 172.84 405.99 181.43 408.64 189.07   Q 410.06 193.16 412.66 200.47   A 2.20 2.20 0.0 0 0 414.76 201.93   Q 430.25 201.71 447.00 201.70   Q 600.69 201.58 869.01 201.69   Q 879.59 201.69 896.95 201.85   Q 921.89 202.08 939.17 218.89   Q 951.03 230.43 954.84 246.61   Q 956.35 253.00 956.36 268.05   Q 956.38 293.13 956.25 318.21   Z"/>
<path xmlns="http://www.w3.org/2000/svg" fill="#f8f0cf" d="   M 906.22 271.15   Q 903.14 270.58 897.00 270.58   Q 512.25 270.59 127.50 270.58   Q 121.81 270.58 117.94 270.91   L 117.96 230.05   A 0.50 0.50 0.0 0 1 118.46 229.55   L 905.67 229.55   A 0.51 0.51 0.0 0 1 906.18 230.06   L 906.22 271.15   Z"/>
<path xmlns="http://www.w3.org/2000/svg" fill="#ee89a4" d="   M 906.22 271.15   Q 916.29 272.35 924.80 277.46   Q 941.68 287.59 949.97 303.05   Q 951.64 306.17 956.25 318.21   L 956.39 897.14   A 1.33 1.32 90.0 0 1 955.07 898.47   L 68.74 898.47   A 1.26 1.25 -90.0 0 1 67.49 897.21   L 67.60 322.54   L 69.38 315.13   A 0.96 0.17 -80.0 0 1 69.42 315.02   C 70.74 311.40 71.93 307.44 73.33 304.88   C 79.89 292.87 89.78 281.21 102.73 275.63   Q 105.08 274.62 110.29 273.17   Q 114.24 272.07 117.94 270.91   Q 121.81 270.58 127.50 270.58   Q 512.25 270.59 897.00 270.58   Q 903.14 270.58 906.22 271.15   Z"/>
</g></g></g></svg>