<svg xmlns="http://www.w3.org/2000/svg" direction="ltr" width="1023.0076453035714" height="886.2074856790812" viewBox="11504.182373528176 11475.909080636662 1023.0076453035714 886.2074856790812" stroke-linecap="round" stroke-linejoin="round" data-color-mode="light" class="tl-container tl-theme__force-sRGB tl-theme__light" style="background-color: transparent;"><defs/><g transform="matrix(1, 0, 0, 1, 11316.7628, 10682.4888)" opacity="1"><g transform="scale(1.2903240862525023, 1.2903240862525025)"><g>
<g xmlns="http://www.w3.org/2000/svg" stroke-width="2.00" fill="none" stroke-linecap="butt">
<path stroke="#e97624" vector-effect="non-scaling-stroke" d="   M 865.71 672.15   C 873.52 672.93 882.24 672.00 889.50 673.63   Q 899.58 675.89 911.17 681.35"/>
<path stroke="#e97624" vector-effect="non-scaling-stroke" d="   M 933.93 777.47   Q 932.53 775.34 931.49 773.05   Q 926.34 761.71 917.83 750.54   C 911.92 742.80 903.23 738.77 894.47 735.81   Q 892.56 735.16 889.07 732.85"/>
<path stroke="#e8a976" vector-effect="non-scaling-stroke" d="   M 889.07 732.85   L 889.06 698.44   A 0.36 0.36 0.0 0 0 888.70 698.08   L 194.83 698.08   A 0.30 0.30 0.0 0 0 194.53 698.38   L 194.62 732.94"/>
<path stroke="#e97624" vector-effect="non-scaling-stroke" d="   M 194.62 732.94   C 179.06 737.95 165.71 749.67 158.21 764.22   Q 155.69 769.09 153.51 774.06   A 1.83 1.77 86.0 0 1 152.89 774.80   L 149.97 776.81"/>
<path stroke="#edb575" vector-effect="non-scaling-stroke" d="   M 889.07 732.85   L 194.62 732.94"/>
</g>
<path xmlns="http://www.w3.org/2000/svg" fill="#e46a25" d="   M 865.71 672.15   C 873.52 672.93 882.24 672.00 889.50 673.63   Q 899.58 675.89 911.17 681.35   Q 919.24 685.50 924.21 692.28   C 931.94 702.82 933.93 713.64 933.94 726.50   Q 933.97 751.97 933.93 777.47   Q 932.53 775.34 931.49 773.05   Q 926.34 761.71 917.83 750.54   C 911.92 742.80 903.23 738.77 894.47 735.81   Q 892.56 735.16 889.07 732.85   L 889.06 698.44   A 0.36 0.36 0.0 0 0 888.70 698.08   L 194.83 698.08   A 0.30 0.30 0.0 0 0 194.53 698.38   L 194.62 732.94   C 179.06 737.95 165.71 749.67 158.21 764.22   Q 155.69 769.09 153.51 774.06   A 1.83 1.77 86.0 0 1 152.89 774.80   L 149.97 776.81   Q 149.66 736.89 150.03 697.00   Q 150.20 678.47 151.47 672.08   Q 153.88 660.01 159.42 648.41   Q 163.78 639.30 171.68 632.42   Q 174.44 630.01 179.25 626.90   C 191.45 619.03 204.58 619.55 220.23 619.29   Q 243.07 618.90 302.50 619.05   Q 375.90 619.22 399.01 619.23   Q 408.04 619.24 412.95 620.35   Q 420.32 622.02 425.99 625.34   C 436.62 631.57 445.73 639.98 449.61 651.14   Q 451.01 655.18 454.74 666.54   C 456.01 670.42 457.67 673.31 462.01 672.96   C 476.96 671.77 490.79 672.38 507.04 672.28   Q 519.17 672.20 532.59 672.23   Q 661.83 672.50 801.09 672.29   C 816.07 672.27 844.16 671.89 865.71 672.15   Z"/>
<path xmlns="http://www.w3.org/2000/svg" fill="#ed8123" d="   M 911.17 681.35   Q 899.58 675.89 889.50 673.63   C 882.24 672.00 873.52 672.93 865.71 672.15   Q 880.82 671.87 884.68 672.12   Q 897.70 672.95 911.17 681.35   Z"/>
<path xmlns="http://www.w3.org/2000/svg" fill="#ece8c7" d="   M 889.07 732.85   L 194.62 732.94   L 194.53 698.38   A 0.30 0.30 0.0 0 1 194.83 698.08   L 888.70 698.08   A 0.36 0.36 0.0 0 1 889.06 698.44   L 889.07 732.85   Z"/>
<path xmlns="http://www.w3.org/2000/svg" fill="#ed8123" d="   M 889.07 732.85   Q 892.56 735.16 894.47 735.81   C 903.23 738.77 911.92 742.80 917.83 750.54   Q 926.34 761.71 931.49 773.05   Q 932.53 775.34 933.93 777.47   Q 933.73 796.10 933.72 814.75   Q 933.68 916.69 933.65 1013.50   Q 933.61 1212.08 933.64 1247.82   C 933.65 1259.15 933.95 1278.15 934.06 1290.50   Q 934.08 1292.38 932.66 1296.52   A 0.85 0.83 -82.8 0 1 931.95 1297.08   Q 928.20 1297.47 927.99 1297.44   Q 922.30 1296.72 917.51 1296.80   C 887.81 1297.26 861.31 1296.65 830.17 1296.76   C 790.41 1296.89 761.75 1297.12 728.62 1297.01   Q 717.80 1296.97 606.00 1297.05   Q 597.19 1297.05 494.75 1297.20   C 478.52 1297.23 461.74 1296.88 445.42 1297.01   Q 421.51 1297.20 386.00 1297.05   Q 375.74 1297.01 320.00 1296.83   Q 251.50 1296.62 217.00 1297.06   Q 185.03 1297.47 182.05 1297.48   C 170.72 1297.50 161.48 1297.02 151.89 1297.71   A 0.86 0.85 -10.6 0 1 151.01 1297.11   Q 150.46 1295.38 150.04 1293.45   Q 149.80 1292.32 149.80 1289.60   C 150.00 1096.43 149.86 968.23 149.90 811.00   C 149.90 799.65 149.25 788.12 149.97 776.81   L 152.89 774.80   A 1.83 1.77 86.0 0 0 153.51 774.06   Q 155.69 769.09 158.21 764.22   C 165.71 749.67 179.06 737.95 194.62 732.94   L 889.07 732.85   Z"/>
</g></g></g></svg>