<svg xmlns="http://www.w3.org/2000/svg" direction="ltr" width="1072.748143980789" height="915.170713307446" viewBox="11492.874960765597 15363.555370800002 1072.748143980789 915.170713307446" stroke-linecap="round" stroke-linejoin="round" data-color-mode="light" class="tl-container tl-theme__force-sRGB tl-theme__light" style="background-color: transparent;"><defs/><g transform="matrix(1, 0, 0, 1, 11288.4872, 14516.7376)" opacity="1"><g transform="scale(1.3695239933368941, 1.3695239933368941)"><g>
<g xmlns="http://www.w3.org/2000/svg" stroke-width="2.00" fill="none" stroke-linecap="butt">
<path stroke="#8abbdb" vector-effect="non-scaling-stroke" d="   M 455.82 671.15   Q 455.70 674.64 458.43 676.10   Q 460.21 677.05 464.20 676.99   Q 476.52 676.81 486.25 676.43   C 493.82 676.12 505.15 676.71 511.30 676.67   Q 636.63 676.00 839.47 676.50   Q 861.46 676.55 870.76 676.29   Q 894.25 675.64 912.55 689.35"/>
<path stroke="#8abbdb" vector-effect="non-scaling-stroke" d="   M 156.72 669.63   Q 159.19 664.36 160.85 658.86   Q 166.75 639.29 185.18 629.68   Q 192.25 625.99 199.97 624.86   Q 200.39 624.80 200.37 624.37   Q 200.35 624.04 199.99 623.81"/>
<path stroke="#8abbdb" vector-effect="non-scaling-stroke" d="   M 884.51 702.02   A 0.51 0.51 0.0 0 0 884.00 701.51   L 198.34 701.51   A 0.51 0.51 0.0 0 0 197.83 702.02   L 197.83 735.12   A 0.51 0.51 0.0 0 0 198.34 735.63   L 884.00 735.63   A 0.51 0.51 0.0 0 0 884.51 735.12   L 884.51 702.02"/>
</g>
<path xmlns="http://www.w3.org/2000/svg" fill="#1f89ea" d="   M 455.82 671.15   Q 455.70 674.64 458.43 676.10   Q 460.21 677.05 464.20 676.99   Q 476.52 676.81 486.25 676.43   C 493.82 676.12 505.15 676.71 511.30 676.67   Q 636.63 676.00 839.47 676.50   Q 861.46 676.55 870.76 676.29   Q 894.25 675.64 912.55 689.35   Q 914.10 690.07 915.87 692.12   Q 927.66 705.67 928.01 723.25   Q 928.54 750.44 928.10 771.00   Q 927.96 777.25 927.96 840.50   Q 927.98 1248.78 927.98 1276.25   Q 927.98 1279.07 926.87 1281.18   A 2.35 2.33 -76.7 0 1 924.88 1282.42   C 920.15 1282.57 915.73 1281.92 910.78 1281.93   Q 670.11 1282.22 635.25 1282.29   Q 523.46 1282.51 451.00 1282.28   C 349.29 1281.95 254.28 1282.21 155.19 1282.29   A 0.68 0.68 0.0 0 1 154.54 1281.80   C 153.64 1278.67 153.24 1275.92 153.27 1272.35   Q 153.39 1259.56 153.43 1234.75   Q 153.80 1024.91 153.73 808.25   C 153.72 773.98 153.98 728.44 153.81 686.25   Q 153.78 677.87 156.72 669.63   Q 159.19 664.36 160.85 658.86   Q 166.75 639.29 185.18 629.68   Q 192.25 625.99 199.97 624.86   Q 200.39 624.80 200.37 624.37   Q 200.35 624.04 199.99 623.81   Q 216.63 622.61 224.50 622.61   Q 288.04 622.65 322.84 622.48   C 353.31 622.33 372.47 622.59 405.49 622.48   Q 412.92 622.46 417.71 624.78   Q 423.70 627.68 428.53 629.96   C 431.56 631.38 433.74 633.33 436.78 636.14   Q 447.65 646.19 451.97 659.53   Q 454.75 668.12 455.82 671.15   Z   M 884.51 702.02   A 0.51 0.51 0.0 0 0 884.00 701.51   L 198.34 701.51   A 0.51 0.51 0.0 0 0 197.83 702.02   L 197.83 735.12   A 0.51 0.51 0.0 0 0 198.34 735.63   L 884.00 735.63   A 0.51 0.51 0.0 0 0 884.51 735.12   L 884.51 702.02   Z"/>
<path xmlns="http://www.w3.org/2000/svg" fill="#f4eccc" d="   M 199.99 623.81   Q 200.35 624.04 200.37 624.37   Q 200.39 624.80 199.97 624.86   Q 192.25 625.99 185.18 629.68   Q 166.75 639.29 160.85 658.86   Q 159.19 664.36 156.72 669.63   Q 158.84 660.90 162.03 652.79   Q 164.20 647.27 167.89 642.67   Q 180.33 627.19 199.99 623.81   Z"/>
<path xmlns="http://www.w3.org/2000/svg" fill="#f4eccc" d="   M 455.82 671.15   Q 457.23 673.65 459.02 674.81   A 1.77 1.77 0.0 0 0 459.92 675.10   Q 468.09 675.42 472.50 675.27   Q 493.86 674.51 511.00 674.57   Q 527.36 674.62 623.50 674.30   Q 718.94 673.98 774.83 674.23   Q 785.31 674.27 792.66 674.18   C 800.14 674.08 807.36 674.30 816.45 674.19   Q 846.08 673.83 874.99 674.83   Q 891.90 675.41 906.30 684.00   Q 909.94 686.17 912.55 689.35   Q 894.25 675.64 870.76 676.29   Q 861.46 676.55 839.47 676.50   Q 636.63 676.00 511.30 676.67   C 505.15 676.71 493.82 676.12 486.25 676.43   Q 476.52 676.81 464.20 676.99   Q 460.21 677.05 458.43 676.10   Q 455.70 674.64 455.82 671.15   Z"/>
<rect xmlns="http://www.w3.org/2000/svg" fill="#f4eccc" x="197.83" y="701.51" width="686.68" height="34.12" rx="0.51"/>
</g></g></g></svg>