<svg xmlns="http://www.w3.org/2000/svg" direction="ltr" width="1068.6359966840732" height="900.1077230359301" viewBox="11485.12359525609 14673.062865619064 1068.6359966840732 900.1077230359301" stroke-linecap="round" stroke-linejoin="round" data-color-mode="light" class="tl-container tl-theme__force-sRGB tl-theme__light" style="background-color: transparent;"><defs/><g transform="matrix(1, 0, 0, 1, 11384.024, 14485.1062)" opacity="1"><g transform="scale(1.2406380568915125, 1.2406380568915125)"><g>
<g xmlns="http://www.w3.org/2000/svg" stroke-width="2.00" fill="none" stroke-linecap="butt">
<path stroke="#cd74e4" vector-effect="non-scaling-stroke" d="   M 938.36 317.57   L 935.08 313.79   A 9.24 8.71 -80.6 0 1 933.87 311.99   Q 931.85 308.00 930.85 306.16   C 924.09 293.63 912.57 283.10 898.62 279.71   Q 894.69 278.76 890.78 278.02"/>
<path stroke="#e0b6eb" vector-effect="non-scaling-stroke" d="   M 890.78 278.02   L 890.98 238.83   A 0.59 0.59 0.0 0 0 890.39 238.24   L 133.85 238.24   A 0.70 0.70 0.0 0 0 133.15 238.94   Q 133.25 258.37 133.15 277.50   Q 133.15 278.06 133.97 278.07"/>
<path stroke="#cd74e4" vector-effect="non-scaling-stroke" d="   M 133.97 278.07   Q 105.31 282.07 92.08 307.81   C 89.66 312.51 88.27 316.35 85.54 320.04"/>
<path stroke="#e9b9f2" vector-effect="non-scaling-stroke" d="   M 890.78 278.02   L 133.97 278.07"/>
</g>
<path xmlns="http://www.w3.org/2000/svg" fill="#c471dd" d="   M 938.36 317.57   L 935.08 313.79   A 9.24 8.71 -80.6 0 1 933.87 311.99   Q 931.85 308.00 930.85 306.16   C 924.09 293.63 912.57 283.10 898.62 279.71   Q 894.69 278.76 890.78 278.02   L 890.98 238.83   A 0.59 0.59 0.0 0 0 890.39 238.24   L 133.85 238.24   A 0.70 0.70 0.0 0 0 133.15 238.94   Q 133.25 258.37 133.15 277.50   Q 133.15 278.06 133.97 278.07   Q 105.31 282.07 92.08 307.81   C 89.66 312.51 88.27 316.35 85.54 320.04   Q 85.58 283.50 85.53 246.97   Q 85.49 220.68 86.27 215.59   Q 88.61 200.08 95.70 185.70   C 102.89 171.10 116.81 161.02 132.41 157.24   Q 138.50 155.77 153.45 155.81   Q 265.57 156.07 349.11 155.59   Q 364.28 155.50 370.80 156.90   C 381.92 159.29 394.33 166.09 400.97 175.51   C 407.71 185.06 412.10 196.70 415.55 208.60   Q 415.79 209.43 416.98 211.57   A 1.53 1.53 0.0 0 0 418.15 212.36   C 422.41 212.86 427.13 212.38 430.73 212.38   Q 618.38 212.28 871.75 212.31   Q 890.01 212.31 896.14 213.80   Q 911.09 217.44 922.64 228.69   C 932.45 238.25 937.97 254.52 938.43 268.00   Q 938.85 280.27 938.36 317.57   Z"/>
<path xmlns="http://www.w3.org/2000/svg" fill="#fcfbf8" d="   M 890.78 278.02   L 133.97 278.07   Q 133.15 278.06 133.15 277.50   Q 133.25 258.37 133.15 238.94   A 0.70 0.70 0.0 0 1 133.85 238.24   L 890.39 238.24   A 0.59 0.59 0.0 0 1 890.98 238.83   L 890.78 278.02   Z"/>
<path xmlns="http://www.w3.org/2000/svg" fill="#d676eb" d="   M 890.78 278.02   Q 894.69 278.76 898.62 279.71   C 912.57 283.10 924.09 293.63 930.85 306.16   Q 931.85 308.00 933.87 311.99   A 9.24 8.71 -80.6 0 0 935.08 313.79   L 938.36 317.57   L 938.58 870.80   A 1.71 1.70 85.7 0 1 937.14 872.49   C 933.82 873.02 930.29 872.85 926.98 872.85   Q 566.93 872.94 89.81 872.89   Q 88.43 872.89 86.64 872.53   A 1.25 1.24 5.7 0 1 85.63 871.31   L 85.54 320.04   C 88.27 316.35 89.66 312.51 92.08 307.81   Q 105.31 282.07 133.97 278.07   L 890.78 278.02   Z"/>
</g></g></g></svg>