<svg xmlns="http://www.w3.org/2000/svg" direction="ltr" width="1753.821057449275" height="1753.821057449275" viewBox="13681.399593248512 11009.364421592853 1753.821057449275 1753.821057449275" stroke-linecap="round" stroke-linejoin="round" data-color-mode="light" class="tl-container tl-theme__force-sRGB tl-theme__light" style="background-color: transparent;"><defs/><g transform="matrix(1, 0, 0, 1, 13681.3996, 11009.3644)" opacity="1"><g transform="scale(1.2112023877412126, 1.2112023877412126)"><g>
<g xmlns="http://www.w3.org/2000/svg" stroke-width="2.00" fill="none" stroke-linecap="butt">
<path stroke="#e5c979" vector-effect="non-scaling-stroke" d="   M 804.62 217.04   Q 804.56 217.80 803.51 217.01   Q 802.95 216.59 802.51 216.00   Q 798.95 211.28 796.53 208.78   A 1.68 1.58 16.7 0 1 796.13 208.09   L 795.87 207.16   A 1.71 1.71 0.0 0 0 793.21 206.24   Q 783.47 213.39 772.07 222.50   Q 764.29 228.72 751.29 238.79   Q 732.00 253.73 727.27 257.78   C 716.13 267.31 702.80 276.63 690.95 286.57   Q 681.11 294.82 668.10 304.34   Q 663.49 307.72 659.80 312.58"/>
<path stroke="#efbb17" vector-effect="non-scaling-stroke" d="   M 879.16 313.74   Q 880.83 319.41 885.56 323.68   Q 886.60 324.62 887.82 325.38   A 0.97 0.97 0.0 0 1 887.82 327.03   Q 879.85 331.96 873.23 337.45   C 860.74 347.82 847.23 357.98 824.20 375.96   Q 815.23 382.96 804.36 391.68   C 793.77 400.17 782.75 408.34 771.34 417.95   Q 769.09 419.84 761.70 425.53   Q 756.78 429.32 752.32 433.42"/>
<path stroke="#e5c979" vector-effect="non-scaling-stroke" d="   M 752.32 433.42   Q 752.50 428.02 748.12 424.27   A 3.00 2.82 3.5 0 1 747.66 423.78   L 741.19 415.03   A 0.73 0.67 -2.4 0 0 740.93 414.81   Q 739.14 413.97 737.94 412.10   A 3.37 3.36 -87.4 0 0 737.24 411.33   Q 733.51 408.40 731.04 405.22   Q 721.58 393.02 714.88 383.50   A 5.56 5.56 0.0 0 1 714.41 382.68   Q 711.79 376.97 708.12 373.09   A 6.82 6.75 -4.1 0 0 707.21 372.31   Q 704.15 370.18 703.45 369.10   Q 702.03 366.94 700.02 364.78   C 696.47 360.97 694.05 357.29 690.53 353.20   Q 686.58 348.61 684.31 342.01   Q 684.11 341.43 682.89 340.26   A 4.24 3.82 -87.0 0 1 682.29 339.52   Q 679.63 335.20 678.12 333.48   C 676.10 331.16 675.11 328.33 671.99 326.54   A 2.54 2.50 -2.3 0 1 671.22 325.84   Q 669.13 322.94 666.22 321.22"/>
<path stroke="#eed77f" vector-effect="non-scaling-stroke" d="   M 629.33 1019.74   C 625.88 1019.52 623.89 1016.95 620.38 1013.87   Q 619.24 1012.87 610.02 1008.51   A 7.33 6.20 70.3 0 1 609.09 1007.97   Q 603.52 1004.09 597.00 1003.87   Q 594.92 1003.80 583.51 1003.94   Q 579.18 1003.99 574.03 1007.19   A 3.83 3.74 -66.9 0 1 572.92 1007.65   Q 570.30 1008.25 569.76 1008.49   C 563.61 1011.30 557.46 1012.95 552.63 1018.05   Q 545.50 1025.56 540.35 1034.36   A 6.87 6.68 68.7 0 0 539.65 1036.02   L 536.42 1047.68   A 2.00 1.71 -40.5 0 0 536.36 1048.06   C 536.05 1051.34 535.41 1054.30 535.31 1057.78   Q 535.02 1068.48 534.65 1079.25"/>
<path stroke="#e5c979" vector-effect="non-scaling-stroke" d="   M 534.65 1079.25   Q 534.80 1087.89 535.06 1096.61   C 535.15 1099.59 534.80 1102.27 534.45 1105.16"/>
<path stroke="#eed77f" vector-effect="non-scaling-stroke" d="   M 534.45 1105.16   Q 533.84 1106.81 532.19 1107.14   Q 528.82 1107.81 526.34 1109.05   Q 523.19 1110.63 518.95 1110.88   A 2.59 2.39 -57.2 0 0 518.06 1111.11   Q 514.33 1112.82 510.06 1113.90   Q 505.83 1114.96 501.91 1116.26   Q 488.00 1120.89 472.47 1130.26   Q 461.81 1136.69 456.55 1146.79   A 2.41 2.28 69.9 0 0 456.37 1147.21   L 454.91 1152.06   A 1.27 1.20 54.7 0 0 454.86 1152.41   L 454.71 1166.73"/>
<path stroke="#e5c979" vector-effect="non-scaling-stroke" d="   M 454.71 1166.73   Q 454.66 1174.65 454.29 1182.60   Q 454.28 1182.90 454.14 1183.04   A 0.19 0.19 0.0 0 1 453.82 1182.89   Q 453.85 1182.25 453.64 1181.71"/>
<path stroke="#eed77f" vector-effect="non-scaling-stroke" d="   M 364.23 683.88   Q 366.61 683.19 368.91 684.70   Q 371.64 686.50 371.76 686.56   Q 375.77 688.59 380.51 691.03   Q 384.01 692.83 390.31 693.96   Q 400.33 695.76 408.86 692.63   Q 409.29 692.48 411.24 690.85   A 2.33 2.31 17.4 0 1 412.07 690.42   L 419.02 688.47   A 2.52 2.38 -67.2 0 0 419.61 688.21   Q 422.28 686.54 425.03 686.19"/>
<path stroke="#eed77f" vector-effect="non-scaling-stroke" d="   M 427.03 685.39   Q 440.99 676.93 447.67 661.97   A 2.65 2.59 59.9 0 0 447.91 661.02   Q 448.28 655.96 449.44 651.93   Q 451.13 646.07 451.44 643.97   Q 451.90 640.71 453.30 636.00   A 3.78 3.69 -37.2 0 0 453.46 634.92   Q 453.39 621.93 447.47 609.53   A 4.41 4.20 -81.5 0 0 446.67 608.39   Q 442.41 604.04 437.77 598.15   Q 433.75 593.03 430.79 590.81   Q 421.50 583.81 409.69 580.89   Q 404.43 579.59 396.72 580.21   Q 383.67 581.26 381.89 581.62   Q 374.60 583.08 367.13 587.90   Q 360.07 592.46 356.90 595.52   Q 355.73 596.63 354.43 598.28   C 352.37 600.89 350.26 602.95 348.82 605.68   Q 342.69 617.33 341.30 624.62   Q 339.87 632.16 339.94 647.93"/>
<path stroke="#a59789" vector-effect="non-scaling-stroke" d="   M 684.37 351.07   Q 685.47 350.57 684.95 349.43"/>
<path stroke="#eed77f" vector-effect="non-scaling-stroke" d="   M 1034.72 478.15   Q 1029.60 479.90 1025.31 483.96   Q 1021.65 487.42 1020.11 488.33   Q 1019.10 488.93 1014.49 492.73   Q 1014.07 493.08 1013.88 493.86   A 1.59 1.56 75.5 0 1 1013.41 494.67   Q 1005.27 502.12 1004.48 502.73   Q 989.78 514.10 981.47 521.06   C 975.82 525.78 970.58 529.25 964.83 533.96   Q 959.30 538.50 953.60 542.97   Q 918.20 570.71 892.63 590.89   Q 891.62 591.69 891.49 593.17"/>
<path stroke="#eed77f" vector-effect="non-scaling-stroke" d="   M 733.74 510.56   Q 736.61 503.60 736.37 495.70   A 9.04 8.48 -43.2 0 1 736.47 494.14   Q 738.11 483.46 740.82 471.31   C 741.79 466.99 743.66 462.51 745.43 457.42   C 746.54 454.20 746.94 451.37 748.05 448.53   Q 749.47 444.90 750.23 441.96   Q 751.29 437.85 752.32 433.42"/>
<path stroke="#efbb17" vector-effect="non-scaling-stroke" d="   M 646.67 1091.30   L 646.79 1103.28"/>
<path stroke="#e5c979" vector-effect="non-scaling-stroke" d="   M 646.79 1103.28   L 646.24 1155.09   A 0.39 0.39 0.0 0 1 645.85 1155.48   L 535.74 1155.48   A 1.14 1.14 0.0 0 1 534.60 1154.36   L 534.16 1128.07"/>
<path stroke="#efbb17" vector-effect="non-scaling-stroke" d="   M 534.16 1128.07   Q 535.48 1116.59 534.45 1105.16"/>
<path stroke="#efbb17" vector-effect="non-scaling-stroke" d="   M 880.77 1236.83   Q 893.00 1228.69 897.23 1216.88   A 3.91 3.74 -34.3 0 0 897.43 1215.94   C 898.63 1201.38 898.42 1186.71 897.89 1172.17   Q 897.83 1170.39 898.12 1168.83   Q 898.41 1167.21 897.80 1165.51   A 0.29 0.28 -35.4 0 0 897.31 1165.43   C 887.40 1177.65 873.47 1186.10 858.99 1191.47   C 837.89 1199.29 816.02 1205.46 792.85 1209.42   Q 768.12 1213.66 744.74 1215.69   Q 729.14 1217.04 707.26 1217.96   Q 656.63 1220.10 605.25 1215.27   Q 577.65 1212.68 553.98 1207.94   C 543.05 1205.76 534.36 1204.29 525.36 1201.67   Q 507.13 1196.37 490.33 1189.62   C 481.92 1186.24 473.40 1181.32 466.79 1176.24   Q 461.03 1171.81 455.76 1165.24   A 0.32 0.32 0.0 0 0 455.21 1165.33   L 454.71 1166.73"/>
<path stroke="#eed77f" vector-effect="non-scaling-stroke" d="   M 534.16 1128.07   L 533.83 1122.75   A 0.42 0.42 0.0 0 0 533.27 1122.38   Q 520.40 1127.27 509.24 1134.22   Q 501.13 1139.28 495.93 1147.93   A 3.42 3.28 67.8 0 0 495.51 1148.99   Q 494.01 1156.35 497.09 1163.06   Q 498.82 1166.83 504.79 1171.36   Q 509.50 1174.93 514.29 1177.89   Q 516.85 1179.47 519.10 1179.81   A 2.22 2.13 66.2 0 1 520.02 1180.19   Q 522.98 1182.32 529.46 1184.77   Q 539.28 1188.48 547.13 1190.64   Q 575.26 1198.39 602.64 1201.79   Q 662.14 1209.17 724.50 1204.49   Q 734.21 1203.76 741.35 1203.10   Q 743.12 1202.94 744.56 1202.60   Q 745.79 1202.30 747.80 1202.35   Q 748.77 1202.38 752.65 1201.82   Q 760.21 1200.72 768.37 1199.57   C 773.62 1198.84 779.03 1197.53 784.81 1196.29   C 786.08 1196.02 787.38 1196.25 788.68 1195.52   A 2.07 1.90 -63.4 0 1 789.18 1195.33   Q 807.26 1191.55 821.49 1186.07   Q 823.57 1185.27 832.79 1181.17   A 3.80 2.52 -67.0 0 0 833.64 1180.61   Q 834.25 1180.07 835.43 1180.01   A 1.23 1.23 0.0 0 0 836.25 1179.65   Q 837.72 1178.18 839.27 1178.12   A 1.99 1.81 -56.4 0 0 839.95 1177.95   Q 841.27 1177.35 842.14 1176.42   Q 842.71 1175.80 844.24 1175.06   Q 850.57 1171.95 854.93 1165.80   Q 856.03 1164.26 856.93 1161.75   Q 857.36 1160.57 858.49 1157.38   A 3.96 3.74 -34.6 0 0 858.70 1156.40   Q 859.20 1150.45 855.71 1145.04   Q 852.80 1140.52 849.37 1138.09   Q 849.01 1137.83 842.52 1133.50   Q 838.59 1130.89 835.37 1129.33   Q 827.68 1125.61 826.38 1125.13   Q 819.96 1122.77 811.22 1119.39   Q 804.63 1116.84 793.83 1114.54   Q 782.82 1112.20 761.28 1108.24   C 754.23 1106.95 747.10 1105.90 741.00 1105.46   Q 728.72 1104.57 692.42 1102.57   C 679.29 1101.85 667.22 1102.67 653.74 1103.25   Q 652.89 1103.29 650.27 1103.16   Q 648.48 1103.07 646.79 1103.28"/>
<path stroke="#efbb17" vector-effect="non-scaling-stroke" d="   M 645.79 1078.55   Q 645.52 1078.09 645.29 1077.95   A 0.47 0.46 -55.6 0 0 644.66 1078.07   C 642.95 1080.42 642.17 1083.09 640.64 1085.86   Q 637.78 1091.04 633.06 1097.06   C 629.76 1101.27 625.39 1104.23 620.77 1107.49   C 613.53 1112.61 604.13 1115.10 595.75 1115.28   Q 583.44 1115.55 578.70 1114.70   Q 566.14 1112.44 555.11 1103.77   C 547.13 1097.49 540.77 1085.98 536.10 1077.06   A 0.46 0.46 0.0 0 0 535.23 1077.30   Q 535.31 1078.47 534.65 1079.25"/>
<path stroke="#a59789" vector-effect="non-scaling-stroke" d="   M 819.0560 1149.6650   A 0.94 0.94 0.0 0 0 818.1128 1148.7283   L 771.2931 1148.8918   A 0.94 0.94 0.0 0 0 770.3563 1149.8350   L 770.4040 1163.4750   A 0.94 0.94 0.0 0 0 771.3472 1164.4117   L 818.1669 1164.2482   A 0.94 0.94 0.0 0 0 819.1037 1163.3050   L 819.0560 1149.6650"/>
</g>
<path xmlns="http://www.w3.org/2000/svg" fill="#e4e5e0" d="   M 804.62 217.04   Q 804.56 217.80 803.51 217.01   Q 802.95 216.59 802.51 216.00   Q 798.95 211.28 796.53 208.78   A 1.68 1.58 16.7 0 1 796.13 208.09   L 795.87 207.16   A 1.71 1.71 0.0 0 0 793.21 206.24   Q 783.47 213.39 772.07 222.50   Q 764.29 228.72 751.29 238.79   Q 732.00 253.73 727.27 257.78   C 716.13 267.31 702.80 276.63 690.95 286.57   Q 681.11 294.82 668.10 304.34   Q 663.49 307.72 659.80 312.58   C 647.54 295.23 639.70 274.34 640.83 252.97   Q 641.53 239.65 647.29 226.15   C 656.54 204.52 672.52 187.74 694.39 178.85   C 714.21 170.80 735.77 169.88 755.94 177.16   Q 766.92 181.13 775.25 186.50   C 781.45 190.50 786.69 195.72 792.69 202.09   C 796.90 206.55 800.68 211.98 804.62 217.04   Z"/>
<path xmlns="http://www.w3.org/2000/svg" fill="#e6ac11" d="   M 804.62 217.04   L 879.16 313.74   Q 880.83 319.41 885.56 323.68   Q 886.60 324.62 887.82 325.38   A 0.97 0.97 0.0 0 1 887.82 327.03   Q 879.85 331.96 873.23 337.45   C 860.74 347.82 847.23 357.98 824.20 375.96   Q 815.23 382.96 804.36 391.68   C 793.77 400.17 782.75 408.34 771.34 417.95   Q 769.09 419.84 761.70 425.53   Q 756.78 429.32 752.32 433.42   Q 752.50 428.02 748.12 424.27   A 3.00 2.82 3.5 0 1 747.66 423.78   L 741.19 415.03   A 0.73 0.67 -2.4 0 0 740.93 414.81   Q 739.14 413.97 737.94 412.10   A 3.37 3.36 -87.4 0 0 737.24 411.33   Q 733.51 408.40 731.04 405.22   Q 721.58 393.02 714.88 383.50   A 5.56 5.56 0.0 0 1 714.41 382.68   Q 711.79 376.97 708.12 373.09   A 6.82 6.75 -4.1 0 0 707.21 372.31   Q 704.15 370.18 703.45 369.10   Q 702.03 366.94 700.02 364.78   C 696.47 360.97 694.05 357.29 690.53 353.20   Q 686.58 348.61 684.31 342.01   Q 684.11 341.43 682.89 340.26   A 4.24 3.82 -87.0 0 1 682.29 339.52   Q 679.63 335.20 678.12 333.48   C 676.10 331.16 675.11 328.33 671.99 326.54   A 2.54 2.50 -2.3 0 1 671.22 325.84   Q 669.13 322.94 666.22 321.22   L 659.80 312.58   Q 663.49 307.72 668.10 304.34   Q 681.11 294.82 690.95 286.57   C 702.80 276.63 716.13 267.31 727.27 257.78   Q 732.00 253.73 751.29 238.79   Q 764.29 228.72 772.07 222.50   Q 783.47 213.39 793.21 206.24   A 1.71 1.71 0.0 0 1 795.87 207.16   L 796.13 208.09   A 1.68 1.58 16.7 0 0 796.53 208.78   Q 798.95 211.28 802.51 216.00   Q 802.95 216.59 803.51 217.01   Q 804.56 217.80 804.62 217.04   Z"/>
<path xmlns="http://www.w3.org/2000/svg" fill="#f8c91d" d="   M 879.16 313.74   Q 882.95 318.55 886.31 323.18   C 889.04 326.92 894.81 324.47 898.45 323.95   C 922.30 320.51 950.16 321.13 974.63 326.65   Q 985.63 329.13 999.36 333.92   Q 1059.47 354.86 1099.64 404.36   C 1103.49 409.09 1107.70 413.88 1108.55 419.23   A 1.45 1.45 0.0 0 1 1108.01 420.61   L 1034.72 478.15   Q 1029.60 479.90 1025.31 483.96   Q 1021.65 487.42 1020.11 488.33   Q 1019.10 488.93 1014.49 492.73   Q 1014.07 493.08 1013.88 493.86   A 1.59 1.56 75.5 0 1 1013.41 494.67   Q 1005.27 502.12 1004.48 502.73   Q 989.78 514.10 981.47 521.06   C 975.82 525.78 970.58 529.25 964.83 533.96   Q 959.30 538.50 953.60 542.97   Q 918.20 570.71 892.63 590.89   Q 891.62 591.69 891.49 593.17   Q 886.89 595.49 882.85 598.36   C 874.21 604.51 864.53 612.55 857.69 617.85   Q 823.86 644.01 811.27 654.29   Q 799.00 664.29 790.94 670.46   C 787.22 673.30 784.38 671.25 781.80 667.84   C 770.99 653.59 761.11 638.44 754.25 622.23   Q 738.65 585.37 734.60 550.63   Q 732.47 532.43 733.74 510.56   Q 736.61 503.60 736.37 495.70   A 9.04 8.48 -43.2 0 1 736.47 494.14   Q 738.11 483.46 740.82 471.31   C 741.79 466.99 743.66 462.51 745.43 457.42   C 746.54 454.20 746.94 451.37 748.05 448.53   Q 749.47 444.90 750.23 441.96   Q 751.29 437.85 752.32 433.42   Q 756.78 429.32 761.70 425.53   Q 769.09 419.84 771.34 417.95   C 782.75 408.34 793.77 400.17 804.36 391.68   Q 815.23 382.96 824.20 375.96   C 847.23 357.98 860.74 347.82 873.23 337.45   Q 879.85 331.96 887.82 327.03   A 0.97 0.97 0.0 0 0 887.82 325.38   Q 886.60 324.62 885.56 323.68   Q 880.83 319.41 879.16 313.74   Z"/>
<path xmlns="http://www.w3.org/2000/svg" fill="#e4e5e0" d="   M 752.32 433.42   Q 751.29 437.85 750.23 441.96   Q 749.47 444.90 748.05 448.53   C 746.94 451.37 746.54 454.20 745.43 457.42   C 743.66 462.51 741.79 466.99 740.82 471.31   Q 738.11 483.46 736.47 494.14   A 9.04 8.48 -43.2 0 0 736.37 495.70   Q 736.61 503.60 733.74 510.56   Q 735.38 485.03 741.20 464.74   Q 745.47 449.82 750.50 435.96   Q 751.75 432.51 750.82 430.55   Q 750.38 429.61 747.65 426.01   Q 741.02 417.24 733.94 409.49   A 1.35 1.35 0.0 0 0 731.97 409.47   Q 730.14 411.41 727.77 413.27   C 718.97 420.20 709.77 426.98 701.35 433.89   Q 698.91 435.89 674.19 455.95   Q 646.91 478.09 646.05 478.56   Q 645.04 479.11 634.44 488.26   Q 627.74 494.04 622.77 497.89   C 615.58 503.46 608.48 509.92 601.52 515.47   Q 569.47 541.03 549.17 557.97   Q 541.22 564.60 523.11 579.26   Q 506.30 592.88 497.16 600.65   Q 491.97 605.07 486.59 609.61   Q 474.79 619.58 462.74 629.49   Q 460.02 631.72 456.46 634.19   C 455.17 635.09 454.29 637.39 454.03 639.02   Q 452.33 649.94 449.21 658.97   Q 448.92 659.84 449.19 663.08   Q 449.33 664.71 450.68 666.85   Q 454.04 672.15 455.15 674.87   Q 461.04 689.32 468.77 705.00   C 470.36 708.21 472.09 713.20 474.06 717.09   Q 478.88 726.56 481.51 732.81   C 485.06 741.27 489.86 750.51 492.88 757.47   C 496.20 765.14 500.07 772.81 503.49 780.65   Q 506.30 787.08 509.41 793.62   C 514.33 803.97 516.16 808.44 520.75 818.47   Q 529.91 838.46 538.96 857.79   Q 546.54 873.98 558.67 900.57   C 562.80 909.63 570.05 924.49 574.22 934.94   C 575.42 937.96 577.44 941.09 578.76 943.98   Q 581.95 950.94 594.38 978.49   C 598.26 987.07 602.63 994.71 604.96 1002.89   A 3.94 3.91 5.1 0 0 607.04 1005.36   Q 610.37 1006.95 615.89 1009.61   Q 621.79 1012.44 629.33 1019.74   C 625.88 1019.52 623.89 1016.95 620.38 1013.87   Q 619.24 1012.87 610.02 1008.51   A 7.33 6.20 70.3 0 1 609.09 1007.97   Q 603.52 1004.09 597.00 1003.87   Q 594.92 1003.80 583.51 1003.94   Q 579.18 1003.99 574.03 1007.19   A 3.83 3.74 -66.9 0 1 572.92 1007.65   Q 570.30 1008.25 569.76 1008.49   C 563.61 1011.30 557.46 1012.95 552.63 1018.05   Q 545.50 1025.56 540.35 1034.36   A 6.87 6.68 68.7 0 0 539.65 1036.02   L 536.42 1047.68   A 2.00 1.71 -40.5 0 0 536.36 1048.06   C 536.05 1051.34 535.41 1054.30 535.31 1057.78   Q 535.02 1068.48 534.65 1079.25   Q 534.80 1087.89 535.06 1096.61   C 535.15 1099.59 534.80 1102.27 534.45 1105.16   Q 533.84 1106.81 532.19 1107.14   Q 528.82 1107.81 526.34 1109.05   Q 523.19 1110.63 518.95 1110.88   A 2.59 2.39 -57.2 0 0 518.06 1111.11   Q 514.33 1112.82 510.06 1113.90   Q 505.83 1114.96 501.91 1116.26   Q 488.00 1120.89 472.47 1130.26   Q 461.81 1136.69 456.55 1146.79   A 2.41 2.28 69.9 0 0 456.37 1147.21   L 454.91 1152.06   A 1.27 1.20 54.7 0 0 454.86 1152.41   L 454.71 1166.73   Q 454.66 1174.65 454.29 1182.60   Q 454.28 1182.90 454.14 1183.04   A 0.19 0.19 0.0 0 1 453.82 1182.89   Q 453.85 1182.25 453.64 1181.71   Q 453.46 1169.23 453.43 1156.75   C 453.40 1144.22 461.54 1135.81 472.37 1129.13   Q 488.79 1119.01 502.58 1114.62   Q 517.10 1109.99 531.69 1105.93   A 2.40 2.37 2.1 0 0 533.29 1104.46   Q 534.11 1102.26 534.08 1100.00   Q 533.99 1091.82 533.78 1057.25   C 533.73 1049.46 537.09 1039.86 537.76 1034.22   A 4.23 4.20 36.0 0 0 537.39 1031.94   Q 514.43 983.26 502.51 957.62   Q 494.99 941.42 475.53 898.91   Q 468.81 884.24 455.43 854.69   Q 444.31 830.13 435.01 810.63   Q 421.59 782.47 412.09 761.01   C 404.68 744.28 396.44 727.91 389.04 711.20   Q 385.42 703.04 381.38 694.71   A 4.77 4.73 -88.3 0 0 379.49 692.69   L 364.23 683.88   Q 366.61 683.19 368.91 684.70   Q 371.64 686.50 371.76 686.56   Q 375.77 688.59 380.51 691.03   Q 384.01 692.83 390.31 693.96   Q 400.33 695.76 408.86 692.63   Q 409.29 692.48 411.24 690.85   A 2.33 2.31 17.4 0 1 412.07 690.42   L 419.02 688.47   A 2.52 2.38 -67.2 0 0 419.61 688.21   Q 422.28 686.54 425.03 686.19   Q 418.89 690.45 411.75 692.61   A 0.51 0.51 0.0 0 0 411.45 693.35   C 412.89 695.99 413.09 698.50 414.58 701.52   Q 424.88 722.31 435.03 745.19   Q 439.15 754.48 440.86 758.00   Q 445.66 767.91 446.83 770.76   Q 448.80 775.58 454.35 787.19   C 458.74 796.36 462.50 805.42 467.35 814.97   Q 469.52 819.26 472.68 826.39   Q 478.15 838.76 485.23 853.80   Q 500.47 886.15 511.76 912.02   Q 512.87 914.58 514.11 917.29   Q 518.56 927.04 523.24 936.84   Q 525.76 942.12 527.41 945.95   Q 529.39 950.53 531.64 955.03   Q 531.68 955.10 540.42 973.69   Q 544.36 982.07 550.42 996.07   Q 553.21 1002.52 553.70 1003.44   C 554.83 1005.57 555.80 1008.15 556.18 1010.68   A 0.64 0.64 0.0 0 0 556.89 1011.22   Q 561.42 1010.66 567.68 1006.94   Q 568.97 1006.17 574.08 1004.71   A 0.71 0.71 0.0 0 0 574.60 1004.01   Q 574.50 999.36 573.87 998.14   Q 572.43 995.33 570.52 991.06   Q 556.59 960.07 542.27 929.16   C 536.55 916.80 530.84 906.00 525.79 894.09   Q 521.80 884.66 513.80 867.64   Q 499.36 836.86 489.19 814.44   C 485.41 806.09 481.29 797.95 478.29 790.97   C 471.57 775.32 462.98 758.62 456.79 744.45   Q 450.67 730.47 446.87 722.74   C 444.05 716.99 439.89 707.20 434.71 696.78   Q 433.07 693.48 431.21 688.31   Q 430.29 685.75 427.03 685.39   Q 440.99 676.93 447.67 661.97   A 2.65 2.59 59.9 0 0 447.91 661.02   Q 448.28 655.96 449.44 651.93   Q 451.13 646.07 451.44 643.97   Q 451.90 640.71 453.30 636.00   A 3.78 3.69 -37.2 0 0 453.46 634.92   Q 453.39 621.93 447.47 609.53   A 4.41 4.20 -81.5 0 0 446.67 608.39   Q 442.41 604.04 437.77 598.15   Q 433.75 593.03 430.79 590.81   Q 421.50 583.81 409.69 580.89   Q 404.43 579.59 396.72 580.21   Q 383.67 581.26 381.89 581.62   Q 374.60 583.08 367.13 587.90   Q 360.07 592.46 356.90 595.52   Q 355.73 596.63 354.43 598.28   C 352.37 600.89 350.26 602.95 348.82 605.68   Q 342.69 617.33 341.30 624.62   Q 339.87 632.16 339.94 647.93   Q 336.93 633.79 340.57 621.59   Q 341.94 616.99 346.39 607.87   C 354.80 590.65 375.13 579.43 393.74 578.77   Q 397.96 578.62 403.94 578.15   C 406.84 577.93 409.43 576.67 411.73 574.67   Q 427.00 561.36 447.53 545.19   Q 453.51 540.47 462.24 533.07   C 468.55 527.72 476.29 521.96 482.05 517.09   Q 495.28 505.89 502.87 499.94   Q 513.92 491.27 521.05 484.95   C 528.79 478.08 537.05 472.31 545.37 465.05   C 557.02 454.89 571.11 444.32 583.82 433.55   C 592.42 426.26 600.78 419.91 609.45 412.52   Q 618.61 404.70 628.26 397.27   C 639.31 388.76 646.85 381.74 657.85 372.90   Q 668.85 364.06 679.04 355.04   Q 680.99 353.31 684.37 351.07   Q 685.47 350.57 684.95 349.43   Q 686.04 347.61 685.26 346.30   Q 680.17 337.69 673.57 330.17   Q 669.87 325.95 666.22 321.22   Q 669.13 322.94 671.22 325.84   A 2.54 2.50 -2.3 0 0 671.99 326.54   C 675.11 328.33 676.10 331.16 678.12 333.48   Q 679.63 335.20 682.29 339.52   A 4.24 3.82 -87.0 0 0 682.89 340.26   Q 684.11 341.43 684.31 342.01   Q 686.58 348.61 690.53 353.20   C 694.05 357.29 696.47 360.97 700.02 364.78   Q 702.03 366.94 703.45 369.10   Q 704.15 370.18 707.21 372.31   A 6.82 6.75 -4.1 0 1 708.12 373.09   Q 711.79 376.97 714.41 382.68   A 5.56 5.56 0.0 0 0 714.88 383.50   Q 721.58 393.02 731.04 405.22   Q 733.51 408.40 737.24 411.33   A 3.37 3.36 -87.4 0 1 737.94 412.10   Q 739.14 413.97 740.93 414.81   A 0.73 0.67 -2.4 0 1 741.19 415.03   L 747.66 423.78   A 3.00 2.82 3.5 0 0 748.12 424.27   Q 752.50 428.02 752.32 433.42   Z   M 447.64 607.94   A 0.52 0.51 -53.4 0 0 448.51 607.81   Q 449.81 604.72 452.30 602.55   Q 462.80 593.36 473.14 585.35   Q 483.21 577.55 494.19 568.40   Q 506.58 558.07 539.55 531.51   Q 546.98 525.52 548.75 524.07   C 555.08 518.88 562.03 512.25 568.45 507.47   Q 574.66 502.83 579.35 498.76   Q 590.60 488.97 603.33 479.20   Q 609.34 474.58 614.24 470.35   C 623.59 462.26 632.65 455.55 641.38 448.04   Q 652.83 438.18 664.02 429.62   C 669.57 425.38 676.71 419.73 680.60 415.73   Q 681.32 414.99 693.37 405.77   Q 701.81 399.32 711.11 390.59   Q 712.97 388.84 713.93 387.43   A 1.85 1.83 54.2 0 0 714.17 385.89   C 712.62 380.38 708.49 376.03 704.91 372.19   A 1.32 1.31 49.8 0 0 703.16 372.04   C 701.23 373.50 698.55 374.89 695.96 377.10   C 690.51 381.77 687.43 384.78 683.13 388.07   Q 669.47 398.51 655.43 410.62   C 646.86 418.01 638.65 423.56 629.04 431.74   C 619.53 439.83 607.96 448.36 598.30 456.90   C 587.51 466.43 578.08 473.19 567.28 482.55   C 557.21 491.28 547.36 498.43 536.03 507.95   C 522.13 519.62 512.05 527.11 499.63 537.87   Q 494.51 542.31 484.04 550.16   C 479.26 553.74 473.79 559.03 470.22 561.96   Q 451.34 577.39 437.73 588.23   Q 436.07 589.56 433.99 590.32   A 0.61 0.61 0.0 0 0 433.73 591.28   L 447.64 607.94   Z"/>
<path xmlns="http://www.w3.org/2000/svg" fill="#654932" d="   M 684.95 349.43   Q 685.47 350.57 684.37 351.07   Q 684.47 350.12 684.95 349.43   Z"/>
<path xmlns="http://www.w3.org/2000/svg" fill="#e4e5e0" d="   M 1034.72 478.15   L 1015.88 493.34   A 2.17 2.15 67.6 0 0 1015.09 495.26   L 1015.54 499.32   A 0.95 0.86 -65.3 0 0 1015.65 499.67   C 1032.84 532.12 1025.62 570.31 999.39 595.58   Q 995.30 599.51 983.58 606.51   Q 974.31 612.05 960.76 615.25   Q 947.51 618.38 935.01 615.96   Q 924.20 613.87 920.54 612.21   Q 913.66 609.10 909.11 607.09   Q 898.14 602.25 891.49 593.17   Q 891.62 591.69 892.63 590.89   Q 918.20 570.71 953.60 542.97   Q 959.30 538.50 964.83 533.96   C 970.58 529.25 975.82 525.78 981.47 521.06   Q 989.78 514.10 1004.48 502.73   Q 1005.27 502.12 1013.41 494.67   A 1.59 1.56 75.5 0 0 1013.88 493.86   Q 1014.07 493.08 1014.49 492.73   Q 1019.10 488.93 1020.11 488.33   Q 1021.65 487.42 1025.31 483.96   Q 1029.60 479.90 1034.72 478.15   Z"/>
<path xmlns="http://www.w3.org/2000/svg" fill="#f8c91d" d="   M 427.03 685.39   L 425.03 686.19   Q 422.28 686.54 419.61 688.21   A 2.52 2.38 -67.2 0 1 419.02 688.47   L 412.07 690.42   A 2.33 2.31 17.4 0 0 411.24 690.85   Q 409.29 692.48 408.86 692.63   Q 400.33 695.76 390.31 693.96   Q 384.01 692.83 380.51 691.03   Q 375.77 688.59 371.76 686.56   Q 371.64 686.50 368.91 684.70   Q 366.61 683.19 364.23 683.88   Q 354.96 678.23 348.55 668.20   Q 342.33 658.46 339.94 647.93   Q 339.87 632.16 341.30 624.62   Q 342.69 617.33 348.82 605.68   C 350.26 602.95 352.37 600.89 354.43 598.28   Q 355.73 596.63 356.90 595.52   Q 360.07 592.46 367.13 587.90   Q 374.60 583.08 381.89 581.62   Q 383.67 581.26 396.72 580.21   Q 404.43 579.59 409.69 580.89   Q 421.50 583.81 430.79 590.81   Q 433.75 593.03 437.77 598.15   Q 442.41 604.04 446.67 608.39   A 4.41 4.20 -81.5 0 1 447.47 609.53   Q 453.39 621.93 453.46 634.92   A 3.78 3.69 -37.2 0 1 453.30 636.00   Q 451.90 640.71 451.44 643.97   Q 451.13 646.07 449.44 651.93   Q 448.28 655.96 447.91 661.02   A 2.65 2.59 59.9 0 1 447.67 661.97   Q 440.99 676.93 427.03 685.39   Z"/>
<path xmlns="http://www.w3.org/2000/svg" fill="#f8c91d" d="   M 629.33 1019.74   Q 645.93 1036.96 645.79 1061.75   Q 645.74 1070.14 645.79 1078.55   Q 645.52 1078.09 645.29 1077.95   A 0.47 0.46 -55.6 0 0 644.66 1078.07   C 642.95 1080.42 642.17 1083.09 640.64 1085.86   Q 637.78 1091.04 633.06 1097.06   C 629.76 1101.27 625.39 1104.23 620.77 1107.49   C 613.53 1112.61 604.13 1115.10 595.75 1115.28   Q 583.44 1115.55 578.70 1114.70   Q 566.14 1112.44 555.11 1103.77   C 547.13 1097.49 540.77 1085.98 536.10 1077.06   A 0.46 0.46 0.0 0 0 535.23 1077.30   Q 535.31 1078.47 534.65 1079.25   Q 535.02 1068.48 535.31 1057.78   C 535.41 1054.30 536.05 1051.34 536.36 1048.06   A 2.00 1.71 -40.5 0 1 536.42 1047.68   L 539.65 1036.02   A 6.87 6.68 68.7 0 1 540.35 1034.36   Q 545.50 1025.56 552.63 1018.05   C 557.46 1012.95 563.61 1011.30 569.76 1008.49   Q 570.30 1008.25 572.92 1007.65   A 3.83 3.74 -66.9 0 0 574.03 1007.19   Q 579.18 1003.99 583.51 1003.94   Q 594.92 1003.80 597.00 1003.87   Q 603.52 1004.09 609.09 1007.97   A 7.33 6.20 70.3 0 0 610.02 1008.51   Q 619.24 1012.87 620.38 1013.87   C 623.89 1016.95 625.88 1019.52 629.33 1019.74   Z"/>
<path xmlns="http://www.w3.org/2000/svg" fill="#e6ac11" d="   M 645.79 1078.55   L 646.67 1091.30   L 646.79 1103.28   L 646.24 1155.09   A 0.39 0.39 0.0 0 1 645.85 1155.48   L 535.74 1155.48   A 1.14 1.14 0.0 0 1 534.60 1154.36   L 534.16 1128.07   Q 535.48 1116.59 534.45 1105.16   C 534.80 1102.27 535.15 1099.59 535.06 1096.61   Q 534.80 1087.89 534.65 1079.25   Q 535.31 1078.47 535.23 1077.30   A 0.46 0.46 0.0 0 1 536.10 1077.06   C 540.77 1085.98 547.13 1097.49 555.11 1103.77   Q 566.14 1112.44 578.70 1114.70   Q 583.44 1115.55 595.75 1115.28   C 604.13 1115.10 613.53 1112.61 620.77 1107.49   C 625.39 1104.23 629.76 1101.27 633.06 1097.06   Q 637.78 1091.04 640.64 1085.86   C 642.17 1083.09 642.95 1080.42 644.66 1078.07   A 0.47 0.46 -55.6 0 1 645.29 1077.95   Q 645.52 1078.09 645.79 1078.55   Z"/>
<path xmlns="http://www.w3.org/2000/svg" fill="#f8c91d" d="   M 880.77 1236.83   Q 893.00 1228.69 897.23 1216.88   A 3.91 3.74 -34.3 0 0 897.43 1215.94   C 898.63 1201.38 898.42 1186.71 897.89 1172.17   Q 897.83 1170.39 898.12 1168.83   Q 898.41 1167.21 897.80 1165.51   A 0.29 0.28 -35.4 0 0 897.31 1165.43   C 887.40 1177.65 873.47 1186.10 858.99 1191.47   C 837.89 1199.29 816.02 1205.46 792.85 1209.42   Q 768.12 1213.66 744.74 1215.69   Q 729.14 1217.04 707.26 1217.96   Q 656.63 1220.10 605.25 1215.27   Q 577.65 1212.68 553.98 1207.94   C 543.05 1205.76 534.36 1204.29 525.36 1201.67   Q 507.13 1196.37 490.33 1189.62   C 481.92 1186.24 473.40 1181.32 466.79 1176.24   Q 461.03 1171.81 455.76 1165.24   A 0.32 0.32 0.0 0 0 455.21 1165.33   L 454.71 1166.73   L 454.86 1152.41   A 1.27 1.20 54.7 0 1 454.91 1152.06   L 456.37 1147.21   A 2.41 2.28 69.9 0 1 456.55 1146.79   Q 461.81 1136.69 472.47 1130.26   Q 488.00 1120.89 501.91 1116.26   Q 505.83 1114.96 510.06 1113.90   Q 514.33 1112.82 518.06 1111.11   A 2.59 2.39 -57.2 0 1 518.95 1110.88   Q 523.19 1110.63 526.34 1109.05   Q 528.82 1107.81 532.19 1107.14   Q 533.84 1106.81 534.45 1105.16   Q 535.48 1116.59 534.16 1128.07   L 533.83 1122.75   A 0.42 0.42 0.0 0 0 533.27 1122.38   Q 520.40 1127.27 509.24 1134.22   Q 501.13 1139.28 495.93 1147.93   A 3.42 3.28 67.8 0 0 495.51 1148.99   Q 494.01 1156.35 497.09 1163.06   Q 498.82 1166.83 504.79 1171.36   Q 509.50 1174.93 514.29 1177.89   Q 516.85 1179.47 519.10 1179.81   A 2.22 2.13 66.2 0 1 520.02 1180.19   Q 522.98 1182.32 529.46 1184.77   Q 539.28 1188.48 547.13 1190.64   Q 575.26 1198.39 602.64 1201.79   Q 662.14 1209.17 724.50 1204.49   Q 734.21 1203.76 741.35 1203.10   Q 743.12 1202.94 744.56 1202.60   Q 745.79 1202.30 747.80 1202.35   Q 748.77 1202.38 752.65 1201.82   Q 760.21 1200.72 768.37 1199.57   C 773.62 1198.84 779.03 1197.53 784.81 1196.29   C 786.08 1196.02 787.38 1196.25 788.68 1195.52   A 2.07 1.90 -63.4 0 1 789.18 1195.33   Q 807.26 1191.55 821.49 1186.07   Q 823.57 1185.27 832.79 1181.17   A 3.80 2.52 -67.0 0 0 833.64 1180.61   Q 834.25 1180.07 835.43 1180.01   A 1.23 1.23 0.0 0 0 836.25 1179.65   Q 837.72 1178.18 839.27 1178.12   A 1.99 1.81 -56.4 0 0 839.95 1177.95   Q 841.27 1177.35 842.14 1176.42   Q 842.71 1175.80 844.24 1175.06   Q 850.57 1171.95 854.93 1165.80   Q 856.03 1164.26 856.93 1161.75   Q 857.36 1160.57 858.49 1157.38   A 3.96 3.74 -34.6 0 0 858.70 1156.40   Q 859.20 1150.45 855.71 1145.04   Q 852.80 1140.52 849.37 1138.09   Q 849.01 1137.83 842.52 1133.50   Q 838.59 1130.89 835.37 1129.33   Q 827.68 1125.61 826.38 1125.13   Q 819.96 1122.77 811.22 1119.39   Q 804.63 1116.84 793.83 1114.54   Q 782.82 1112.20 761.28 1108.24   C 754.23 1106.95 747.10 1105.90 741.00 1105.46   Q 728.72 1104.57 692.42 1102.57   C 679.29 1101.85 667.22 1102.67 653.74 1103.25   Q 652.89 1103.29 650.27 1103.16   Q 648.48 1103.07 646.79 1103.28   L 646.67 1091.30   Q 680.55 1089.71 720.50 1091.51   Q 775.03 1093.96 827.11 1107.40   Q 838.79 1110.42 853.22 1115.80   Q 868.64 1121.55 883.46 1131.37   Q 891.43 1136.65 895.76 1143.57   C 899.50 1149.54 899.20 1156.58 899.22 1165.05   Q 899.29 1201.15 898.92 1212.74   Q 898.75 1217.94 895.50 1223.30   Q 890.25 1231.96 880.77 1236.83   Z"/>
<path xmlns="http://www.w3.org/2000/svg" fill="#e4e5e0" d="   M 534.16 1128.07   L 534.60 1154.36   A 1.14 1.14 0.0 0 0 535.74 1155.48   L 645.85 1155.48   A 0.39 0.39 0.0 0 0 646.24 1155.09   L 646.79 1103.28   Q 648.48 1103.07 650.27 1103.16   Q 652.89 1103.29 653.74 1103.25   C 667.22 1102.67 679.29 1101.85 692.42 1102.57   Q 728.72 1104.57 741.00 1105.46   C 747.10 1105.90 754.23 1106.95 761.28 1108.24   Q 782.82 1112.20 793.83 1114.54   Q 804.63 1116.84 811.22 1119.39   Q 819.96 1122.77 826.38 1125.13   Q 827.68 1125.61 835.37 1129.33   Q 838.59 1130.89 842.52 1133.50   Q 849.01 1137.83 849.37 1138.09   Q 852.80 1140.52 855.71 1145.04   Q 859.20 1150.45 858.70 1156.40   A 3.96 3.74 -34.6 0 1 858.49 1157.38   Q 857.36 1160.57 856.93 1161.75   Q 856.03 1164.26 854.93 1165.80   Q 850.57 1171.95 844.24 1175.06   Q 842.71 1175.80 842.14 1176.42   Q 841.27 1177.35 839.95 1177.95   A 1.99 1.81 -56.4 0 1 839.27 1178.12   Q 837.72 1178.18 836.25 1179.65   A 1.23 1.23 0.0 0 1 835.43 1180.01   Q 834.25 1180.07 833.64 1180.61   A 3.80 2.52 -67.0 0 1 832.79 1181.17   Q 823.57 1185.27 821.49 1186.07   Q 807.26 1191.55 789.18 1195.33   A 2.07 1.90 -63.4 0 0 788.68 1195.52   C 787.38 1196.25 786.08 1196.02 784.81 1196.29   C 779.03 1197.53 773.62 1198.84 768.37 1199.57   Q 760.21 1200.72 752.65 1201.82   Q 748.77 1202.38 747.80 1202.35   Q 745.79 1202.30 744.56 1202.60   Q 743.12 1202.94 741.35 1203.10   Q 734.21 1203.76 724.50 1204.49   Q 662.14 1209.17 602.64 1201.79   Q 575.26 1198.39 547.13 1190.64   Q 539.28 1188.48 529.46 1184.77   Q 522.98 1182.32 520.02 1180.19   A 2.22 2.13 66.2 0 0 519.10 1179.81   Q 516.85 1179.47 514.29 1177.89   Q 509.50 1174.93 504.79 1171.36   Q 498.82 1166.83 497.09 1163.06   Q 494.01 1156.35 495.51 1148.99   A 3.42 3.28 67.8 0 1 495.93 1147.93   Q 501.13 1139.28 509.24 1134.22   Q 520.40 1127.27 533.27 1122.38   A 0.42 0.42 0.0 0 1 533.83 1122.75   L 534.16 1128.07   Z   M 819.0560 1149.6650   A 0.94 0.94 0.0 0 0 818.1128 1148.7283   L 771.2931 1148.8918   A 0.94 0.94 0.0 0 0 770.3563 1149.8350   L 770.4040 1163.4750   A 0.94 0.94 0.0 0 0 771.3472 1164.4117   L 818.1669 1164.2482   A 0.94 0.94 0.0 0 0 819.1037 1163.3050   L 819.0560 1149.6650   Z"/>
<rect xmlns="http://www.w3.org/2000/svg" fill="#654932" x="-24.35" y="-7.76" transform="translate(794.73,1156.57) rotate(-0.2)" width="48.70" height="15.52" rx="0.94"/>
<path xmlns="http://www.w3.org/2000/svg" fill="#e6ac11" d="   M 880.77 1236.83   Q 871.81 1243.16 862.32 1247.08   C 846.51 1253.61 828.43 1259.31 810.35 1262.70   Q 783.15 1267.81 780.74 1268.21   Q 761.08 1271.52 737.50 1273.02   C 704.14 1275.13 680.01 1276.60 648.84 1275.03   C 617.51 1273.44 592.54 1272.26 561.15 1265.82   Q 551.34 1263.81 536.76 1261.22   Q 520.12 1258.26 497.13 1249.67   C 487.86 1246.20 479.85 1241.72 471.16 1236.60   C 461.63 1230.98 454.07 1222.21 453.84 1210.36   Q 453.56 1196.04 453.64 1181.71   Q 453.85 1182.25 453.82 1182.89   A 0.19 0.19 0.0 0 0 454.14 1183.04   Q 454.28 1182.90 454.29 1182.60   Q 454.66 1174.65 454.71 1166.73   L 455.21 1165.33   A 0.32 0.32 0.0 0 1 455.76 1165.24   Q 461.03 1171.81 466.79 1176.24   C 473.40 1181.32 481.92 1186.24 490.33 1189.62   Q 507.13 1196.37 525.36 1201.67   C 534.36 1204.29 543.05 1205.76 553.98 1207.94   Q 577.65 1212.68 605.25 1215.27   Q 656.63 1220.10 707.26 1217.96   Q 729.14 1217.04 744.74 1215.69   Q 768.12 1213.66 792.85 1209.42   C 816.02 1205.46 837.89 1199.29 858.99 1191.47   C 873.47 1186.10 887.40 1177.65 897.31 1165.43   A 0.29 0.28 -35.4 0 1 897.80 1165.51   Q 898.41 1167.21 898.12 1168.83   Q 897.83 1170.39 897.89 1172.17   C 898.42 1186.71 898.63 1201.38 897.43 1215.94   A 3.91 3.74 -34.3 0 1 897.23 1216.88   Q 893.00 1228.69 880.77 1236.83   Z"/>
</g></g></g></svg>