<svg xmlns="http://www.w3.org/2000/svg" direction="ltr" width="2922.4240552018673" height="3912.9178996507835" viewBox="15421.041046108825 12029.464705921411 2922.4240552018673 3912.9178996507835" stroke-linecap="round" stroke-linejoin="round" data-color-mode="light" class="tl-container tl-theme__force-sRGB tl-theme__light" style="background-color: transparent;"><defs/><g transform="matrix(1, 0, 0, 1, 15421.041, 12029.4647)" opacity="1"><g transform="scale(2.336070387851214, 2.3360703878512137)"><g>
<g xmlns="http://www.w3.org/2000/svg" stroke-width="2.00" fill="none" stroke-linecap="butt">
<path stroke="#e0e2e4" vector-effect="non-scaling-stroke" d="   M 139.77 350.89   L 1127.46 351.07   A 1.13 1.12 90.0 0 0 1128.58 349.94   L 1128.25 135.96"/>
<path stroke="#cacbcd" vector-effect="non-scaling-stroke" d="   M 1128.25 135.96   L 1128.24 119.24   A 0.49 0.48 -90.0 0 0 1127.76 118.75   L 122.78 118.75   A 0.32 0.32 0.0 0 0 122.46 119.07   L 122.46 350.10   A 0.59 0.59 0.0 0 0 123.05 350.69   L 139.77 350.89"/>
<path stroke="#acafb2" vector-effect="non-scaling-stroke" d="   M 1128.25 135.96   L 140.49 135.95   A 0.95 0.95 0.0 0 0 139.54 136.90   L 139.77 350.89"/>
<path stroke="#e0e2e4" vector-effect="non-scaling-stroke" d="   M 139.85 652.14   L 1127.65 652.14   A 0.72 0.71 0.0 0 0 1128.37 651.43   L 1128.32 437.25"/>
<path stroke="#cacbcd" vector-effect="non-scaling-stroke" d="   M 1128.32 437.25   L 1128.33 420.60   A 0.41 0.40 0.0 0 0 1127.92 420.20   L 122.82 420.20   A 0.34 0.34 0.0 0 0 122.48 420.54   L 122.48 651.08   A 0.97 0.97 0.0 0 0 123.44 652.05   L 139.85 652.14"/>
<path stroke="#acafb2" vector-effect="non-scaling-stroke" d="   M 1128.32 437.25   L 140.45 436.94   A 0.70 0.69 -90.0 0 0 139.76 437.64   C 139.87 458.41 139.16 478.70 139.40 497.79   Q 139.88 536.19 139.48 580.63   Q 139.33 597.55 139.53 616.39   Q 139.72 634.26 139.85 652.14"/>
<path stroke="#e0e2e4" vector-effect="non-scaling-stroke" d="   M 139.77 953.83   L 1127.90 953.71   A 0.42 0.42 0.0 0 0 1128.32 953.29   L 1128.12 738.66"/>
<path stroke="#cacbcd" vector-effect="non-scaling-stroke" d="   M 1128.12 738.66   L 1128.31 721.88   A 0.46 0.46 0.0 0 0 1127.85 721.42   L 123.11 721.42   A 0.65 0.65 0.0 0 0 122.46 722.07   L 122.46 953.21   A 0.53 0.52 90.0 0 0 122.98 953.74   L 139.77 953.83"/>
<path stroke="#acafb2" vector-effect="non-scaling-stroke" d="   M 1128.12 738.66   L 140.68 738.48   A 0.88 0.88 0.0 0 0 139.80 739.36   L 139.77 953.83"/>
<path stroke="#e0e2e4" vector-effect="non-scaling-stroke" d="   M 139.87 1255.19   L 1127.42 1255.35   A 0.95 0.95 0.0 0 0 1128.37 1254.40   L 1128.26 1040.30"/>
<path stroke="#cacbcd" vector-effect="non-scaling-stroke" d="   M 1128.26 1040.30   L 1128.26 1023.30   A 0.35 0.35 0.0 0 0 1127.91 1022.95   L 122.84 1022.95   A 0.39 0.38 -90.0 0 0 122.46 1023.34   L 122.46 1254.63   A 0.46 0.46 0.0 0 0 122.92 1255.09   L 139.87 1255.19"/>
<path stroke="#acafb2" vector-effect="non-scaling-stroke" d="   M 1128.26 1040.30   L 140.98 1040.11   A 1.32 1.31 -0.0 0 0 139.66 1041.42   L 139.87 1255.19"/>
<path stroke="#e0e2e4" vector-effect="non-scaling-stroke" d="   M 139.71 1556.67   L 1127.52 1556.71   A 0.85 0.84 0.0 0 0 1128.37 1555.87   L 1128.28 1342.12"/>
<path stroke="#cacbcd" vector-effect="non-scaling-stroke" d="   M 1128.28 1342.12   L 1128.29 1325.44   A 0.65 0.65 0.0 0 0 1127.64 1324.79   L 122.90 1324.79   A 0.45 0.44 0.0 0 0 122.45 1325.23   L 122.45 1556.06   A 0.60 0.60 0.0 0 0 123.05 1556.66   L 139.71 1556.67"/>
<path stroke="#acafb2" vector-effect="non-scaling-stroke" d="   M 1128.28 1342.12   L 140.42 1341.85   A 0.77 0.76 -1.4 0 0 139.65 1342.65   C 140.46 1359.09 139.32 1376.76 139.44 1394.80   Q 139.80 1448.25 139.53 1495.75   Q 139.44 1511.66 140.01 1555.96   A 0.74 0.69 61.4 0 1 139.92 1556.31   L 139.71 1556.67"/>
</g>
<path xmlns="http://www.w3.org/2000/svg" fill="#fefefe" d="   M 1251.00 0.00   L 1251.00 1675.00   L 0.00 1675.00   L 0.00 0.00   L 1251.00 0.00   Z   M 139.77 350.89   L 1127.46 351.07   A 1.13 1.12 90.0 0 0 1128.58 349.94   L 1128.25 135.96   L 1128.24 119.24   A 0.49 0.48 -90.0 0 0 1127.76 118.75   L 122.78 118.75   A 0.32 0.32 0.0 0 0 122.46 119.07   L 122.46 350.10   A 0.59 0.59 0.0 0 0 123.05 350.69   L 139.77 350.89   Z   M 139.85 652.14   L 1127.65 652.14   A 0.72 0.71 0.0 0 0 1128.37 651.43   L 1128.32 437.25   L 1128.33 420.60   A 0.41 0.40 0.0 0 0 1127.92 420.20   L 122.82 420.20   A 0.34 0.34 0.0 0 0 122.48 420.54   L 122.48 651.08   A 0.97 0.97 0.0 0 0 123.44 652.05   L 139.85 652.14   Z   M 139.77 953.83   L 1127.90 953.71   A 0.42 0.42 0.0 0 0 1128.32 953.29   L 1128.12 738.66   L 1128.31 721.88   A 0.46 0.46 0.0 0 0 1127.85 721.42   L 123.11 721.42   A 0.65 0.65 0.0 0 0 122.46 722.07   L 122.46 953.21   A 0.53 0.52 90.0 0 0 122.98 953.74   L 139.77 953.83   Z   M 139.87 1255.19   L 1127.42 1255.35   A 0.95 0.95 0.0 0 0 1128.37 1254.40   L 1128.26 1040.30   L 1128.26 1023.30   A 0.35 0.35 0.0 0 0 1127.91 1022.95   L 122.84 1022.95   A 0.39 0.38 -90.0 0 0 122.46 1023.34   L 122.46 1254.63   A 0.46 0.46 0.0 0 0 122.92 1255.09   L 139.87 1255.19   Z   M 139.71 1556.67   L 1127.52 1556.71   A 0.85 0.84 0.0 0 0 1128.37 1555.87   L 1128.28 1342.12   L 1128.29 1325.44   A 0.65 0.65 0.0 0 0 1127.64 1324.79   L 122.90 1324.79   A 0.45 0.44 0.0 0 0 122.45 1325.23   L 122.45 1556.06   A 0.60 0.60 0.0 0 0 123.05 1556.66   L 139.71 1556.67   Z"/>
<path xmlns="http://www.w3.org/2000/svg" fill="#96989b" d="   M 1128.25 135.96   L 140.49 135.95   A 0.95 0.95 0.0 0 0 139.54 136.90   L 139.77 350.89   L 123.05 350.69   A 0.59 0.59 0.0 0 1 122.46 350.10   L 122.46 119.07   A 0.32 0.32 0.0 0 1 122.78 118.75   L 1127.76 118.75   A 0.49 0.48 -90.0 0 1 1128.24 119.24   L 1128.25 135.96   Z"/>
<path xmlns="http://www.w3.org/2000/svg" fill="#c2c5c9" d="   M 1128.25 135.96   L 1128.58 349.94   A 1.13 1.12 -90.0 0 1 1127.46 351.07   L 139.77 350.89   L 139.54 136.90   A 0.95 0.95 0.0 0 1 140.49 135.95   L 1128.25 135.96   Z"/>
<path xmlns="http://www.w3.org/2000/svg" fill="#96989b" d="   M 1128.32 437.25   L 140.45 436.94   A 0.70 0.69 -90.0 0 0 139.76 437.64   C 139.87 458.41 139.16 478.70 139.40 497.79   Q 139.88 536.19 139.48 580.63   Q 139.33 597.55 139.53 616.39   Q 139.72 634.26 139.85 652.14   L 123.44 652.05   A 0.97 0.97 0.0 0 1 122.48 651.08   L 122.48 420.54   A 0.34 0.34 0.0 0 1 122.82 420.20   L 1127.92 420.20   A 0.41 0.40 0.0 0 1 1128.33 420.60   L 1128.32 437.25   Z"/>
<path xmlns="http://www.w3.org/2000/svg" fill="#c2c5c9" d="   M 1128.32 437.25   L 1128.37 651.43   A 0.72 0.71 0.0 0 1 1127.65 652.14   L 139.85 652.14   Q 139.72 634.26 139.53 616.39   Q 139.33 597.55 139.48 580.63   Q 139.88 536.19 139.40 497.79   C 139.16 478.70 139.87 458.41 139.76 437.64   A 0.70 0.69 90.0 0 1 140.45 436.94   L 1128.32 437.25   Z"/>
<path xmlns="http://www.w3.org/2000/svg" fill="#96989b" d="   M 1128.12 738.66   L 140.68 738.48   A 0.88 0.88 0.0 0 0 139.80 739.36   L 139.77 953.83   L 122.98 953.74   A 0.53 0.52 90.0 0 1 122.46 953.21   L 122.46 722.07   A 0.65 0.65 0.0 0 1 123.11 721.42   L 1127.85 721.42   A 0.46 0.46 0.0 0 1 1128.31 721.88   L 1128.12 738.66   Z"/>
<path xmlns="http://www.w3.org/2000/svg" fill="#c2c5c9" d="   M 1128.12 738.66   L 1128.32 953.29   A 0.42 0.42 0.0 0 1 1127.90 953.71   L 139.77 953.83   L 139.80 739.36   A 0.88 0.88 0.0 0 1 140.68 738.48   L 1128.12 738.66   Z"/>
<path xmlns="http://www.w3.org/2000/svg" fill="#96989b" d="   M 1128.26 1040.30   L 140.98 1040.11   A 1.32 1.31 -0.0 0 0 139.66 1041.42   L 139.87 1255.19   L 122.92 1255.09   A 0.46 0.46 0.0 0 1 122.46 1254.63   L 122.46 1023.34   A 0.39 0.38 90.0 0 1 122.84 1022.95   L 1127.91 1022.95   A 0.35 0.35 0.0 0 1 1128.26 1023.30   L 1128.26 1040.30   Z"/>
<path xmlns="http://www.w3.org/2000/svg" fill="#c2c5c9" d="   M 1128.26 1040.30   L 1128.37 1254.40   A 0.95 0.95 0.0 0 1 1127.42 1255.35   L 139.87 1255.19   L 139.66 1041.42   A 1.32 1.31 0.0 0 1 140.98 1040.11   L 1128.26 1040.30   Z"/>
<path xmlns="http://www.w3.org/2000/svg" fill="#96989b" d="   M 1128.28 1342.12   L 140.42 1341.85   A 0.77 0.76 -1.4 0 0 139.65 1342.65   C 140.46 1359.09 139.32 1376.76 139.44 1394.80   Q 139.80 1448.25 139.53 1495.75   Q 139.44 1511.66 140.01 1555.96   A 0.74 0.69 61.4 0 1 139.92 1556.31   L 139.71 1556.67   L 123.05 1556.66   A 0.60 0.60 0.0 0 1 122.45 1556.06   L 122.45 1325.23   A 0.45 0.44 0.0 0 1 122.90 1324.79   L 1127.64 1324.79   A 0.65 0.65 0.0 0 1 1128.29 1325.44   L 1128.28 1342.12   Z"/>
<path xmlns="http://www.w3.org/2000/svg" fill="#c2c5c9" d="   M 1128.28 1342.12   L 1128.37 1555.87   A 0.85 0.84 -0.0 0 1 1127.52 1556.71   L 139.71 1556.67   L 139.92 1556.31   A 0.74 0.69 61.4 0 0 140.01 1555.96   Q 139.44 1511.66 139.53 1495.75   Q 139.80 1448.25 139.44 1394.80   C 139.32 1376.76 140.46 1359.09 139.65 1342.65   A 0.77 0.76 -1.4 0 1 140.42 1341.85   L 1128.28 1342.12   Z"/>
</g></g></g></svg>